<?xml version="1.0" encoding="UTF-8"?>
<svg viewBox="0 0 64 64" xmlns="http://www.w3.org/2000/svg">
 <defs>
  <filter id="a">
   <feGaussianBlur stdDeviation=".97728"/>
  </filter>
 </defs>
 <g filter="url(#a)" opacity=".42222">
  <path d="m40.403 25.294a10.695 10.695 0 1 1 -21.39 0 10.695 10.695 0 1 1 21.39 0z"/>
  <path transform="translate(-1.1883 -2.5464)" d="m36.159 27.586a5.008 5.008 0 1 1 -10.016 0 5.008 5.008 0 1 1 10.016 0z" fill="#f9f9f9"/>
  <path d="m28.18 11.204h3.9045v4.244h-3.9045z"/>
  <path transform="scale(1,-1)" d="m28.18-39.045h3.9045v4.244h-3.9045z"/>
  <path transform="rotate(90)" d="m23.767-20.032h3.9045v4.244h-3.9045z"/>
  <path transform="rotate(90)" d="m23.767-44.032h3.9045v4.244h-3.9045z"/>
  <path transform="matrix(-.67467,.73812,-.73812,-.67467,0,0)" d="m-3.5256-28.628h3.9045v4.244h-3.9045z"/>
  <path transform="matrix(-.67467,.73812,-.73812,-.67467,0,0)" d="m-3.7299-53.51h3.9045v4.244h-3.9045z"/>
  <path transform="matrix(-.73812,-.67467,.67467,-.73812,0,0)" d="m-42.106 11.696h3.9045v4.244h-3.9045z"/>
  <path transform="matrix(-.73812,-.67467,.67467,-.73812,0,0)" d="m-40.266-13.215h3.9045v4.244h-3.9045z"/>
  <path transform="matrix(.61125 .075195 -.075195 .61125 25.577 26.107)" d="m40.403 25.294a10.695 10.695 0 1 1 -21.39 0 10.695 10.695 0 1 1 21.39 0z"/>
  <path transform="matrix(.61125 .075195 -.075195 .61125 25.042 24.461)" d="m36.159 27.586a5.008 5.008 0 1 1 -10.016 0 5.008 5.008 0 1 1 10.016 0z" fill="#f9f9f9"/>
  <path transform="rotate(7.0132)" d="m45.929 29.689h2.4046v2.6137h-2.4046z"/>
  <path transform="matrix(.99252,.1221,.1221,-.99252,0,0)" d="m45.929-46.835h2.4046v2.6137h-2.4046z"/>
  <path transform="matrix(-.1221,.99252,-.99252,-.1221,0,0)" d="m37.426-40.91h2.4046v2.6137h-2.4046z"/>
  <path transform="matrix(-.1221,.99252,-.99252,-.1221,0,0)" d="m37.426-55.691h2.4046v2.6137h-2.4046z"/>
  <path transform="matrix(-.75975,.65022,-.65022,-.75975,0,0)" d="m-4.6282-54.096h2.4046v2.6137h-2.4046z"/>
  <path transform="matrix(-.75975,.65022,-.65022,-.75975,0,0)" d="m-4.754-69.42h2.4046v2.6137h-2.4046z"/>
  <path transform="matrix(-.65022,-.75975,.75975,-.65022,0,0)" d="m-62.396 9.6597h2.4046v2.6137h-2.4046z"/>
  <path transform="matrix(-.65022,-.75975,.75975,-.65022,0,0)" d="m-61.264-5.6817h2.4046v2.6137h-2.4046z"/>
  <path transform="matrix(.7133 .32561 -.32561 .7133 7.0491 18.799)" d="m40.403 25.294a10.695 10.695 0 1 1 -21.39 0 10.695 10.695 0 1 1 21.39 0z"/>
  <path transform="matrix(.7133 .32561 -.32561 .7133 7.0306 16.596)" d="m36.159 27.586a5.008 5.008 0 1 1 -10.016 0 5.008 5.008 0 1 1 10.016 0z" fill="#f9f9f9"/>
  <path transform="rotate(24.536)" d="m36.174 22.651h3.0615v3.3278h-3.0615z"/>
  <path transform="matrix(.9097,.41526,.41526,-.9097,0,0)" d="m35.923-45.155h3.0615v3.3278h-3.0615z"/>
  <path transform="matrix(-.41526,.9097,-.9097,-.41526,0,0)" d="m32.81-29.926h3.0615v3.3278h-3.0615z"/>
  <path transform="matrix(-.41526,.9097,-.9097,-.41526,0,0)" d="m32.81-48.745h3.0615v3.3278h-3.0615z"/>
  <path transform="matrix(-.92026,.3913,-.3913,-.92026,0,0)" d="m-1.9852-42.728h3.0615v3.3278h-3.0615z"/>
  <path transform="matrix(-.92026,.3913,-.3913,-.92026,0,0)" d="m-1.7432-61.883h3.0615v3.3278h-3.0615z"/>
  <path transform="matrix(-.3913,-.92026,.92026,-.3913,0,0)" d="m-53.073 8.3016h3.0615v3.3278h-3.0615z"/>
  <path transform="matrix(-.3913,-.92026,.92026,-.3913,0,0)" d="m-52.545-11.251h3.0615v3.3278h-3.0615z"/>
 </g>
 <g transform="translate(1.1883 .16976)">
  <path d="m40.403 25.294c0 5.9067-4.7883 10.695-10.695 10.695s-10.695-4.7883-10.695-10.695 4.7883-10.695 10.695-10.695 10.695 4.7883 10.695 10.695z"/>
  <path transform="translate(-1.1883 -2.5464)" d="m36.159 27.586c0 2.7658-2.2421 5.008-5.008 5.008s-5.008-2.2421-5.008-5.008 2.2421-5.008 5.008-5.008 5.008 2.2421 5.008 5.008z" fill="#f9f9f9"/>
  <path d="m28.18 11.204h3.9045v4.244h-3.9045z"/>
  <path transform="scale(1,-1)" d="m28.18-39.045h3.9045v4.244h-3.9045z"/>
  <path transform="rotate(90)" d="m23.767-20.032h3.9045v4.244h-3.9045z"/>
  <path transform="rotate(90)" d="m23.767-44.032h3.9045v4.244h-3.9045z"/>
  <path transform="matrix(-.67467,.73812,-.73812,-.67467,0,0)" d="m-3.5256-28.628h3.9045v4.244h-3.9045z"/>
  <path transform="matrix(-.67467,.73812,-.73812,-.67467,0,0)" d="m-3.7299-53.51h3.9045v4.244h-3.9045z"/>
  <path transform="matrix(-.73812,-.67467,.67467,-.73812,0,0)" d="m-42.106 11.696h3.9045v4.244h-3.9045z"/>
  <path transform="matrix(-.73812,-.67467,.67467,-.73812,0,0)" d="m-40.266-13.215h3.9045v4.244h-3.9045z"/>
  <path transform="matrix(.61125 .075195 -.075195 .61125 25.577 26.107)" d="m40.403 25.294c0 5.9067-4.7883 10.695-10.695 10.695s-10.695-4.7883-10.695-10.695 4.7883-10.695 10.695-10.695 10.695 4.7883 10.695 10.695z"/>
  <path transform="matrix(.61125 .075195 -.075195 .61125 25.042 24.461)" d="m36.159 27.586c0 2.7658-2.2421 5.008-5.008 5.008s-5.008-2.2421-5.008-5.008 2.2421-5.008 5.008-5.008 5.008 2.2421 5.008 5.008z" fill="#f9f9f9"/>
  <path transform="rotate(7.0132)" d="m45.929 29.689h2.4046v2.6137h-2.4046z"/>
  <path transform="matrix(.99252,.1221,.1221,-.99252,0,0)" d="m45.929-46.835h2.4046v2.6137h-2.4046z"/>
  <path transform="matrix(-.1221,.99252,-.99252,-.1221,0,0)" d="m37.426-40.91h2.4046v2.6137h-2.4046z"/>
  <path transform="matrix(-.1221,.99252,-.99252,-.1221,0,0)" d="m37.426-55.691h2.4046v2.6137h-2.4046z"/>
  <path transform="matrix(-.75975,.65022,-.65022,-.75975,0,0)" d="m-4.6282-54.096h2.4046v2.6137h-2.4046z"/>
  <path transform="matrix(-.75975,.65022,-.65022,-.75975,0,0)" d="m-4.754-69.42h2.4046v2.6137h-2.4046z"/>
  <path transform="matrix(-.65022,-.75975,.75975,-.65022,0,0)" d="m-62.396 9.6597h2.4046v2.6137h-2.4046z"/>
  <path transform="matrix(-.65022,-.75975,.75975,-.65022,0,0)" d="m-61.264-5.6817h2.4046v2.6137h-2.4046z"/>
  <path transform="matrix(.7133 .32561 -.32561 .7133 7.0491 18.799)" d="m40.403 25.294c0 5.9067-4.7883 10.695-10.695 10.695s-10.695-4.7883-10.695-10.695 4.7883-10.695 10.695-10.695 10.695 4.7883 10.695 10.695z"/>
  <path transform="matrix(.7133 .32561 -.32561 .7133 7.0306 16.596)" d="m36.159 27.586c0 2.7658-2.2421 5.008-5.008 5.008s-5.008-2.2421-5.008-5.008 2.2421-5.008 5.008-5.008 5.008 2.2421 5.008 5.008z" fill="#f9f9f9"/>
  <path transform="rotate(24.536)" d="m36.174 22.651h3.0615v3.3278h-3.0615z"/>
  <path transform="matrix(.9097,.41526,.41526,-.9097,0,0)" d="m35.923-45.155h3.0615v3.3278h-3.0615z"/>
  <path transform="matrix(-.41526,.9097,-.9097,-.41526,0,0)" d="m32.81-29.926h3.0615v3.3278h-3.0615z"/>
  <path transform="matrix(-.41526,.9097,-.9097,-.41526,0,0)" d="m32.81-48.745h3.0615v3.3278h-3.0615z"/>
  <path transform="matrix(-.92026,.3913,-.3913,-.92026,0,0)" d="m-1.9852-42.728h3.0615v3.3278h-3.0615z"/>
  <path transform="matrix(-.92026,.3913,-.3913,-.92026,0,0)" d="m-1.7432-61.883h3.0615v3.3278h-3.0615z"/>
  <path transform="matrix(-.3913,-.92026,.92026,-.3913,0,0)" d="m-53.073 8.3016h3.0615v3.3278h-3.0615z"/>
  <path transform="matrix(-.3913,-.92026,.92026,-.3913,0,0)" d="m-52.545-11.251h3.0615v3.3278h-3.0615z"/>
 </g>
</svg>
