<?xml version="1.0" encoding="utf-8"?>
<!DOCTYPE svg PUBLIC "-//W3C//DTD SVG 1.1//EN" "http://www.w3.org/Graphics/SVG/1.1/DTD/svg11.dtd">
<svg version="1.1" id="Layer_1" x="0px" y="0px" width="1000px" height="1000px" viewBox="0 0 1000 1000" enable-background="new 0 0 1000 1000" xml:space="preserve" xmlns="http://www.w3.org/2000/svg" xmlns:xlink="http://www.w3.org/1999/xlink" xmlns:aaa="http://www.w3.org/XML/1998/namespace">
  <g id="vs-highlight">
    <path fill="#5DBFD9" d="M233.9,364.6C276,319.8,373,254.4,480.1,313.2s108,133.4,108,133.4l-53.5-61.4l-50.9,24.6l0.9,72l-20.2,8.8&#xA;&#x9;&#x9;c0,0,20.2-115.9-46.5-145.7C321.8,301.9,233.9,364.6,233.9,364.6z"/>
    <path fill="#5DBFD9" d="M376.6,492.3c0,0-40.4,34.2-39.5,51.8s47.4,50,49.2,57.1c1.8,7-4.4,46.5-4.4,46.5l19.3-11.4l10.5-42.1&#xA;&#x9;&#x9;l-51.8-59.7L376.6,492.3z"/>
    <path fill="#5DBFD9" d="M341.5,676.6c-4.4,4.4-12.3,8.8-12.3,22.8s1.8,43,20.2,45.6c18.4,2.6,68.5,7,72,9.7s14,7.9,13.2,14&#xA;&#x9;&#x9;c-0.9,6.1-19.3,63.2-14,74.6s63.2,34.2,68.5,38.6c5.3,4.4,12.3-25.5,12.3-25.5l-46.5-23.7l2.6-75.5l-23.7-32.5h-69.3L341.5,676.6z"/>
    <path fill="#5DBFD9" d="M501.2,597.6c12.3-9.7,72-30.7,112.4,2.6s22.8,95.7,22.8,95.7s69.3-56.2,21.9-125.5S546.9,545,546.9,545&#xA;&#x9;&#x9;l-38.6,27.2L501.2,597.6z"/>
    <polygon fill="#5DBFD9" points="725.9,432.6 741.7,476.5 710.1,490.5 717.2,424.7 &#x9;"/>
  </g>
  <g id="vs-outline">
    <polyline fill="none" stroke="#000000" stroke-width="17.5562" stroke-linecap="round" stroke-linejoin="round" stroke-miterlimit="10" points="&#xA;&#x9;&#x9;724.2,425.8 755.6,426.6 762.7,470.5 715.1,487.9 &#x9;"/>
    <path fill="none" stroke="#000000" stroke-width="17.5562" stroke-linecap="round" stroke-linejoin="round" stroke-miterlimit="10" d="&#xA;&#x9;&#x9;M172.2,201.7l37.7-23.3l55,59.7l39.2-14.7l2.2-81.1l43.8-7.2l27.9,76.2c0,0,31.4,3.9,38.9-3.4c5-4.8,36-69.3,36-69.3l43.2,10.2&#xA;&#x9;&#x9;l3.3,86.3l31.4,12.1l58.9-55.8l36.1,25.9l-34.1,73.6l28.6,30.6l75.8-29c0,0,27.2,27.3,23.3,37.7c-1.4,4-59.7,55-59.7,55l5.8,15.5"/>
    <path fill="none" stroke="#000000" stroke-width="17.5562" stroke-linecap="round" stroke-linejoin="round" stroke-miterlimit="10" d="&#xA;&#x9;&#x9;M720,421.6l-9.3,72.6c0,0,13.5,28.9,26.4,30.9c1.8,0.3,73.1,1.9,73.1,1.9l8.8,49.7l-52.7,44.8l-1.1,39.9l50.4,53l-23.3,46&#xA;&#x9;&#x9;l-72.6-9.3l-30.9,26.4l-1.9,73.1l-49.1,16L593,808.7l-40.6-3.2l-53,50.4l-46-23.3l1.2-70.8L436.5,729l-73.1-1.9l-16-49.1l57.9-44.7&#xA;&#x9;&#x9;l3.2-40.6l-50.4-53l23.3-46L454,503l30.9-26.4l1.9-73.1l49.1-16l39.9,55.6c0,0,40.7,10.3,45.1,5.5c25.1-27.5,53-50.4,53-50.4&#xA;&#x9;&#x9;L720,421.6z"/>
    <path fill="none" stroke="#000000" stroke-width="17.5562" stroke-linecap="round" stroke-linejoin="round" stroke-miterlimit="10" d="&#xA;&#x9;&#x9;M675.9,625.6c-1.3,49.9-41.3,90.1-91.2,89.6s-90.1-41.3-89.6-91.2s30.7-89.6,91.2-89.6C636.2,534.4,677.7,558.1,675.9,625.6z"/>
    <path fill="none" stroke="#000000" stroke-width="10.5338" stroke-linecap="round" stroke-linejoin="round" stroke-miterlimit="10" d="&#xA;&#x9;&#x9;M231.7,364.4c37.8-46.3,95.3-75.8,159.8-75.8c97.1,0,195.8,93.9,200.4,157.3"/>
  </g>
  <g id="vs-reveal">
    <path fill="none" stroke="#000000" stroke-width="63.2025" stroke-linecap="round" stroke-linejoin="round" stroke-miterlimit="10" stroke-opacity="0" d="&#xA;&#x9;&#x9;M643.4,660.8c0,0,43-99.2-91.3-94.8c-97.4,3.2-73.7,295.8-73.7,295.8l-32.5-0.9l-15.8-117.6L352,713.5l38.6-113.2l-31.6-79&#xA;&#x9;&#x9;l372.2-63.2c0,0-168.5,68.5-177.3-42.1S352,289.6,248.4,352.8c0,0,225.6-12.3,232.6,32.5s-5.3,83.4-5.3,83.4"/>
  </g>
</svg>
