<?xml version="1.0" encoding="UTF-8"?>
<svg viewBox="0 0 400 400" xmlns="http://www.w3.org/2000/svg" xmlns:xlink="http://www.w3.org/1999/xlink">
 <defs>
  <filter id="o">
   <feGaussianBlur stdDeviation=".96495"/>
  </filter>
  <filter id="n">
   <feGaussianBlur stdDeviation=".43591"/>
  </filter>
  <filter id="m">
   <feGaussianBlur stdDeviation=".53574"/>
  </filter>
  <filter id="l">
   <feGaussianBlur stdDeviation="4.53023"/>
  </filter>
  <filter id="k">
   <feGaussianBlur stdDeviation="3.77839"/>
  </filter>
  <filter id="p" x="-.15613" y="-.15613" width="1.3123" height="1.3123">
   <feGaussianBlur stdDeviation="3.92658"/>
  </filter>
  <filter id="a" x="-.09888" y="-.15966" width="1.1978" height="1.3193">
   <feGaussianBlur stdDeviation="15.3683"/>
  </filter>
  <filter id="d" x="-1.347" y="-.0555" width="3.694" height="1.111">
   <feGaussianBlur stdDeviation="6.7702"/>
  </filter>
  <linearGradient id="b">
   <stop offset="0"/>
   <stop stop-color="#333" stop-opacity="0" offset="1"/>
  </linearGradient>
  <linearGradient id="j" x1="-120.28" x2="418.64" y1="361.27" y2="200.14" gradientUnits="userSpaceOnUse">
   <stop stop-color="#e6e6e6" offset="0"/>
   <stop stop-color="#b3b3b3" offset="1"/>
  </linearGradient>
  <linearGradient id="i" x1="177.14" x2="13.891" y1="809.51" y2="911.42" gradientUnits="userSpaceOnUse">
   <stop stop-color="#999" offset="0"/>
   <stop stop-color="#c4c4c4" stop-opacity="0" offset="1"/>
  </linearGradient>
  <linearGradient id="f" x1="226.17" x2="204.76" y1="462.34" y2="467.59" gradientUnits="userSpaceOnUse">
   <stop stop-color="#e6e6e6" offset="0"/>
   <stop stop-color="#e6e6e6" stop-opacity="0" offset="1"/>
  </linearGradient>
  <linearGradient id="c" x2="0" y1="1010.2" y2="736.36" gradientUnits="userSpaceOnUse">
   <stop stop-color="#ff0" offset="0"/>
   <stop stop-color="#ff0" stop-opacity="0" offset="1"/>
  </linearGradient>
  <linearGradient id="h" x1="-318.15" x2="-287.33" y1="794.14" y2="824.97" gradientUnits="userSpaceOnUse" xlink:href="#b"/>
  <linearGradient id="g" x1="-191.18" x2="-199.46" y1="795.52" y2="809.78" gradientUnits="userSpaceOnUse" xlink:href="#b"/>
  <radialGradient id="e" cx="247.1" cy="465.93" r="69.12" gradientTransform="matrix(-.03456 -.39349 1.7125 -.15043 -1032.5 985.38)" gradientUnits="userSpaceOnUse">
   <stop stop-color="#fff" offset="0"/>
   <stop stop-color="#ccc" offset="1"/>
  </radialGradient>
 </defs>
 <g transform="matrix(1.0026 0 0 1.0026 413.05 -580.09)">
  <path transform="matrix(.80446 0 0 .80446 -359.39 598.54)" d="m413.62 246.44c-43.598 53.334-206.18 123.25-233.31 142.25-15.652 4.8214-33.035 3.8186-46.586-1.9677-73.475-31.373-115.86-51.001-142.28-90.119-8.4682-12.541-45.947-30.137-44.442-47.164 6.1802-69.957 31.569-109.79 120.54-125.86 25.931-4.6834 62.907-13.856 99.27-17.889 175.76-19.495 246.81 61.083 246.81 140.75z" fill="url(#j)" filter="url(#k)"/>
  <path transform="matrix(.67688 0 0 .62802 -358.4 248.48)" d="m391.15 893.82c-34.849 42.631-164.8 98.519-186.49 113.7-12.511 3.854-26.405 3.0523-37.237-1.5728-58.73-25.077-92.613-40.766-113.73-72.034-6.7688-10.024-36.726-24.089-35.524-37.699 4.9399-55.918 25.234-87.759 96.348-100.6 20.727-3.7436 50.378-18.401 79.349-14.299 154.68 21.9 235.13 148.79 197.28 112.5z" fill="url(#i)" filter="url(#l)"/>
  <path transform="matrix(.32922 0 0 .04659 -300.9 812.9)" d="m391.15 893.82c-34.849 42.631-164.8 98.519-186.49 113.7-12.511 3.854-26.405 3.0523-37.237-1.5728-58.73-25.077-92.613-40.766-113.73-72.034-6.7688-10.024-36.726-24.089-35.524-37.699 4.9399-55.918 27.46-9.1154 98.574-21.959 20.727-3.7436 45.831 57.083 74.897 53.859 140.49-15.582 199.5-97.977 199.5-34.298z" fill="#b3b3b3" filter="url(#a)"/>
  <path d="m-257.69 779.91 28.229 1.489c6.5965-1.0858 10.08-4.1884 13.696-7.2044-1.2971 2.5894-2.0456 5.0731-6.2731 8.2265 3.9891-0.67654 6.3011-2.5602 8.3642-4.6231-1.4098 1.7918-1.5777 3.3133-5.5412 5.661l8.7824 0.42673c7.8696-1.2751 13.774-4.0291 19.447-6.9583-3.2706 4.3714-7.0164 6.5271-10.664 8.9312 12.537 4.4921 20.85 4.1006 29.17-0.67752-2.2517 2.0239-4.6154 4.0412-8.7824 5.951 7.8571 1.1377 16.642-2.53 25.302-5.5464-4.5765 3.8905-8.5953 8.0016-16.101 10.733 14.859 4.5116 22.047 2.0206 29.902 0.13916-3.4452 2.8087-6.9211 5.6015-12.546 7.2729 11.544 4.3347 17.526 2.2907 24.57 1.4642-3.7228 2.4255-7.0266 5.0873-13.696 5.8515 7.8651 2.7049 15.133 3.8111 21.329 2.0441-5.9393 4.6854-12.846 7.0775-21.015 6.4783 2.6128 3.1594 7.3228 4.613 14.951 3.6933-5.5513 1.4472-11.129 2.8622-20.492-0.4481l-1.5683 2.3224c6.0081 2.4637 8.0274 5.2164 10.246 7.9547-3.9462-3.3348-8.7473-4.9428-13.801-6.0406-1.9094 1.6495-2.7716 2.0624-3.973 2.7588 6.5411 2.709 8.8175 5.1639 11.605 7.6492-4.7397-2.8332-9.4794-4.9041-14.219-5.679l-3.7639 1.6117c4.979 3.019 7.6796 4.5832 11.187 9.267-5.0371-3.1313-10.039-6.2905-18.61-6.6171l-8.155 3.7659c3.2602 1.6728 6.3897 3.5796 9.096 6.2434-7.6322-4.3343-15.197-6.3916-24.361-3.481 5.0165 2.8211 8.713 6.631 11.501 11.122-5.7898-5.0534-11.918-8.4889-18.819-10.012 2.6268 1.9926 3.9468 3.9072 4.914 5.8009-5.553-4.5563-12.325-6.43-20.388-5.4668 2.9963 1.7859 5.2168 3.5865 6.3777 6.2746-7.2716-6.3341-19.57-7.8789-32.62-8.7082 1.5262-18.44 7.1941-21.389-13.278-61.67z" fill-rule="evenodd" stroke="#000" stroke-width=".2967"/>
  <path d="m-231.66 783.1c49.024 8.3992 64.41 21.283 77.285 34.502-21.962 20.6-49.757 23.701-76.365 30.362-35.547-1.5526-70.403-7.2534-103.51-23.462 32.832-32.207 67.308-42.226 102.59-41.403z" fill="url(#e)"/>
  <path d="m-231.66 783.1c49.024 8.3992 64.41 21.283 77.285 34.502-21.962 20.6-49.757 23.701-76.365 30.362-35.547-1.5526-70.403-7.2534-103.51-23.462 32.832-32.207 67.308-42.226 102.59-41.403z" fill="url(#h)"/>
  <path d="m-231.66 783.1c49.024 8.3992 64.41 21.283 77.285 34.502-21.962 20.6-49.757 23.701-76.365 30.362-35.547-1.5526-70.403-7.2534-103.51-23.462 32.832-32.207 67.308-42.226 102.59-41.403z" fill="url(#g)"/>
  <path d="m-333.03 826.72c0.17295-1.0087-0.43481-3.1747 1e-3 -4.0409 0.73149-1.3915 1.6645-1.5479 2.5795-2.757 1.2474-1.66 3.6698-2.9278 5.075-4.3828 1.7778-1.8341 3.7198-3.4018 5.6876-4.9092 4.8818-3.6595 9.871-7.0939 14.938-10.349 2.1321-1.3972 4.2883-2.7373 6.4614-4.0359 2.2748-1.424 4.1667-2.6375 6.5368-3.7992 2.6673-1.2846 5.4062-2.3297 8.1453-3.3577 2.8315-1.0561 5.6983-1.9608 8.5725-2.824 2.9282-0.87914 5.8853-1.596 8.8526-2.2448 3.2222-0.70484 6.466-1.2356 9.7138-1.7263 3.2849-0.48718 6.5766-0.90118 9.8704-1.2874 3.2539-0.38895 6.5164-0.65239 9.7806-0.87059 3.1735-0.21826 6.3528-0.28336 9.5308-0.30406 3.075-0.0435 6.1485 0.10422 9.2184 0.30588 2.966 0.186 5.9138 0.61751 8.8551 1.103 2.9164 0.47205 5.8031 1.1599 8.6803 1.9013 2.9189 0.74709 5.8091 1.6406 8.6798 2.6249 2.7864 0.94645 5.5257 2.0758 8.2492 3.2603 2.6522 1.1702 5.2415 2.5324 7.808 3.9558 2.5007 1.4269 4.9609 2.9545 7.4025 4.5259 2.3602 1.5303 4.7301 3.0384 7.0886 4.5728 2.1767 1.4328 4.3524 2.8682 6.4956 4.3748 2.0916 1.483 4.1425 3.0503 6.1711 4.6583 2.0076 1.5984 4.7987 4.2968 6.7853 5.9336 0.31728 0.26597-0.17868-0.51362 0.13859-0.24763-2.7202 4.1741-5.4404 4.3931-8.1606 6.3704-0.31513-0.26444-0.16555-0.52888-0.48068-0.79333-1.9769-1.639-4.417-3.2809-6.4209-4.8704-2.0212-1.5867-4.0597-3.1419-6.1425-4.6055-2.1397-1.4881-4.3026-2.925-6.4695-4.353-2.3548-1.5339-4.7174-3.0496-7.076-4.5746-2.4291-1.555-4.877-3.0671-7.3678-4.4701-2.5494-1.4008-5.1244-2.7322-7.7594-3.8766-2.7084-1.166-5.4352-2.2671-8.2047-3.1988-2.8588-0.96199-5.7374-1.8315-8.6421-2.5623-2.8648-0.71868-5.7407-1.3699-8.6421-1.8296-2.9248-0.46963-5.8587-0.85498-8.8066-1.0282-3.0566-0.18387-6.116-0.31312-9.177-0.25698-3.1676 0.0374-6.3359 0.11009-9.4984 0.3456-3.2543 0.22763-6.5065 0.507-9.7504 0.90314-3.289 0.39558-6.5762 0.8151-9.8558 1.3148-3.2414 0.50315-6.4775 1.0606-9.6911 1.7881-2.9591 0.67567-5.9078 1.42-8.8285 2.3146-2.8638 0.87786-5.7196 1.7997-8.5381 2.8776-2.7308 1.049-5.0003 2.1171-7.6495 3.4501-2.3635 1.1887-4.6936 2.4677-6.9727 3.8836-2.163 1.31-4.3063 2.6676-6.4367 4.055-1.1213 0.72763-2.2433 1.4539-3.3535 2.2067-0.37239 0.2525-1.4814 1.0277-1.1133 0.76586 13.469-9.5844 8.6421-6.13 6.0792-4.2944-1.9674 1.4576-3.914 2.9696-5.707 4.7386-1.4057 1.4026-1.2694 3.3199-2.5298 4.9188-0.89317 1.175-2.4026 2.665-3.1888 3.953-0.4345 0.74935-3.2972 0.47665-3.5881 1.3275-5.9925 0.8552-4.889 3.2675-7.3468 5.4204z"/>
  <path d="m-332.72 825.15c-0.95569 0.83482-0.38085 1.2335 0.076 1.7352 0.76281 0.80432 2.7597 1.3665 3.6938 2.0502 1.2738 0.93917 5.804-0.20068 7.2234 0.60557 1.7954 1.0159 3.7402 1.8614 5.7076 2.6689 4.8781 1.9546 9.8519 3.7669 14.895 5.4662 2.1229 0.73169 4.2669 1.4275 6.426 2.0972 2.2624 0.74022 4.5917 1.3486 6.9368 1.9245 2.6383 0.63438 5.3369 1.1195 8.0351 1.5943 2.789 0.48682 5.6066 0.87992 8.4297 1.2474 2.8762 0.37424 5.7743 0.64847 8.6797 0.88083 3.1551 0.25254 6.3244 0.39831 9.4962 0.5196 3.2077 0.1171 6.4192 0.18947 9.6316 0.24488 3.1738 0.0592 6.3514 0.0419 9.5287-4e-3 3.0893-0.0399 6.1786-0.17313 9.2648-0.33315 2.9872-0.14063 5.9655-0.39716 8.9384-0.68616 2.8726-0.27395 5.7182-0.69572 8.5555-1.1499 2.8137-0.44472 5.5903-1.0187 8.3556-1.6247 2.8056-0.61167 5.5779-1.3106 8.3277-2.0635 2.6694-0.72542 5.2863-1.5592 7.8857-2.4256 2.5307-0.85385 4.9931-1.8207 7.431-2.8235 2.3739-1.0013 4.7047-2.0615 7.0157-3.1473 2.2336-1.0564 4.4775-2.0999 6.7092-3.1587 2.0591-0.98729 4.1172-1.9761 6.141-3.0064 1.9746-1.0131 3.9065-2.0752 5.8152-3.1607 1.8887-1.0786 5.2567-4.6282 7.1236-5.7289 0.29799-0.17856-0.91432 2.0826-0.61635 1.904l-8.1639-3.4209-0.88785 0.53255c-1.8573 1.1015-3.7131 2.2047-5.5985 3.2777-1.9024 1.0722-3.8226 2.1262-5.7895 3.1271-2.0211 1.0188-4.0667 2.0079-6.1164 2.9917-2.2282 1.0583-4.4647 2.106-6.697 3.1591-2.2996 1.0751-4.619 2.1252-6.9842 3.1115-2.4222 0.98812-4.8718 1.9355-7.3868 2.7728-2.5855 0.85431-5.1912 1.6703-7.8448 2.3859-2.7391 0.73876-5.501 1.4225-8.2936 2.0235-2.7542 0.59153-5.5217 1.1427-8.3212 1.5791-2.8219 0.4437-5.6558 0.83677-8.5113 1.1019-2.9607 0.27757-5.9261 0.52208-8.9 0.65424-3.0767 0.14941-6.1556 0.27732-9.2349 0.30619-3.1682 0.0386-6.3362 0.0458-9.5006-0.0183-3.2082-0.0613-6.4155-0.13729-9.6185-0.26228-3.1661-0.1292-6.329-0.29158-9.4766-0.5583-2.8985-0.24915-5.7894-0.54048-8.6589-0.92453-2.8137-0.37696-5.6211-0.78104-8.3983-1.2818-2.691-0.48798-5.3814-0.98765-8.0038-1.6523-2.3396-0.59268-4.6502-1.2419-6.9165-1.977-2.1496-0.67714-4.2818-1.3842-6.4026-2.1101-1.1161-0.38046-2.2329-0.76008-3.3393-1.1564-0.37109-0.13294-1.4771-0.54294-1.1099-0.40409 13.439 5.0821 8.6223 3.2489 6.0645 2.2747-1.9653-0.77726-3.9123-1.5887-5.72-2.5643-1.4178-0.77443-2.8066-1.5809-4.0909-2.4823-0.91161-0.66425-1.8563-1.3062-2.6683-2.0448-0.45018-0.43092-0.89011-0.87676-1.2047-1.377-3.5514 0.70684-6.6598 1.0639-11.7-1.5041z"/>
  <path d="m-234.84 785.51c-3.3136 0.039-6.645 0.13645-9.9533 0.3828-3.4043 0.23813-6.8151 0.5214-10.208 0.93578-3.4405 0.41381-6.8628 0.8384-10.294 1.3611-3.3908 0.52636-6.7616 1.1106-10.123 1.8716-1.4475 0.3305-2.8978 0.69273-4.3386 1.0634-0.67528 2.9547-1.0634 6.0283-1.0634 9.1876 0 22.686 18.403 41.089 41.089 41.089s41.089-18.403 41.089-41.089c0-3.2503-0.39236-6.4103-1.1059-9.4428-2.4027-0.77389-4.7966-1.4718-7.231-2.0842-2.9968-0.75182-6.0249-1.4333-9.06-1.9141-3.0596-0.49128-6.1464-0.8822-9.2302-1.0634-3.1975-0.19235-6.3684-0.35647-9.5704-0.29773z" stroke="#000" stroke-width="1.3611"/>
  <path transform="matrix(1.3611 0 0 1.3611 -572.48 174.62)" d="m247.40625,452.46875-.34375.5625c1.23834-.11244 2.47782-.24181 3.71875-.375 .29006-.0315.58198-.0688.875-.0937-1.41166-.0724-2.83188-.11976-4.25-.0937zm5.125.15625c-.48886.2928-.98376.57598-1.46875.875-.72914.05-1.45807.0795-2.1875.125-.56375.0351-1.12338.065-1.6875.0937h-.0937-.4375c-.23596.39104-.47326.81662-.6875,1.1875 1.01056-.007 2.02033-.0301 3.03125-.0625-1.23289.83885-2.4503,1.70654-3.625,2.625-.19043.0299-.18218.0999-.34375-.0312-.002.0718-.006.16218-.0312.25-.23519.0967-.47991.18904-.71875.28125l-.0312.0625h.40625c-.17117.13912-.33411.29006-.5.4375l-.0625-.0937c-.50944,1.01418-.94074,1.91765-1.34375,2.78125h.15625c-.004.006.004.025 0,.0312h-.1875c-.10837.23229-.20837.43309-.3125.65625h.0937l-.15625.25c-.009-.0207-.0239-.0405-.0312-.0625-1.46276,3.1283-2.65359,5.48557-5.5625,7.96875-.0143.0176-.0169.0449-.0312.0625-.56581.69453-1.14728,1.3725-1.71875,2.0625 .0528-.0932.11118-.18402.15625-.28125 .063-.13582.18455-.31849.0937-.4375-.0692-.0907-.19258-.0261-.3125,0-.73222.52446-1.57653,1.05827-2.5,1.625l-.0937.0625c-.18696.1589-.37219.31956-.5625.46875-.57282.44904-1.16643.87753-1.75,1.3125 .46342-.38474.92214-.78993 1.5-1.25-.68447.40271-1.45578.81742-2.25,1.25-.0611.1257-.12669.24956-.1875.375-.43674.36319-.86598.73052-1.375,1.15625-.21397.18416-.4153.37375-.625.5625-.41053.27801-.83201.54174-1.25.8125 .0441.0501.0805.10648.125.15625l.21875-.125-.15625.15625c.0844.0939.16421.18867.25.28125 .52045-.53605 1.03669-1.05888 1.59375-1.5625 .26717-.18048.54836-.34796.8125-.53125-.22906.49574-.46734.96841-.6875,1.46875l.28125-.125-1.375,1.40625 .25.25 7.15625-7.28125c.10103.0885-.007.2838-.0625.40625-.13428.29786-.33066.56434-.5.84375-.28576.47149-.60224.91531-.90625,1.375-.82298.77369-1.64614,1.54005-2.5,2.28125-.5457.47371-.71004.60036-1.21875,1.0625-.14698.13352-.29353.26948-.4375.40625-.3899.42137-.73982.8706-1.0625,1.34375l.4375.40625c.43696-.78333.97789-1.50605 1.59375-2.15625 .8101-.71139 1.61279-1.40689 2.40625-2.125-.24114.35197-.47753.71067-.71875,1.0625-.96616,1.18486-1.92481,2.3776-2.84375,3.59375 .53568.45149 1.08326.8757 1.65625,1.28125 .44596-.73339.90444-1.45756 1.40625-2.15625 1.92242-2.6055 3.8981-5.17408 5.6875-7.875-.0239.0615-.0384.12611-.0625.1875-.42043.59553-.83646,1.18156-1.25,1.78125-.55243.80175-1.89866,2.74481-2.4375,3.5625-.4984.75633-.96834,1.51582-1.4375,2.28125l-1.3125,1.71875-.34375.5c-.0335.0396-.0602.0855-.0937.125 .45553.31694.92918.61977 1.40625.90625 .31718-.48541.61401-.98624.9375-1.46875-.25452.52904-.50563,1.05987-.75,1.59375 .26944.15854.56793.28897.84375.4375 .25088-.22848.50587-.45265.75-.6875-.0989.25873-.18056.52317-.28125.78125 .0685-.0918.059-.0516.0937-.0937-.0575.0796-.1192.14157-.15625.21875-.004.008.003.0237 0,.0312 .44412.22829.88458.42323 1.34375.625 .008-.0315.0227-.0623.0312-.0937 .34454-.9582.77079-1.89537 1.21875-2.8125-.33629,1.00374-.69174,1.99895-1.03125,3 1.00324.42908 2.05898.79833 3.125,1.09375 .0119-.23927.0192-.48118.0312-.71875 .0683-.76307.14077-1.52156.21875-2.28125l.6875-1.75c.51835-1.32525 1.08158-2.63595 1.65625-3.9375-.0887.50658-.17006,1.0201-.25,1.53125-.39124,2.50168-.49885,3.64968-.78125,6.15625-.0431.44531-.0875.89447-.125,1.34375 .37289.0795.74612.15623 1.125.21875 .30049.0496.60223.11757.90625.15625 .0352-.3117.0603-.62456.0937-.9375 .009-.0836.0224-.16643.0312-.25 .029-.00043.0731-.016.0937-.0312 .2875-.21178.44409-.32383.59375-.4375-.0674.40688-.14688.81773-.1875,1.0625-.0238.18683-.0643.42616-.0937.65625 .38071.0402.77061.071 1.15625.0937 .008-.0829.0165-.174.0312-.25 .069-.35691.1304-.73476.1875-1.09375 .25037-1.73197.45481-3.44981.65625-5.1875 .017.0822.0181.1674.0312.25 .0256.16157.0314.30813.0625.46875 .0146.0755.0355.20366.0625.28125 .008.10378-.007.20867 0,.3125-.002,1.00891.004,2.02234 0,3.03125-.007.56129-.0102,1.12462 0,1.6875-.0313.17664-.0555.3555-.0937.53125h.53125 .53125c-.006-.0219.005-.0427 0-.0625 .087-.19527.0627-.44662.0625-.84375 .019.24025.0445.4784.0625.71875 .004.0502.0255.10325.0312.15625 .76083-.0207 1.50773-.0684 2.25-.15625 .0719-.35303.13861-.70371.1875-1.0625 .11638-.85475.21945-1.70268.28125-2.5625 .0559.15091.0144.0506.21875.59375 .13734.36506.26354.73408.40625,1.09375-.0436.60241-.10401,1.20763-.15625,1.8125 .54052-.0848 1.06539-.19333 1.59375-.3125 .012-.22918.0194-.45962.0312-.6875 .007.0525.0209.10387.0312.15625 .0528.22798.0954.38018.125.5 .36741-.0859.73281-.17924 1.09375-.28125-.006-.15577-.0195-.31674-.0312-.46875-.0219-.28239-.0666-.56181-.0937-.84375-.0343-.35717-.0553-.70573-.0937-1.0625-.0241-.1978-.0695-.39611-.0937-.59375 .007-.0257.007-.0615 0-.0937-.1228-.99549-.24418-1.98293-.4375-2.96875-.11316-.57707-.23041-1.03337-.34375-1.5 .009-.57286.0233-1.14588.0312-1.71875 .66144,2.1847 1.36327,4.36873 2.09375,6.53125 .0636.77811.11932,1.56276.1875,2.34375 .32446-.11006.65047-.22078.96875-.34375-.0006-.0104.00059-.0209 0-.0312l.125-.0312 .3125-.125c-.18839-.51559-.34898-1.04512-.53125-1.5625-.0393-.91764-.0689-1.83172-.0937-2.75 .21733.36087.46472.70517.6875,1.0625l.0312.0312c.0755.97694.14404,1.94656.15625,2.8125 .001.10019-.0185.2095-.0312.3125 2.00442-.84145 3.86632-1.93795 5.5625-3.25-.47988-.64477-.9575-1.29224-1.40625-1.90625-.16244-.75459-.31943-1.50201-.5-2.25 .66163.78264 1.30205,1.59113 1.875,2.4375 .27297.40324.50371.78408.75,1.1875 1.03638-.86317 1.99165-1.82505 2.875-2.84375-.0959-.10227-.18471-.20966-.28125-.3125 .67662-.15971.19893-.55306-.21875-1.0625-.32984-.34191-.66091-.66777-1-1-.38214-.44745-.77206-.8982-1.15625-1.34375 1.27624.75867 2.57029,1.47577 3.90625,2.125 .42596-.58042.84361-1.16397 1.21875-1.78125-.29084-.18905-.58491-.37364-.875-.5625-.0381-.0782-.16694-.12777-.28125-.1875l-.0937-.0312c-.0347-.0271-.0588-.0669-.0937-.0937-.14727-.11325-.28914-.23193-.4375-.34375 .14742.038.28989.0878.4375.125 .45905.35083.92232.70136 1.375,1.0625 .25293-.41776.45901-.8791.6875-1.3125-.87326-.66619-2.11207-1.57542-2.59375-1.9375-.19001-.14339-.37349-.29284-.5625-.4375 1.1286.66664 2.24767,1.34724 3.34375,2.0625 .13605-.26763.24848-.53939.375-.8125-.56354-.34668-1.11823-.6933-1.6875-1.03125 .29963.0951.60627.18723.90625.28125l.125.0625c.0501.0156.10614.0157.15625.0312 .0716.0258.14471.0805.21875.0937 .11397.0532.22705.0884.34375.0625l.125-.0312 .0625.0312c.11143-.2556.20952-.52126.3125-.78125l-.125-.0312c.0502-.11284-.17784-.15115-.28125-.21875-.29573-.19324-.62461-.36347-.9375-.53125 .0396-.1039.0948-.15792.15625-.1875 .0471-.0445.19866-.11811.34375-.1875 .24636.1321.43417.24553.59375.34375-.16464.0115-.29799-.003-.4375,0 .26265.18034.55494.4295.8125.53125 .15695-.41111.30213-.82875.4375-1.25-.22164-.0751-.46463-.12424-.65625-.21875-.34554-.17041-.60602-.2955-.90625-.4375l1.625.4375c.0608-.19553.1314-.39618.1875-.59375-2.08063-.5563-4.1605-1.15633-6.21875-1.78125-.45413-.19308-.88933-.40134-1.34375-.59375l3.625.28125h.0625c.0526.004.10366.0272.15625.0312 1.03515.18088 2.08631.33788 3.125.5 .31173.0468.62405.10928.9375.15625 .21682-.9797.37163-1.98061.46875-3l-1.15625-.0625h1.1875c.0174-.18779.0181-.37352.0312-.5625-2.24939.004-4.49699.0103-6.75,0 1.14274-.10006 2.29218-.18153 3.4375-.25l3.3125.125c.0347-.53708.0625-1.07916.0625-1.625 0-.313-.0194-.62736-.0312-.9375-.31391-.038-.62224-.0906-.9375-.125 .0199-.0451.0574-.0721.0625-.125 .0294-.30747-.60017-.17685-.90625-.21875-.67929-.0929-2.23489-.1926-3.28125-.25h1.84375c1.0529.003 2.10335.0271 3.15625.0312h.0312c-.0167-.25261-.0694-.49952-.0937-.75l-3.0625-.0312h-2l.15625-.0937c.0225-.0123.0363-.0283.0312-.0312 1.31589-.0493 2.62511-.0999 3.9375-.21875 .25085-.20894.86563-.34144.8125-.625h-.0312c-.003-.0114.005-.0193 0-.0312h.0625c-.0486-.3479-.0936-.68808-.15625-1.03125l-.25-.0312c-.66787-.0593-1.21241-.0921-1.78125-.125l1-.0937c.31245-.0336.62482-.0853.9375-.125-.0416-.20951-.0784-.4174-.125-.625-.55684-.007-1.103.008-1.65625.0312h-9.125c.29861-.15904.58496-.32655.875-.5 2.32229.002 4.64672.0264 6.96875.0625l1.75.0312c.38653.0644.7706.14607 1.15625.21875-.007-.032-.0237-.0618-.0312-.0937-1.27339-.41014-2.52715-.78942-3.8125-1.125-.83319-.10733-1.6621-.21835-2.5-.3125h.375c.31212.0247.631.048.9375,0-1.59664-.38966-3.19931-.74445-4.8125-1-.39416-.0633-.79202-.0991-1.1875-.15625h-.15625-.25c-1.26786.00028-2.54465.006-3.8125,0-.24793-.001-.51288-.0724-.75,0h-.0937-.0625c.2359-.12329.4514-.25204.6875-.375 .0294-.0153.0642-.0161.0937-.0312 .0167-.007.0434.009.0625,0 .0102-.003.0206-.0276.0312-.0312h.0312c-.0625-.004-.12502-.0276-.1875-.0312h-.21875l-.875.5c-.0532.006-.10738-.014-.15625,0 .25596-.16797.49047-.36911.75-.53125h-.15625zm14.3125,17.09375c-.18991-.1304-.36951-.21909-.5-.15625-.13918.13173.1099.16554.5.15625zm-15.0625-16.5c-.0493.0345-.0763.0968-.0937.15625-.0441.0271-.0813.066-.125.0937h-.15625l.375-.25zm6.59375,1.25 1.28125.125-.4375.34375c-.98511-.004-1.98493.009-2.96875-.0312 .0725-.0164.14628-.0462.21875-.0625 1.00456-.22638 1.33606-.2726 1.90625-.375zm-2.625.125c-.18506.0484-.34281.10272-.5.1875-.27322-.0618-.55925-.0577-.5.375-.0808.0739-.15551.1213-.25.21875-.0668.0688.18925.0668.28125.0937 1.20275.0525 2.39003.035 3.59375.0312-.12195.0756-.17237.1168-.34375.21875-.0615.0365-.1222.0645-.1875.0937l-.40625.1875h-3.15625c-.38271-.00042-.76071-.0392-1.09375.0625-.30297.0128-.55649.11054-.5625.4375-.0382.0528-.0894.0919-.125.15625-.048.0867.0519.10754.1875.0937 .10496.0543.30732-.004.5-.0625 .80052.0402 1.60543.0909 2.40625.125l-.78125.3125c-.10091.039-.21099.0565-.3125.0937-1.54242.0742-3.07997.15177-4.625.1875-.27116.006-.5413-.004-.8125,0h-.0312-.25c-.17826-.0274-.37471-.11449-.5,0-.007.007.006.0238 0,.0312h-.78125-.0937c2.29928-1.00577 4.62956-1.95425 7-2.78125l1.34375-.0625zm4.3125.0625c.95859.10261 1.91799.19576 2.875.3125l-3.28125-.0312c.13439-.092.27462-.18497.40625-.28125zm-6.625.0312c-1.82884.68753-3.61405,1.44286-5.40625,2.21875l-1.125.5c-.32901-.0225-.67709-.0487-1,0 1.11154-.89389 2.26182-1.7533 3.4375-2.5625 .55243-.0173 1.10377-.0514 1.65625-.0625l2.4375-.0937zm8.53125,1.875h2.5c-.33275.0288-.66711.0664-1,.0937-.49905-.026-1.00098-.0673-1.5-.0937zm-5.8125.28125c.73806.0319 1.48108.0538 2.21875.0937l.65625.0312c-1.22959.0743-2.45787.15567-3.6875.21875 .27018-.11367.54476-.22419.8125-.34375zm6.5625.34375c.32417.0182.24481.001.78125.0312 1.1639.065 2.33755.12224 3.5.21875-2.06112.007-2.6212-.001-4.75,0h-3.0625c1.17447-.0867 2.35729-.15774 3.53125-.25zm-16.6875.875c.0419-.005.0831.005.125,0h.75 .53125 .15625c1.28244.0125 2.56138.0444 3.84375.0625l-.15625.0312-.4375.3125-.65625.0625c-.27184.0255-.55922-.0394-.8125.0625-.0766.0308-.14662.0855-.21875.125-.0494.0441-.14472.0542-.21875.0937l-1.6875.0312h-.0312c-.31263.008-.62508.0261-.9375.0312l.0312-.0625c.1142-.14061.24593-.30052.1875-.375 .0229-.0612.0421-.12555.0625-.1875-.0942.0532-.18312.10868-.28125.15625-.17682.0225-.35231.12813-.53125.21875 .033-.1416.0373-.29433.0625-.4375 .064-.0308.15417-.0944.21875-.125zm6.78125.0937 1.78125.0312c-.83925.0468-1.66163.12343-2.5.1875 .24176-.0701.47911-.14184.71875-.21875zm10.3125.25c-2.80115.12-5.60341.24098-8.40625.3125 .72725-.0397 1.45997-.0896 2.1875-.125 2.07306-.0727 4.14423-.15628 6.21875-.1875zm.625.46875c.14593-.005.2916.005.4375,0-.0687.012-.21474.0513-.375.0937-.003-.033-.0292-.0685-.0625-.0937zm-17.90625.9375h.0625l-.125.0937c.0203-.0317.0456-.0606.0625-.0937zm.53125,0h.25c.0155.0263.0217.0674.0312.0937-.0168.0631-.0469.124-.0625.1875h-.53125c.10585-.0926.2061-.18923.3125-.28125zm1.09375.0312c.41675.005.83336-.006 1.25,0-.0282.0225-.0698.0396-.0937.0625-.064.061-.0487.13043-.0312.21875-.2687-.007-.96989.002-1.1875,0 .024-.0916.042-.18857.0625-.28125zm2.21875,0c2.4477.0385 4.89513.10973 7.34375.1875l1.28125.0625c1.59887.11234 3.18645.23534 4.78125.375-2.23827.029-4.48013.0358-6.71875.0312-2.14189-.13451-4.26209-.25395-6.40625-.34375-.20157-.005-.1187.004-.28125,0 .0142-.10342.017-.2254 0-.3125zm15.71875.84375 .9375.0937c-.13604.063-.25424.1021-.375.125h-.28125-.0312c-.10475-.0334-.18192-.0912-.25-.21875zm1.65625.1875 .71875.0937c-.56249-.0159-1.12505-.0141-1.6875-.0312 .0935-.004.18775-.0266.28125-.0312 .12387-.006.39712-.005.6875-.0312zm-23.875.96875h.0625c-.0324.0723-.0609.14663-.0937.21875 .003-.0658.031-.17601.0312-.21875zm9.78125.8125h1.53125 .125c.006.007-.007.0252 0,.0312 .0863.0736.17604.12964.28125.15625-.63933-.0586-1.26873-.11134-1.90625-.15625-.004-.005-.0274.004-.0312,0-.006-.004.005-.0254 0-.0312zm5.28125.0312h.125c.93921.0203 1.87342.064 2.8125.0937-.56198.0578-1.12649.0874-1.6875.15625h-.0312c-.29087-.0633-.58447-.12248-.875-.1875l-.34375-.0625zm-10.40625.5625c.0941.004.18718.0276.28125.0312l.75.0937c.008.005.0224-.004.0312,0 .004.0833.027.16673.0312.25-.14837-.0443-.27519-.0102-.4375.21875-.11096-.10572-.2114-.21053-.3125-.25-.11735-.11293-.22648-.23074-.34375-.34375zm-3.5.15625c.14644.22041.27454.46342.40625.75-.1763.0657-.35323.13584-.53125.1875-.0357.22253.0776.50771.1875.75l-.34375-.125c.0123-.13548.0138-.2713.0312-.40625 .0493-.38212.27435-.7811.25-1.15625zm21.28125,1.40625c.76846.13406 1.54287.24767 2.3125.375 .22241.0297-.80882-.0738-1.6875-.1875-.20861-.0608-.4162-.12735-.625-.1875zm-18.71875.1877c.21767.12763.43609.25224.65625.375-.18724.17841-.32133.47879-.40625.8125-.0777-.3977-.16975-.79025-.25-1.1875zm-6.125.875c-.0125.072-.0186.14676-.0312.21875-.0533.0721-.10177.14768-.15625.21875l.0312-.15625c.0563-.0913.10336-.18849.15625-.28125zm17.375,0c.95505.30161 1.91627.58515 2.875.875 .50898.22306 1.02458.42702 1.53125.65625 .76457.35072 1.52149.70147 2.28125,1.0625 .11251.0535.23159.10204.34375.15625-1.51785-.51656-3.02619-1.04097-4.53125-1.59375-.82968-.39629-1.66667-.76783-2.5-1.15625zm-13.71875.71875 .3125.125c-.0454.20327-.0692.33671-.0937.46875-.12319.0922-.24949.19714-.34375.3125-.0134-.0299-.0178-.0638-.0312-.0937-.0212-.13956-.0634-.22756-.0937-.34375l.25-.46875zm14.4375.53125 .125.0312c.0435.0162.0815.0463.125.0625 .50541.24299.99567.50466 1.5.75-.44629-.1707-.89523-.33528-1.34375-.5-.138-.11037-.26819-.23344-.40625-.34375zm-10.1875,1.15625c.13586.0507.27033.10527.40625.15625 .001.12557-.0007.2494 0,.375 .001.19974-.0001.36892 0,.5625-.0457.11352-.08.22998-.125.34375-.0393-.064-.0855-.12366-.125-.1875-.0261-.27212-.0664-.54049-.0937-.8125-.0148-.14774-.0478-.28977-.0625-.4375zm-2.4375.75c.0903.17059.17043.28679.25.4375 .0632.29093.10148.58286.15625.875-.036.34312-.0576.68814-.0937,1.03125-.002.01.002.0212 0,.0312s.001.021 0,.0312c-.0471.22028-.10774.43627-.15625.65625-.0375-.0804-.0563-.16957-.0937-.25-.007-.93737-.0453-1.87534-.0625-2.8125zm-8.125.28125-.0312.0937-.3125.3125c.11478-.13476.22783-.27239.34375-.40625zm20.625.1875c.39569.16549.79086.33692 1.1875.5 .39525.26496.79715.50925 1.1875.78125 .60109.42817 1.18549.87516 1.78125,1.3125-.24907-.0649-.50082-.12397-.75-.1875-.54827-.35895-1.09749-.72015-1.65625-1.0625-.59405-.43401-1.17284-.8877-1.75-1.34375zm-17.65625.875c-.002.0831.002.16687 0,.25-.006.30157.003.60406 0,.90625-.38256.6426-.78799,1.27355-1.1875,1.90625 .0952-.38666.18999-.76913.28125-1.15625 .3112-.63458.59877-1.26963.90625-1.90625zm9.125.5c.27444.31622.48444.60947.625.78125 .11832.23724.22619.48114.34375.71875 .058.20674.0969.41866.15625.625 .065.5425.15874,1.08195.21875,1.625-.13196-.27328-.27424-.53952-.40625-.8125-.31735-.66056-.60296-1.27455-.9375-1.90625 .003-.34372-.003-.68752 0-1.03125zm-13.15625.125c-1.3643,1.8067-2.72747,3.64028-4.0625,5.46875-.2444.34209-.50038.66265-.75,1 1.08429-1.82108 2.29327-3.58374 3.5625-5.28125 .41573-.39682.84116-.78367 1.25-1.1875zm17.40625,2.25c.0151.0166.0161.0459.0312.0625 .047.16878.10852.33143.15625.5l-.15625-.25c-.0107-.10382-.0204-.2087-.0312-.3125zm-22.375.375-2.875,2.9375c.17596-.39841.34692-.79338.53125-1.1875l1.15625-.84375c.0119-.009.66281-.50298 1.1875-.90625zm8.21875.0937c-.16609.46764-.33616.9301-.5,1.40625-.23974.44811-.4763.89706-.71875,1.34375 .13914-.49835.27516-.99927.40625-1.5 .27489-.41106.54538-.83387.8125-1.25zm-2.34375.25c-.36923,1.32357-.66905,2.3654-1.03125,3.5625l-.375.78125-.0312.0625c-.31269.41658-.64624.80976-.96875,1.21875 .80292-1.87578 1.61103-3.74599 2.40625-5.625zm7,.65625c.0568.15783.12843.31098.1875.46875-.0163.29249-.0449.5826-.0625.875-.0165-.45507-.0775-.89156-.125-1.34375zm3.03125.31255c.0721.36426.14795.72653.21875,1.09375-.0461-.1058-.0779-.20369-.125-.3125-.0192-.0424-.0433-.0826-.0625-.125-.007-.21879-.0209-.43767-.0312-.65625zm8.1875.875c.10327.29807.19938.53324.28125.8125-.0163-.0238-.0463-.0386-.0625-.0625-.0766-.24826-.14339-.50136-.21875-.75zm-2.75,1.03125c.0451.0871.11091.16305.15625.25 .005.0517-.005.10454 0,.15625-.0481-.13525-.10899-.27071-.15625-.40625zm-1.8125.84375c.0985.14268.18235.295.28125.4375 .0185.23025.0457.45708.0625.6875-.11921-.37366-.22746-.75041-.34375-1.125zm-3.5625.59375c.0699.1479.14971.28912.21875.4375 .13007.31001.26885.63032.40625.9375 .0181.0529.0449.10312.0625.15625 .004.1155-.004.22824 0,.34375-.0281.53432-.0634,1.05931-.0937,1.59375-.0232-.0577.25821.6243-.65625-1.6875 .0198-.41568.0427-.83459.0625-1.25 .006-.17739-.004-.35384 0-.53125zm-13.03125.25c-.37793,1.04519-.76634,2.08423-1.15625,3.125-.34804.37738-.72559.73768-1.09375,1.09375 .63829-1.18198 1.25298-2.35577 1.84375-3.5625l.0312-.0312c.12589-.20646.24734-.41957.375-.625zm-1.875.375c-.41373.6269-.82778,1.25416-1.25,1.875 .24054-.39485.4784-.79088.71875-1.1875l.53125-.6875zm-2.875.90625c-.1481.27301-.29407.53671-.4375.8125-.11042.13898-.23297.26752-.34375.40625 .23723-.4157.52147-.81723.78125-1.21875zm5.125.6875c-.30913.5899-.62297,1.17946-.90625,1.78125 .19801-.51731.41555-1.01041.5625-1.375l.34375-.40625zm11.71875,0c.005.0125.0263.0187.0312.0312-.0881,1.61701-.18883,3.24269-.4375,4.84375-.0216-.0936-.0412-.18759-.0625-.28125 .0223-.16665.0423-.33309.0625-.5 .0912-.75283.1655-1.4964.25-2.25 .0513-.61434.10491-1.22945.15625-1.84375zm-4.96875,2.03125c.0501.0192-.027.0979-.0937.125-.00024-.0113-.031-.0202-.0312-.0312 .0457-.0355.0869-.062.125-.0937zm-8.15625.9375c-.0254.0611-.0377.12623-.0625.1875 .005-.0559-.007-.13206 0-.15625 .0169-.0153.0461-.0154.0625-.0312zm16.125,1.25c.0333-.009-.072.0675-.15625.125 .00054-.0105-.00054-.0208 0-.0312l.0625-.0625 .0937-.0312z" fill="#71c837" filter="url(#o)" opacity=".52453"/>
  <path transform="matrix(.57472 0 0 .57472 -346.85 319.55)" d="m248.35 839.32c-5.9295-0.0417-11.001-0.10743-1.4392-0.80633-18.475 0.46509-22.314 0.29953-0.19947-1.7441-28.585 1.5406-31.213 1.2044-0.40967-3.54-34.872 3.8307-36.313 3.2531-1.1282-5.9249-36.204 7.5742-37.114 6.8538-4.042-6.2573l-0.14371-0.0607c-29.701 10.056-30.846 9.5685-7.0824-2.7135l-0.48903-0.17315c-17.283 7.7878-17.244 7.0964-3.3203-1.1539l-0.64346-0.21864c-5.1777 2.6262-5.0844 2.2888-1.0467-0.33871-0.78181-0.25151-1.5625-0.49922-2.3379-0.73556-2.1556 1.2082-2.4988 1.231-0.66706-0.19968l-0.92444-0.27425c-8.5677 5.389-9.6562 5.5558-2.2328-0.63192l-1.0789-0.29574c-10.636 7.4743-11.935 7.516-3.7364-0.92513l-1.4725-0.32986c-8.484 7.0876-9.6144 6.9726-3.8736-0.75957-0.62309-0.10869-1.243-0.21864-1.8575-0.31217-3.7986 3.8143-4.4378 3.6955-2.1824-0.30332-2.7647-0.35134-5.4512-0.55735-8.0379-0.58389-13.12-0.13144-25.034 0.69385-35.957 2.1928 2.1245 3.3985 1.4864 3.4983-2.1127 0.29447-0.67563 0.0986-1.3373 0.20474-2.0022 0.31091 6.0239 7.2708 4.8045 7.353-4.1192 0.68247l-1.5733 0.27552c9.1629 8.426 7.6561 8.316-4.2737 0.83413-0.36678 0.0746-0.72925 0.15166-1.0939 0.22875 9.149 6.7603 7.7698 6.4999-2.7647 0.59653-0.28527 0.0645-0.56303 0.12892-0.84616 0.19464 4.0409 2.6781 3.2924 2.515-1.1003 0.24897-0.85366 0.19842-1.6977 0.40443-2.5395 0.6117 6.8958 3.8661 7.3333 4.4272-1.5894 0.39052l-0.50083 0.13144c17.888 9.2424 18.02 9.9755-4.4528 1.1969l-0.27132 0.0771c28.593 12.75 28.233 13.527-5.4737 4.0948 35.735 11.912 35.516 12.81-1.7502 7.1205 35.641 7.243 34.236 7.8952-0.79789 5.9792 31.023 3.0522 28.416 3.5337-0.21127 3.5602 22.196 0.82782 18.372 1.2032-0.10081 1.7517 9.5854 0.17567 4.5268 0.51817-1.392 0.88469 5.9284 0.0442 11.002 0.10995 1.4381 0.80759 18.475-0.46636 22.316-0.29953 0.20054 1.7428 28.584-1.5406 31.213-1.2019 0.41074 3.5438 34.872-3.8332 36.31-3.2556 1.1282 5.9211 36.89-7.717 37.16-6.831 2.1416 7.0092 34.408-11.693 33.53-10.43 2.3529 5.499 28.291-12.954 26.284-11.243 1.6044 3.1116 19.557-10.417 16.444-8.1884 0.77644 1.5116 8.3532-4.661 4.1525-1.8452-0.77644 1.4155 5.1338-2.9334 9.5404-5.4244 1.6258-0.0645 15.711-9.6304 19.103-11.412 1.0102 1.3384 23.914-15.568 26.342-16.599 2.0666 2.7501 28.223-20.614 29.741-20.843 3.8265 4.4171 28.092-24.877 28.749-24.259 5.211 4.8835 24.046-27.013 23.895-25.497 4.6672 3.5451 18.172-25.069 17.266-22.61 2.8827 1.8932 11.864-18.595 10.251-15.14 1.406 0.92513 4.9686-8.1214 2.7025-3.626 0.0236 1.6089 3.0178-5.0528 5.6239-9.3587 1.3867-0.84172 8.9184-16.029 10.995-19.229 1.5647 0.68247 13.117-25.195 14.735-27.272 3.228 1.4168 14.346-31.708 15.572-32.645 5.6786 2.0272 12.027-35.394 12.937-35.176 7.1907 1.7352 7.3119-35.303 7.9725-33.911 6.0389 0.78737 3.0811-30.725 3.5669-28.143 3.5948 0.21106 0.83865-21.984 1.2172-18.194 1.7706 0.0998 0.17373-9.4952 0.51905-4.4828 0.89226 1.3788 0.0451-5.8718 0.11154-10.896 0.81613-1.4243-0.4708-18.299-0.30243-22.102 1.7588-0.19716-1.554-28.312-1.2161-30.916 3.5734-0.40443-3.8672-34.539-3.286-35.965 5.9788-1.1185-7.7912-36.541-6.8979-36.807 7.077-2.1207-11.805-34.082-10.53-33.211 5.5531-2.333-13.079-28.022-11.354-26.033 3.1433-1.5899-10.52-19.371-8.2696-16.287 1.525-0.76715-4.7059-8.2756-1.8628-4.115 1.4285 0.76715-2.9642-5.0832-5.4737-9.4497-0.0643-1.6089-9.7238-15.562-11.524-18.922 1.3523-1.001-15.72-23.684-16.762-26.092 2.7733-2.0449-20.81-27.955-21.044-29.459 4.4613-3.7902-25.116-27.823-24.494-28.474 4.9332-5.159-27.275-23.82-25.747-23.67 3.5766-4.6244-25.314-18-22.829-17.101 1.9132-2.8563-18.774-11.75-15.29-10.152 0.93409-1.3915-8.1998-4.9214-3.6634-2.6768 1.6269-0.024-5.1026-2.9915-9.4535-5.571-0.85259-1.3751-16.183-8.8342-19.415-10.89 0.69172-1.5507-25.44-12.994-27.539-14.592 1.4285-3.195-32.013-14.209-32.961-15.424 2.0451-5.6228-35.735-11.915-35.516-12.812 1.7534-7.123-35.641-7.243-34.24-7.8977 0.79575-5.9792-31.023-3.0547-28.415-3.5312 0.21127-3.5602-22.194-0.82908-18.372-1.207 0.10295-1.7542-9.5887-0.16935-4.5278-0.51438 1.3899-0.88342z" fill="#8dd35f" filter="url(#m)" opacity=".39623"/>
  <path transform="matrix(.44579 0 0 .44579 -346.65 586.25)" d="m270 481.47c0 16.667-13.511 30.179-30.179 30.179s-30.179-13.511-30.179-30.179 13.511-30.179 30.179-30.179 30.179 13.511 30.179 30.179z" fill="#464646" filter="url(#p)" opacity=".72075" stroke="#000"/>
  <path transform="matrix(.40716 0 0 .40716 -337.38 604.85)" d="m270 481.47c0 16.667-13.511 30.179-30.179 30.179s-30.179-13.511-30.179-30.179 13.511-30.179 30.179-30.179 30.179 13.511 30.179 30.179z" stroke="#000"/>
  <path transform="matrix(1.3611 0 0 1.3611 -572.48 174.62)" d="m216.94 453.93c-0.39814 3.0648-0.24706 7.0722 0.24614 10.28 0.56157 3.652 1.7116 7.0561 3.307 10.175l17.222-6.6018c-4.3502-3.8538-4.8193-6.9063-3.2798-11.866l-6.6294-4.1206c-3.8545 0.80467-7.7113 1.0703-10.866 2.1333z" fill="url(#f)" filter="url(#n)" opacity=".93208"/>
  <path d="m-310.6 838.99c20.89 17.033 108.59 31.903 168.22-11.618" fill="none" stroke="#000" stroke-linecap="round" stroke-width="1.3012"/>
  <path d="m-280.28 777.65c-2.7676 5.2221-3.6222 10.36-6.0411 15.103l-17.31 7.7838c9.2623-7.2971 18.044-13.845 23.351-22.887z"/>
  <path d="m-271.64 778.81c-3.0293 3.6088-4.7075 7.5069-7.3928 10.802l-13.705 2.927c7.9933-4.0394 15.494-7.5765 21.098-13.729z"/>
  <path d="m-252.38 771.4c-3.9513 5.9053-11.466 15.857-18.194 19.68l-16.372 2.1004c12.783-6.345 24.788-10.846 34.566-21.781z"/>
  <path d="m-243.94 767.19c-4.362 6.7664-9.243 17.564-16.387 21.209l-16.123 3.5366c12.684-7.3055 24.92-13.454 32.51-24.745z"/>
  <path d="m-236.81 768.58c-2.2894 5.9926-8.8606 14.115-13.89 17.435l-13.667 2.9073c10.093-6.1288 18.904-10.264 27.557-20.342z"/>
  <path d="m-221.4 764.64c-4.7608 4.904-11.447 13.967-15.684 18.421l-15.432 3.0717c11.581-6.8526 22.402-13.001 31.116-21.492z"/>
  <path d="m-218.52 770.38c-3.1078 3.5414-4.8711 7.4017-7.6282 10.637l-13.766 2.6254c8.0801-3.863 15.656-7.2345 21.394-13.263z"/>
  <path d="m-193.39 772.31c-6.274 4.201-10.431 9.6043-16.027 13.484l-23.577-2.7004c14.588-2.2032 28.184-3.8604 39.604-10.784z"/>
  <path d="m-124.61 805.31c-5.3169 4.201-15.113 10.301-19.856 14.181l-14.404-6.7666c12.362-2.2032 24.582-0.49128 34.26-7.4147z"/>
  <path d="m-131.35 799.96c-5.3169 4.201-15.113 10.301-19.856 14.181l-14.404-6.7666c12.362-2.2032 24.582-0.4913 34.26-7.4147z"/>
  <path d="m-139.78 795.53c-5.3169 4.201-15.113 10.301-19.856 14.181l-14.404-6.7666c12.362-2.2032 24.582-0.49128 34.26-7.4147z"/>
  <path d="m-140.65 790.36c-6.8314 4.614-19.418 11.314-25.512 15.575l-18.507-7.4318c15.884-2.4198 31.584-0.53958 44.018-8.1436z"/>
  <path d="m-178.58 772.73c-5.8476 4.3932-10.146 10.494-15.383 14.574l-18.985-6.0028c12.373-1.0033 23.842-1.4556 34.368-8.5714z"/>
  <path d="m-171.1 774.94c-6.795 6.7125-11.538 16.495-18.461 19.048l-22.784-7.8455c7.7092 2.0346 17.031 2.1792 41.245-11.203z"/>
  <path d="m-206.7 770.84c-6.7425 5.276-11.21 12.062-17.224 16.934l-25.337-3.3914c15.677-2.767 30.289-4.8481 42.561-13.543z"/>
  <path d="m-261.27 775.01c-3.2934 4.3279-9.429 11.561-14.413 14.066l-11.406 0.47642c9.3767-4.0439 18.037-6.7042 25.819-14.543z"/>
  <path d="m-159.22 782.31c-6.5146 3.0733-12.617 9.6414-18.452 12.496l-19.836-6.4995c13.784-0.70186 26.561-1.0183 38.288-5.9962z"/>
  <path d="m-151.4 785.46c-6.3499 3.348-12.298 10.503-17.986 13.613l-19.334-7.0805c13.436-0.76459 25.889-1.1093 37.32-6.5323z"/>
  <g transform="matrix(.57472 0 0 .57472 -343.4 318.98)">
   <path d="m133.33 925.1c-2.7999-5.1262-3.3154-11.354-5.7449-16.07l-19.976 0.71599c10.378 3.7437 20.255 6.8048 25.72 15.354z"/>
   <path d="m139.16 923c-1.8306-3.9242-1.6515-8.3052-3.2138-11.896l-16.702-2.1792c8.2756 3.9818 16.2 7.4237 19.916 14.075z"/>
   <path d="m161.12 932.76c-1.6348-6.5112-5.5477-17.408-12.247-21.251l-20.829-0.9804c13.306 6.2342 26.72 10.395 33.077 22.232z"/>
   <path d="m172.19 937.18c-1.6494-7.4754-1.4681-19.59-8.8421-23.189l-19.59-2.672c12.569 7.3595 25.259 13.415 28.432 25.861z"/>
   <path d="m180.7 932.65c0.69937-6.7609-3.2631-15.615-8.201-19.025l-17.438-2.1597c10.259 6.223 20.014 10.243 25.639 21.185z"/>
   <path d="m195.64 935.28c-3.3592-5.2751-6.7094-15.212-9.6433-20.011l-18.946-2.1933c11.361 6.9315 22.136 13.113 28.59 22.204z"/>
   <path d="m201.71 928.35c-1.9791-3.8389-1.939-8.1684-3.6358-11.683l-16.974-1.8231c8.5038 3.769 16.635 7.0118 20.61 13.506z"/>
   <path d="m240.65 926.43c-5.848-4.323-8.0766-10.232-13.209-14.243l-33.592 5.2424c18.35 1.2592 35.704 1.9721 46.802 9.0002z"/>
   <path d="m354.42 884.23c-4.5532-4.4085-13.973-10.625-17.951-14.711l-23.738 9.15c15.34 1.4577 32.947-1.6224 41.689 5.5612z"/>
   <path d="m341.95 891.04c-4.5533-4.4084-13.973-10.625-17.951-14.711l-23.738 9.15c15.34 1.4577 32.947-1.6224 41.689 5.5612z"/>
   <path d="m327.76 896.95c-4.5533-4.4084-13.973-10.625-17.951-14.711l-23.738 9.15c15.34 1.4577 32.947-1.6224 41.689 5.5612z"/>
   <path d="m323.33 903.03c-6.3426-4.7533-19.161-11.418-24.726-15.827l-29.707 10.289c19.968 1.3953 42.39-2.191 54.433 5.5377z"/>
   <path d="m261.24 922.9c-5.1505-4.5844-7.1319-11.292-11.653-15.567l-29.456 8.671c16.108 0.062 31.34-0.43543 41.109 6.896z"/>
   <path d="m272.45 923.68c-4.9748-7.1956-5.245-18.142-13.007-20.492l-35.753 11.152c11.708-3.0527 24.41-4.0525 48.759 9.3406z"/>
   <path d="m228.29 927.62c-5.8064-5.5306-7.5861-13.019-12.66-18.146l-36.408 6.2026c19.47 1.8172 37.93 2.9324 49.069 11.944z"/>
   <path d="m150.51 927.35c-1.7361-4.7365-5.4917-12.596-10.659-15.063l-15.131 0.46398c10.144 3.8635 20.189 6.1828 25.791 14.599z"/>
   <path d="m296.39 914.05c-6.8821-2.9908-11.011-10.08-17.111-12.877l-30.919 9.3243c18.207-0.41417 35.293-1.1864 48.03 3.5531z"/>
   <path d="m312.19 909.68c-6.4867-3.3248-10.038-11.111-15.778-14.217l-30.606 9.9548c17.696-0.31015 34.327-1.0206 46.384 4.2625z"/>
  </g>
  <path d="m-318.99 799.73c17.766-27.227 100.97-67.011 169.04-18.416" fill="none" stroke="#000" stroke-linecap="round" stroke-width="1.4635"/>
  <path d="m-319.08 797.45c2.2401-6.1274 19.74-23.191 32.364-27.563" fill="none" stroke="#000" stroke-linecap="round" stroke-width="1.4635"/>
  <path d="m-320.37 802.49c17.436-27.227 99.09-67.011 165.9-18.416" fill="none" stroke="#000" stroke-linecap="round" stroke-width="1.1684"/>
  <path d="m-356.04 756.41c1.9598 3.7817 2.3236 4.9162 1.7857 2.6524-2.1012-8.8444 7.0564-13.745 7.0564-13.745-3.0937 4.8438-1.3138 8.2094-1.3138 8.2094s3.6914-10.361 11.412-11.146c-5.5421 8.3186 6.399-0.44081 9.6151-0.52932-1.1184 1.1627-1.3805 1.7903-0.51093 2.2725 0.76956-0.035 1.6167-0.0989 2.4909-0.17644 2.6742-1.165 5.9231-2.2184 9.8352-2.8863-2.519 0.8776-4.4903 1.7035-6.0742 2.4702 2.0167-0.26381 4.2052-0.60806 6.5064-1.0201 3.0926-1.6247 7.2973-3.2299 12.768-4.107-3.43 1.1368-5.872 2.1891-7.6484 3.1202 1.3046-0.26668 2.6265-0.54944 3.9696-0.85175 3.1863-1.846 7.9421-3.8489 14.488-4.8317-3.9644 1.2506-6.6323 2.4029-8.453 3.3903 2.5455-0.6368 5.0926-1.3201 7.5956-2.05 2.4885-1.8742 6.2323-3.815 11.767-4.965-3.2139 1.246-5.3495 2.4098-6.7668 3.4363 0.23736-0.0753 0.48163-0.14828 0.71841-0.22587 2.3305-0.7546 4.5495-1.5121 6.7007-2.2673 1.8753-1.5581 4.5731-3.1213 8.5237-4.3328-2.0523 1.0822-3.5271 2.061-4.5754 2.9311 1.0276-0.37242 2.0345-0.74484 3.0276-1.1167 1.1673-0.55288 2.3604-1.123 3.5863-1.7121 1.5535-1.0224 3.5156-2.0156 6.0082-2.8661 15.111-5.1564 29.364-11.183 44.949-15.566 10.251-2.8828 23.311-5.5225 34.141-5.5306 50.413-0.0368 86.893 25.332 90.334 26.965-5.7e-4 0-31.576-17.157-67.746-22.479-36.329-6.0783-73.245 20.398-101.45 36.878-19.096 13.061-38.745 21.335-56.117 25.34-10.022 2.6702-15.705 2.538-17.935 2.465-4.3777-0.1431-12.061-1.6811-15.05-5.9616-2.9891-4.3202-3.9328-9.2536-3.6386-11.763z"/>
  <path d="m-333.89 753.27c-1.5696 0.50002-1.8834 2.1943-3.2138 2.5541-0.1661 0.0454-0.34771 0.069-0.55001 0.0672-0.44196-0.15058-0.75002-0.32299-0.95749-0.51208s-0.31322-0.39656-0.35173-0.62242c-0.33507-1.9414 1.4954-2.696 2.3546-4.2162-0.85289 0.34828-1.7937 0.29541-2.6161 0.73219-0.85002 0.45174-1.542 1.1558-2.1449 1.8196-0.72702 0.80001-1.3448 2.4656-2.2719 3.0391-0.20633 0.12758-0.39139 0.25689-0.55863 0.39081-2.1656 1.7144-1.2046 4.0363-2.0702 6.4674-0.0586 0.12241-0.11667 0.23506-0.17645 0.33736-0.17873 0.30862-0.36494 0.5253-0.58334 0.63047-1.4914 0.72128-3.9035-2.6052-4.2828-10.437-1.4684 2.8495-2.715 9.8806-1.5075 12.844 1.1828 2.9041-1.7914-0.41667-4.1679-3.3162-0.89485 11.194 8.2162 15.17 20.969 14.798 9.0088-0.26208 17.976-1.5041 26.564-3.8219 11.316-3.0535 21.879-7.9565 31.825-13.361 2.8546-1.5506 5.6679-3.1558 8.4513-4.7966 3.5328-2.0816 7.0134-4.2259 10.455-6.4128 28.179-16.603 54.395-39.984 100.1-36.302 27.103 2.1834 64.519 18.772 64.519 18.772s-29.051-18.726-68.544-23.279c-39.585-4.984-59.757 6.1386-97.245 21.953-28.494 15.522-51.608 22.623-65.523 25.04-0.14828 0.0259-0.29541 0.0512-0.44196 0.0724-0.1207-0.0759-0.23564-0.14597-0.34886-0.2161-0.16322-1.1023-1.3489-2.5972-0.16322-3.5937-2.9644 0-2.9644 2.4914-4.5725 3.3432-0.17587 0.11839-0.36725 0.21495-0.5776 0.28219-0.42242 0.13391-0.92588 0.15231-1.5558-0.0247-0.0891-0.12874-0.16322-0.26265-0.22586-0.39885-0.25058-0.54484-0.31782-1.1276-0.45403-1.5443-0.0391-0.11093-0.0845-0.20864-0.13679-0.28851z"/>
  <path d="m-346.65 765.95s-3.1679-5.2783-1.3581-8.7605c0.0264 5.7593 4.611 6.1817 4.611 6.1817-1.0742-2.8535-3.1805-6.3231-1.6006-9.0427 0.19368 2.7828 1.1972 5.4369 4.1535 7.7651 1.0943-1.3046 1.8598-2.7449 1.7294-4.2748 0.42242 0.4776 1.127 0.93048 1.546 1.4086 0.99887-0.59885 1.6224-1.5018 1.6793-2.3546 0.18047 0.66381 1.1684 1.0902 1.5862 1.5644 2.4725-1.5558 2.2276-4.5598 4.2903-6.5467-0.027 2.0023-1.0569 4.5932 1.469 6.3944 4.676-3.0386 6.334-8.5691 12.486-10.414-0.40977 1.5086-1.6828 4.7179-0.9753 5.8725 3.6282-1.5558 6.1679-4.9191 8.7835-6.9754-0.27126 1.1196-0.77702 2.4138-1.042 3.5397 4.0512-1.0575 4.6604-4.0639 7.6973-5.6294-0.3569 0.79254-0.38736 1.7242-0.17299 2.4857 5.5742-0.79083 7.4501-5.4478 11.235-7.4168-0.0759 0.75001-0.3592 1.8104-0.10748 2.6978 5.3817-1.4414 9.3427-5.8432 13.646-7.9938 0.0787 1.2885-0.91266 2.9041-1.9724 4.2432 4.9139-2.0449 7.5048-5.0972 11.83-7.1524 0.12183 0.41437 0.35748 1.2437 0.27127 1.9408 3.3788-1.323 4.1432-3.6702 6.9202-5.0679 0.0787 0.27126 1.1374 0.93622 1.2127 1.2063 2.8937-0.97818 3.7133-3.1253 5.3461-4.4593 0.19081 0.66265 0.67473 1.3242 0.57817 1.988 1.9598-1.1989 2.9409-2.7759 4.6202-3.9443 1.4931 3.1271 6.088-2.9558 6.1266-2.8276 0.92243 1.1288 5.5765-1.4874 6.9806-2.5782 0.73794 1.8311 26.359-12.811 55.345-12.446 0.51954 0.0121 1.0523 0.0288 1.592 0.0472l0.54541 0.0207 1.1127 0.0454 0.67703 0.0322 1.0512 0.0558 0.74025 0.0425 1.0753 0.0701 0.75403 0.0511 1.5908 0.12472 1.0897 0.096 0.92703 0.0851 1.1012 0.11092 0.81035 0.0856 1.2023 0.13506 0.72184 0.0868c0.44138 0.0534 0.88335 0.10748 1.3328 0.1661l0.44138 0.0598c1.6868 0.22472 3.4231 0.48277 5.2087 0.78221l0.29138 0.0483 1.7322 0.30404 0.38276 0.069c0.59828 0.11035 1.2006 0.22415 1.8081 0.34311l0.19827 0.0385c3.4006 0.66956 6.9536 1.4834 10.643 2.4736l0.0443 0.012c8.2128 2.2058 17.1 5.2806 26.467 9.549l0.13277 0.0598c0.83335 0.38104 1.6701 0.77012 2.5115 1.1696l1.569 0.75231c0.62932 0.30691 1.2615 0.62301 1.8954 0.9414l0.66897 0.33679c0.68507 0.34771 1.3724 0.70002 2.0621 1.0604l0.87875 0.46438c0.81323 0.43046 1.6288 0.87012 2.4478 1.3173l0.44311 0.24598 2.2707 1.2678c1.4299 0.81497 4.9495 2.6449 6.3961 3.5185 0.01147 7e-3 -2.7288-0.84771-7.9024-2.4834-8.7657-2.7719-16.306-3.6173-16.296-3.6673-0.0115 0.0443 3.4311 0.015 8.0806 0.71266-1.3506-0.36954-2.7173-0.89254-4.4541-1.2276-3.8765-0.76151-7.8749-1.0242-7.8737-1.0558-6e-3 0.0333 3.9886-0.25172 8.0507-0.0155 0.51208 0.0276 1.0236 0.0633 1.5276 0.10459l-0.12471-0.0385c-0.0178-0.65634-29.514-5.5277-29.58-5.3685-2e-3 -0.10804 13.032 0.72358 21.671 1.8449-1.1868-0.1546-6.5858-1.3138-6.9438-1.3914-0.10805-0.05-6.2892-1.573-12.717-2.3265-7.5116-0.8799-14.843-7e-3 -16.425-0.0362-4e-3 0.0167 9.9628-1.273 16.519-1.042 1.1046 0.0207 2.2092 0.0707 3.2834 0.13793-1.5109-0.37127-3.0328-0.72933-4.5616-1.0701-0.76208-0.027-5.8817-0.21323-11.008-5e-3 -5.4949 0.21264-16.977 1.2454-16.985 1.2081 2.227-0.47184 11.339-1.5236 16.832-2.2828 1.2311-0.17299 2.4673-0.32242 3.6472-0.45001-10.591-1.942-21.178-2.9443-30.443-2.3202-38.19 2.573-62.128 25.153-87.826 39.871l-1.3023 0.73794c-24.715 16.226-50.057 21.896-65.91 23.058-3.7121 0.26897-8.4662-0.38851-11.324-2.3466-4.9196-3.815-4.8495-6.1541-5.7036-8.5628 0.98507 1.4943 3.5644 2.4098 6.0369 2.542z"/>
  <g transform="matrix(-.61826 0 0 .57472 -32.133 539.34)">
   <path d="m517.459,395.59c9.548-9.253 7.159-22.909 7.159-22.909s-2.52,16.517-17.641,19.386c-3.16,3.379.964,12.595 10.482,3.523z"/>
   <path d="m525.438,396.364c-2.623,1.846-5.854,3.339-8.481,4.379 6.757-5.14 10.458-10.87 10.458-10.87s-5.986,7.015-23.176,12.03c-3.293.962-23.312,3.074-23.497,6.256 24.126,2.686 34.406-.737 41.627-5.654-1.724.549-3.924.985-5.993,1.316 5.352-3.258 13.225-10.405 9.062-7.457z"/>
  </g>
  <path transform="matrix(.32922 0 0 -.04659 -279.48 799.87)" d="m397.45 678.8c-34.849 42.631-171.1 313.54-192.78 328.73-12.511 3.854-24.307 25.296-35.139 20.671-58.73-25.077-94.712-63.01-115.83-94.278-6.7688-10.024-58.761-239.11-57.558-252.72 4.9399-55.918 49.494 205.91 120.61 193.07 20.727-3.7436 45.831 57.083 74.897 53.859 140.49-15.582 205.8-313 205.8-249.32z" fill="#b3b3b3" filter="url(#a)"/>
  <path transform="matrix(.30979 .11143 .01577 -.04384 -250.36 795.99)" d="m397.45 678.8c-34.849 42.631-171.1 313.54-192.78 328.73-12.511 3.854-24.307 25.296-35.139 20.671-58.73-25.077-94.712-63.01-115.83-94.278-6.7688-10.024-58.761-239.11-57.558-252.72 4.9399-55.918 49.494 205.91 120.61 193.07 20.727-3.7436 45.831 57.083 74.897 53.859 140.49-15.582 205.8-313 205.8-249.32z" fill="#b3b3b3" filter="url(#a)"/>
  <g transform="translate(240)" fill="#fff">
   <g opacity=".50943">
    <g transform="matrix(.68012 0 0 .68012 -321.27 235.29)">
     <path d="m-147.33 745.43h-35.047v2.9051h35.047v32.03h2.9051v-35.047c-0.88803 0.0554-2.2282-0.13815-2.9051 0.11137z"/>
     <path d="m-319.47 745.43h35.047v2.9051h-35.047v32.03h-2.9051v-35.047c0.88803 0.0554 2.2282-0.13815 2.9051 0.11137z"/>
     <path d="m-319.47 920.23h35.047v-2.9051h-35.047v-32.03h-2.9051v35.047c0.88803-0.0554 2.2282 0.13815 2.9051-0.11137z"/>
     <path d="m-147.33 920.23h-35.047v-2.9051h35.047v-32.03h2.9051v35.047c-0.88803-0.0554-2.2282 0.13815-2.9051-0.11137z"/>
    </g>
    <g transform="matrix(0 1 -1 0 322.29 1039.7)">
     <path d="m-339.31 801.24h80.61v2.1213h-80.61z"/>
     <path d="m-217.31 801.24h80.61v2.1213h-80.61z"/>
    </g>
    <g transform="matrix(-1 0 0 -1 -718.01 1604)">
     <path d="m-339.31 801.24h80.61v2.1213h-80.61z"/>
     <path d="m-217.31 801.24h80.61v2.1213h-80.61z"/>
    </g>
   </g>
   <path d="m-480.01 772.63c-16.057 0-29.088 13.031-29.088 29.088s13.031 29.071 29.088 29.071 29.088-13.013 29.088-29.071-13.031-29.088-29.088-29.088zm0 0.89638c15.571 0 28.192 12.621 28.192 28.192s-12.621 28.174-28.192 28.174-28.174-12.603-28.174-28.174 12.603-28.192 28.174-28.192z" opacity=".50943"/>
  </g>
 </g>
 <path transform="matrix(.32267 0 0 .74018 124.12 -422.04)" d="m196.58 724.26h12.063v292.74h-12.063z" fill="url(#c)" filter="url(#d)" opacity=".50943" stroke="#fff" stroke-width="1.4777"/>
 <path transform="matrix(0 .32267 -.34742 0 498.99 170.12)" d="m196.58 724.26h12.063v292.74h-12.063z" fill="url(#c)" filter="url(#d)" opacity=".50943" stroke="#fff" stroke-width="1.4777"/>
</svg>
