<?xml version="1.0" encoding="UTF-8"?>
<svg version="1.1" viewBox="0 0 500 500" xmlns="http://www.w3.org/2000/svg">
 <defs>
  <filter id="e" color-interpolation-filters="sRGB">
   <feGaussianBlur stdDeviation="11.961225"/>
  </filter>
  <linearGradient id="a" x1="331.43" x2="340" y1="412.36" y2="653.79" gradientTransform="matrix(0 -.86483 -.86483 0 860.86 1163.7)" gradientUnits="userSpaceOnUse">
   <stop stop-color="#800080" offset="0"/>
   <stop stop-color="#b400b4" offset="1"/>
  </linearGradient>
  <linearGradient id="f" x1="406.08" x2="406.08" y1="723.05" y2="860.43" gradientUnits="userSpaceOnUse">
   <stop stop-color="#fff" offset="0"/>
   <stop stop-color="#fff" stop-opacity="0" offset="1"/>
  </linearGradient>
  <linearGradient id="g" x1="234.36" x2="264.66" y1="761.61" y2="680.8" gradientUnits="userSpaceOnUse">
   <stop stop-color="#f0c" offset="0"/>
   <stop stop-color="#f0c" stop-opacity="0" offset="1"/>
  </linearGradient>
 </defs>
 <g transform="translate(0 -552.36)">
  <g transform="matrix(1.1283 0 0 1.1283 -200.13 -198.66)">
   <path transform="matrix(0 -.86483 -.86483 0 886.86 1193.7)" d="m242.82 360.99c-3.3911 0.13004-6.4948 0.8526-9.383 2.3611-2.5921 1.3539-4.7327 4.4351-5.0901 7.2672-0.35745 2.8321 0.32589 5.2004 1.2572 7.5432 1.8626 4.6856 5.1548 9.627 9.4443 15.546 8.579 11.839 21.259 27.173 33.883 45.014 25.248 35.681 49.695 80.866 41.212 124.59-8.4837 43.719-51.165 89.983-90.457 125.81-19.646 17.914-38.33 33.265-51.361 44.953-6.5156 5.8436-11.6 10.666-14.964 14.933-1.6819 2.1336-3.0277 4.0602-3.7409 6.7766-0.35662 1.3582-0.53475 3.065 0.0306 4.8755 0.56549 1.8104 1.9338 3.4157 3.3423 4.3235 3.7834 2.4386 7.9079 2.6179 12.572 2.2998 4.6642-0.31814 10.029-1.3776 16.19-3.0357 12.323-3.3162 27.819-9.0498 45.566-16.558 35.494-15.017 79.933-37.115 124.06-60.898 44.131-23.782 87.906-49.257 122.04-70.986 17.067-10.864 31.734-20.773 42.867-29.161 11.134-8.388 18.585-14.574 22.292-20.882 2.299-3.9121 1.9865-8.4942 0.61328-12.511-1.3732-4.0165-3.7939-7.9743-7.0219-12.265-6.456-8.582-16.313-18.39-28.701-29.161-24.776-21.542-59.631-46.764-96.283-70.403s-75.05-45.647-106.89-60.622c-15.922-7.4871-30.188-13.224-42.009-16.528-5.9106-1.652-11.2-2.8971-15.976-3.2196-1.1938-0.0806-2.3653-0.10467-3.4957-0.0613z" color="#000000" fill="#405" filter="url(#e)" opacity=".6"/>
   <path d="m574.52 959.24c-0.11461 2.9888-0.75144 5.7244-2.081 8.27-1.1932 2.2846-3.909 4.1713-6.4052 4.4863-2.4962 0.31505-4.5835-0.28724-6.6484-1.1081-4.1298-1.6417-8.485-4.5434-13.702-8.324-10.434-7.5613-23.95-18.737-39.674-29.864-31.449-22.253-71.274-43.8-109.81-36.323-38.533 7.4774-79.309 45.096-110.89 79.727-15.789 17.316-29.319 33.783-39.62 45.269-5.1504 5.7427-9.4008 10.224-13.162 13.189-1.8804 1.4824-3.5785 2.6686-5.9727 3.2972-1.1971 0.3143-2.7014 0.4713-4.2971-0.027-1.5957-0.4984-3.0105-1.7044-3.8107-2.9458-2.1493-3.3347-2.3074-6.9698-2.027-11.081 0.28039-4.1109 1.2142-8.8394 2.6756-14.27 2.9228-10.861 7.9763-24.519 14.594-40.161 13.236-31.284 32.713-70.451 53.674-109.35 20.961-38.896 43.414-77.478 62.565-107.56 9.5754-15.043 18.309-27.969 25.702-37.782 7.393-9.8129 12.845-16.381 18.405-19.648 3.448-2.0262 7.4866-1.7508 11.027-0.54052 3.54 1.2103 7.0284 3.3439 10.81 6.189 7.564 5.6901 16.209 14.378 25.702 25.296 18.986 21.837 41.217 52.558 62.052 84.862s40.232 66.147 53.43 94.213c6.599 14.033 11.655 26.607 14.567 37.026 1.456 5.2094 2.5534 9.8718 2.8377 14.081 0.0711 1.0522 0.0923 2.0847 0.054 3.081z" color="#000000" stroke="#000" stroke-linecap="round" stroke-linejoin="round" stroke-width="10.378"/>
   <path d="m576.74 955.98c-0.1146 2.9888-0.75143 5.7244-2.081 8.27-1.1932 2.2846-3.909 4.1713-6.4052 4.4863-2.4962 0.31505-4.5835-0.28723-6.6484-1.1081-4.1298-1.6417-8.485-4.5434-13.702-8.324-10.434-7.5613-23.95-18.737-39.674-29.864-31.449-22.253-71.274-43.8-109.81-36.323-38.533 7.4774-79.309 45.096-110.89 79.727-15.789 17.316-29.319 33.783-39.62 45.268-5.1504 5.7427-9.4008 10.224-13.162 13.189-1.8804 1.4824-3.5785 2.6686-5.9728 3.2972-1.1971 0.3143-2.7014 0.4713-4.2971-0.027-1.5957-0.4984-3.0105-1.7044-3.8107-2.9458-2.1493-3.3346-2.3073-6.9698-2.027-11.081 0.2804-4.1108 1.2142-8.8393 2.6756-14.27 2.9228-10.861 7.9763-24.519 14.594-40.161 13.236-31.284 32.713-70.451 53.674-109.35 20.961-38.896 43.414-77.478 62.565-107.56 9.5754-15.043 18.309-27.969 25.702-37.782 7.393-9.8129 12.845-16.381 18.405-19.648 3.448-2.0262 7.4866-1.7508 11.027-0.54052 3.54 1.2103 7.0284 3.3439 10.81 6.189 7.564 5.6901 16.209 14.378 25.702 25.296 18.986 21.837 41.217 52.558 62.052 84.862s40.232 66.147 53.43 94.213c6.599 14.033 11.655 26.607 14.567 37.026 1.456 5.2094 2.5534 9.8718 2.8377 14.081 0.0711 1.0522 0.0923 2.0847 0.054 3.081z" color="#000000" fill="url(#a)"/>
   <path d="m576.74 955.98c-0.1146 2.9888-0.75143 5.7244-2.081 8.27-1.1932 2.2846-3.909 4.1713-6.4052 4.4863-2.4962 0.31505-4.5835-0.28723-6.6484-1.1081-4.1298-1.6417-8.485-4.5434-13.702-8.324-10.434-7.5613-23.95-18.737-39.674-29.864-31.449-22.253-71.274-43.8-109.81-36.323-38.533 7.4774-79.309 45.096-110.89 79.727-15.789 17.316-29.319 33.783-39.62 45.268-5.1504 5.7427-9.4008 10.224-13.162 13.189-1.8804 1.4824-3.5785 2.6686-5.9728 3.2972-1.1971 0.3143-2.7014 0.4713-4.2971-0.027-1.5957-0.4984-3.0105-1.7044-3.8107-2.9458-2.1493-3.3346-2.3073-6.9698-2.027-11.081 0.2804-4.1108 1.2142-8.8393 2.6756-14.27 2.9228-10.861 7.9763-24.519 14.594-40.161 13.236-31.284 32.713-70.451 53.674-109.35 20.961-38.896 43.414-77.478 62.565-107.56 9.5754-15.043 18.309-27.969 25.702-37.782 7.393-9.8129 12.845-16.381 18.405-19.648 3.448-2.0262 7.4866-1.7508 11.027-0.54052 3.54 1.2103 7.0284 3.3439 10.81 6.189 7.564 5.6901 16.209 14.378 25.702 25.296 18.986 21.837 41.217 52.558 62.052 84.862s40.232 66.147 53.43 94.213c6.599 14.033 11.655 26.607 14.567 37.026 1.456 5.2094 2.5534 9.8718 2.8377 14.081 0.0711 1.0522 0.0923 2.0847 0.054 3.081z" color="#000000" fill="url(#a)"/>
   <path d="m400.42 694.6c-1.8307 0.0322-3.6707 0.44294-5.3467 1.4278-5.4049 3.1762-10.706 9.569-17.893 19.108-7.1869 9.5394-15.663 22.105-24.972 36.728-10.052 15.791-21.042 34.021-32.232 53.376 12.537-1.4488 25.39-2.2177 38.49-2.2177 66.613 0 126.96 19.473 170.79 50.976-8.5542-14.952-17.94-30.339-27.645-45.386-20.254-31.404-41.845-61.251-60.302-82.479-9.2286-10.614-17.649-19.075-25.002-24.607-3.6766-2.7658-7.0698-4.8385-10.511-6.0151-1.7206-0.58829-3.5464-0.94358-5.3771-0.91137z" color="#000000" fill="url(#f)"/>
   <path transform="translate(0 252.36)" d="m301.81 705.34c-1.3148 0.19289-2.6168 0.38122-3.9375 0.59375-24.852 3.9991-47.638 11.025-66.938 19.969-4.1936 10.613-7.488 20.059-9.625 28-1.4614 5.4304-2.3758 10.17-2.6562 14.281-0.28039 4.1109-0.11804 7.7592 2.0312 11.094 0.80015 1.2414 2.1856 2.4391 3.7812 2.9375 1.5957 0.4983 3.1154 0.34555 4.3125 0.0312 2.3942-0.6286 4.0883-1.8301 5.9688-3.3125 3.7609-2.9647 8.0058-7.4448 13.156-13.188 10.301-11.485 23.836-27.934 39.625-45.25 4.5767-5.019 9.353-10.113 14.281-15.156z" color="#000000" fill="url(#g)"/>
  </g>
 </g>
</svg>
