<?xml version="1.0" encoding="UTF-8"?>
<svg version="1.0" viewBox="0 0 1143.1399 854.58042" xmlns="http://www.w3.org/2000/svg">
 <path d="m571.42 136.08c-20.439 0-36.924 12.272-37.156 27.594v633.47h0.0312v18.875c0.23214 15.285 16.843 27.562 37.281 27.562s37.049-12.278 37.281-27.562v-652.34c-0.23214-15.322-16.999-27.594-37.438-27.594z" fill="none" stroke="#000" stroke-width="10"/>
 <path d="m111.23 46.18v-35.18s60.564 27.208 107.97 27.858c47.396 0.65003 119.7-17.736 200.11-1.2072 80.417 16.436 149.6 97.411 149.6 97.411l-6e-3 1.3125" fill="none" stroke="#000" stroke-width="5"/>
 <path d="m74.616 53.587v-6.3714s147.18-8.0789 258.22 13.186c116.42 22.379 228.05 75.867 228.05 75.867v1.1875" fill="none" stroke="#000" stroke-width="5"/>
 <path d="m50.03 55.567v-6.3146l504.86 89.02v0.90626" fill="none" stroke="#000" stroke-width="5"/>
 <path d="m40.261 59.742v-5.9199l504.86 89.02v1.5312" fill="none" stroke="#000" stroke-width="5"/>
 <path d="m36.148 64.153v-5.1306l504.86 89.02" fill="none" stroke="#000" stroke-width="5"/>
 <path d="m534.28 815.79-523.28-92.27v-663.84l525.85 92.722v1.625" fill="none" stroke="#000" stroke-width="10"/>
 <path d="m534.29 815.79-5e-3 -9.4e-4" fill="none" stroke="#000" stroke-width="5"/>
 <path d="m606.29 154.02c-7.8792 7.111-20.726 11.683-35.22 11.683-14.133 0-26.622-4.3596-34.523-11.135" fill="none" stroke="#000" stroke-width="10"/>
 <path d="m1031.9 46.18v-35.18s-60.564 27.208-107.97 27.858c-47.396 0.6501-119.7-17.736-200.11-1.2072-80.417 16.436-149.6 97.411-149.6 97.411l0.01 1.3125" fill="none" stroke="#000" stroke-width="5"/>
 <path d="m1068.5 53.587v-6.3714s-147.18-8.0789-258.22 13.186c-116.42 22.38-228.05 75.867-228.05 75.867v1.1875" fill="none" stroke="#000" stroke-width="5"/>
 <path d="m1093.1 55.567v-6.3146l-504.86 89.02v0.9062" fill="none" stroke="#000" stroke-width="5"/>
 <path d="m1102.9 59.741v-5.9199l-504.86 89.02v1.5312" fill="none" stroke="#000" stroke-width="5"/>
 <path d="m1107 64.153v-5.1306l-504.86 89.02" fill="none" stroke="#000" stroke-width="5"/>
 <path d="m608.86 815.79 523.28-92.27v-663.84l-525.85 92.722v1.625" fill="none" stroke="#000" stroke-width="10"/>
 <path d="m608.85 815.79v-9e-4" fill="none" stroke="#000" stroke-width="5"/>
</svg>
