<?xml version="1.0" encoding="utf-8"?>
<svg xmlns="http://www.w3.org/2000/svg" xmlns:xlink="http://www.w3.org/1999/xlink" version= "1.1" width="1539px" height="1099px" viewBox="-230 511 1539 1099">
<g id="layer1">
<g style="fill:rgb(99,195,207); fill-opacity:1.0; stroke-linejoin: miter">
<path d="M-230.001,509.9414C-230.28152,509.9414,-230.55054,510.05286,-230.74884,510.25122C-230.9472,510.44946,-231.05862,510.7185,-231.05862,510.99902L-231.05762,1609.9999C-231.05762,1610.5839,-230.5841,1611.0575,-229.99997,1611.0575L1309.001,1611.0587C1309.2816,1611.0587,1309.5504,1610.9469,1309.7489,1610.7487C1309.9473,1610.5502,1310.0587,1610.2811,1310.0587,1610.0009L1310.058,511.00012C1310.058,510.4159,1309.5845,509.9425,1309.0001,509.9425L-230.001,509.9414 Z"/>
</g>
<g style="fill:rgb(255,255,255); fill-opacity:0.78431374; stroke-linejoin: miter">
<path d="M1117.6885,967.65967C1118.9491,963.2578,1119.5919,958.7068,1119.5996,954.0869C1119.6451,926.7622,1097.4534,904.4989,1070.1309,904.4518C1058.7634,904.431,1047.6528,908.35925,1038.8463,915.5123C1031.0133,921.87256,1025.2808,930.52686,1022.4746,940.13696C1004.19434,938.3977,987.6438,949.97217,982.4514,966.89746C979.68384,966.26196,976.8561,965.93823,974.0044,965.9343C952.9761,965.8992,935.83997,982.85474,935.80347,1003.88257C935.76807,1024.9116,952.8457,1041.9231,973.87537,1041.959L1107.0173,1042.1847C1128.0458,1042.2218,1145.1807,1025.2634,1145.2172,1004.23413C1145.2452,987.03076,1133.8839,972.31006,1117.6885,967.65967 Z"/>
</g>
<g style="fill:rgb(255,255,255); fill-opacity:0.78431374; stroke-linejoin: miter">
<path d="M3.969357,1411.7172C2.708677,1407.3153,2.0661604,1402.7645,2.058409,1398.1442C2.0128767,1370.8198,24.204695,1348.5563,51.52706,1348.5096C62.89467,1348.4891,74.00526,1352.4174,82.811584,1359.5704C90.6447,1365.9302,96.377235,1374.5845,99.18314,1384.1948C117.463585,1382.4551,134.01442,1394.0294,139.20673,1410.9547C141.97424,1410.3192,144.80188,1409.9957,147.65375,1409.9916C168.68181,1409.9564,185.81815,1426.9127,185.85446,1447.9396C185.8898,1468.9696,168.8119,1485.9801,147.78252,1486.0167L14.6403055,1486.2423C-6.3879943,1486.2794,-23.52256,1469.3213,-23.559242,1448.2922C-23.587563,1431.0889,-12.226063,1416.3679,3.969357,1411.7172 Z"/>
</g>
<g style="fill:rgb(60,70,79); fill-opacity:1.0; stroke-linejoin: miter">
<path d="M608.51355,1079.7074L608.51355,1079.7074L608.51355,1079.7084C608.51355,1080.0365,608.4839,1080.3639,608.42505,1080.6871L608.42505,1080.6871L573.052,1274.7976C572.5117,1277.7625,569.67065,1279.7278,566.70605,1279.1875C563.7417,1278.647,561.77637,1275.8059,562.31665,1272.8416L562.31665,1272.8416L597.68933,1078.7301L597.60095,1079.7084L597.60095,1079.7072C597.60095,1076.694,600.0438,1074.2511,603.05725,1074.2511C606.0708,1074.2511,608.51355,1076.694,608.51355,1079.7074 Z"/>
</g>
<g style="fill:rgb(60,70,79); fill-opacity:1.0; stroke-linejoin: miter">
<path d="M436.69028,1086.127L436.69028,1086.127L436.69028,1086.1277L436.60178,1085.1494L471.97482,1279.2609C472.51498,1282.2257,470.54977,1285.0668,467.5853,1285.6073C464.6207,1286.1473,461.7795,1284.182,461.23935,1281.2172L461.23935,1281.2172L425.8663,1087.1062C425.8076,1086.783,425.77805,1086.456,425.77805,1086.1279L425.77805,1086.1279L425.77805,1086.127C425.77805,1083.1135,428.2208,1080.6707,431.23422,1080.6707C434.2474,1080.6704,436.69028,1083.1133,436.69028,1086.127 Z"/>
</g>
<g style="fill:rgb(152,117,98); fill-opacity:1.0; stroke-linejoin: miter">
<path d="M422.96548,1250.5732L515.71356,1250.5739L608.4613,1250.5739Q608.4615,1312.7327,608.4614,1374.8916Q515.7133,1374.8921,422.9654,1374.8922Q422.96545,1312.733,422.96548,1250.5732"/>
</g>
<g style="fill:rgb(90,73,57); fill-opacity:1.0; stroke-linejoin: miter">
<path d="M404.0468,1239.8005L515.71344,1239.8007L627.38,1239.8011Q627.38,1252.8812,627.37994,1265.9614Q515.7134,1265.9624,404.04675,1265.9625Q404.0468,1252.8813,404.0468,1239.8005"/>
</g>
<g style="fill:rgb(112,97,78); fill-opacity:1.0; stroke-linejoin: miter">
<path d="M468.3323,1231.5144L468.3323,1231.5144L534.8735,1231.5157C537.8869,1231.5157,540.32965,1233.9586,540.32965,1236.972L540.32965,1236.972L540.3296,1491.9028C540.3296,1494.9158,537.88684,1497.3586,534.87354,1497.3586L534.87354,1497.3586L468.33224,1497.3593C466.8851,1497.3593,465.4974,1496.7845,464.4741,1495.7611C463.45078,1494.7382,462.87595,1493.3505,462.87607,1491.9034L462.87607,1491.9034L462.876,1236.9705C462.876,1235.5232,463.45084,1234.136,464.47415,1233.1123C465.49734,1232.0891,466.88516,1231.5144,468.3323,1231.5144L468.3323,1231.5144 M468.33206,1242.427L473.78836,1236.9705L473.7883,1491.9034L468.33212,1486.4471L534.8734,1486.4463L529.41724,1491.9023L529.4173,1236.9718L534.8735,1242.4279L468.33206,1242.427 Z"/>
</g>
<g style="fill:rgb(112,97,78); fill-opacity:1.0; stroke-linejoin: miter">
<path d="M462.2054,1282.7423L462.2054,1282.7423L541.1394,1281.74C544.1526,1281.7019,546.6261,1284.1135,546.6644,1287.127C546.7025,1290.1396,544.291,1292.6135,541.2781,1292.6516L541.2781,1292.6516L462.34396,1293.6537C459.33078,1293.692,456.85727,1291.2804,456.81894,1288.2672C456.7806,1285.2543,459.19223,1282.7804,462.2054,1282.7423 Z"/>
</g>
<g style="fill:rgb(112,97,78); fill-opacity:1.0; stroke-linejoin: miter">
<path d="M461.20065,1318.2611L461.20065,1318.2611L540.13464,1317.2595C543.1477,1317.2207,545.62134,1319.6323,545.65967,1322.6458C545.69775,1325.6584,543.2864,1328.1321,540.2732,1328.1707L540.2732,1328.1707L461.3392,1329.1725C458.32602,1329.211,455.8524,1326.7997,455.81418,1323.7865C455.77585,1320.7733,458.18747,1318.2994,461.20065,1318.2611 Z"/>
</g>
<g style="fill:rgb(112,97,78); fill-opacity:1.0; stroke-linejoin: miter">
<path d="M463.21017,1351.4346L463.21017,1351.4346L542.1443,1350.4329C545.15735,1350.3943,547.631,1352.8057,547.6693,1355.8191C547.7075,1358.8325,545.296,1361.3064,542.28284,1361.3445L542.28284,1361.3445L463.34885,1362.3462C460.3358,1362.3845,457.86215,1359.9731,457.8237,1356.9597C457.7855,1353.9468,460.1971,1351.4729,463.21017,1351.4346 Z"/>
</g>
<g style="fill:rgb(112,97,78); fill-opacity:1.0; stroke-linejoin: miter">
<path d="M462.20535,1382.5975L462.20535,1382.5975L541.13947,1381.5952C544.15265,1381.5571,546.62616,1383.9685,546.66437,1386.9817C546.70245,1389.9951,544.2911,1392.4685,541.278,1392.5071L541.278,1392.5071L462.3439,1393.5087C459.33072,1393.547,456.8572,1391.1354,456.81888,1388.1222C456.78055,1385.109,459.19217,1382.6356,462.20535,1382.5975 Z"/>
</g>
<g style="fill:rgb(112,97,78); fill-opacity:1.0; stroke-linejoin: miter">
<path d="M462.87515,1418.4513L462.87515,1418.4513L541.80927,1417.4492C544.82245,1417.4111,547.29596,1419.823,547.3343,1422.8357C547.3724,1425.8489,544.961,1428.3228,541.9478,1428.3611L541.9478,1428.3611L463.01382,1429.3629C460.00064,1429.401,457.527,1426.9894,457.48868,1423.9762C457.45035,1420.9633,459.8621,1418.4896,462.87515,1418.4513 Z"/>
</g>
<g style="fill:rgb(112,97,78); fill-opacity:1.0; stroke-linejoin: miter">
<path d="M462.87527,1451.2896L462.87527,1451.2896L541.8094,1450.2874C544.82245,1450.2495,547.29596,1452.6609,547.3343,1455.6743C547.3725,1458.6873,544.961,1461.1609,541.9478,1461.1992L541.9478,1461.1992L463.01382,1462.2012C460.00064,1462.239,457.527,1459.8276,457.4888,1456.8145C457.4506,1453.8013,459.8621,1451.3279,462.87527,1451.2896 Z"/>
</g>
<g style="fill:rgb(63,67,79); fill-opacity:1.0; stroke-linejoin: miter">
<path d="M444.24863,1123.5342L515.5967,1122.7697L586.9442,1122.0043Q587.21454,1147.2295,587.4848,1172.4541Q516.1374,1173.2197,444.7891,1173.9841Q444.5187,1148.7592,444.24863,1123.5342"/>
</g>
<g style="fill:rgb(41,43,55); fill-opacity:1.0; stroke-linejoin: miter">
<path d="M423.5737,1032.6702L513.54803,1031.7065L603.5223,1030.742Q604.1383,1088.2262,604.75305,1145.7097Q514.7791,1146.6746,424.80508,1147.6385Q424.1893,1090.1545,423.5737,1032.6702"/>
</g>
<g style="fill:rgb(253,192,15); fill-opacity:1.0; stroke-linejoin: miter">
<path d="M508.88342,640.164C420.54865,641.1099,349.2179,713.7977,350.16797,802.5099C350.20197,805.7185,350.62262,809.67834,351.04202,813.63794C353.7305,835.5066,360.75308,856.76294,371.52927,875.90186C383.07877,896.7317,400.40323,928.07043,414.63687,952.8363C421.1785,964.28064,432.09647,979.078,430.7144,1026.2848L513.0079,1025.4045L595.49054,1024.5178C593.09576,977.1621,603.69696,962.32544,609.9909,950.74194C623.69135,925.6782,640.344,894.1642,651.44385,873.0919C661.8052,853.53625,668.3718,832.13416,670.5911,810.2139C670.9261,806.247,671.2614,802.278,671.227,799.0694C670.27716,710.357,597.2163,639.2174,508.88342,640.164 Z"/>
</g>
<g style="fill:rgb(226,163,5); fill-opacity:1.0; stroke-linejoin: miter">
<path d="M480.7876,1026.6073L448.13428,1026.9603C449.51453,979.5619,438.59842,964.9535,432.05765,953.50916C417.82327,928.744,400.50092,897.59424,388.95154,876.76416C378.1733,857.43555,371.1503,836.1797,368.46182,814.31104C368.0424,810.3508,367.62177,806.3917,367.58795,803.1831C366.9226,741.08435,401.64203,686.91205,452.69458,659.55927C417.16864,691.27606,394.82275,737.57605,395.37292,788.9164C395.40942,792.3137,395.83093,796.4625,396.4441,800.7976C399.14606,823.9878,406.74896,846.55835,418.10675,867.0139C430.42462,889.15674,448.90198,922.3705,463.90723,948.6376C470.6427,960.6461,482.32764,976.5665,480.7876,1026.6073 Z"/>
</g>
<g style="fill:rgb(63,67,79); fill-opacity:1.0; stroke-linejoin: miter">
<path d="M608.2837,1038.1617C608.30994,1040.6151,606.4429,1042.5226,603.9894,1042.5497L423.5471,1044.4849C421.0931,1044.509,419.18527,1042.6414,419.15964,1040.1882L419.0601,1030.9406C419.03397,1028.4855,420.90176,1026.579,423.35513,1026.5524L603.6082,1024.6211C606.0616,1024.5945,607.96954,1026.4617,607.9964,1028.915L608.0952,1038.1635 Z"/>
</g>
<g style="fill:rgb(63,67,79); fill-opacity:1.0; stroke-linejoin: miter">
<path d="M608.15,1084.3715C608.17615,1086.8253,606.30835,1088.733,603.855,1088.7589L423.41293,1090.6951C420.95895,1090.7195,419.05148,1088.8523,419.025,1086.3989L418.92514,1077.1492C418.89938,1074.6958,420.7668,1072.7878,423.2203,1072.7612L603.47363,1070.8307C605.92725,1070.8036,607.83545,1072.6708,607.8616,1075.1241L607.96094,1084.3737 Z"/>
</g>
<g style="fill:rgb(63,67,79); fill-opacity:1.0; stroke-linejoin: miter">
<path d="M608.447,1112.1185C608.4729,1114.5704,606.60486,1116.4786,604.15186,1116.5048L423.7098,1118.4414C421.25595,1118.4656,419.34848,1116.5991,419.32224,1114.145L419.22263,1104.8962C419.197,1102.4424,421.06345,1100.5347,423.5178,1100.5078L603.7711,1098.5775C606.22473,1098.5499,608.1327,1100.4166,608.15894,1102.8715L608.2582,1112.1205 Z"/>
</g>
<g style="fill:rgb(254,217,111); fill-opacity:1.0; stroke-linejoin: miter">
<path d="M613.0635,691.14935C567.6907,649.5389,506.75525,653.0234,504.30396,653.2381C497.32434,653.6906,492.10425,659.7873,492.5547,666.5783C493.00623,673.5584,499.10266,678.7789,505.8944,678.3288C506.45996,678.3227,558.5282,675.3099,596.08295,709.6418C620.867,732.4063,633.69073,766.4368,634.54724,811.1669C634.6134,817.3949,639.19775,822.44324,645.2479,823.3214C646.00464,823.5023,646.7599,823.494,647.3264,823.48816C654.30896,823.4132,659.72266,817.692,659.6477,810.70886C658.71405,758.8057,642.9937,718.5777,613.0635,691.14935 Z"/>
</g>
</g>
</svg>