<?xml version="1.0" encoding="UTF-8" standalone="no"?>
<svg
   inkscape:export-ydpi="191.87601"
   inkscape:export-xdpi="191.87601"
   inkscape:export-filename="/Users/asomers/ARTlogoReview.png"
   sodipodi:docname="IRTtextPaths_v03.svg"
   inkscape:version="1.2.2 (b0a8486, 2022-12-01)"
   id="svg8"
   version="1.1"
   viewBox="0 0 107.00432 42.333328"
   height="42.333328mm"
   width="107.00432mm"
   xmlns:inkscape="http://www.inkscape.org/namespaces/inkscape"
   xmlns:sodipodi="http://sodipodi.sourceforge.net/DTD/sodipodi-0.dtd"
   xmlns="http://www.w3.org/2000/svg"
   xmlns:svg="http://www.w3.org/2000/svg"
   xmlns:rdf="http://www.w3.org/1999/02/22-rdf-syntax-ns#"
   xmlns:cc="http://creativecommons.org/ns#"
   xmlns:dc="http://purl.org/dc/elements/1.1/">
  <defs
     id="defs2">
    <rect
       x="94.748169"
       y="80.035721"
       width="103.1833"
       height="33.348217"
       id="rect1063" />
    <rect
       x="94.355835"
       y="79.054886"
       width="63.36161"
       height="15.10478"
       id="rect1057" />
    <filter
       style="color-interpolation-filters:sRGB"
       inkscape:label="Drop Shadow"
       id="filter2284"
       x="-0.044407377"
       y="-0.080962449"
       width="1.104234"
       height="1.1900369">
      <feFlood
         flood-opacity="0.48341232227488151"
         flood-color="rgb(113,9,149)"
         result="flood"
         id="feFlood2274" />
      <feComposite
         in="flood"
         in2="SourceGraphic"
         operator="out"
         result="composite1"
         id="feComposite2276" />
      <feGaussianBlur
         in="composite1"
         stdDeviation="0.6"
         result="blur"
         id="feGaussianBlur2278" />
      <feOffset
         dx="0.5"
         dy="0.5"
         result="offset"
         id="feOffset2280" />
      <feComposite
         in="offset"
         in2="SourceGraphic"
         operator="atop"
         result="composite2"
         id="feComposite2282" />
    </filter>
    <filter
       x="-0.34025658"
       width="1.6805132"
       y="-0.98132191"
       height="2.9626438"
       inkscape:menu-tooltip="Oversaturate colors which can be fluorescent in real world"
       inkscape:menu="Color"
       inkscape:label="Lightness-Contrast"
       style="color-interpolation-filters:sRGB"
       id="filter156-8">
      <feGaussianBlur
         result="result8"
         stdDeviation="12.999674"
         id="feGaussianBlur144-6" />
      <feTurbulence
         baseFrequency="0.019000000000000003"
         numOctaves="1"
         type="fractalNoise"
         result="result7"
         seed="45"
         id="feTurbulence146-9" />
      <feComposite
         in="SourceGraphic"
         operator="over"
         result="result6"
         in2="result8"
         id="feComposite148-0" />
      <feComposite
         in="result6"
         operator="arithmetic"
         result="result2"
         in2="result7"
         k3="1"
         id="feComposite150-1"
         k1="0"
         k2="0"
         k4="0" />
      <feComposite
         in2="result6"
         operator="in"
         in="result2"
         result="fbSourceGraphic"
         id="feComposite152-6" />
      <feComposite
         in2="fbSourceGraphic"
         in="fbSourceGraphic"
         k2="2.5"
         operator="arithmetic"
         id="feComposite154-4"
         result="fbSourceGraphic"
         k1="0"
         k3="0"
         k4="0" />
      <feColorMatrix
         result="fbSourceGraphicAlpha"
         in="fbSourceGraphic"
         values="0 0 0 -1 0 0 0 0 -1 0 0 0 0 -1 0 0 0 0 1 0"
         id="feColorMatrix206-4" />
      <feColorMatrix
         id="feColorMatrix208-8"
         type="hueRotate"
         values="0"
         in="fbSourceGraphic" />
      <feColorMatrix
         id="feColorMatrix210-6"
         type="saturate"
         values="1" />
      <feColorMatrix
         id="feColorMatrix212-1"
         type="matrix"
         values="2 -1 0 0 0 0 2 -1 0 0 -1 0 2 0 0 0 0 0 1 0 "
         result="fbSourceGraphic" />
      <feColorMatrix
         result="fbSourceGraphicAlpha"
         in="fbSourceGraphic"
         values="1"
         id="feColorMatrix332-4"
         type="saturate" />
      <feColorMatrix
         id="feColorMatrix334-0"
         values="1"
         in="fbSourceGraphic"
         type="hueRotate" />
      <feGaussianBlur
         stdDeviation="13"
         id="feGaussianBlur255"
         result="result9" />
      <feBlend
         mode="color-burn"
         in2="result9"
         id="feBlend257" />
    </filter>
    <filter
       style="color-interpolation-filters:sRGB"
       inkscape:label="Drop Shadow"
       id="filter1535"
       x="-0.029321438"
       y="-0.074642355"
       width="1.0667877"
       height="1.1700187">
      <feFlood
         flood-opacity="0.784314"
         flood-color="rgb(43,0,47)"
         result="flood"
         id="feFlood1525" />
      <feComposite
         in="flood"
         in2="SourceGraphic"
         operator="in"
         result="composite1"
         id="feComposite1527" />
      <feGaussianBlur
         in="composite1"
         stdDeviation="0.6"
         result="blur"
         id="feGaussianBlur1529" />
      <feOffset
         dx="0.4"
         dy="0.4"
         result="offset"
         id="feOffset1531" />
      <feComposite
         in="SourceGraphic"
         in2="offset"
         operator="over"
         result="composite2"
         id="feComposite1533" />
    </filter>
    <clipPath
       clipPathUnits="userSpaceOnUse"
       id="clipPath8420">
      <rect
         style="opacity:1;fill:#71db00;fill-opacity:1;stroke:none;stroke-width:0.529;stroke-linecap:round;stroke-linejoin:round;paint-order:stroke fill markers"
         id="rect8422"
         width="107.00432"
         height="42.333328"
         x="33.980789"
         y="14.363094"
         ry="11.520248" />
    </clipPath>
  </defs>
  <sodipodi:namedview
     id="base"
     pagecolor="#ffffff"
     bordercolor="#666666"
     borderopacity="1.0"
     inkscape:pageopacity="0.0"
     inkscape:pageshadow="2"
     inkscape:zoom="1.6429541"
     inkscape:cx="163.72947"
     inkscape:cy="92.820609"
     inkscape:document-units="mm"
     inkscape:current-layer="layer1"
     inkscape:document-rotation="0"
     showgrid="false"
     inkscape:window-width="1403"
     inkscape:window-height="855"
     inkscape:window-x="7"
     inkscape:window-y="23"
     inkscape:window-maximized="0"
     showguides="true"
     inkscape:snap-center="false"
     inkscape:snap-object-midpoints="false"
     inkscape:snap-global="false"
     inkscape:snap-nodes="true"
     inkscape:showpageshadow="2"
     inkscape:pagecheckerboard="0"
     inkscape:deskcolor="#d1d1d1" />
  <metadata
     id="metadata5">
    <rdf:RDF>
      <cc:Work
         rdf:about="">
        <dc:format>image/svg+xml</dc:format>
        <dc:type
           rdf:resource="http://purl.org/dc/dcmitype/StillImage" />
      </cc:Work>
    </rdf:RDF>
  </metadata>
  <g
     inkscape:label="Layer 1"
     inkscape:groupmode="layer"
     id="layer1"
     style="display:inline"
     transform="translate(-33.980789,-14.363094)">
    <g
       id="g8418"
       clip-path="url(#clipPath8420)">
      <rect
         style="opacity:1;fill:#150078;fill-opacity:1;stroke:#f9ff40;stroke-width:2;stroke-linecap:round;paint-order:stroke fill markers"
         id="rect253"
         width="202.5663"
         height="94.330505"
         x="-26.38892"
         y="-6.1405559" />
      <rect
         style="opacity:0.874576;mix-blend-mode:hard-light;fill:#0ed400;fill-opacity:1;stroke-width:0.185782;filter:url(#filter156-8)"
         id="rect833"
         width="183.38872"
         height="63.586899"
         x="-7.0288901"
         y="25.25148"
         ry="0"
         clip-path="none"
         transform="matrix(-1.0261747,0,0,-1.2434664,161.0176,110.1245)"
         rx="0"
         inkscape:export-xdpi="191.87595"
         inkscape:export-ydpi="191.87595" />
    </g>
    <g
       aria-label="IRT"
       id="text952"
       style="font-weight:300;font-size:25.4px;line-height:1.25;font-family:Montserrat;-inkscape-font-specification:'Montserrat Light';stroke-width:0.264583;filter:url(#filter2284)"
       transform="matrix(1.4312672,0,0,1.4312672,-136.56959,-25.44669)">
      <path
         id="path853"
         style="font-style:normal;font-variant:normal;font-weight:normal;font-stretch:normal;font-size:25.4px;font-family:Audiowide;-inkscape-font-specification:Audiowide;fill:#ffffff;stroke-width:0.264583"
         d="m 126.59268,32.704084 h 2.7223 c 0.22324,0 0.43408,0.04134 0.63252,0.124023 0.19844,0.08268 0.37207,0.198437 0.5209,0.347266 0.14883,0.148828 0.26458,0.322461 0.34726,0.520898 0.0827,0.198437 0.12403,0.409277 0.12403,0.63252 v 16.160253 h -3.22461 v -5.977929 -8.582422 l -0.0111,-1.856523 c 0,0 -0.0283,-1.002407 -1.1113,-1.368086 z"
         sodipodi:nodetypes="cssscscccccc" />
      <path
         id="path956"
         style="font-style:normal;font-variant:normal;font-weight:normal;font-stretch:normal;font-size:25.4px;font-family:Audiowide;-inkscape-font-specification:Audiowide;fill:#ffffff;stroke-width:0.999999"
         d="m 495.9043,123.60547 c 1.76905,0.9612 3.15262,2.5616 3.5,4.62305 0.0414,2.52075 0.052,5.04288 0.0781,7.56445 h 35.92383 c 0.25002,0 0.51568,0.0155 0.79687,0.0469 0.31257,0.0313 0.59393,0.14063 0.84376,0.32813 0.28131,0.15625 0.50015,0.42187 0.65624,0.79687 0.18747,0.34376 0.28126,0.85938 0.28126,1.54688 v 7.6875 c 0,1.59375 -0.25001,3.01562 -0.75,4.26562 -0.5,1.21875 -1.21874,2.26563 -2.15626,3.14063 -0.90625,0.875 -1.99999,1.57812 -3.28124,2.10937 -1.25001,0.5 -2.6406,0.81251 -4.17188,0.9375 h -27.5625 v 12.1875 h 8.76562 l 25.40626,21.98438 H 553.0781 L 527.625,168.83984 c 1.50002,0 3.09377,-0.17187 4.78125,-0.51562 1.71874,-0.34375 3.40624,-0.89063 5.0625,-1.64063 1.68748,-0.78124 3.29685,-1.76562 4.82813,-2.95312 1.53123,-1.1875 2.87497,-2.60937 4.03124,-4.26563 1.18749,-1.68749 2.12501,-3.625 2.8125,-5.8125 0.68769,-2.1875 1.03126,-4.67187 1.03126,-7.45312 v -7.78125 c 0,-1.5 -0.26563,-3.10937 -0.79688,-4.82813 -0.49999,-1.71875 -1.34376,-3.3125 -2.53125,-4.78125 -1.15627,-1.5 -2.67189,-2.73437 -4.54687,-3.70312 -1.87499,-1 -4.17186,-1.5 -6.89063,-1.5 z"
         transform="scale(0.26458333)" />
      <path
         id="path958"
         style="font-style:normal;font-variant:normal;font-weight:normal;font-stretch:normal;font-size:25.4px;font-family:Audiowide;-inkscape-font-specification:Audiowide;fill:#ffffff;stroke-width:0.999999"
         d="m 544.80078,123.60547 c 4.29123,1.62916 7.85317,5.18768 9.24024,9.63672 0.20467,0.84225 0.35206,1.69505 0.47851,2.55078 h 13.12109 v 55.03125 h 12.1875 v -55.03125 h 21.19009 v -6.09375 c 0,0 0.11482,-2.64822 -1.87109,-4.4375 -2.01415,-1.81472 -5.10547,-1.65625 -5.10547,-1.65625 z"
         transform="scale(0.26458333)"
         sodipodi:nodetypes="cccccccccscc" />
    </g>
    <g
       aria-label="IRT"
       id="text952-0"
       style="font-weight:300;font-size:25.4px;line-height:1.25;font-family:Montserrat;-inkscape-font-specification:'Montserrat Light';display:inline;stroke-width:0.264583"
       transform="translate(-69.542575,-29.568775)" />
    <text
       xml:space="preserve"
       id="text1055"
       style="font-style:normal;font-variant:normal;font-weight:normal;font-stretch:normal;font-size:10.5833px;line-height:1.25;font-family:'Arima Madurai';-inkscape-font-specification:'Arima Madurai';white-space:pre;shape-inside:url(#rect1057);display:inline"
       transform="translate(-69.542575,-29.568775)" />
    <g
       aria-label="INCLUSIVE
READING
TECHNOLOGIES  "
       transform="translate(-10.446456,-53.337324)"
       id="text1061"
       style="font-size:6.87917px;line-height:1;font-family:'DIN Alternate';-inkscape-font-specification:'DIN Alternate';white-space:pre;shape-inside:url(#rect1063);display:inline;fill:#ffffff;filter:url(#filter1535)">
      <path
         d="m 95.332776,85.767798 q -0.0344,0 -0.06191,-0.02064 -0.02064,-0.02752 -0.02064,-0.06191 v -4.650319 q 0,-0.0344 0.02064,-0.05503 0.02752,-0.02752 0.06191,-0.02752 h 0.632884 q 0.0344,0 0.05503,0.02752 0.02752,0.02064 0.02752,0.05503 v 4.650319 q 0,0.0344 -0.02752,0.06191 -0.02064,0.02064 -0.05503,0.02064 z"
         style="font-family:'Barlow SemiBold';-inkscape-font-specification:'Barlow SemiBold, '"
         id="path592" />
      <path
         d="m 99.852385,81.034929 q 0,-0.0344 0.02064,-0.05503 0.02752,-0.02752 0.06191,-0.02752 h 0.632885 q 0.0344,0 0.055,0.02752 0.0275,0.02064 0.0275,0.05503 v 4.650319 q 0,0.0344 -0.0275,0.06191 -0.0206,0.02064 -0.055,0.02064 h -0.612247 q -0.06879,0 -0.09631,-0.05503 l -1.981201,-3.246969 q -0.01376,-0.02064 -0.02752,-0.01376 -0.01376,0 -0.01376,0.02752 l 0.01376,3.205693 q 0,0.0344 -0.02752,0.06191 -0.02064,0.02064 -0.05503,0.02064 h -0.632884 q -0.0344,0 -0.06191,-0.02064 -0.02064,-0.02752 -0.02064,-0.06191 v -4.650319 q 0,-0.0344 0.02064,-0.05503 0.02752,-0.02752 0.06191,-0.02752 h 0.612246 q 0.06879,0 0.09631,0.05503 l 1.974322,3.246968 q 0.01376,0.02064 0.02752,0.02064 0.01376,-0.0069 0.01376,-0.0344 z"
         style="font-family:'Barlow SemiBold';-inkscape-font-specification:'Barlow SemiBold, '"
         id="path594" />
      <path
         d="m 103.26444,85.822831 q -0.51593,0 -0.90805,-0.199496 -0.39211,-0.206375 -0.60536,-0.570971 -0.21326,-0.364596 -0.21326,-0.846138 v -1.699155 q 0,-0.481542 0.21326,-0.846138 0.21325,-0.364596 0.60536,-0.564092 0.39212,-0.199495 0.90805,-0.199495 0.50906,0 0.90118,0.192616 0.39211,0.192617 0.60536,0.543455 0.21326,0.350837 0.21326,0.811742 0,0.0344 -0.0275,0.06191 -0.0206,0.02064 -0.055,0.02064 l -0.63289,0.0344 q -0.0825,0 -0.0825,-0.07567 0,-0.405871 -0.25453,-0.653521 -0.24765,-0.24765 -0.66728,-0.24765 -0.41962,0 -0.67415,0.24765 -0.25453,0.24765 -0.25453,0.653521 v 1.754188 q 0,0.398992 0.25453,0.646642 0.25453,0.24765 0.67415,0.24765 0.41963,0 0.66728,-0.240771 0.25453,-0.24765 0.25453,-0.653521 0,-0.07567 0.0825,-0.07567 l 0.63289,0.02752 q 0.0344,0 0.055,0.02064 0.0275,0.02064 0.0275,0.04815 0,0.467783 -0.21326,0.8255 -0.21325,0.350838 -0.60536,0.543454 -0.39212,0.192617 -0.90118,0.192617 z"
         style="font-family:'Barlow SemiBold';-inkscape-font-specification:'Barlow SemiBold, '"
         id="path596" />
      <path
         d="m 105.9198,85.767798 q -0.0344,0 -0.0619,-0.02064 -0.0206,-0.02752 -0.0206,-0.06191 v -4.650319 q 0,-0.0344 0.0206,-0.05503 0.0275,-0.02752 0.0619,-0.02752 h 0.63289 q 0.0344,0 0.055,0.02752 0.0275,0.02064 0.0275,0.05503 v 4.010556 q 0,0.0344 0.0344,0.0344 h 2.30452 q 0.0344,0 0.055,0.02752 0.0275,0.02064 0.0275,0.05503 v 0.522817 q 0,0.0344 -0.0275,0.06191 -0.0206,0.02064 -0.055,0.02064 z"
         style="font-family:'Barlow SemiBold';-inkscape-font-specification:'Barlow SemiBold, '"
         id="path598" />
      <path
         d="m 111.45065,85.822831 q -0.50906,0 -0.90117,-0.199496 -0.39211,-0.199496 -0.61225,-0.564092 -0.21325,-0.371475 -0.21325,-0.853017 v -3.171297 q 0,-0.0344 0.0206,-0.05503 0.0275,-0.02752 0.0619,-0.02752 h 0.63288 q 0.0344,0 0.055,0.02752 0.0275,0.02064 0.0275,0.05503 v 3.185056 q 0,0.405871 0.25453,0.6604 0.25453,0.254529 0.67416,0.254529 0.41963,0 0.67416,-0.254529 0.25453,-0.254529 0.25453,-0.6604 v -3.185056 q 0,-0.0344 0.0206,-0.05503 0.0275,-0.02752 0.0619,-0.02752 h 0.63288 q 0.0344,0 0.055,0.02752 0.0275,0.02064 0.0275,0.05503 v 3.171297 q 0,0.481542 -0.21325,0.853017 -0.21326,0.364596 -0.60537,0.564092 -0.39211,0.199496 -0.90805,0.199496 z"
         style="font-family:'Barlow SemiBold';-inkscape-font-specification:'Barlow SemiBold, '"
         id="path600" />
      <path
         d="m 115.6951,85.822831 q -0.53658,0 -0.93557,-0.171979 -0.39899,-0.171979 -0.61913,-0.481542 -0.21325,-0.309563 -0.21325,-0.729192 v -0.171979 q 0,-0.0344 0.0206,-0.05503 0.0275,-0.02752 0.0619,-0.02752 h 0.61224 q 0.0344,0 0.055,0.02752 0.0275,0.02064 0.0275,0.05503 v 0.130704 q 0,0.316442 0.28205,0.529696 0.28205,0.206375 0.77047,0.206375 0.41963,0 0.63288,-0.178858 0.21326,-0.178859 0.21326,-0.460905 0,-0.192616 -0.11695,-0.323321 -0.11695,-0.137583 -0.33708,-0.24765 -0.21325,-0.110066 -0.64664,-0.275166 -0.48842,-0.178859 -0.79111,-0.33708 -0.30268,-0.158221 -0.50905,-0.426508 -0.1995,-0.275167 -0.1995,-0.681038 0,-0.605367 0.44027,-0.956205 0.44026,-0.350837 1.17633,-0.350837 0.51594,0 0.90806,0.178858 0.39899,0.178858 0.61912,0.502179 0.22013,0.316442 0.22013,0.736072 V 82.4314 q 0,0.0344 -0.0275,0.06191 -0.0206,0.02064 -0.055,0.02064 h -0.61912 q -0.0344,0 -0.0619,-0.02064 -0.0206,-0.02752 -0.0206,-0.06191 v -0.07567 q 0,-0.323321 -0.26829,-0.543455 -0.26141,-0.227012 -0.72919,-0.227012 -0.37836,0 -0.59161,0.15822 -0.20637,0.158221 -0.20637,0.447146 0,0.206376 0.11006,0.33708 0.11007,0.130704 0.3302,0.240771 0.22014,0.103187 0.68104,0.268287 0.48842,0.185738 0.77735,0.33708 0.2958,0.151341 0.50218,0.426508 0.21325,0.268288 0.21325,0.674159 0,0.619125 -0.4609,0.983721 -0.45403,0.364596 -1.24513,0.364596 z"
         style="font-family:'Barlow SemiBold';-inkscape-font-specification:'Barlow SemiBold, '"
         id="path602" />
      <path
         d="m 118.28854,85.767798 q -0.0344,0 -0.0619,-0.02064 -0.0206,-0.02752 -0.0206,-0.06191 v -4.650319 q 0,-0.0344 0.0206,-0.05503 0.0275,-0.02752 0.0619,-0.02752 h 0.63288 q 0.0344,0 0.055,0.02752 0.0275,0.02064 0.0275,0.05503 v 4.650319 q 0,0.0344 -0.0275,0.06191 -0.0206,0.02064 -0.055,0.02064 z"
         style="font-family:'Barlow SemiBold';-inkscape-font-specification:'Barlow SemiBold, '"
         id="path604" />
      <path
         d="m 121.25345,85.767798 q -0.0688,0 -0.0894,-0.06879 l -1.44463,-4.650319 -0.007,-0.02752 q 0,-0.06879 0.0757,-0.06879 h 0.68104 q 0.0757,0 0.0963,0.06879 l 1.03187,3.590926 q 0.007,0.02064 0.0206,0.02064 0.0138,0 0.0206,-0.02064 l 1.02499,-3.590926 q 0.0206,-0.06879 0.0963,-0.06879 h 0.66728 q 0.0413,0 0.0619,0.02752 0.0206,0.02752 0.007,0.06879 l -1.46526,4.650319 q -0.0206,0.06879 -0.0894,0.06879 z"
         style="font-family:'Barlow SemiBold';-inkscape-font-specification:'Barlow SemiBold, '"
         id="path606" />
      <path
         d="m 127.40342,81.557746 q 0,0.0344 -0.0275,0.06191 -0.0206,0.02064 -0.055,0.02064 h -2.3458 q -0.0344,0 -0.0344,0.0344 v 1.286405 q 0,0.0344 0.0344,0.0344 h 1.57533 q 0.0344,0 0.055,0.02752 0.0275,0.02064 0.0275,0.05503 v 0.522817 q 0,0.0344 -0.0275,0.06191 -0.0206,0.02064 -0.055,0.02064 h -1.57533 q -0.0344,0 -0.0344,0.0344 v 1.32768 q 0,0.0344 0.0344,0.0344 h 2.3458 q 0.0344,0 0.055,0.02752 0.0275,0.02064 0.0275,0.05503 v 0.522817 q 0,0.0344 -0.0275,0.06191 -0.0206,0.02064 -0.055,0.02064 h -3.09563 q -0.0344,0 -0.0619,-0.02064 -0.0206,-0.02752 -0.0206,-0.06191 v -4.650319 q 0,-0.0344 0.0206,-0.05503 0.0275,-0.02752 0.0619,-0.02752 h 3.09563 q 0.0344,0 0.055,0.02752 0.0275,0.02064 0.0275,0.05503 z"
         style="font-family:'Barlow SemiBold';-inkscape-font-specification:'Barlow SemiBold, '"
         id="path608" />
      <path
         d="m 97.95374,92.944174 q -0.06879,0 -0.09631,-0.06191 l -0.908051,-1.981201 q -0.01376,-0.02752 -0.04127,-0.02752 h -0.8255 q -0.0344,0 -0.0344,0.0344 v 1.953684 q 0,0.0344 -0.02752,0.06191 -0.02064,0.02064 -0.05503,0.02064 h -0.632884 q -0.0344,0 -0.06191,-0.02064 -0.02064,-0.02752 -0.02064,-0.06191 v -4.650319 q 0,-0.0344 0.02064,-0.05503 0.02752,-0.02752 0.06191,-0.02752 h 1.891772 q 0.419629,0 0.74295,0.178859 0.323321,0.171979 0.50218,0.4953 0.178858,0.316442 0.178858,0.729192 0,0.474663 -0.24765,0.811742 -0.240771,0.3302 -0.674159,0.460904 -0.01376,0 -0.02064,0.01376 -0.0069,0.01376 0,0.02752 l 0.969963,2.001839 q 0.01376,0.02752 0.01376,0.04127 0,0.05503 -0.07567,0.05503 z m -1.871134,-4.127502 q -0.0344,0 -0.0344,0.0344 v 1.368955 q 0,0.0344 0.0344,0.0344 h 1.031875 q 0.3302,0 0.529696,-0.192617 0.206376,-0.199496 0.206376,-0.522817 0,-0.323321 -0.206376,-0.522817 -0.199496,-0.199496 -0.529696,-0.199496 z"
         style="font-family:'Barlow SemiBold';-inkscape-font-specification:'Barlow SemiBold, '"
         id="path610" />
      <path
         d="m 102.72788,88.734122 q 0,0.0344 -0.0275,0.06191 -0.0206,0.02064 -0.055,0.02064 h -2.3458 q -0.0344,0 -0.0344,0.0344 v 1.286405 q 0,0.0344 0.0344,0.0344 h 1.57533 q 0.0344,0 0.055,0.02752 0.0275,0.02064 0.0275,0.05503 v 0.522817 q 0,0.0344 -0.0275,0.06191 -0.0206,0.02064 -0.055,0.02064 h -1.57533 q -0.0344,0 -0.0344,0.0344 v 1.327679 q 0,0.0344 0.0344,0.0344 h 2.3458 q 0.0344,0 0.055,0.02752 0.0275,0.02064 0.0275,0.05503 v 0.522817 q 0,0.0344 -0.0275,0.06191 -0.0206,0.02064 -0.055,0.02064 h -3.095629 q -0.0344,0 -0.06191,-0.02064 -0.02064,-0.02752 -0.02064,-0.06191 v -4.650319 q 0,-0.0344 0.02064,-0.05503 0.02752,-0.02752 0.06191,-0.02752 h 3.095629 q 0.0344,0 0.055,0.02752 0.0275,0.02064 0.0275,0.05503 z"
         style="font-family:'Barlow SemiBold';-inkscape-font-specification:'Barlow SemiBold, '"
         id="path612" />
      <path
         d="m 106.52517,92.944174 q -0.0688,0 -0.0894,-0.06879 l -0.22701,-0.736072 q -0.0138,-0.02752 -0.0344,-0.02752 h -1.81611 q -0.0206,0 -0.0344,0.02752 l -0.22701,0.736072 q -0.0206,0.06879 -0.0894,0.06879 h -0.68792 q -0.0413,0 -0.0619,-0.02064 -0.0206,-0.02752 -0.007,-0.07567 l 1.49278,-4.650319 q 0.0206,-0.06879 0.0894,-0.06879 h 0.85989 q 0.0688,0 0.0894,0.06879 l 1.49966,4.650319 q 0.007,0.01376 0.007,0.0344 0,0.06191 -0.0757,0.06191 z m -1.98808,-1.499659 q -0.007,0.04127 0.0275,0.04127 h 1.39647 q 0.0413,0 0.0275,-0.04127 l -0.70856,-2.304522 q -0.007,-0.02752 -0.0206,-0.02752 -0.0138,0 -0.0206,0.02752 z"
         style="font-family:'Barlow SemiBold';-inkscape-font-specification:'Barlow SemiBold, '"
         id="path614" />
      <path
         d="m 108.07986,92.944174 q -0.0344,0 -0.0619,-0.02064 -0.0206,-0.02752 -0.0206,-0.06191 v -4.650319 q 0,-0.0344 0.0206,-0.05503 0.0275,-0.02752 0.0619,-0.02752 h 1.67851 q 0.48842,0 0.8599,0.17198 0.37148,0.171979 0.57097,0.4953 0.20638,0.316442 0.20638,0.74295 v 1.994959 q 0,0.426509 -0.20638,0.74983 -0.19949,0.316442 -0.57097,0.488421 -0.37148,0.171979 -0.8599,0.171979 z m 0.71543,-0.722313 q 0,0.0344 0.0344,0.0344 h 0.96308 q 0.3646,0 0.57785,-0.227012 0.22013,-0.233892 0.22701,-0.619126 v -1.74043 q 0,-0.392112 -0.22013,-0.619125 -0.22013,-0.233892 -0.59161,-0.233892 h -0.9562 q -0.0344,0 -0.0344,0.0344 z"
         style="font-family:'Barlow SemiBold';-inkscape-font-specification:'Barlow SemiBold, '"
         id="path616" />
      <path
         d="m 112.33117,92.944174 q -0.0344,0 -0.0619,-0.02064 -0.0206,-0.02752 -0.0206,-0.06191 v -4.650319 q 0,-0.0344 0.0206,-0.05503 0.0275,-0.02752 0.0619,-0.02752 h 0.63288 q 0.0344,0 0.055,0.02752 0.0275,0.02064 0.0275,0.05503 v 4.650319 q 0,0.0344 -0.0275,0.06191 -0.0206,0.02064 -0.055,0.02064 z"
         style="font-family:'Barlow SemiBold';-inkscape-font-specification:'Barlow SemiBold, '"
         id="path618" />
      <path
         d="m 116.85078,88.211305 q 0,-0.0344 0.0206,-0.05503 0.0275,-0.02752 0.0619,-0.02752 h 0.63288 q 0.0344,0 0.055,0.02752 0.0275,0.02064 0.0275,0.05503 v 4.650319 q 0,0.0344 -0.0275,0.06191 -0.0206,0.02064 -0.055,0.02064 h -0.61224 q -0.0688,0 -0.0963,-0.05503 l -1.9812,-3.246968 q -0.0138,-0.02064 -0.0275,-0.01376 -0.0138,0 -0.0138,0.02752 l 0.0138,3.205693 q 0,0.0344 -0.0275,0.06191 -0.0206,0.02064 -0.055,0.02064 h -0.63288 q -0.0344,0 -0.0619,-0.02064 -0.0206,-0.02752 -0.0206,-0.06191 v -4.650319 q 0,-0.0344 0.0206,-0.05503 0.0275,-0.02752 0.0619,-0.02752 h 0.61224 q 0.0688,0 0.0963,0.05503 l 1.97432,3.246968 q 0.0138,0.02064 0.0275,0.02064 0.0138,-0.0069 0.0138,-0.0344 z"
         style="font-family:'Barlow SemiBold';-inkscape-font-specification:'Barlow SemiBold, '"
         id="path620" />
      <path
         d="m 120.26284,92.999208 q -0.51594,0 -0.90805,-0.199496 -0.39211,-0.206375 -0.60537,-0.577851 -0.21325,-0.371475 -0.21325,-0.853017 v -1.664759 q 0,-0.488421 0.21325,-0.853017 0.21326,-0.371475 0.60537,-0.570971 0.39211,-0.206375 0.90805,-0.206375 0.50906,0 0.89429,0.199496 0.39211,0.199496 0.60537,0.543454 0.21325,0.343959 0.21325,0.777346 v 0.05503 q 0,0.0344 -0.0275,0.06191 -0.0206,0.02064 -0.055,0.02064 h -0.626 q -0.0344,0 -0.0619,-0.02064 -0.0206,-0.02752 -0.0206,-0.06191 v -0.0344 q 0,-0.371475 -0.25453,-0.612246 -0.24765,-0.240771 -0.66728,-0.240771 -0.41963,0 -0.67416,0.254529 -0.25453,0.24765 -0.25453,0.6604 v 1.719793 q 0,0.41275 0.26829,0.667279 0.26829,0.247651 0.6948,0.247651 0.41275,0 0.64664,-0.213255 0.24077,-0.220133 0.24077,-0.598487 V 91.07304 q 0,-0.0344 -0.0344,-0.0344 h -0.84614 q -0.0344,0 -0.0619,-0.02064 -0.0206,-0.02752 -0.0206,-0.06191 v -0.509058 q 0,-0.0344 0.0206,-0.05503 0.0275,-0.02752 0.0619,-0.02752 h 1.58909 q 0.0344,0 0.055,0.02752 0.0275,0.02064 0.0275,0.05503 v 0.880533 q 0,0.791105 -0.46778,1.231372 -0.46091,0.440267 -1.24513,0.440267 z"
         style="font-family:'Barlow SemiBold';-inkscape-font-specification:'Barlow SemiBold, '"
         id="path622" />
      <path
         d="m 98.414644,95.305132 q 0.0344,0 0.05503,0.02752 0.02752,0.02064 0.02752,0.05503 v 0.529696 q 0,0.0344 -0.02752,0.06191 -0.02064,0.02064 -0.05503,0.02064 h -1.265767 q -0.0344,0 -0.0344,0.0344 V 100.038 q 0,0.0344 -0.02752,0.0619 -0.02064,0.0206 -0.05503,0.0206 h -0.632883 q -0.0344,0 -0.06191,-0.0206 -0.02064,-0.0275 -0.02064,-0.0619 v -4.003676 q 0,-0.0344 -0.0344,-0.0344 h -1.217613 q -0.0344,0 -0.06191,-0.02064 -0.02064,-0.02752 -0.02064,-0.06191 v -0.529696 q 0,-0.0344 0.02064,-0.05503 0.02752,-0.02752 0.06191,-0.02752 z"
         style="font-family:'Barlow SemiBold';-inkscape-font-specification:'Barlow SemiBold, '"
         id="path624" />
      <path
         d="m 102.49398,95.910499 q 0,0.0344 -0.0275,0.06191 -0.0206,0.02064 -0.055,0.02064 h -2.34579 q -0.0344,0 -0.0344,0.0344 v 1.286405 q 0,0.0344 0.0344,0.0344 h 1.57533 q 0.0344,0 0.055,0.02752 0.0275,0.02064 0.0275,0.05503 v 0.522817 q 0,0.0344 -0.0275,0.06191 -0.0206,0.02064 -0.055,0.02064 h -1.57533 q -0.0344,0 -0.0344,0.0344 v 1.32768 q 0,0.0344 0.0344,0.0344 h 2.34579 q 0.0344,0 0.055,0.02752 0.0275,0.02064 0.0275,0.05503 V 100.038 q 0,0.0344 -0.0275,0.0619 -0.0206,0.0206 -0.055,0.0206 h -3.095624 q -0.0344,0 -0.06191,-0.0206 -0.02064,-0.0275 -0.02064,-0.0619 v -4.650318 q 0,-0.0344 0.02064,-0.05503 0.02752,-0.02752 0.06191,-0.02752 h 3.095624 q 0.0344,0 0.055,0.02752 0.0275,0.02064 0.0275,0.05503 z"
         style="font-family:'Barlow SemiBold';-inkscape-font-specification:'Barlow SemiBold, '"
         id="path626" />
      <path
         d="m 104.91544,100.17558 q -0.51593,0 -0.90805,-0.199492 -0.39211,-0.206375 -0.60536,-0.570971 -0.21326,-0.364596 -0.21326,-0.846138 v -1.699155 q 0,-0.481542 0.21326,-0.846138 0.21325,-0.364596 0.60536,-0.564092 0.39212,-0.199496 0.90805,-0.199496 0.50906,0 0.90117,0.192617 0.39212,0.192617 0.60537,0.543454 0.21326,0.350838 0.21326,0.811742 0,0.0344 -0.0275,0.06191 -0.0206,0.02064 -0.055,0.02064 l -0.63289,0.0344 q -0.0825,0 -0.0825,-0.07567 0,-0.405871 -0.25453,-0.653521 -0.24765,-0.24765 -0.66728,-0.24765 -0.41963,0 -0.67416,0.24765 -0.25452,0.24765 -0.25452,0.653521 v 1.754189 q 0,0.398992 0.25452,0.646642 0.25453,0.24765 0.67416,0.24765 0.41963,0 0.66728,-0.240771 0.25453,-0.24765 0.25453,-0.653521 0,-0.07567 0.0825,-0.07567 l 0.63289,0.02752 q 0.0344,0 0.055,0.02064 0.0275,0.02064 0.0275,0.04815 0,0.467784 -0.21326,0.825501 -0.21325,0.350837 -0.60537,0.543454 -0.39211,0.192613 -0.90117,0.192613 z"
         style="font-family:'Barlow SemiBold';-inkscape-font-specification:'Barlow SemiBold, '"
         id="path628" />
      <path
         d="m 110.10922,95.387682 q 0,-0.0344 0.0206,-0.05503 0.0275,-0.02752 0.0619,-0.02752 h 0.63288 q 0.0344,0 0.055,0.02752 0.0275,0.02064 0.0275,0.05503 V 100.038 q 0,0.0344 -0.0275,0.0619 -0.0206,0.0206 -0.055,0.0206 h -0.63288 q -0.0344,0 -0.0619,-0.0206 -0.0206,-0.0275 -0.0206,-0.0619 v -1.967442 q 0,-0.0344 -0.0344,-0.0344 h -1.75419 q -0.0344,0 -0.0344,0.0344 V 100.038 q 0,0.0344 -0.0275,0.0619 -0.0206,0.0206 -0.055,0.0206 h -0.63289 q -0.0344,0 -0.0619,-0.0206 -0.0206,-0.0275 -0.0206,-0.0619 v -4.650318 q 0,-0.0344 0.0206,-0.05503 0.0275,-0.02752 0.0619,-0.02752 h 0.63289 q 0.0344,0 0.055,0.02752 0.0275,0.02064 0.0275,0.05503 v 1.926167 q 0,0.0344 0.0344,0.0344 h 1.75419 q 0.0344,0 0.0344,-0.0344 z"
         style="font-family:'Barlow SemiBold';-inkscape-font-specification:'Barlow SemiBold, '"
         id="path630" />
      <path
         d="m 114.6701,95.387682 q 0,-0.0344 0.0206,-0.05503 0.0275,-0.02752 0.0619,-0.02752 h 0.63288 q 0.0344,0 0.055,0.02752 0.0275,0.02064 0.0275,0.05503 V 100.038 q 0,0.0344 -0.0275,0.0619 -0.0206,0.0206 -0.055,0.0206 h -0.61224 q -0.0688,0 -0.0963,-0.055 l -1.9812,-3.246971 q -0.0138,-0.02064 -0.0275,-0.01376 -0.0138,0 -0.0138,0.02752 l 0.0138,3.205693 q 0,0.0344 -0.0275,0.0619 -0.0206,0.0206 -0.055,0.0206 h -0.63288 q -0.0344,0 -0.0619,-0.0206 -0.0206,-0.0275 -0.0206,-0.0619 v -4.650318 q 0,-0.0344 0.0206,-0.05503 0.0275,-0.02752 0.0619,-0.02752 h 0.61224 q 0.0688,0 0.0963,0.05503 l 1.97432,3.246968 q 0.0138,0.02064 0.0275,0.02064 0.0138,-0.0069 0.0138,-0.0344 z"
         style="font-family:'Barlow SemiBold';-inkscape-font-specification:'Barlow SemiBold, '"
         id="path632" />
      <path
         d="m 118.1028,100.18934 q -0.51594,0 -0.91493,-0.206373 -0.399,-0.213254 -0.61913,-0.598488 -0.21325,-0.385233 -0.21325,-0.887413 v -1.56845 q 0,-0.495301 0.22013,-0.873655 0.22013,-0.385233 0.61225,-0.591608 0.39899,-0.213255 0.91493,-0.213255 0.52281,0 0.91493,0.213255 0.39899,0.206375 0.61912,0.591608 0.22013,0.378354 0.22013,0.873655 v 1.56845 q 0,0.50218 -0.22013,0.887413 -0.22013,0.385234 -0.61912,0.598488 -0.39212,0.206373 -0.91493,0.206373 z m 0,-0.687915 q 0.43338,0 0.69479,-0.268287 0.26141,-0.268288 0.26141,-0.708555 v -1.602846 q 0,-0.447147 -0.26141,-0.715434 -0.26141,-0.268288 -0.69479,-0.268288 -0.42651,0 -0.68792,0.268288 -0.26141,0.268287 -0.26141,0.715434 v 1.602846 q 0,0.440267 0.26141,0.708555 0.26141,0.268287 0.68792,0.268287 z"
         style="font-family:'Barlow SemiBold';-inkscape-font-specification:'Barlow SemiBold, '"
         id="path634" />
      <path
         d="m 120.82694,100.12055 q -0.0344,0 -0.0619,-0.0206 -0.0206,-0.0275 -0.0206,-0.0619 v -4.650318 q 0,-0.0344 0.0206,-0.05503 0.0275,-0.02752 0.0619,-0.02752 h 0.63288 q 0.0344,0 0.055,0.02752 0.0275,0.02064 0.0275,0.05503 v 4.010556 q 0,0.0344 0.0344,0.0344 h 2.30452 q 0.0344,0 0.055,0.02752 0.0275,0.02064 0.0275,0.05503 V 100.038 q 0,0.0344 -0.0275,0.0619 -0.0206,0.0206 -0.055,0.0206 z"
         style="font-family:'Barlow SemiBold';-inkscape-font-specification:'Barlow SemiBold, '"
         id="path636" />
      <path
         d="m 126.26147,100.18934 q -0.51594,0 -0.91493,-0.206373 -0.39899,-0.213254 -0.61912,-0.598488 -0.21326,-0.385233 -0.21326,-0.887413 v -1.56845 q 0,-0.495301 0.22014,-0.873655 0.22013,-0.385233 0.61224,-0.591608 0.39899,-0.213255 0.91493,-0.213255 0.52282,0 0.91493,0.213255 0.39899,0.206375 0.61913,0.591608 0.22013,0.378354 0.22013,0.873655 v 1.56845 q 0,0.50218 -0.22013,0.887413 -0.22014,0.385234 -0.61913,0.598488 -0.39211,0.206373 -0.91493,0.206373 z m 0,-0.687915 q 0.43339,0 0.6948,-0.268287 0.26141,-0.268288 0.26141,-0.708555 v -1.602846 q 0,-0.447147 -0.26141,-0.715434 -0.26141,-0.268288 -0.6948,-0.268288 -0.42651,0 -0.68792,0.268288 -0.2614,0.268287 -0.2614,0.715434 v 1.602846 q 0,0.440267 0.2614,0.708555 0.26141,0.268287 0.68792,0.268287 z"
         style="font-family:'Barlow SemiBold';-inkscape-font-specification:'Barlow SemiBold, '"
         id="path638" />
      <path
         d="m 130.51279,100.17558 q -0.51594,0 -0.90805,-0.199492 -0.39212,-0.206375 -0.60537,-0.57785 -0.21325,-0.371475 -0.21325,-0.853017 v -1.664759 q 0,-0.488422 0.21325,-0.853018 0.21325,-0.371475 0.60537,-0.570971 0.39211,-0.206375 0.90805,-0.206375 0.50906,0 0.89429,0.199496 0.39211,0.199496 0.60537,0.543455 0.21325,0.343958 0.21325,0.777346 v 0.05503 q 0,0.0344 -0.0275,0.06191 -0.0206,0.02064 -0.055,0.02064 h -0.626 q -0.0344,0 -0.0619,-0.02064 -0.0206,-0.02752 -0.0206,-0.06191 v -0.0344 q 0,-0.371475 -0.25453,-0.612246 -0.24765,-0.240771 -0.66728,-0.240771 -0.41963,0 -0.67416,0.25453 -0.25453,0.24765 -0.25453,0.6604 v 1.719792 q 0,0.412751 0.26829,0.66728 0.26829,0.24765 0.69479,0.24765 0.41275,0 0.64665,-0.213254 0.24077,-0.220134 0.24077,-0.598488 v -0.426509 q 0,-0.0344 -0.0344,-0.0344 h -0.84614 q -0.0344,0 -0.0619,-0.02064 -0.0206,-0.02752 -0.0206,-0.06191 v -0.509058 q 0,-0.0344 0.0206,-0.05503 0.0275,-0.02752 0.0619,-0.02752 h 1.58909 q 0.0344,0 0.055,0.02752 0.0275,0.02064 0.0275,0.05503 v 0.880534 q 0,0.791104 -0.46778,1.231371 -0.46091,0.440263 -1.24513,0.440263 z"
         style="font-family:'Barlow SemiBold';-inkscape-font-specification:'Barlow SemiBold, '"
         id="path640" />
      <path
         d="m 133.20253,100.12055 q -0.0344,0 -0.0619,-0.0206 -0.0206,-0.0275 -0.0206,-0.0619 v -4.650318 q 0,-0.0344 0.0206,-0.05503 0.0275,-0.02752 0.0619,-0.02752 h 0.63289 q 0.0344,0 0.055,0.02752 0.0275,0.02064 0.0275,0.05503 V 100.038 q 0,0.0344 -0.0275,0.0619 -0.0206,0.0206 -0.055,0.0206 z"
         style="font-family:'Barlow SemiBold';-inkscape-font-specification:'Barlow SemiBold, '"
         id="path642" />
      <path
         d="m 138.18305,95.910499 q 0,0.0344 -0.0275,0.06191 -0.0206,0.02064 -0.055,0.02064 h -2.3458 q -0.0344,0 -0.0344,0.0344 v 1.286405 q 0,0.0344 0.0344,0.0344 h 1.57533 q 0.0344,0 0.055,0.02752 0.0275,0.02064 0.0275,0.05503 v 0.522817 q 0,0.0344 -0.0275,0.06191 -0.0206,0.02064 -0.055,0.02064 h -1.57533 q -0.0344,0 -0.0344,0.0344 v 1.32768 q 0,0.0344 0.0344,0.0344 h 2.3458 q 0.0344,0 0.055,0.02752 0.0275,0.02064 0.0275,0.05503 V 100.038 q 0,0.0344 -0.0275,0.0619 -0.0206,0.0206 -0.055,0.0206 h -3.09563 q -0.0344,0 -0.0619,-0.0206 -0.0206,-0.0275 -0.0206,-0.0619 v -4.650318 q 0,-0.0344 0.0206,-0.05503 0.0275,-0.02752 0.0619,-0.02752 h 3.09563 q 0.0344,0 0.055,0.02752 0.0275,0.02064 0.0275,0.05503 z"
         style="font-family:'Barlow SemiBold';-inkscape-font-specification:'Barlow SemiBold, '"
         id="path644" />
      <path
         d="m 140.54948,100.17558 q -0.53658,0 -0.93557,-0.17198 -0.39899,-0.171975 -0.61913,-0.481537 -0.21325,-0.309563 -0.21325,-0.729192 v -0.171979 q 0,-0.0344 0.0206,-0.05503 0.0275,-0.02752 0.0619,-0.02752 h 0.61224 q 0.0344,0 0.055,0.02752 0.0275,0.02064 0.0275,0.05503 v 0.130704 q 0,0.316442 0.28205,0.529696 0.28205,0.206375 0.77047,0.206375 0.41963,0 0.63288,-0.178859 0.21326,-0.178858 0.21326,-0.460904 0,-0.192617 -0.11695,-0.323321 -0.11695,-0.137583 -0.33708,-0.24765 -0.21325,-0.110067 -0.64664,-0.275167 -0.48842,-0.178858 -0.79111,-0.337079 -0.30268,-0.158221 -0.50905,-0.426509 -0.1995,-0.275166 -0.1995,-0.681037 0,-0.605367 0.44027,-0.956205 0.44026,-0.350838 1.17633,-0.350838 0.51594,0 0.90805,0.178859 0.399,0.178858 0.61913,0.502179 0.22013,0.316442 0.22013,0.736071 v 0.116946 q 0,0.0344 -0.0275,0.06191 -0.0206,0.02064 -0.055,0.02064 h -0.61912 q -0.0344,0 -0.0619,-0.02064 -0.0206,-0.02752 -0.0206,-0.06191 v -0.07567 q 0,-0.323321 -0.26829,-0.543454 -0.26141,-0.227013 -0.72919,-0.227013 -0.37836,0 -0.59161,0.158221 -0.20638,0.158221 -0.20638,0.447146 0,0.206375 0.11007,0.33708 0.11007,0.130704 0.3302,0.24077 0.22013,0.103188 0.68104,0.268288 0.48842,0.185738 0.77735,0.337079 0.2958,0.151342 0.50217,0.426509 0.21326,0.268288 0.21326,0.674159 0,0.619125 -0.46091,0.983721 -0.45402,0.364592 -1.24512,0.364592 z"
         style="font-family:'Barlow SemiBold';-inkscape-font-specification:'Barlow SemiBold, '"
         id="path646" />
    </g>
    <text
       xml:space="preserve"
       style="font-weight:300;font-size:10.5833px;line-height:1.25;font-family:Montserrat;-inkscape-font-specification:'Montserrat Light';stroke-width:0.264583"
       x="103.81196"
       y="44.425655"
       id="text1119"><tspan
         sodipodi:role="line"
         id="tspan1117"
         style="stroke-width:0.264583"
         x="103.81196"
         y="44.425655">--</tspan></text>
  </g>
</svg>
