<?xml version='1.0' encoding='utf-8'?>
<svg xmlns="http://www.w3.org/2000/svg" version="1.1" id="Layer_1" x="0px" y="0px" viewBox="0 0 5000 277.504" enable-background="new 0 0 5000 277.504"> <path fill="#6600bb" d="M4986.879,135.422h-1425.16c-11.319-25.13-47.021-25.179-58.364,0c-95.805,0-88.274-0.095-90.24,0.19 c-12.054-34.792-61.018-35.595-74.217-1.219c-106.729,8.418-189.739-30.197-253.665-106.651c-3.246-3.882-9.44-0.816-8.299,4.114 c18.639,80.505,14.563,141.32-33.656,170.746c-128.371,78.34-208.28,77.678-502.509-24.862c-7.925-2.761-9.177-13.277-2.255-18.019 c17.742-12.154,45.132-20.809,75.298-28.458c2.764-0.701,5.711-0.23,8.139,1.266c106.624,65.703,221.542,98.121,328.954,41.731 c68.973-36.21,54.059-108.118-23.094-141.708c-84.234-36.673-247.21,10.486-399.931,58.783 c-244.02-114.807-445.64-122.808-601.644-15.901c-10.138,6.947-21.243,12.324-32.964,16.019 c-67.691,21.344-145.861,36.56-230.631,47.913c-4.144-17.404-19.753-30.363-38.425-30.363c-17.301,0-31.97,11.131-37.332,26.608 c-1.912-0.277,5.898-0.19-90.24-0.19c-11.322-25.138-47.025-25.175-58.364,0H13.121C5.874,135.422,0,141.296,0,148.543 c0,7.246,5.874,13.121,13.121,13.121h1425.16c11.319,25.13,47.023,25.179,58.364,0c95.805,0,88.274,0.095,90.24-0.19 c5.362,15.477,20.03,26.607,37.332,26.607c18.711,0,34.348-13.012,38.452-30.47c107.031,0.192,193.978,30.074,261.024,89.373 c3.677,3.252,9.278-0.482,7.566-5.081c-25.947-69.658-32.732-132.902,19.294-165.264c133.311-82.926,320.634-72.335,553.115,24.617 c2.179,0.909,2.078,4.073-0.167,4.804c-83.923,27.346-83.561,28.421-97.089,27.976c-126.515-104.724-384.824-88.809-375.51,24.472 c2.829,34.391,23.094,61.036,71.855,73.484c126.267,32.236,246.468,8.151,379.581-44.875c10.354-4.125,21.919-3.957,32.133,0.504 c222.261,97.081,397.308,124.193,539.304,38.073c82.466-50.015,179.727-66.845,285.128-62.991 c13.204,34.357,62.159,33.562,74.213-1.23c1.912,0.277-5.898,0.19,90.24,0.19c11.32,25.129,47.023,25.18,58.364,0h1425.16 c7.247,0,13.121-5.875,13.121-13.121C5000,141.296,4994.125,135.422,4986.879,135.422z M2910.157,66.329 c17.502,1.317,34.493,7.96,47.056,20.217c19.025,18.562,17.453,39.228-0.389,61.556c-9.565,11.969-22.824,20.516-37.498,24.922 c-82.066,24.638-181.104-2.898-285.776-47.75C2724.015,78.586,2816.239,59.263,2910.157,66.329z M2077.915,192.454 c-38.839-19.944-31.491-78.027,26.593-93.422c95.845-25.404,202.234-7.089,288.314,39.538 C2280.395,183.758,2156.702,232.913,2077.915,192.454z"/> </svg>
