<?xml version='1.0' encoding='utf-8'?>
<svg xmlns="http://www.w3.org/2000/svg" version="1.1" id="Layer_1" x="0px" y="0px" viewBox="0 0 4999.998 112.853" enable-background="new 0 0 4999.998 112.853"> <g> <path d="M2462.6221,109.4551c12.4055,5.161,18.3093,4.0671,22.0215-4.0798l3.489-7.6587l3.4221,6.8643 c4.6211,9.2685,12.9514,10.4604,15.5647,2.2267l2.0867-6.5746l4.4827,6.4001c5.1221,7.312,15.6765,8.3153,23.938,2.2746 c5.1787-3.7871,4.7449-4.2707-5.3-5.9007c-17.3745-2.8189-26.5488-10.5106-28.718-24.076 c-2.4165-15.1123-6.1392-15.1572-10.187-0.1228c-3.1475,11.6868-7.6724,15.2755-30.8,24.4241l-7.667,3.0331l7.667,3.1888 L2462.6221,109.4551z"/> <path d="M2603.2371,98.9999c2.781-1.201,9.1965-2.3308,14.2568-2.509c13.927-0.4919,13.9827-12.2918,0.1348-28.4703 c-11.3167-13.2202-13.5635-19.4055-7.0354-19.3658c2.1084,0.0127,6.9795,5.5331,10.8254,12.2671 c5.1174,8.9615,8.9739,12.2431,14.386,12.2431c9.2598,0,13.0952-5.5166,5.6509-8.1274 c-3.0583-1.0729-10.3911-6.4413-16.2947-11.9302c-10.7109-9.958-36.0078-24.5829-55.5925-32.1398 c-9.4856-3.6598-9.7524-4.097-3.2178-5.274c12.3813-2.2297,40.9993,12.5329,64.9497,33.5039 c3.7905,3.3183,21.373,4.6144,38.0962,2.8062c1.5593-0.1685-0.4065-3.7564-4.3679-7.9732 c-8.3245-8.8604-6.5234-9.3156,11.7217-2.9612c17.8616,6.2212,29.2402,1.3335,30.6406-13.1611 c1.1396-11.7909-4.4241-13.2629-12.8652-3.4045c-5.1399,6.004-7.7778,6.4098-32.1157,4.9438 c-19.4314-1.1703-33.4805-4.2108-52.5835-11.3799c-32.7529-12.2911-58.1904-13.644-73.9084-3.9301 c-13.1614,8.1341-22.894,18.6178-25.6157,27.5928c-2.9888,9.8547,5.3301,9.0573,10.7278-1.028 c8.7493-16.3484,29.0935-20.694,50.4617-10.7794c28.6306,13.2839,44.4785,44.9385,29.4897,58.9029 c-3.6433,3.394-5.7644,7.5636-4.7129,9.2647v0.0008C2597.3198,99.7928,2600.4558,100.2016,2603.2371,98.9999z"/> <path d="M2447.2876,24.1371c16.4922-0.0404,38.1189,20.1152,30.9075,28.8042c-5.2029,6.2691-0.5959,7.9552,21.7393,7.9552 c16.583,0,20.9561-0.9599,20.9561-4.6002c0-3.5699-4.0569-4.6002-18.1135-4.6002c-16.7441,0-17.9893-0.4747-16.4712-6.2796 c2.2256-8.5108-22.4412-32.1038-38.115-36.4562c-17.5725-4.8794-21.6167-4.2602-58.7952,9.0019 c-28.8435,10.289-38.2122,12.2671-58.1021,12.2671c-19.9187,0-24.5544-0.9816-28.9656-6.1336 c-7.4229-8.6695-11.4453-7.616-11.4453,2.9956c0,6.4308,2.3401,10.6626,7.9163,14.3164c7.4553,4.8847,8.8042,4.8675,23.1504-0.2913 c15.9854-5.748,21.3567-5.2231,13.4756,1.3178c-6.644,5.5144-6.1316,13.5602,0.6926,10.8685 c2.9519-1.1643,11.7036-3.1409,19.4485-4.3935c8.4954-1.3732,18.8364-6.028,26.0676-11.7325 c6.5925-5.2006,17.4861-12.342,24.2078-15.8685c12.7991-6.7161,29.1797-8.5939,29.1797-3.3461c0,1.6869-1.5278,3.0668-3.395,3.0668 c-8.5093,0-42.5637,19.3358-56.3562,31.999c-8.3884,7.7014-16.3162,14.0027-17.6182,14.0027c-1.3022,0-2.3672,1.3799-2.3672,3.0668 c0,1.6869,3.1245,3.0668,6.9429,3.0668c4.7922,0,9.2917-3.8005,14.5247-12.2671c4.1699-6.7468,9.3257-12.2671,11.4575-12.2671 c5.8982,0,4.7212,3.7084-4.8906,15.402c-10.5244,12.8047-14.3125,23.4336-10.1379,28.4471v-0.0008 c3.9026,4.687,28.1052,6.5221,28.1052,2.1309c0-1.7805-2.0703-4.0311-4.6003-5.0022c-7.7815-2.9859-5.8416-25.4596,3.3682-39.0123 C2408.5344,38.1143,2433.428,24.1708,2447.2876,24.1371z"/> <path d="M2451.2192,97.2831c9.5269,1.6584,35.9363-18.6223,35.9363-27.5973c0-5.6012-8.7275-2.2978-13.6082,5.1505 c-10.3342,15.7719-31.8237,15.7996-38.9995,0.0494c-4.6399-10.1834,3.4041-23.188,14.344-23.188 c4.178,0,7.5962,0.5773,7.5962,1.2826c0,0.7053,0.8645,3.5355,1.9211,6.2893c1.5789,4.1142,0.4861,4.6466-6.1335,2.9852 c-6.6853-1.6779-8.0547-0.9778-8.0547,4.1165c0,5.5368,5.3926,9.8607,12.2988,9.8607c5.063,0,12.2354-9.7379,12.2354-16.6112 c0-18.1379-28.9055-23.3288-40.8018-7.327c-11.5183,15.4934-3.4636,39.7962,14.3486,43.2913l-0.0005,0.0015 C2445.8872,96.2895,2449.9004,97.0532,2451.2192,97.2831z"/> <path d="M2567.6897,50.2893c-15.3745-14.2565-37.5994-8.218-37.5994,10.2149c0,14.9423,14.9446,21.7826,21.3679,9.7806 c3.6072-6.74-0.3608-11.0429-7.6157-8.2592c-6.2295,2.3899-8.3928-2.801-3.0244-7.2566c6.5505-5.4365,19.5474-1.1568,23.6174,7.777 c2.9675,6.5124,2.4321,8.7159-3.7056,15.2493c-10.5884,11.2713-25.3892,10.405-36.863-2.1571 c-4.9202-5.3871-9.9585-8.781-11.196-7.5434c-3.8474,3.8477,7.0181,18.6058,17.8401,24.2325l-0.0002,0.0015 c12.0598,6.2698,18.9158,6.7138,28.1489,1.8231C2577.7886,84.0194,2582.001,63.559,2567.6897,50.2893z"/> <path d="M47.0042,69.1572c-10.0314-8.1866-19.4032-7.494-19.4032,1.4331c0,4.0454,3.1738,7.3734,9.2003,9.6481 c5.0599,1.91,9.2003,4.55,9.2003,5.867c0,7.2551-23.7825-3.8769-31.8178-14.8929C4.2333,57.5699,8.2659,39.1296,20.1984,43.708 c4.86,1.8651,4.8809,2.321,0.2636,5.7742c-7.2724,5.438-1.4218,14.3456,6.2848,9.5695c7.5052-4.6511,8.5609-15.8662,2.1586-22.9409 C17.0904,23.0552,0,34.6582,0,55.7348c0,15.6431,5.7749,24.669,20.8917,32.6534v0.0007 c21.2638,11.2309,46.7616,7.3398,73.7651-11.2586c17.4767-12.0365,17.449-17.8511-0.0337-7.1923 C80.1338,78.7716,58.3466,78.4144,47.0042,69.1572z"/> <path d="M138.5478,82.2135c-17.1203-15.9501,2.2043-48.9164,28.6747-48.9164c10.6169,0,25.9845,15.3601,25.9845,25.971 c0,8.4314-12.1361,23.0974-19.1127,23.0974c-2.2312,0-7.2027-2.2035-11.0474-4.8967c-7.9739-5.584-7.9193-15.7165,0.1101-20.7494 c6.7543-4.2333,10.5877-0.4021,5.6057,5.6012c-3.1536,3.8013-2.9193,4.9947,1.3028,6.615 c6.8209,2.6175,11.6397-2.5906,10.3661-11.2039c-2.327-15.7367-23.5437-15.8745-30.0381-0.1962 c-5.2987,12.792,2.8728,29.7873,15.6745,32.5987c26.1006,5.7322,42.5688-23.8282,28.4673-51.0975 c-10.2912-19.9019-38.1498-22.8893-82.1126-8.8065c-33.9899,10.888-36.2016,11.0444-43.4208,3.0668 c-7.318-8.0862-10.7337-7.7493-10.7337,1.0579c0,11.7782,9.1644,17.8047,21.6352,14.228c14.2437-4.085,16.573-3.8088,12.211,1.4473 c-2.0373,2.4566-2.8257,5.891-1.749,7.6333c2.1833,3.5317,12.4955-2.1241,28.209-15.4731 c9.2168-7.8302,30.6723-17.0739,33.3692-14.377c0.6941,0.6933-5.8648,6.0063-14.5739,11.8059 c-16.6951,11.1186-19.3613,14.505-22.2686,28.2876c-1.1156,5.289-4.6893,9.6398-9.383,11.424 c-7.3338,2.7883-9.8442,8.9495-5.441,13.3528l0.0037-0.0007c1.177,1.177,7.3854-3.7683,13.796-10.989l11.6562-13.1296v9.9086 c0.0037,8.0585,1.463,10.2747,7.8144,11.8688C144.3661,93.0573,146.4873,89.6101,138.5478,82.2135z"/> <path d="M2171.2583,63.8922c3.7983,14.1067,11.0457,20.8505,28.1382,26.1844l0.0005-0.0007 c26.5796,8.2944,80.6926,2.3151,122.1528-13.498c17.9766-6.8561,38.312-18.2599,36.2458-20.3256 c-0.6858-0.6858-13.6069,2.7231-28.7136,7.5756c-51.0652,16.4031-88.801,17.6085-104.0088,3.3213 c-6.04-5.6746-8.2917-6.2024-13.8232-3.242c-8.1367,4.3546-7.0269,12.8189,2.2139,16.8837 c10.2688,4.5178,8.3086,7.3824-3.2644,4.7724c-12.2937-2.7725-25.8474-11.2953-29.8459-18.766 c-4.5835-8.5639-3.4666-24.7731,2.1331-30.9605c8.9106-9.8465,25.592-6.2915,25.592,5.4537c0,7.8728-5.6616,9.6503-11.6538,3.659 c-2.8621-2.8616-3.6799-2.1593-3.6799,3.1634c0,8.5422,7.2771,11.5783,17.063,7.1196c10.1868-4.6413,10.584-22.4752,0.6555-29.4294 C2187.0984,9.4374,2162.9204,32.9272,2171.2583,63.8922z"/> <path d="M2171.2583,63.8922c3.7983,14.1067,11.0457,20.8505,28.1382,26.1844l0.0005-0.0007 c26.5796,8.2944,80.6926,2.3151,122.1528-13.498c17.9766-6.8561,38.312-18.2599,36.2458-20.3256 c-0.6858-0.6858-13.6069,2.7231-28.7136,7.5756c-51.0652,16.4031-88.801,17.6085-104.0088,3.3213 c-6.04-5.6746-8.2917-6.2024-13.8232-3.242c-8.1367,4.3546-7.0269,12.8189,2.2139,16.8837 c10.2688,4.5178,8.3086,7.3824-3.2644,4.7724c-12.2937-2.7725-25.8474-11.2953-29.8459-18.766 c-4.5835-8.5639-3.4666-24.7731,2.1331-30.9605c8.9106-9.8465,25.592-6.2915,25.592,5.4537c0,7.8728-5.6616,9.6503-11.6538,3.659 c-2.8621-2.8616-3.6799-2.1593-3.6799,3.1634c0,8.5422,7.2771,11.5783,17.063,7.1196c10.1868-4.6413,10.584-22.4752,0.6555-29.4294 C2187.0984,9.4374,2162.9204,32.9272,2171.2583,63.8922z"/> <path d="M2825.9377,63.8922c-3.7983,14.1067-11.0457,20.8505-28.1382,26.1844l-0.0005-0.0007 c-26.5796,8.2944-80.6926,2.3151-122.1528-13.498c-17.9766-6.8561-38.312-18.2599-36.2458-20.3256 c0.6858-0.6858,13.6069,2.7231,28.7136,7.5756c51.0652,16.4031,88.801,17.6085,104.0088,3.3213 c6.0398-5.6746,8.2917-6.2024,13.8232-3.242c8.1367,4.3546,7.0269,12.8189-2.2139,16.8837 c-10.2688,4.5178-8.3086,7.3824,3.2644,4.7724c12.2937-2.7725,25.8474-11.2953,29.8459-18.766 c4.5833-8.5639,3.4666-24.7731-2.1331-30.9605c-8.9106-9.8465-25.5923-6.2915-25.5923,5.4537c0,7.8728,5.6619,9.6503,11.6541,3.659 c2.8618-2.8616,3.6799-2.1593,3.6799,3.1634c0,8.5422-7.2773,11.5783-17.063,7.1196c-10.1868-4.6413-10.584-22.4752-0.6555-29.4294 C2810.0977,9.4374,2834.2754,32.9272,2825.9377,63.8922z"/> <path d="M2137.1016,74.5967c0.6008-0.5922,3.9663,1.5993,7.4783,4.8712c14.6267,13.6268,20.8586,3.8469,18.3855-28.8521 c-0.9844-13.0143-3.0984-24.4706-4.699-25.4596c-1.5996-0.9891-6.2275-0.0217-10.2832,2.1488 c-6.5959,3.5302-7.3748,5.9965-7.3748,23.3625c0,16.4734-0.8135,19.4039-5.3667,19.3456 c-2.9519-0.0389-68.8491,0.6297-146.4386,1.4862c-77.5897,0.8565-456.413,2.2769-841.8303,3.1566 c-385.417,0.8797-749.4052,2.4648-808.8621,3.5235l-108.1039,1.9242V57.8163h206.2408 c439.615-0.0292,1523.2474-3.8851,1607.7574-5.721l88.9366-1.9317l0.9792-10.2089l0.979-10.2096l-189.5858,1.767 c-159.9213,1.49-808.141,3.7294-1535.9009,5.3047c-97.8299,0.2119-179.5981,1.034-181.7065,1.8269 c-2.5913,0.9748-3.8335,8.79-3.8335,24.1149c0,12.47-1.2189,22.6729-2.7089,22.6729c-7.6317,0-9.1824-44.1912-1.6974-48.3796 c3.9787-2.226,4.0918-3.2659,0.6641-6.1103c-8.9031-7.3899-12.8541,0.9194-13.516,28.4268 c-0.593,24.6031-0.1729,26.6232,6.0108,28.9689l-0.0007-0.015c3.8297,1.4525,8.2225,1.2541,10.3616-0.4687 c4.5111-3.6321,162.3333-4.6548,1080.3914-7.0028C1929.6591,79.2493,2133.9365,77.7166,2137.1016,74.5967z M2149.8096,31.7629 c1.687,1.0422,3.0669,10.703,3.0669,21.4674s-1.3799,20.4252-3.0669,21.4674c-1.9419,1.2002-3.0667-6.6734-3.0667-21.4674 S2147.8677,30.5627,2149.8096,31.7629z"/> <path d="M4978.8311,82.039c27.4561-13.4449,28.4946-51.8095,1.4028-51.8095c-11.6221,0-16.9966,7.2484-12.5728,16.9579 c3.5532,7.798,10.9048,10.0314,14.4004,4.3748c1.0879-1.7603,0.1782-5.3699-2.0215-8.0203 c-3.4277-4.1307-3.1372-4.6556,2.0356-3.6732c10.8462,2.0605,9.5073,16.6374-2.6445,28.7892 c-5.8521,5.852-12.5029,10.593-14.7803,10.5376c-2.5454-0.0629-1.4795-2.321,2.7671-5.864 c13.9878-11.6689-0.3872-21.9092-15.8535-11.2938c-12.0562,8.2757-36.3511,7.801-48.1753-0.9411 c-9.7988-7.2439-11.8809-7.7418-11.8809-2.8369c0,6.4188,26.5029,22.8196,44.4683,27.5179 C4948.3242,89.0067,4968.1318,87.2786,4978.8311,82.039z"/> <path d="M2853.4956,81.3128c8.2002-5.9965,5.3811-45.6715-3.905-54.9572c-5.3047-5.304-7.1428-5.7008-11.1223-2.3982 c-5.9829,4.9655-6.8679,52.0132-1.0869,57.7941C2842.1514,86.5216,2846.5354,86.4018,2853.4956,81.3128z M2845.8784,34.8858 c1.6375-1.0123,3.8567,1.6659,4.9324,5.9509c2.3228,9.255-2.2998,36.9675-5.6091,33.6275 C2841.8171,71.0477,2842.3984,37.0369,2845.8784,34.8858z"/> <path d="M4879.5449,70.2608c6.083,3.2555,6.3228,2.8826,4.3647-6.7924c-2.6099-12.8945-10.1963-23.7308-22.4609-32.0829 c-5.2588-3.5812-8.7563-7.3173-7.7715-8.3019c2.6113-2.6116,23.0195,8.4426,30.1577,16.3349 c5.5859,6.1762,20.1948,15.3459,24.4478,15.3459c0.9585,0,0.9063-3.3348-0.1162-7.4109c-1.7852-7.1106-1.353-7.3435,10.6455-5.7337 c13.8345,1.8561,21.7651-2.4311,21.7651-11.7647c0-6.907-6.9521-7.5629-12.2671-1.1583c-5.29,6.3739-9.7192,5.8992-42.9351-4.6002 c-46.3892-14.6638-73.3105-10.6499-82.8379,12.3517c-5.6836,13.7204-2.0308,33.7226,7.6831,42.0783l0.001,0.0007 c10.6621,9.1719,24.3501,8.9203,33.8926-0.6222c14.9346-14.9356,6.5454-40.2095-12.5928-37.9379 c-15.7974,1.8756-18.106,20.5488-2.9106,23.5347c4.5073,0.8857,5.0913-0.3482,3.3843-7.1481 c-1.709-6.8111-1.1221-8.0406,3.4248-7.178c9.043,1.7153,8.835,16.5266-0.3169,22.5224c-7.187,4.7095-8.3218,4.6885-16.7915-0.3152 c-10.7578-6.3544-13.4497-16.4255-7.5098-28.0966c5.7339-11.2661,12.626-16.1223,22.8813-16.1223 c13.3398,0,22.7817,5.8116,29.8379,18.367c8.2354,14.6518,8.1743,15.9988-1.2251,27.169 c-4.5376,5.3916-6.4688,9.9955-4.6636,11.1111c5.0225,3.1035,15.4771-4.2325,15.4771-10.8617 C4873.1089,67.6702,4874.0049,67.2959,4879.5449,70.2608z"/> <path d="M4896.8755,84.8482c2.9517-0.5683,5.3667-3.066,5.3667-5.5496s-2.415-4.9813-5.3667-5.5495 c-3.7651-0.7255-5.3667,0.9307-5.3667,5.5495C4891.5088,83.9176,4893.1104,85.5737,4896.8755,84.8482z"/> <path d="M4767.3042,37.1702c1.6865,0.3998,3.0669,9.0072,3.0669,19.1277c0,12.6512,1.437,19.5679,4.6001,22.1368l0.0005,0.0007 c2.5303,2.0545,7.0151,3.7811,9.9673,3.8335c4.6035,0.0839,5.3667-2.9208,5.3667-21.1193c0-11.6689,0.77-23.2217,1.71-25.6723 c0.9399-2.4506-0.5952-6.7602-3.4126-9.5777c-4.627-4.6264-5.8101-4.6705-12.2446-0.4545 c-6.3369,4.1517-111.9902,4.6893-957.1001,4.8577c-675.2263,0.1363-951.1306,1.1485-953.9661,3.5018 c-5.0952,4.2281-5.2134,17.8578-0.1565,18.0053c37.1284,1.0804,1896.2085-0.7966,1897.3276-1.916 c0.874-0.8745,1.6294-4.258,1.6821-7.5202C4764.1958,39.1116,4765.6172,36.7704,4767.3042,37.1702z"/> <path d="M2897.1665,72.2801c-22.5947,1.1523-34.7,2.8699-32.2012,4.5695c2.2998,1.5641,107.78,2.032,247.8127,1.0999 c134.0947-0.8932,560.875-1.6405,948.4006-1.6712c485.5269-0.0322,704.5923-1.0385,704.5923-3.2352 C4765.771,69.59,2964.3804,68.854,2897.1665,72.2801z"/> <path d="M85.869,63.8173c0-1.4069-1.5005-3.4846-3.3341-4.6181c-4.258-2.6318-10.2613,3.2015-7.6475,7.4311 C77.064,70.1523,85.869,67.8971,85.869,63.8173z"/> <path d="M2255.2725,59.5795c1.1084,2.8886,4.6147,4.4227,8.7615,3.8335c5.0688-0.7195,6.9141-3.0278,6.9141-8.6485 s-1.8452-7.929-6.9141-8.6485C2256.4983,45.046,2252.2188,51.6228,2255.2725,59.5795z"/> <path d="M2736.3176,46.1159c-7.5356-1.0699-11.8152,5.5069-8.762,13.4636c1.1084,2.8886,4.6147,4.4227,8.762,3.8335 c5.0688-0.7195,6.9141-3.0278,6.9141-8.6485S2741.3865,46.8355,2736.3176,46.1159z"/> <path d="M4926.3931,61.5187c0.832-1.3455,0.3774-4.2827-1.0093-6.5266c-2.9917-4.8413-9.3408-1.746-9.3408,4.5537 C4916.043,64.2074,4923.8159,65.6891,4926.3931,61.5187z"/> <path d="M2498.6709,0.1143c-5.3621,0.7615-6.8828,2.9358-6.7722,9.6863l0.1411,8.7039l-7.8088-9.3022 c-6.2891-7.4925-9.4597-8.966-16.2881-7.5719c-9.3345,1.9055-14.5669,7.1324-7.1399,7.1324 c15.8232,0,35.5527,19.9131,35.5527,35.8834h0.0012c0,7.7223,4.1067,1.8314,8.063-11.5686 c2.1931-7.4281,2.4509-12.7695,0.6697-13.8701c-1.738-1.0744-1.4734-3.5048,0.6619-6.0781 C2511.0349,6.763,2506.79-1.0387,2498.6709,0.1143z"/> <path d="M2511.9319,16.2493c0.1328,3.4726,0.9119,4.6661,1.7314,2.6527c0.8191-2.0133,6.2302-5.2254,12.0249-7.1376 c12.719-4.1981,13.4724-7.8279,2.1021-10.1213C2518.259-0.2788,2511.5354,5.9132,2511.9319,16.2493z"/> </g> </svg>