<?xml version='1.0' encoding='utf-8'?>
<svg xmlns="http://www.w3.org/2000/svg" version="1.1" id="Layer_1" x="0px" y="0px" viewBox="0 0 5000 605.0193" enable-background="new 0 0 5000 605.0193"> <path d="M4936.2622,224.6337c-80.8359-39.611-179.5527,13.3287-203.7036,109.2419l-12.5967,50.0262 c-15.5684-17.8311-82.5693-102.5562-204.0645-158.6305c-177.4009-81.8772-460.198-65.6476-646.2505-23.9618 c-199.0652,44.6013-359.6323,110.2316-569.4917,162.7814c-297.9622,74.6112-426.4744-3.9015-542.3892-58.8089 c60.6064-0.834,178.519,5.3122,178.519-40.4721c0-23.3371-31.218-31.898-46.5022-12.7463 c-11.0671,13.8631-36.1846,17.1168-52.3228,19.7952c-26.7957,4.4471-54.4016,5.6784-81.5039,4.0366 c-12.5242-0.7587-24.5637-2.9619-36.9194-4.8343c-15.4832-2.3463-23.3433-8.3106-35.217-19.0275 c-29.1672-26.3256-52.3381-58.348-74.1316-90.8215c-10.9375-16.2974-21.1907-33.1572-32.6321-49.106 c-11.6099-16.1833-28.2678-14.4729-45.1863-5.6694c-14.5007,7.5453-25.7527,12.5893-41.9556,15.7241 c-15.6443,3.0267-31.469,5.1325-47.2839,7.0336c-3.1887,0.3833-30.989,5.9269-32.6252,3.6494 C2381.8489,93.6519,2309.8147-23.927,2244.6716,4.3399c-23.1563,10.048-22.6055,23.4931-19.0625,45.3276 c3.7375,23.036,19.4197,49.5243,40.9778,69.2136c33.467,30.5694,52.6294,40.171,122.416,61.3421 c39.9082,12.1084,78.1985,74.6972,59.4893,97.2392c-23.6331,28.4747-81.0432,17.658-145.3464-27.3864 c-33.3733-23.3767-102.9685-58.5448-154.6616-78.1512c-108.6224-41.1999-227.8932-48.7503-342.7993-38.9942 c-111.5173,9.4683-192.7147,34.816-622.132,186.3167c-257.8729,90.9763-356.3721,109.8336-524.2446,100.3535 c-136.7976-7.7253-308.5638-61.0647-372.4745-197.0301c-13.3141-28.3241-30.3924-49.0039-40.4695-49.0039 c-26.8469,0-0.8106,15.2276,0.424,99.9097c0.9285,64.2239-33.9266,104.5111-97.5369,112.7315 C65.413,397.0456,10.9804,312.4809,53.546,251.711c29.8047-42.5509,87.8753-21.8526,69.1357,24.642 c-13.3469,33.1124-11.9644,37.8675,11.0135,37.8676c25.895,0.0002,45.1054-35.628,44.4364-58.6046 c-0.8185-28.1134-32.2307-54.3493-56.9303-61.483c-46.2096-13.3462-95.1441,19.6105-112.8,61.68 c-17.762,42.3222-6.3977,92.8859,25.0188,125.7266c54.7572,57.2383,167.3898,46.9033,207.5879,2.8398 c61.4818-67.394,10.9361-124.015,98.879-44.9489c47.2553,42.4849,93.3841,69.5781,178.2759,104.7013 c66.5127,27.5211,112.1779,34.6715,254.2542,39.8065c205.2291,7.4198,348.0582-12.8057,559.1208-79.1718 c277.741-87.3331,571.8759-190.8428,781.0677-139.5815c42.4294,10.3967,77.1431,23.2499,77.1431,28.5592 s-36.5151,9.6544-81.1448,9.6544c-66.4084,0-85.0306,3.8856-102.5381,21.393c-49.1195,49.1195,32.2124,74.9962,32.2124,34.2119 c0-16.2052,11.0742-21.4617,56.8015-26.9532c31.2415-3.7535,80.6694-6.9179,109.8401-6.9179 c49.7754-0.0898,56.449,3.3995,108.4958,56.7064c119.3462,122.235,96.1697,141.5323,137.7839,114.2659 c35.8877-23.5125,106.4417-42.2062,123.5166-32.7353c15.782,8.7538,11.1079,17.9861,15.8987,32.4096 c11.9771,36.0476,63.2053,84.8276,98.1279,99.1282c95.7388,39.2045,106.8269-44.3419,54.0071-100.96 c-37.792-40.5099-94.4871-62.6782-146.332-78.2795c-30.8191-9.2741-86.1003-86.0607-74.9785-104.1519 c2.7432-4.4641,20.8303-8.1145,40.1921-8.1145c25.1729,0,44.2612,9.459,66.9829,33.1949 c66.988,69.9743,249.3054,152.5483,392.9375,177.9642c181.1062,32.0486,219.5112,24.8295,666.6763-125.2834 c340.2739-114.2316,416.1292-136.903,506.0715-151.2487c115.6831-18.4531,236.1694-8.685,310.7876,25.194 c69.9873,31.7791,198.9189,136.9638,218.8457,178.54c7.6655,15.9913,23.1152,30.8414,34.3335,33.0021 c33.0093,6.357,2.3696-9.0899,3.043-100.2682c0.6245-82.7271,120.0664-181.2542,186.5859-96.6852 c27.0259,34.3572,28.8613,76.2768,4.5181,103.1772c-38.1519,42.1547-99.5215,11.102-70.356-35.5986 c18.1411-29.0505,15.4512-41.9909-8.7314-41.9909c-42.1611,0-59.312,79.8533-24.0146,111.7962 c60.8955,55.1083,140.9272,18.255,149.5688-68.8781C5004.9609,285.0063,4986.5806,249.2915,4936.2622,224.6337z M2300.1067,100.8216 c-44.6099-28.9264-61.3987-67.9087-29.2458-67.9087c17.8494,0,102.8152,72.5708,102.8152,87.8146 C2373.676,138.1266,2346.155,130.6804,2300.1067,100.8216z M2657.1484,469.0485c55.7869,23.3085,94.3718,90.0651,84.3848,90.0651 c0,28.2476-33.7126,14.4619-87.3708-35.728C2594.635,467.704,2595.9648,443.4846,2657.1484,469.0485z M2398.1372,432.6125 c-28.5818-45.1395-114.509-114.4429-186.5886-150.4906c-298.1923-149.1154-698.875,55.4078-1033.7542,139.3913 c-107.6249,26.9885-355.3688,62.8546-96.7109-4.3029c355.3878-92.2861,688.0909-268.2318,982.6965-207.1679 c93.6416,19.4093,204.627,67.9536,273.1538,119.4775c41.0994,30.9022,112.4788,112.8369,112.4788,129.1134 C2449.4126,478.3199,2416.5029,461.6208,2398.1372,432.6125z M2530.3674,411.8957c-1.082,0-19.2512,43.0421-91.7766-43.5837 l-45.2915-54.0966c24.6802,0.2361,69.3542-1.7104,88.7192,13.8702C2507.8254,348.8525,2537.5193,400.3262,2530.3674,411.8957z M2495.927,257.4165c-38.1172-41.8483-48.6987-69.8766-29.2036-77.3571c9.3032-3.5712,21.3257-6.4926,26.7141-6.4926 c11.1272,0,64.1672,80.3103,64.1672,97.1573C2557.6047,290.6775,2518.5444,282.2487,2495.927,257.4165z M4056.0828,210.4597 c-216.2786,52.7736-603.0576,178.7747-766.1396,216.5266c0,7.5674-249.7078,30.8941-353.6606,1.2494 c-81.9666-23.3741-162.3044-58.8882-214.5903-94.8619c-63.4011-43.6207-170.5259-152.7094-177.9907-181.2528 c-9.0681-34.6768,9.1514-25.5638,48.1587,24.082c127.5894,162.3876,298.3662,246.3087,500.8706,246.1344 c243.9287-0.2166,720.2126-212.8174,991.3472-232.465C4191.3379,182.1003,4199.8994,175.3692,4056.0828,210.4597z"/> </svg>