<?xml version="1.0" encoding="UTF-8"?>
<svg viewBox="0 0 1028.932 321.76199" xmlns="http://www.w3.org/2000/svg" xmlns:xlink="http://www.w3.org/1999/xlink">
 <defs>
  <filter id="d">
   <feGaussianBlur stdDeviation="10.30561"/>
  </filter>
  <filter id="c">
   <feGaussianBlur stdDeviation="2.97867"/>
  </filter>
  <filter id="b">
   <feGaussianBlur stdDeviation="11.75112"/>
  </filter>
  <linearGradient id="e">
   <stop stop-color="#e6e6e6" offset="0"/>
   <stop stop-color="#999" stop-opacity="0" offset="1"/>
  </linearGradient>
  <linearGradient id="a" x2="0" y1="157.36" y2="396.78" gradientUnits="userSpaceOnUse">
   <stop stop-color="#fff" offset="0"/>
   <stop stop-color="#fff" stop-opacity="0" offset="1"/>
  </linearGradient>
  <linearGradient id="g" x2="0" y1="424.96" y2="279.86" gradientUnits="userSpaceOnUse">
   <stop stop-color="#b3b3b3" offset="0"/>
   <stop stop-color="#999" stop-opacity="0" offset="1"/>
  </linearGradient>
  <linearGradient id="h" x2="0" y1="416.89" y2="281.86" gradientUnits="userSpaceOnUse" xlink:href="#e"/>
  <linearGradient id="f" x2="0" y1="417.88" y2="282.84" gradientUnits="userSpaceOnUse" xlink:href="#e"/>
 </defs>
 <g transform="translate(699.05 -67.958)">
  <path transform="matrix(.50834 0 0 .50834 60.291 138.93)" d="m493.16 391.4c-35.943 62.255-218.42 73.747-290.3 73.747s-254.36-11.492-290.3-73.747 45.342-226.03 81.285-288.28 137.13-214.54 209.02-214.54 173.07 152.28 209.02 214.54 117.23 226.03 81.285 288.28z" fill="#4d4d4d" filter="url(#b)"/>
  <path transform="matrix(.50834 0 0 .50834 51.326 133.66)" d="m493.16 391.4c-35.943 62.255-218.42 73.747-290.3 73.747s-254.36-11.492-290.3-73.747 45.342-226.03 81.285-288.28 137.13-214.54 209.02-214.54 173.07 152.28 209.02 214.54 117.23 226.03 81.285 288.28z" fill="#f00"/>
  <path transform="matrix(.5153 0 0 .5153 48.083 136.07)" d="m202.84-75.344c-5.2436 0-19.337 4.7201-36.188 17.469s-35.957 32.023-54.25 53.656c-36.586 43.267-70.332 95.909-87.344 125.38-17.011 29.463-45.731 84.99-64.906 138.31-9.5876 26.661-16.729 52.874-19.344 73.844s0.34698 35.521 2.9688 40.062 13.753 14.373 33.219 22.594 45.744 15.16 73.625 20.188c55.761 10.055 118.2 12.938 152.22 12.938s96.481-2.8823 152.25-12.938c27.885-5.0276 54.156-11.967 73.625-20.188s30.597-18.053 33.219-22.594 5.5834-19.093 2.9688-40.062-9.7562-47.183-19.344-73.844c-19.175-53.322-47.896-108.85-64.906-138.31s-50.75-82.108-87.344-125.38c-18.297-21.634-37.427-40.907-54.281-53.656s-30.944-17.469-36.188-17.469z" fill="#f4eed7" filter="url(#d)"/>
  <g transform="matrix(7.3232 0 0 7.3232 -2424.4 -2819.8)" font-family="Sans" font-size="40" letter-spacing="0" word-spacing="0">
   <path d="m351.26 423-1.0742-15.176v-6.3477h4.3555v6.3477l-1.0156 15.176zm-0.91797 7.1094v-4.0039h4.043v4.0039z"/>
  </g>
  <path transform="matrix(.5153 0 0 .5153 -32.364 -11.267)" d="m362.84 170.62c-14.693 0-30.635 7.9843-48.156 20.344s-36.306 29.549-54.219 49.688c-30.769 34.593-59.101 75.309-79.906 108.03a8.3646 8.3646 0 0 0 3.7188 12.156c49.873 21.779 114.79 35.25 185.94 35.25 65.573 0 125.89-11.44 174-30.281a8.3646 8.3646 0 0 0 4.0312 -12.219c-20.363-32.432-48.866-73.967-80.125-109.66-18.33-20.927-37.667-38.935-55.719-51.906s-34.457-21.406-49.562-21.406z" fill="url(#a)" filter="url(#c)"/>
  <path d="m156.6 281.15c-57.526 0-110.58 6.3428-153.16 17-2.0512 13.857-1.445 26.012 3.4375 34.469 18.271 31.646 111.02 37.5 147.56 37.5s129.29-5.8537 147.56-37.5c5.0107-8.6788 5.5296-21.25 3.2812-35.562-41.795-9.9952-93.156-15.906-148.69-15.906z" fill="url(#h)"/>
 </g>
 <g transform="translate(351.06 -67.958)">
  <path transform="matrix(.50834 0 0 .50834 60.291 138.93)" d="m493.16 391.4c-35.943 62.255-218.42 73.747-290.3 73.747s-254.36-11.492-290.3-73.747 45.342-226.03 81.285-288.28 137.13-214.54 209.02-214.54 173.07 152.28 209.02 214.54 117.23 226.03 81.285 288.28z" fill="#4d4d4d" filter="url(#b)"/>
  <path transform="matrix(.50834 0 0 .50834 51.326 133.66)" d="m493.16 391.4c-35.943 62.255-218.42 73.747-290.3 73.747s-254.36-11.492-290.3-73.747 45.342-226.03 81.285-288.28 137.13-214.54 209.02-214.54 173.07 152.28 209.02 214.54 117.23 226.03 81.285 288.28z" fill="#f00"/>
  <path transform="matrix(.5153 0 0 .5153 49.913 132.42)" d="m202.84-75.344c-5.2436 0-19.337 4.7201-36.188 17.469s-35.957 32.023-54.25 53.656c-36.586 43.267-70.332 95.909-87.344 125.38-17.011 29.463-45.731 84.99-64.906 138.31-9.5876 26.661-16.729 52.874-19.344 73.844s0.34698 35.521 2.9688 40.062 13.753 14.373 33.219 22.594 45.744 15.16 73.625 20.188c55.761 10.055 118.2 12.938 152.22 12.938s96.481-2.8823 152.25-12.938c27.885-5.0276 54.156-11.967 73.625-20.188s30.597-18.053 33.219-22.594 5.5834-19.093 2.9688-40.062-9.7562-47.183-19.344-73.844c-19.175-53.322-47.896-108.85-64.906-138.31s-50.75-82.108-87.344-125.38c-18.297-21.634-37.427-40.907-54.281-53.656s-30.944-17.469-36.188-17.469z" fill="#ffd42a" filter="url(#d)"/>
  <g transform="matrix(7.3232 0 0 7.3232 -2424.4 -2819.8)" font-family="Sans" font-size="40" letter-spacing="0" word-spacing="0">
   <path d="m351.26 423-1.0742-15.176v-6.3477h4.3555v6.3477l-1.0156 15.176zm-0.91797 7.1094v-4.0039h4.043v4.0039z"/>
  </g>
  <path transform="matrix(.5153 0 0 .5153 -32.364 -11.267)" d="m362.84 170.62c-14.693 0-30.635 7.9843-48.156 20.344s-36.306 29.549-54.219 49.688c-30.769 34.593-59.101 75.309-79.906 108.03a8.3646 8.3646 0 0 0 3.7188 12.156c49.873 21.779 114.79 35.25 185.94 35.25 65.573 0 125.89-11.44 174-30.281a8.3646 8.3646 0 0 0 4.0312 -12.219c-20.363-32.432-48.866-73.967-80.125-109.66-18.33-20.927-37.667-38.935-55.719-51.906s-34.457-21.406-49.562-21.406z" fill="url(#a)" filter="url(#c)"/>
  <path d="m156.93 279.15c-56.848 0-109.28 6.3428-151.35 17-2.027 13.857-1.4279 26.012 3.397 34.469 18.056 31.646 109.71 37.5 145.82 37.5s127.77-5.8537 145.82-37.5c4.9516-8.6788 5.4645-21.25 3.2426-35.562-41.303-9.9952-92.058-15.906-146.94-15.906z" fill="url(#g)"/>
 </g>
 <g transform="translate(346.98 -68.941)">
  <path transform="matrix(.50834 0 0 .50834 -283.63 139.92)" d="m493.16 391.4c-35.943 62.255-218.42 73.747-290.3 73.747s-254.36-11.492-290.3-73.747 45.342-226.03 81.285-288.28 137.13-214.54 209.02-214.54 173.07 152.28 209.02 214.54 117.23 226.03 81.285 288.28z" fill="#4d4d4d" filter="url(#b)"/>
  <path transform="matrix(.50834 0 0 .50834 -292.6 134.64)" d="m493.16 391.4c-35.943 62.255-218.42 73.747-290.3 73.747s-254.36-11.492-290.3-73.747 45.342-226.03 81.285-288.28 137.13-214.54 209.02-214.54 173.07 152.28 209.02 214.54 117.23 226.03 81.285 288.28z" fill="#f00"/>
  <path transform="matrix(.5153 0 0 .5153 -295.84 137.05)" d="m202.84-75.344c-5.2436 0-19.337 4.7201-36.188 17.469s-35.957 32.023-54.25 53.656c-36.586 43.267-70.332 95.909-87.344 125.38-17.011 29.463-45.731 84.99-64.906 138.31-9.5876 26.661-16.729 52.874-19.344 73.844s0.34698 35.521 2.9688 40.062 13.753 14.373 33.219 22.594 45.744 15.16 73.625 20.188c55.761 10.055 118.2 12.938 152.22 12.938s96.481-2.8823 152.25-12.938c27.885-5.0276 54.156-11.967 73.625-20.188s30.597-18.053 33.219-22.594 5.5834-19.093 2.9688-40.062-9.7562-47.183-19.344-73.844c-19.175-53.322-47.896-108.85-64.906-138.31s-50.75-82.108-87.344-125.38c-18.297-21.634-37.427-40.907-54.281-53.656s-30.944-17.469-36.188-17.469z" fill="#ff7f2a" filter="url(#d)"/>
  <g transform="matrix(7.3232 0 0 7.3232 -2768.3 -2818.8)" font-family="Sans" font-size="40" letter-spacing="0" word-spacing="0">
   <path d="m351.26 423-1.0742-15.176v-6.3477h4.3555v6.3477l-1.0156 15.176zm-0.91797 7.1094v-4.0039h4.043v4.0039z"/>
  </g>
  <path transform="matrix(.5153 0 0 .5153 -376.29 -10.285)" d="m362.84 170.62c-14.693 0-30.635 7.9843-48.156 20.344s-36.306 29.549-54.219 49.688c-30.769 34.593-59.101 75.309-79.906 108.03a8.3646 8.3646 0 0 0 3.7188 12.156c49.873 21.779 114.79 35.25 185.94 35.25 65.573 0 125.89-11.44 174-30.281a8.3646 8.3646 0 0 0 4.0312 -12.219c-20.363-32.432-48.866-73.967-80.125-109.66-18.33-20.927-37.667-38.935-55.719-51.906s-34.457-21.406-49.562-21.406z" fill="url(#a)" filter="url(#c)"/>
  <path d="m-187.32 282.13c-57.526 0-110.58 6.3428-153.16 17-2.0512 13.857-1.445 26.012 3.4375 34.469 18.271 31.646 111.02 37.5 147.56 37.5s129.29-5.8537 147.56-37.5c5.0107-8.6788 5.5296-21.25 3.2812-35.562-41.795-9.9952-93.156-15.906-148.69-15.906z" fill="url(#f)"/>
 </g>
</svg>
