<?xml version="1.0" encoding="UTF-8"?>
<svg version="1.1" viewBox="0 0 130 156" xmlns="http://www.w3.org/2000/svg">
 <path d="m0 100.8c0-14.8 4-26.8 10.4-36 0 18.2 4.4 24.6 14 24.6 6.4 0 13-4.8 13-13 0-7.4-5-20.8-5-35.2s4.8-29.8 24.4-41.2c-4.4 11.6-6.2 21.4-6.2 29.4 0 21.2 12.8 30.8 24.2 30.8 9.2 0 18.8-6 18.8-23.4 6.2 6.8 9 14.6 9 22.4 0 12.4-6.8 23.4-6.8 33.4 0 8.2 6.6 13 13 13 11.4 0 14.8-10.2 14.8-27 3.4 5.8 6.4 17.2 6.4 27 0 29.2-27.6 50.4-58.4 50.4 26-9.8 30.8-22.8 30.8-37.4-6.4 11.4-13 13-16.2 13-19.6 0 1.6-37.4-32.6-63.4 5.6 12 7.8 22.4 7.8 30.8 0 18-9.8 27.8-19.2 27.8-8 0-16-6.4-19.2-20 0 19 5.6 37 30.6 49.2-39-6.4-53.6-30.8-53.6-55.2z"/>
</svg>
