<?xml version="1.0" encoding="UTF-8"?>
<svg viewBox="0 0 500 500" xmlns="http://www.w3.org/2000/svg">
 <defs>
  <linearGradient id="d" x1="9.1936" x2="439.19" y1="290.32" y2="233.06" gradientUnits="userSpaceOnUse">
   <stop stop-color="#808080" offset="0"/>
   <stop stop-color="#93a7ac" offset=".31766"/>
   <stop stop-color="#fff" offset=".50745"/>
   <stop stop-color="#999" offset=".75959"/>
   <stop stop-color="#ccc" offset="1"/>
  </linearGradient>
  <radialGradient id="c" cx="749.99" cy="801.96" r="131.04" gradientTransform="matrix(1.6835 .02218 -.02242 1.7005 -994.1 -578.29)" gradientUnits="userSpaceOnUse">
   <stop stop-color="#fff" offset="0"/>
   <stop stop-color="#87aade" offset="1"/>
  </radialGradient>
  <radialGradient id="b" cx="750" cy="802.36" r="240" gradientTransform="matrix(.98197 -5.7401e-6 5.708e-6 .97648 -486.48 18.877)" gradientUnits="userSpaceOnUse">
   <stop stop-color="#06f" offset="0"/>
   <stop stop-color="#214478" offset="1"/>
  </radialGradient>
  <radialGradient id="a" cx="256.33" cy="61.007" r="240" gradientTransform="matrix(-2.1703 0 0 -.87921 810.67 48.396)" gradientUnits="userSpaceOnUse">
   <stop stop-color="#fff" offset="0"/>
   <stop stop-color="#fff" stop-opacity="0" offset="1"/>
  </radialGradient>
 </defs>
 <g transform="translate(0 -552.36)">
  <path transform="translate(0 552.36)" d="m490 250a240 240 0 1 1 -3e-3 -1.1419" fill="url(#d)"/>
  <path d="m290.26 941.94c0 18.392-17.549 33.302-39.197 33.302s-39.197-14.91-39.197-33.302 17.549-33.302 39.197-33.302c21.575 0 39.094 14.814 39.196 33.144m-50.402-312.78c-58.859 0.60515-113.14 42.049-117.9 92.139-1.3084 6.1838-1.9764 12.387-2.7123 18.658 33.86 21.356 33.86 21.356 73.1 7.3592 0.767-23.538 11.59-50.571 38.847-60.583 31.914-11.688 75.871 8.7082 76.862 39.509-0.30522 21.272-22.351 35.048-39.738 47.453-29.331 20.987-54.321 50.488-53.606 84.491-0.61197 10.368 0.0172 20.746 0.38387 31.111 36.003 14.74 36.003 14.74 70.038 0-6.037-32.834-0.42028-50.793 22.967-66.27 29.029-22.273 62.35-45.507 71.307-79.502 13.76-50.664-32.995-105.08-93.18-111.54-15.213-2.7105-30.834-3.0162-46.371-2.8248z" fill="url(#c)" stroke="#435f9f" stroke-width=".2"/>
  <path d="m250 562.36c-132.55 0-240 107.45-240 240s107.45 240 240 240 240-107.45 240-240v-1.1562c-0.6285-132.1-107.9-238.84-240-238.84zm-5 62.344c14.022-0.0336 28.063 0.50386 41.781 2.9375 62.023 6.6272 110.21 62.45 96.031 114.44-9.2301 34.883-43.584 58.739-73.5 81.594-24.101 15.881-29.878 34.308-23.656 68-35.074 15.125-35.085 15.125-72.188 0-0.3779-10.636-1.0057-21.299-0.375-31.938-0.73634-34.891 24.992-65.152 55.219-86.688 17.918-12.729 40.654-26.86 40.969-48.688-1.0219-31.606-46.33-52.525-79.219-40.531-28.089 10.274-39.241 38.004-40.031 62.156-40.439 14.363-40.45 14.352-75.344-7.5625 0.75831-6.4348 1.4641-12.78 2.8125-19.125 4.9048-51.398 60.843-93.942 121.5-94.562 2.0015-0.0246 3.9968-0.0264 6-0.0312zm5.5312 286.97c22.234 0 40.3 15.222 40.406 34.031v0.15625c0 18.873-18.097 34.156-40.406 34.156s-40.375-15.283-40.375-34.156 18.066-34.188 40.375-34.188z" fill="url(#b)"/>
  <path transform="translate(0 552.36)" d="m241.53 80.062c-44.511 0.13832-90.296 23.425-109.75 64.5-4.859 11.627-7.822 24.619-7.9688 37-0.00364 0.03082 0.00361 0.06292 0 0.09375-0.25372 2.1693-0.4278 4.356-0.5 6.5625 6.605 5.1824 13.916 9.955 21.875 14.25 11.191 3.0922 20.966-0.36308 44.844-8.8438 0.79043-24.152 11.942-51.882 40.031-62.156 32.889-11.994 78.197 8.9255 79.219 40.531-0.31454 21.828-23.051 35.958-40.969 48.688-2.8034 1.9973-5.5728 4.0746-8.2812 6.2188 45.649-1.7943 86.27-15.785 114.47-37.031 9.0483-31.012-6.6483-65.029-31.875-83.656-27.067-21.389-63.072-26.35-96.781-26.125-1.4322-0.04395-2.8767-0.03571-4.3125-0.03125z" fill="url(#a)"/>
  <path transform="translate(0 552.36)" d="m250 10.812c-91.127 0-165 48.398-165 108.12 0 23.251 11.199 44.803 30.25 62.438 0.58544-4.8382 1.2301-9.6378 2.25-14.438 4.9048-51.398 60.843-93.942 121.5-94.562 2.0015-0.0242 3.9968-0.02625 6-0.03125 14.022-0.0336 28.063 0.50386 41.781 2.9375 58.806 6.2834 105.15 56.779 97.719 106.31 19.2-17.676 30.5-39.305 30.5-62.656v-0.5c-0.43212-59.525-74.179-107.62-165-107.62zm-0.5 117.25c-6.6661 0.08114-13.271 1.1574-19.438 3.4062-28.089 10.274-39.241 38.004-40.031 62.156-23.878 8.4807-33.652 11.936-44.844 8.8438 28.5 15.38 65.013 24.625 104.81 24.625 3.3683 0 6.713-0.05707 10.031-0.1875 2.7085-2.1442 5.4778-4.2214 8.2812-6.2188 17.918-12.729 40.654-26.86 40.969-48.688-0.83033-25.68-30.895-44.289-59.781-43.938z" fill="url(#a)"/>
 </g>
</svg>
