<?xml version="1.0" encoding="UTF-8"?>
<svg viewBox="0 0 400 400" xmlns="http://www.w3.org/2000/svg" xmlns:xlink="http://www.w3.org/1999/xlink">
 <defs>
  <filter id="b">
   <feGaussianBlur stdDeviation=".53036"/>
  </filter>
  <filter id="g">
   <feGaussianBlur stdDeviation="1.39738"/>
  </filter>
  <linearGradient id="a">
   <stop stop-color="#fff" offset="0"/>
   <stop stop-color="#fff" stop-opacity="0" offset="1"/>
  </linearGradient>
  <linearGradient id="d" x1="275.61" x2="342" y1="300.86" y2="391.45" gradientUnits="userSpaceOnUse">
   <stop stop-color="#00112b" offset="0"/>
   <stop stop-color="#0055d4" offset="1"/>
  </linearGradient>
  <linearGradient id="e" x1="241.41" x2="315.47" y1="287.49" y2="367.88" gradientUnits="userSpaceOnUse" xlink:href="#a"/>
  <linearGradient id="f" x1="102.15" x2="226.91" y1="743.34" y2="888.08" gradientUnits="userSpaceOnUse" xlink:href="#a"/>
  <radialGradient id="c" cx="312.78" cy="386.57" r="53.036" gradientTransform="matrix(-.59327 -.59327 .71505 -.71505 243.27 849.03)" gradientUnits="userSpaceOnUse">
   <stop stop-color="#fff" stop-opacity=".40816" offset="0"/>
   <stop stop-color="#fff" stop-opacity="0" offset="1"/>
  </radialGradient>
 </defs>
 <g transform="translate(0 -652.36)">
  <path transform="matrix(2.8283 0 0 2.8283 -653.01 -129.79)" d="m356.79 346.11a53.036 53.036 0 1 1 -106.07 0 53.036 53.036 0 1 1 106.07 0z" fill="#999"/>
  <path transform="matrix(2.7878 0 0 2.7878 -640.71 -115.77)" d="m356.79 346.11a53.036 53.036 0 1 1 -106.07 0 53.036 53.036 0 1 1 106.07 0z" fill="url(#e)"/>
  <path transform="matrix(2.5378 0 0 2.5378 -564.77 -29.245)" d="m356.79 346.11a53.036 53.036 0 1 1 -106.07 0 53.036 53.036 0 1 1 106.07 0z" fill="#ececec" filter="url(#b)"/>
  <path transform="matrix(2.4356 0 0 2.4356 -533.74 6.1126)" d="m356.79 346.11a53.036 53.036 0 1 1 -106.07 0 53.036 53.036 0 1 1 106.07 0z" fill="#999" filter="url(#b)"/>
  <path transform="matrix(2.3412 0 0 2.3412 -505.05 38.806)" d="m356.79 346.11a53.036 53.036 0 1 1 -106.07 0 53.036 53.036 0 1 1 106.07 0z" fill="url(#d)"/>
  <path transform="matrix(2.2028 0 0 2.2028 -459.36 92.554)" d="m356.79 346.11a53.036 53.036 0 1 1 -106.07 0 53.036 53.036 0 1 1 106.07 0z" fill="url(#c)"/>
  <path d="m203.16 732.39c-38.727 0.87355-76.074 21.376-96.845 57.353-22.341 38.696-19.505 85.022 3.3539 120.07 2.4783-77.078 61.391-135.13 134.58-130.89 23.993 1.3918 46.64 9.2967 66.408 22.052-9.4642-21.643-25.615-40.536-47.626-53.244-18.845-10.88-39.582-15.802-59.868-15.344z" fill="url(#f)" opacity=".31771"/>
  <g transform="matrix(2.9052 0 0 2.9052 -1408.6 -93.103)" fill="#1a1a1a" filter="url(#g)" font-family="Eras Bold ITC" font-size="79.628">
   <path d="m546.92 335.78c0.12959-2.1773 0.24624-3.7326 0.34993-4.6657s0.24623-1.7431 0.42769-2.4301 0.40824-1.296 0.68042-1.8274 0.66096-1.1275 1.1664-1.7885 1.147-1.4062 1.9246-2.2357 1.8533-1.944 3.2271-3.3438l1.2831-1.322c0.44063-0.41469 0.83592-0.84238 1.1859-1.2831s0.6156-0.82294 0.79707-1.147 0.31102-0.62206 0.38881-0.89426 0.11662-0.55078 0.11664-0.83595c-2e-5 -1.3219-0.71284-2.3199-2.1385-2.9938s-3.4475-1.0109-6.0654-1.0109c-3.6548 4e-5 -7.8799 0.77766-12.675 2.3329l1.2053-6.0654c0.1296-0.69981 0.28513-1.5617 0.46658-2.5856s0.3888-2.3522 0.62209-3.9853c5.7025-0.82941 10.926-1.2441 15.669-1.2442 3.1364 5e-5 5.9812 0.23982 8.5344 0.7193s4.7823 1.3026 6.6875 2.4689 3.3632 2.5532 4.3741 4.1603 1.5163 3.3309 1.5164 5.1712c-4e-5 0.77766-0.0778 1.5682-0.23328 2.3718s-0.37589 1.5682-0.66098 2.294-0.70638 1.5358-1.2636 2.4301-1.2118 1.795-1.9635 2.7022-1.3674 1.6006-1.8468 2.0801-1.3868 1.3544-2.7217 2.6245-2.3523 2.2681-3.0522 2.9938-1.2701 1.4127-1.7108 2.0607-0.78413 1.3414-1.0304 2.0801-0.47308 1.808-0.68042 3.2077c-2.618-0.0777-4.9768-0.11663-7.0764-0.11665-2.0478 2e-5 -4.5491 0.0259-7.504 0.0778zm-1.7885 16.758 0.38881-4.6657 0.50546-6.2987c0.0259-0.28512 0.0648-0.98498 0.11664-2.0996 3.2919 0.0519 5.9877 0.0778 8.0873 0.0778 2.2551 1e-5 4.899-0.0259 7.9317-0.0778-0.25924 2.955-0.42772 5.4693-0.50546 7.5429s-0.16851 3.914-0.27216 5.5211c-3.4993-0.0518-6.1173-0.0778-7.854-0.0778-1.8404 0-4.6398 0.0259-8.3983 0.0778z"/>
  </g>
  <g transform="translate(-100)" fill="#fff" font-family="Eras Bold ITC" font-size="222.96">
   <path d="m281.32 881.31c0.36286-6.0965 0.68946-10.451 0.9798-13.064s0.68946-4.8808 1.1975-6.8042 1.1431-3.6288 1.9052-5.1168 1.8507-3.1571 3.266-5.0079 3.2115-3.9373 5.3889-6.2599 5.1893-5.4433 9.036-9.3626l3.5926-3.7015c1.2338-1.1612 2.3406-2.3587 3.3204-3.5926s1.7237-2.3042 2.2318-3.2116 0.87087-1.7418 1.0887-2.504 0.32654-1.5422 0.3266-2.3406c-6e-5 -3.7014-1.996-6.4956-5.9877-8.3828s-9.6529-2.8304-16.983-2.8305c-10.234 1.2e-4 -22.064 2.1775-35.491 6.532l3.3749-16.983c0.36288-1.9595 0.79835-4.3727 1.3064-7.2397s1.0887-6.5863 1.7419-11.159c15.967-2.3224 30.592-3.4836 43.873-3.4837 8.7819 1.5e-4 16.747 0.67149 23.896 2.014s13.391 3.6472 18.725 6.913 9.4169 7.1491 12.248 11.649 4.2457 9.3264 4.2458 14.479c-1.2e-4 2.1775-0.21785 4.3911-0.65321 6.6409s-1.0525 4.3911-1.8507 6.4232-1.9779 4.3004-3.5382 6.8042-3.3931 5.0261-5.4978 7.5663-3.8286 4.4818-5.1712 5.8244-3.883 3.7923-7.6207 7.3485-6.5865 6.3506-8.5461 8.3828-3.5564 3.9556-4.7902 5.77-2.1956 3.756-2.885 5.8244-1.3246 5.0624-1.9052 8.9815c-7.3304-0.21768-13.935-0.32655-19.814-0.3266-5.7337 5e-5 -12.737 0.0726-21.011 0.21774zm-5.0079 46.922 1.0887-13.064 1.4153-17.636c0.0726-0.79833 0.18141-2.7579 0.3266-5.8788 9.2174 0.14519 16.765 0.21777 22.644 0.21773 6.3142 4e-5 13.717-0.0725 22.209-0.21773-0.72585 8.2739-1.1976 15.314-1.4153 21.12s-0.47183 10.959-0.76207 15.459c-9.7981-0.14515-17.128-0.21773-21.991-0.21773-5.1531 0-12.992 0.0726-23.515 0.21773z"/>
  </g>
 </g>
</svg>
