<?xml version='1.0' encoding='utf-8'?>
<svg xmlns="http://www.w3.org/2000/svg" id="Ebene_1" data-name="Ebene 1" viewBox="0 0 152 118.89"><defs><style>.cls-1{fill:none;stroke:#1d1d1b;stroke-linecap:round;stroke-linejoin:round;stroke-width:2px;}</style></defs><title>icon-icons.aiux.co_</title><polyline class="cls-1" points="5.76 1 14.24 9.48 5.76 17.97"/><polyline class="cls-1" points="62.48 5.24 54 13.73 45.52 5.24"/><polyline class="cls-1" points="102.24 17.97 93.76 9.48 102.24 1"/><polyline class="cls-1" points="133.51 13.73 142 5.24 150.49 13.73"/><circle class="cls-1" cx="10" cy="49.49" r="5"/><path class="cls-1" d="M3,65H3a8,8,0,0,1,8-8h2a8,8,0,0,1,8,8h0" transform="translate(-2 -2.51)"/><rect class="cls-1" x="45" y="46.49" width="18" height="14" rx="3" ry="3"/><polyline class="cls-1" points="45 50.48 53.99 53.48 63 50.48"/><path class="cls-1" d="M101.53,46.8l.87,1a2,2,0,0,0,1.69.69l1.34-.11a2,2,0,0,1,2.16,2.16l-.11,1.34a2,2,0,0,0,.69,1.69l1,.87a2,2,0,0,1,0,3.06l-1,.87a2,2,0,0,0-.69,1.69l.11,1.34a2,2,0,0,1-2.16,2.16l-1.34-.11a2,2,0,0,0-1.69.69l-.87,1a2,2,0,0,1-3.06,0l-.87-1a2,2,0,0,0-1.69-.69l-1.34.11a2,2,0,0,1-2.16-2.16l.11-1.34a2,2,0,0,0-.69-1.69l-1-.87a2,2,0,0,1,0-3.06l1-.87a2,2,0,0,0,.69-1.69l-.11-1.34a2,2,0,0,1,2.16-2.16l1.34.11a2,2,0,0,0,1.69-.69l.87-1A2,2,0,0,1,101.53,46.8Z" transform="translate(-2 -2.51)"/><circle class="cls-1" cx="98" cy="53.49" r="3"/><path class="cls-1" d="M148.5,50.25H150a3,3,0,0,1,3,3v9a3,3,0,0,1-3,3H138a3,3,0,0,1-3-3v-9a3,3,0,0,1,3-3h1.5" transform="translate(-2 -2.51)"/><line class="cls-1" x1="140.5" y1="47.74" x2="143.5" y2="47.74"/><rect class="cls-1" x="137.5" y="44.24" width="3" height="5" rx="1.5" ry="1.5"/><rect class="cls-1" x="143.5" y="44.24" width="3" height="5" rx="1.5" ry="1.5"/><line class="cls-1" x1="133" y1="52.49" x2="151" y2="52.49"/><rect class="cls-1" x="2" y="93.49" width="16" height="14" rx="3" ry="3"/><path class="cls-1" d="M10,87.49h0a4,4,0,0,1,4,4v2a0,0,0,0,1,0,0H6a0,0,0,0,1,0,0v-2A4,4,0,0,1,10,87.49Z"/><circle class="cls-1" cx="10" cy="99.49" r="2"/><line class="cls-1" x1="10" y1="101.49" x2="10" y2="103.49"/><path class="cls-1" d="M64,101v5a3,3,0,0,1-3,3H51a3,3,0,0,1-3-3v-5" transform="translate(-2 -2.51)"/><line class="cls-1" x1="54" y1="100.49" x2="54" y2="91.49"/><polyline class="cls-1" points="49.76 93.48 54 89.24 58.24 93.48"/><path d="M52.27,120.42v.2c0,.31.11.48.34.48s.34-.18.34-.54a.86.86,0,0,0-.44-.82,1,1,0,0,1-.54-.94c0-.42.13-.83.65-.83s.63.34.63.76v.16H52.9v-.15c0-.28-.06-.46-.28-.46s-.29.2-.29.47.06.42.37.66a1.14,1.14,0,0,1,.61,1.1c0,.47-.14.9-.7.9s-.69-.36-.69-.8v-.19Z" transform="translate(-2 -2.51)"/><path d="M53.67,118H54v1.39h.7V118h.36v3.34h-.36v-1.63H54v1.63h-.35Z" transform="translate(-2 -2.51)"/><path d="M55.89,120.29l-.16,1.07h-.36l.55-3.34h.51l.57,3.34h-.37l-.18-1.07Zm.52-.32c-.12-.74-.2-1.31-.23-1.62h0c0,.26-.13,1-.22,1.62Z" transform="translate(-2 -2.51)"/><path d="M57.64,119.8v1.56h-.36V118h.59c.5,0,.75.22.75.77v.15c0,.46-.16.64-.34.71.21.07.31.23.31.68a8.35,8.35,0,0,0,0,1h-.35a8.23,8.23,0,0,1,0-1c0-.44-.06-.56-.39-.56Zm0-.3h.22c.32,0,.4-.18.4-.54v-.15c0-.31-.08-.49-.42-.49h-.2Z" transform="translate(-2 -2.51)"/><path d="M60.13,119.74h-.75V121h.86l-.05.32H59V118h1.15v.33h-.8v1.07h.75Z" transform="translate(-2 -2.51)"/><path d="M141.3,118h.35v3h.84l0,.32H141.3Z" transform="translate(-2 -2.51)"/><path d="M143.07,118v3.34h-.36V118Z" transform="translate(-2 -2.51)"/><path d="M143.57,121.36V118H144c.18.62.65,2.37.7,2.64h0c0-.45,0-.92,0-1.46V118H145v3.34h-.41c-.18-.63-.66-2.47-.72-2.73h0c0,.4,0,.94,0,1.54v1.19Z" transform="translate(-2 -2.51)"/><path d="M145.5,118h.35v1.61h0c.14-.31.5-1.12.71-1.61H147l-.63,1.33.69,2h-.39l-.54-1.64-.24.47v1.17h-.35Z" transform="translate(-2 -2.51)"/><path d="M9,118H9.4v3h.84l0,.32H9Z" transform="translate(-2 -2.51)"/><path d="M11.83,118.84v1.69c0,.58-.24.88-.74.88s-.71-.33-.71-.88v-1.69c0-.57.26-.87.73-.87S11.83,118.31,11.83,118.84Zm-1.09,0v1.74c0,.37.14.52.37.52s.36-.14.36-.54v-1.72c0-.35-.13-.52-.37-.52S10.74,118.46,10.74,118.82Z" transform="translate(-2 -2.51)"/><path d="M13.54,120.4v.12c0,.42-.08.89-.68.89s-.68-.41-.68-.9V118.8c0-.53.23-.83.68-.83s.67.4.67.84v.13h-.37v-.16c0-.26,0-.48-.3-.48s-.32.2-.32.49v1.74c0,.33.08.55.33.55s.31-.22.31-.54v-.14Z" transform="translate(-2 -2.51)"/><path d="M13.88,118h.35v1.61h0L15,118h.39l-.64,1.33.69,2H15l-.55-1.64-.24.47v1.17h-.35Z" transform="translate(-2 -2.51)"/><path d="M138.82,76.4v.12c0,.42-.07.89-.68.89s-.68-.41-.68-.9V74.8c0-.53.23-.83.69-.83s.66.4.66.84v.13h-.36v-.16c0-.26,0-.48-.31-.48s-.31.2-.31.49v1.74c0,.33.07.55.32.55s.31-.22.31-.54V76.4Z" transform="translate(-2 -2.51)"/><path d="M139.55,76.29l-.16,1.07H139l.54-3.34h.51l.57,3.34h-.37l-.17-1.07Zm.52-.32c-.11-.74-.2-1.31-.23-1.62h0c0,.26-.14,1-.23,1.62Z" transform="translate(-2 -2.51)"/><path d="M141,74h.35v3h.84l0,.32H141Z" transform="translate(-2 -2.51)"/><path d="M143.47,75.74h-.75V77h.85l0,.32h-1.16V74h1.15v.33h-.79v1.07h.75Z" transform="translate(-2 -2.51)"/><path d="M143.85,77.36V74h.43c.18.62.64,2.37.7,2.64h0c0-.45,0-.92,0-1.46V74h.33v3.34h-.41c-.17-.63-.65-2.47-.72-2.73h0c0,.4,0,.94,0,1.54v1.19Z" transform="translate(-2 -2.51)"/><path d="M145.79,74h.6c.73,0,.82.45.82,1v1.32c0,.51-.08,1-.84,1h-.58Zm.35,3h.2c.41,0,.5-.23.5-.66V75c0-.38-.06-.62-.49-.62h-.21Z" transform="translate(-2 -2.51)"/><path d="M148,76.29l-.16,1.07h-.36L148,74h.5l.57,3.34h-.37l-.17-1.07Zm.51-.32c-.11-.74-.2-1.31-.23-1.62h0c0,.26-.14,1-.23,1.62Z" transform="translate(-2 -2.51)"/><path d="M149.71,75.8v1.56h-.36V74h.58c.51,0,.75.22.75.77v.15c0,.46-.16.64-.34.71.21.07.31.23.31.68a8.2,8.2,0,0,0,0,1h-.35a8.2,8.2,0,0,1,0-1c0-.44-.06-.56-.39-.56Zm0-.3h.21c.32,0,.4-.18.4-.54v-.15c0-.31-.08-.49-.41-.49h-.2Z" transform="translate(-2 -2.51)"/><path d="M94.31,76.42v.2c0,.31.11.48.35.48s.33-.18.33-.54a.86.86,0,0,0-.44-.82A1,1,0,0,1,94,74.8c0-.42.13-.83.65-.83s.63.34.63.76v.16h-.35v-.15c0-.28-.06-.46-.28-.46s-.29.2-.29.47.06.42.37.66a1.14,1.14,0,0,1,.61,1.1c0,.47-.14.9-.7.9s-.69-.36-.69-.8v-.19Z" transform="translate(-2 -2.51)"/><path d="M96.81,75.74h-.75V77h.85l0,.32H95.71V74h1.15v.33h-.8v1.07h.75Z" transform="translate(-2 -2.51)"/><path d="M97.59,74.35h-.54V74h1.43v.33H98v3h-.36Z" transform="translate(-2 -2.51)"/><path d="M99.16,74.35h-.54V74h1.43v.33h-.53v3h-.36Z" transform="translate(-2 -2.51)"/><path d="M100.66,74v3.34h-.36V74Z" transform="translate(-2 -2.51)"/><path d="M101.15,77.36V74h.43c.18.62.64,2.37.7,2.64h0c0-.45,0-.92,0-1.46V74h.33v3.34h-.41c-.17-.63-.65-2.47-.72-2.73h0c0,.4,0,.94,0,1.54v1.19Z" transform="translate(-2 -2.51)"/><path d="M104.42,77.36h-.28a2.33,2.33,0,0,1,0-.29.48.48,0,0,1-.49.34c-.47,0-.62-.34-.62-.88V74.86c0-.55.22-.89.72-.89s.69.42.69.84v.09h-.36v-.1c0-.23,0-.5-.34-.5s-.34.15-.34.53v1.72c0,.33.08.54.33.54s.35-.28.35-.71v-.53h-.37v-.31h.73Z" transform="translate(-2 -2.51)"/><path d="M105.09,76.42v.2c0,.31.11.48.35.48s.33-.18.33-.54a.86.86,0,0,0-.44-.82,1,1,0,0,1-.54-.94c0-.42.13-.83.65-.83s.63.34.63.76v.16h-.35v-.15c0-.28,0-.46-.28-.46s-.29.2-.29.47.06.42.37.66a1.14,1.14,0,0,1,.61,1.1c0,.47-.14.9-.7.9s-.69-.36-.69-.8v-.19Z" transform="translate(-2 -2.51)"/><path d="M53.44,75.74h-.75V77h.85l0,.32H52.33V74h1.15v.33h-.79v1.07h.75Z" transform="translate(-2 -2.51)"/><path d="M55.47,76c0-.62,0-1.28,0-1.63h0c-.09.56-.34,2-.52,3h-.35c-.13-.86-.4-2.43-.48-3h0c0,.39,0,1.15,0,1.72v1.31h-.33V74h.53c.18,1,.4,2.21.44,2.64h0c0-.42.31-1.71.49-2.64h.52v3.34h-.35Z" transform="translate(-2 -2.51)"/><path d="M56.61,76.29l-.16,1.07h-.36L56.64,74h.51l.57,3.34h-.38l-.17-1.07Zm.52-.32c-.12-.74-.2-1.31-.24-1.62h0c0,.26-.13,1-.22,1.62Z" transform="translate(-2 -2.51)"/><path d="M58.36,74v3.34H58V74Z" transform="translate(-2 -2.51)"/><path d="M58.85,74h.36v3h.84l0,.32H58.85Z" transform="translate(-2 -2.51)"/><path d="M7.06,74h.61c.5,0,.74.25.74.79V75c0,.51-.15.88-.76.88H7.42v1.47H7.06Zm.36,1.57h.2c.38,0,.43-.23.43-.58v-.18c0-.27-.06-.51-.4-.51H7.42Z" transform="translate(-2 -2.51)"/><path d="M9.12,75.8v1.56H8.76V74h.58c.51,0,.75.22.75.77v.15c0,.46-.16.64-.34.71.22.07.31.23.31.68a8.2,8.2,0,0,0,0,1H9.75a8.23,8.23,0,0,1,0-1c0-.44-.07-.56-.4-.56Zm0-.3h.21c.32,0,.41-.18.41-.54v-.15c0-.31-.09-.49-.42-.49h-.2Z" transform="translate(-2 -2.51)"/><path d="M11.89,74.84v1.69c0,.58-.24.88-.74.88s-.7-.33-.7-.88V74.84c0-.57.26-.87.73-.87S11.89,74.31,11.89,74.84Zm-1.08,0v1.74c0,.37.14.52.36.52s.36-.14.36-.54V74.82c0-.35-.12-.52-.36-.52S10.81,74.46,10.81,74.82Z" transform="translate(-2 -2.51)"/><path d="M12.32,74h1.17v.33h-.81v1.09h.76v.33h-.76v1.59h-.36Z" transform="translate(-2 -2.51)"/><path d="M14.15,74v3.34h-.36V74Z" transform="translate(-2 -2.51)"/><path d="M14.64,74H15v3h.84l0,.32H14.64Z" transform="translate(-2 -2.51)"/><path d="M17.16,75.74h-.75V77h.86l-.05.32H16.06V74h1.15v.33h-.8v1.07h.75Z" transform="translate(-2 -2.51)"/><path d="M3.61,32.29l-.16,1.07H3.09L3.64,30h.51l.57,3.34H4.35l-.18-1.07ZM4.13,32c-.12-.74-.2-1.31-.23-1.62h0c0,.26-.13,1-.22,1.62Z" transform="translate(-2 -2.51)"/><path d="M5.36,31.8v1.56H5V30h.59c.5,0,.75.22.75.77v.15c0,.46-.16.64-.34.71.21.07.31.23.31.68a8.35,8.35,0,0,0,0,1H6a8.23,8.23,0,0,1,0-1c0-.44-.06-.56-.39-.56Zm0-.3h.22c.31,0,.4-.18.4-.54v-.15c0-.31-.09-.49-.42-.49h-.2Z" transform="translate(-2 -2.51)"/><path d="M7.11,31.8v1.56H6.75V30h.58c.51,0,.75.22.75.77v.15c0,.46-.16.64-.34.71.22.07.31.23.31.68a8.2,8.2,0,0,0,0,1H7.74a8.23,8.23,0,0,1,0-1c0-.44-.07-.56-.4-.56Zm0-.3h.21c.32,0,.41-.18.41-.54v-.15c0-.31-.09-.49-.42-.49h-.2Z" transform="translate(-2 -2.51)"/><path d="M9.88,30.84v1.69c0,.58-.24.88-.74.88s-.7-.33-.7-.88V30.84c0-.57.26-.87.73-.87S9.88,30.31,9.88,30.84Zm-1.08,0v1.74c0,.37.14.52.36.52s.36-.14.36-.54V30.82c0-.35-.12-.52-.36-.52S8.8,30.46,8.8,30.82Z" transform="translate(-2 -2.51)"/><path d="M10.59,33.36,10.12,30h.38c.11.81.27,2.22.3,2.74h0c0-.53.27-1.95.38-2.74h.37c.11.8.34,2.13.38,2.73h0c0-.57.22-1.91.32-2.73h.36l-.5,3.34h-.39c-.11-.78-.31-2.1-.37-2.65h0c-.07.6-.27,1.88-.39,2.65Z" transform="translate(-2 -2.51)"/><path d="M14,31.8v1.56h-.36V30h.58c.51,0,.75.22.75.77v.15c0,.46-.16.64-.34.71.22.07.31.23.31.68a8.2,8.2,0,0,0,0,1h-.35a8.23,8.23,0,0,1,0-1c0-.44-.07-.56-.4-.56Zm0-.3h.21c.32,0,.41-.18.41-.54v-.15c0-.31-.09-.49-.42-.49H14Z" transform="translate(-2 -2.51)"/><path d="M15.72,30v3.34h-.35V30Z" transform="translate(-2 -2.51)"/><path d="M17.55,33.36h-.28a2.33,2.33,0,0,1,0-.29.47.47,0,0,1-.49.34c-.46,0-.62-.34-.62-.88V30.86c0-.55.23-.89.72-.89s.69.42.69.84v.09h-.36v-.1c0-.23,0-.5-.33-.5s-.35.15-.35.53v1.72c0,.33.08.54.33.54s.36-.28.36-.71v-.53h-.38v-.31h.73Z" transform="translate(-2 -2.51)"/><path d="M18,30h.35v1.39h.7V30h.35v3.34h-.35V31.73h-.7v1.63H18Z" transform="translate(-2 -2.51)"/><path d="M20.21,30.35h-.54V30H21.1v.33h-.54v3h-.35Z" transform="translate(-2 -2.51)"/><path d="M47.36,32.29l-.16,1.07h-.36L47.39,30h.5l.57,3.34h-.37l-.17-1.07Zm.51-.32c-.11-.74-.2-1.31-.23-1.62h0c0,.26-.13,1-.22,1.62Z" transform="translate(-2 -2.51)"/><path d="M49.11,31.8v1.56h-.36V30h.58c.51,0,.75.22.75.77v.15c0,.46-.16.64-.34.71.22.07.31.23.31.68a8.2,8.2,0,0,0,0,1h-.35a8.23,8.23,0,0,1,0-1c0-.44-.07-.56-.4-.56Zm0-.3h.21c.32,0,.41-.18.41-.54v-.15c0-.31-.09-.49-.42-.49h-.2Z" transform="translate(-2 -2.51)"/><path d="M50.85,31.8v1.56H50.5V30h.58c.5,0,.75.22.75.77v.15c0,.46-.16.64-.34.71.21.07.31.23.31.68,0,.29,0,.82,0,1h-.34a8.2,8.2,0,0,1,0-1c0-.44-.06-.56-.39-.56Zm0-.3h.22c.32,0,.4-.18.4-.54v-.15c0-.31-.08-.49-.42-.49h-.2Z" transform="translate(-2 -2.51)"/><path d="M53.63,30.84v1.69c0,.58-.24.88-.74.88s-.71-.33-.71-.88V30.84c0-.57.26-.87.74-.87S53.63,30.31,53.63,30.84Zm-1.08,0v1.74c0,.37.13.52.36.52s.36-.14.36-.54V30.82c0-.35-.12-.52-.36-.52S52.55,30.46,52.55,30.82Z" transform="translate(-2 -2.51)"/><path d="M54.34,33.36,53.87,30h.38c.1.81.27,2.22.3,2.74h0c0-.53.27-1.95.38-2.74h.37c.11.8.33,2.13.38,2.73h0c0-.57.21-1.91.32-2.73h.36l-.51,3.34h-.38c-.11-.78-.32-2.1-.37-2.65h0c-.07.6-.27,1.88-.39,2.65Z" transform="translate(-2 -2.51)"/><path d="M57.37,30H58c.73,0,.82.45.82,1v1.32c0,.51-.08,1-.84,1h-.58Zm.35,3h.2c.41,0,.5-.23.5-.66V31c0-.38-.07-.62-.49-.62h-.21Z" transform="translate(-2 -2.51)"/><path d="M60.59,30.84v1.69c0,.58-.24.88-.74.88s-.71-.33-.71-.88V30.84c0-.57.26-.87.73-.87S60.59,30.31,60.59,30.84Zm-1.09,0v1.74c0,.37.14.52.37.52s.36-.14.36-.54V30.82c0-.35-.13-.52-.37-.52S59.5,30.46,59.5,30.82Z" transform="translate(-2 -2.51)"/><path d="M61.3,33.36,60.83,30h.38c.1.81.27,2.22.3,2.74h0c.05-.53.28-1.95.39-2.74h.36c.12.8.34,2.13.38,2.73h0c0-.57.21-1.91.32-2.73h.36l-.51,3.34h-.38c-.11-.78-.32-2.1-.38-2.65h0c-.07.6-.27,1.88-.39,2.65Z" transform="translate(-2 -2.51)"/><path d="M63.65,33.36V30h.43c.18.62.64,2.37.7,2.64h0c0-.45,0-.92,0-1.46V30h.33v3.34h-.41c-.17-.63-.65-2.47-.72-2.73h0c0,.4,0,.94,0,1.54v1.19Z" transform="translate(-2 -2.51)"/><path d="M92.52,32.29l-.16,1.07H92L92.55,30h.51l.57,3.34h-.37l-.18-1.07ZM93,32c-.12-.74-.2-1.31-.23-1.62h0c0,.26-.13,1-.22,1.62Z" transform="translate(-2 -2.51)"/><path d="M94.27,31.8v1.56h-.36V30h.59c.5,0,.75.22.75.77v.15c0,.46-.16.64-.34.71.21.07.31.23.31.68a8.35,8.35,0,0,0,0,1H94.9a8.23,8.23,0,0,1,0-1c0-.44-.06-.56-.39-.56Zm0-.3h.22c.32,0,.4-.18.4-.54v-.15c0-.31-.08-.49-.42-.49h-.2Z" transform="translate(-2 -2.51)"/><path d="M96,31.8v1.56h-.36V30h.59c.5,0,.75.22.75.77v.15c0,.46-.16.64-.35.71.22.07.31.23.31.68a8.2,8.2,0,0,0,0,1h-.35a8.23,8.23,0,0,1,0-1c0-.44-.06-.56-.4-.56Zm0-.3h.22c.31,0,.4-.18.4-.54v-.15c0-.31-.09-.49-.42-.49H96Z" transform="translate(-2 -2.51)"/><path d="M98.79,30.84v1.69c0,.58-.24.88-.74.88s-.7-.33-.7-.88V30.84c0-.57.26-.87.73-.87S98.79,30.31,98.79,30.84Zm-1.08,0v1.74c0,.37.14.52.36.52s.36-.14.36-.54V30.82c0-.35-.12-.52-.36-.52S97.71,30.46,97.71,30.82Z" transform="translate(-2 -2.51)"/><path d="M99.5,33.36,99,30h.38c.1.81.27,2.22.29,2.74h0c0-.53.27-1.95.39-2.74h.36c.11.8.34,2.13.38,2.73h0c0-.57.22-1.91.32-2.73h.36l-.5,3.34h-.39c-.11-.78-.31-2.1-.37-2.65h0c-.07.6-.27,1.88-.39,2.65Z" transform="translate(-2 -2.51)"/><path d="M102.53,30h.36v3h.84l0,.32h-1.16Z" transform="translate(-2 -2.51)"/><path d="M105.05,31.74h-.75V33h.85l0,.32H104V30h1.15v.33h-.8v1.07h.75Z" transform="translate(-2 -2.51)"/><path d="M105.44,30h1.16v.33h-.81v1.09h.76v.33h-.76v1.59h-.35Z" transform="translate(-2 -2.51)"/><path d="M107.3,30.35h-.54V30h1.43v.33h-.54v3h-.35Z" transform="translate(-2 -2.51)"/><path d="M137.69,32.29l-.16,1.07h-.36l.55-3.34h.5l.57,3.34h-.37l-.17-1.07Zm.51-.32c-.11-.74-.2-1.31-.23-1.62h0c0,.26-.13,1-.23,1.62Z" transform="translate(-2 -2.51)"/><path d="M139.44,31.8v1.56h-.36V30h.58c.51,0,.75.22.75.77v.15c0,.46-.16.64-.34.71.21.07.31.23.31.68a8.2,8.2,0,0,0,0,1h-.35a8.2,8.2,0,0,1,0-1c0-.44-.06-.56-.39-.56Zm0-.3h.21c.32,0,.4-.18.4-.54v-.15c0-.31-.08-.49-.41-.49h-.2Z" transform="translate(-2 -2.51)"/><path d="M141.18,31.8v1.56h-.35V30h.58c.5,0,.75.22.75.77v.15c0,.46-.16.64-.34.71.21.07.31.23.31.68a8.35,8.35,0,0,0,0,1h-.34a6.59,6.59,0,0,1,0-1c0-.44-.06-.56-.39-.56Zm0-.3h.22c.32,0,.4-.18.4-.54v-.15c0-.31-.08-.49-.42-.49h-.2Z" transform="translate(-2 -2.51)"/><path d="M144,30.84v1.69c0,.58-.24.88-.74.88s-.71-.33-.71-.88V30.84c0-.57.26-.87.73-.87S144,30.31,144,30.84Zm-1.08,0v1.74c0,.37.13.52.36.52s.36-.14.36-.54V30.82c0-.35-.12-.52-.37-.52S142.88,30.46,142.88,30.82Z" transform="translate(-2 -2.51)"/><path d="M144.67,33.36,144.2,30h.38c.1.81.27,2.22.3,2.74h0c.05-.53.28-1.95.39-2.74h.36c.12.8.34,2.13.39,2.73h0c0-.57.21-1.91.32-2.73h.36l-.51,3.34h-.38c-.11-.78-.32-2.1-.38-2.65h0c-.07.6-.27,1.88-.39,2.65Z" transform="translate(-2 -2.51)"/><path d="M148,30v2.6c0,.27.09.46.34.46s.35-.18.35-.46V30h.35v2.59c0,.51-.23.8-.7.8s-.7-.26-.7-.79V30Z" transform="translate(-2 -2.51)"/><path d="M149.56,30h.61c.5,0,.73.25.73.79V31c0,.51-.15.88-.75.88h-.23v1.47h-.36Zm.36,1.57h.2c.37,0,.43-.23.43-.58v-.18c0-.27-.06-.51-.4-.51h-.23Z" transform="translate(-2 -2.51)"/><path class="cls-1" d="M106.84,103.16v3a3,3,0,0,1-3,3h-10a3,3,0,0,1-3-3v-10a3,3,0,0,1,3-3h3" transform="translate(-2 -2.51)"/><polygon class="cls-1" points="104.33 93.98 98.67 99.64 95.84 99.64 95.84 96.81 101.5 91.16 104.33 93.98"/><rect class="cls-1" x="104.33" y="91.67" width="4" height="4" transform="translate(-37.09 100.11) rotate(-45)"/><path class="cls-1" d="M145.77,98.23h0a4,4,0,0,1,0,5.66l-2.83,2.83a4,4,0,0,1-5.66,0h0a4,4,0,0,1,0-5.66l.71-.71" transform="translate(-2 -2.51)"/><path class="cls-1" d="M142.23,101.77h0a4,4,0,0,1,0-5.66l2.83-2.83a4,4,0,0,1,5.66,0h0a4,4,0,0,1,0,5.66l-.71.71" transform="translate(-2 -2.51)"/><path d="M98.54,119.74h-.75V121h.85l0,.32H97.44V118h1.14v.33h-.79v1.07h.75Z" transform="translate(-2 -2.51)"/><path d="M98.92,118h.61c.72,0,.81.45.81,1v1.32c0,.51-.07,1-.83,1h-.59Zm.36,3h.2c.41,0,.5-.23.5-.66V119c0-.38-.07-.62-.49-.62h-.21Z" transform="translate(-2 -2.51)"/><path d="M101.13,118v3.34h-.36V118Z" transform="translate(-2 -2.51)"/><path d="M101.93,118.35h-.54V118h1.43v.33h-.53v3h-.36Z" transform="translate(-2 -2.51)"/></svg>