<?xml version="1.0" encoding="UTF-8"?>
<svg viewBox="0 0 629.07269 646.03821" xmlns="http://www.w3.org/2000/svg">
 <g transform="translate(56.902 -356.79)">
  <g transform="matrix(.98481 -.17365 .17365 .98481 -204.71 -19.959)">
   <path d="m71.721 467.48h386.89v531.34h-386.89z" fill="#f9f9f9" stroke="#000" stroke-width="8"/>
   <g transform="translate(0 15.464)">
    <path d="m110.11 523.04h273.75v29.294h-273.75z"/>
    <path d="m110.11 569.04h236.38v29.294h-236.38z"/>
    <path d="m110.11 615.04h266.68v29.294h-266.68z"/>
    <path d="m110.11 661.04h201.02v29.294h-201.02z"/>
    <path d="m110.11 735.04h269.71v29.294h-269.71z"/>
    <path d="m110.11 785.04h253.55v29.294h-253.55z"/>
    <path d="m110.11 833.04h279.81v29.294h-279.81z"/>
    <path d="m110.11 883.04h173.75v29.294h-173.75z"/>
   </g>
  </g>
  <g transform="matrix(.99619 .08716 -.08716 .99619 152.05 -43.178)">
   <path d="m71.721 467.48h386.89v531.34h-386.89z" fill="#f9f9f9" stroke="#000" stroke-width="8"/>
   <g transform="translate(0 15.464)">
    <path d="m110.11 523.04h273.75v29.294h-273.75z"/>
    <path d="m110.11 569.04h236.38v29.294h-236.38z"/>
    <path d="m110.11 615.04h266.68v29.294h-266.68z"/>
    <path d="m110.11 661.04h201.02v29.294h-201.02z"/>
    <path d="m110.11 735.04h269.71v29.294h-269.71z"/>
    <path d="m110.11 785.04h253.55v29.294h-253.55z"/>
    <path d="m110.11 833.04h279.81v29.294h-279.81z"/>
    <path d="m110.11 883.04h173.75v29.294h-173.75z"/>
   </g>
  </g>
  <path d="m71.721 467.48h386.89v531.34h-386.89z" fill="#f9f9f9" stroke="#000" stroke-width="8"/>
  <g transform="translate(0 15.464)">
   <path d="m110.11 523.04h273.75v29.294h-273.75z"/>
   <path d="m110.11 569.04h236.38v29.294h-236.38z"/>
   <path d="m110.11 615.04h266.68v29.294h-266.68z"/>
   <path d="m110.11 661.04h201.02v29.294h-201.02z"/>
   <path d="m110.11 735.04h269.71v29.294h-269.71z"/>
   <path d="m110.11 785.04h253.55v29.294h-253.55z"/>
   <path d="m110.11 833.04h279.81v29.294h-279.81z"/>
   <path d="m110.11 883.04h173.75v29.294h-173.75z"/>
  </g>
 </g>
</svg>
