<?xml version="1.0" encoding="UTF-8"?>
<svg enable-background="new 0 0 684 728.5" version="1.1" viewBox="0 0 684 728.5" xmlns="http://www.w3.org/2000/svg">
 <linearGradient id="z" x1="386.79" x2="268.39" y1="581.37" y2="7.4145" gradientUnits="userSpaceOnUse">
  <stop stop-color="#3C3C3B" offset="0"/>
  <stop stop-color="#B2B2B2" offset="1"/>
 </linearGradient>
 <rect width="684" height="728.5" fill="url(#z)"/>
 <g enable-background="new ">
  <polygon points="556.8 227 430.3 259.4 355.3 265.5 489 229.6" fill="#54561E"/>
  <linearGradient id="aa" x1="460.58" x2="556.78" y1="156.57" y2="156.57" gradientUnits="userSpaceOnUse">
   <stop stop-color="#DADD4B" offset="0"/>
   <stop stop-color="#E4E67E" offset="1"/>
  </linearGradient>
  <polygon points="531.6 97.3 556.8 227 489 229.6 460.6 83.6" fill="url(#aa)"/>
  <linearGradient id="ab" x1="329.88" x2="488.96" y1="174.51" y2="174.51" gradientUnits="userSpaceOnUse">
   <stop stop-color="#6A6E22" offset="0"/>
   <stop stop-color="#54561E" offset="1"/>
  </linearGradient>
  <polygon points="489 229.6 355.3 265.5 329.9 134.8 460.6 83.6" fill="url(#ab)"/>
 </g>
 <g enable-background="new ">
  <linearGradient id="ac" x1="524.1" x2="613.17" y1="471.9" y2="471.9" gradientUnits="userSpaceOnUse">
   <stop stop-color="#875CA3" offset="0"/>
   <stop stop-color="#6C3A8E" offset="1"/>
  </linearGradient>
  <polygon points="588 387.4 613.2 517 552.5 556.4 524.1 410.4" fill="url(#ac)"/>
  <polygon points="552.5 556.4 412.1 557.8 386.7 427.2 524.1 410.4" fill="#3D1F50"/>
  <polygon points="524.1 410.4 386.7 427.2 458.5 404.7 588 387.4" fill="#48266D"/>
 </g>
 <g enable-background="new ">
  <linearGradient id="ad" x1="492.34" x2="584.97" y1="317.68" y2="317.68" gradientUnits="userSpaceOnUse">
   <stop stop-color="#0AAFA4" offset="0"/>
   <stop stop-color="#47B8A9" offset="1"/>
  </linearGradient>
  <polygon points="559.8 242.4 585 372 520.7 393 492.3 247" fill="url(#ad)"/>
  <polygon points="520.7 393 383.7 411.6 358.3 281 492.3 247" fill="#0B5445"/>
 </g>
 <g enable-background="new ">
  <polygon points="479.7 229.9 345.2 266.3 248.2 274.1 389.3 233.5" fill="#5D3711"/>
  <linearGradient id="ae" x1="356.27" x2="479.73" y1="148.39" y2="148.39" gradientUnits="userSpaceOnUse">
   <stop stop-color="#FABE6C" offset="0"/>
   <stop stop-color="#F7A734" offset="1"/>
  </linearGradient>
  <polygon points="450.9 81.7 479.7 229.9 389.3 233.5 356.3 63.3" fill="url(#ae)"/>
  <linearGradient id="af" x1="219.17" x2="389.34" y1="168.69" y2="168.69" gradientUnits="userSpaceOnUse">
   <stop stop-color="#8B4C14" offset="0"/>
   <stop stop-color="#5D3711" offset="1"/>
  </linearGradient>
  <polygon points="389.3 233.5 248.2 274.1 219.2 124.4 356.3 63.3" fill="url(#af)"/>
 </g>
 <g enable-background="new ">
  <linearGradient id="ag" x1="430.28" x2="544.23" y1="513.86" y2="513.86" gradientUnits="userSpaceOnUse">
   <stop stop-color="#92C251" offset="0"/>
   <stop stop-color="#B1D283" offset="1"/>
  </linearGradient>
  <polygon points="515.4 413.5 544.2 561.8 463.4 614.2 430.3 444.1" fill="url(#ag)"/>
  <polygon points="463.4 614.2 313.3 608.9 284.3 459.3 430.3 444.1" fill="#43682A"/>
  <linearGradient id="ah" x1="284.25" x2="515.41" y1="436.39" y2="436.39" gradientUnits="userSpaceOnUse">
   <stop stop-color="#51722B" offset="0"/>
   <stop stop-color="#43682A" offset="1"/>
  </linearGradient>
  <polygon points="430.3 444.1 284.3 459.3 377.1 430.2 515.4 413.5" fill="url(#ah)"/>
 </g>
 <g enable-background="new ">
  <linearGradient id="r" x1="393.27" x2="511.98" y1="335.72" y2="335.72" gradientUnits="userSpaceOnUse">
   <stop stop-color="#3760AB" offset="0"/>
   <stop stop-color="#5C84C2" offset="1"/>
  </linearGradient>
  <polygon points="483.2 247.6 512 395.9 426.3 423.9 393.3 253.7" fill="url(#r)"/>
  <linearGradient id="s" x1="251.71" x2="426.35" y1="347.6" y2="347.6" gradientUnits="userSpaceOnUse">
   <stop stop-color="#0C4795" offset="0"/>
   <stop stop-color="#104592" offset="1"/>
  </linearGradient>
  <polygon points="426.3 423.9 280.8 441.5 251.7 291.9 393.3 253.7" fill="url(#s)"/>
 </g>
 <g enable-background="new ">
  <polygon points="376.8 233.9 235 275.1 104.9 285.6 250.3 238.9" fill="#741610"/>
  <linearGradient id="t" x1="210.69" x2="376.78" y1="136.96" y2="136.96" gradientUnits="userSpaceOnUse">
   <stop stop-color="#E94A52" offset="0"/>
   <stop stop-color="#E62A2D" offset="1"/>
  </linearGradient>
  <polygon points="343.1 60.8 376.8 233.9 250.3 238.9 210.7 35.1" fill="url(#t)"/>
  <linearGradient id="u" x1="70.834" x2="250.3" y1="160.34" y2="160.34" gradientUnits="userSpaceOnUse">
   <stop stop-color="#C11819" offset="0"/>
   <stop stop-color="#741610" offset="1"/>
  </linearGradient>
  <polygon points="250.3 238.9 104.9 285.6 70.8 110.6 210.7 35.1" fill="url(#u)"/>
 </g>
 <g enable-background="new ">
  <linearGradient id="v" x1="299.34" x2="452.12" y1="571.66" y2="571.66" gradientUnits="userSpaceOnUse">
   <stop stop-color="#E83182" offset="0"/>
   <stop stop-color="#E75A9A" offset="1"/>
  </linearGradient>
  <polygon points="418.5 448.3 452.1 621.5 339 695 299.3 491.2" fill="url(#v)"/>
  <linearGradient id="w" x1="146.98" x2="338.96" y1="593.07" y2="593.07" gradientUnits="userSpaceOnUse">
   <stop stop-color="#B61A63" offset="0"/>
   <stop stop-color="#7F1249" offset="1"/>
  </linearGradient>
  <polygon points="339 695 181 677.4 147 502.3 299.3 491.2" fill="url(#w)"/>
  <polygon points="299.3 491.2 147 502.3 271.6 463.3 418.5 448.3" fill="#7F1249"/>
 </g>
 <g enable-background="new ">
  <linearGradient id="x" x1="255.01" x2="414.45" y1="360.73" y2="360.73" gradientUnits="userSpaceOnUse">
   <stop stop-color="#23ADDE" offset="0"/>
   <stop stop-color="#69C0E9" offset="1"/>
  </linearGradient>
  <polygon points="380.8 254.5 414.5 427.7 294.6 466.9 255 263.1" fill="url(#x)"/>
  <linearGradient id="y" x1="108.91" x2="294.63" y1="372.29" y2="372.29" gradientUnits="userSpaceOnUse">
   <stop stop-color="#69C0E9" offset="0"/>
   <stop stop-color="#2689AE" offset="1"/>
  </linearGradient>
  <polygon points="294.6 466.9 142.9 481.5 108.9 306.4 255 263.1" fill="url(#y)"/>
 </g>
</svg>
