<?xml version="1.0" encoding="UTF-8"?>
<svg version="1.1" viewBox="0 0 500 500" xmlns="http://www.w3.org/2000/svg">
 <defs>
  <filter id="e" color-interpolation-filters="sRGB">
   <feGaussianBlur stdDeviation="11.961225"/>
  </filter>
  <linearGradient id="f" x1="389.92" x2="395.98" y1="8.0404" y2="270.68" gradientTransform="matrix(1.1159 0 0 1.1159 -195.43 615.35)" gradientUnits="userSpaceOnUse">
   <stop stop-color="#fff" offset="0"/>
   <stop stop-color="#fff" stop-opacity="0" offset="1"/>
  </linearGradient>
  <linearGradient id="g" x1="389.21" x2="390" y1="331.7" y2="260" gradientTransform="matrix(1.1078 0 0 1.1078 -192.59 612.41)" gradientUnits="userSpaceOnUse">
   <stop stop-color="#f0c" offset="0"/>
   <stop stop-color="#f0c" stop-opacity="0" offset="1"/>
  </linearGradient>
  <linearGradient id="h" x1="331.43" x2="340" y1="412.36" y2="653.79" gradientTransform="matrix(0 .9867 .9867 0 -281.53 427.8)" gradientUnits="userSpaceOnUse">
   <stop stop-color="#800080" offset="0"/>
   <stop stop-color="#b400b4" offset="1"/>
  </linearGradient>
 </defs>
 <g transform="translate(0 -552.36)">
  <path transform="matrix(0 .97581 .97581 0 -300.54 472.26)" d="m242.82 360.99c-3.3911 0.13004-6.4948 0.8526-9.383 2.3611-2.5921 1.3539-4.7327 4.4351-5.0901 7.2672-0.35745 2.8321 0.32589 5.2004 1.2572 7.5432 1.8626 4.6856 5.1548 9.627 9.4443 15.546 8.579 11.839 21.259 27.173 33.883 45.014 25.248 35.681 49.695 80.866 41.212 124.59-8.4837 43.719-51.165 89.983-90.457 125.81-19.646 17.914-38.33 33.265-51.361 44.953-6.5156 5.8436-11.6 10.666-14.964 14.933-1.6819 2.1336-3.0277 4.0602-3.7409 6.7766-0.35662 1.3582-0.53475 3.065 0.0306 4.8755 0.56549 1.8104 1.9338 3.4157 3.3423 4.3235 3.7834 2.4386 7.9079 2.6179 12.572 2.2998 4.6642-0.31814 10.029-1.3776 16.19-3.0357 12.323-3.3162 27.819-9.0498 45.566-16.558 35.494-15.017 79.933-37.115 124.06-60.898 44.131-23.782 87.906-49.257 122.04-70.986 17.067-10.864 31.734-20.773 42.867-29.161 11.134-8.388 18.585-14.574 22.292-20.882 2.299-3.9121 1.9865-8.4942 0.61328-12.511-1.3732-4.0165-3.7939-7.9743-7.0219-12.265-6.456-8.582-16.313-18.39-28.701-29.161-24.776-21.542-59.631-46.764-96.283-70.403s-75.05-45.647-106.89-60.622c-15.922-7.4871-30.188-13.224-42.009-16.528-5.9106-1.652-11.2-2.8971-15.976-3.2196-1.1938-0.0806-2.3653-0.10467-3.4957-0.0613z" color="#000000" fill="#405" filter="url(#e)" opacity=".6"/>
  <path d="m45.124 669.16c0.12932-3.3723 0.84787-6.4589 2.348-9.3312 1.3464-2.5778 4.4106-4.7065 7.2271-5.062 2.8165-0.35548 5.1716 0.3241 7.5015 1.2503 4.6598 1.8523 9.5738 5.1264 15.46 9.3922 11.773 8.5316 27.023 21.141 44.765 33.696 35.484 25.109 80.42 49.421 123.9 40.984 43.478-8.4369 89.486-50.882 125.12-89.957 17.816-19.538 33.082-38.118 44.704-51.077 5.8113-6.4796 10.607-11.536 14.851-14.881 2.1218-1.6726 4.0377-3.011 6.7392-3.7203 1.3507-0.35463 3.0481-0.53181 4.8486 0.0305 1.8004 0.56235 3.3968 1.9231 4.2996 3.3238 2.4251 3.7625 2.6034 7.8642 2.287 12.503-0.31637 4.6384-1.37 9.9736-3.0189 16.101-3.2979 12.254-8.9998 27.665-16.467 45.314-14.934 35.298-36.91 79.491-60.561 123.38-23.651 43.887-48.985 87.42-70.594 121.37-10.804 16.973-20.658 31.559-29 42.631-8.3416 11.072-14.493 18.483-20.766 22.169-3.8905 2.2862-8.4473 1.9755-12.442 0.60988-3.9943-1.3656-7.9303-3.773-12.198-6.9831-8.5346-6.4203-18.288-16.223-29-28.542-21.423-24.639-46.506-59.302-70.014-95.751-23.51-36.46-45.395-74.65-60.287-106.32-7.446-15.83-13.151-30.02-16.436-41.77-1.6428-5.8779-2.8811-11.139-3.2019-15.887-0.08022-1.1872-0.10414-2.3522-0.06104-3.4763z" color="#000000" stroke="#000" stroke-linecap="round" stroke-linejoin="round" stroke-width="13.54"/>
  <path d="m42.638 664.82c0.13075-3.41 0.85733-6.5311 2.3743-9.4354 1.3614-2.6065 4.4599-4.7591 7.3078-5.1185 2.8479-0.35942 5.2294 0.32772 7.5853 1.2642 4.7118 1.873 9.6807 5.1836 15.633 9.497 11.905 8.6268 27.325 21.378 45.265 34.072 35.88 25.389 81.318 49.973 125.28 41.442 43.963-8.5311 90.485-51.45 126.51-90.962 18.014-19.756 33.451-38.544 45.203-51.648 5.8762-6.552 10.726-11.665 15.016-15.047 2.1454-1.6913 4.0828-3.0446 6.8144-3.7618 1.3658-0.35858 3.0821-0.53775 4.9027 0.0308 1.8206 0.56865 3.4348 1.9446 4.3477 3.361 2.4522 3.8045 2.6325 7.952 2.3126 12.642-0.3199 4.6902-1.3853 10.085-3.0526 16.281-3.3347 12.391-9.1003 27.974-16.651 45.82-15.101 35.692-37.322 80.379-61.237 124.76-23.915 44.377-49.532 88.397-71.382 122.72-10.925 17.162-20.889 31.911-29.324 43.107-8.4348 11.196-14.655 18.689-20.998 22.417-3.934 2.3118-8.5416 1.9976-12.58 0.61669-4.0389-1.3809-8.0188-3.8151-12.334-7.0611-8.6299-6.492-18.493-16.404-29.324-28.861-21.66-24.93-47.02-59.98-70.79-96.84-23.774-36.85-45.905-75.47-60.963-107.49-7.529-16.01-13.297-30.35-16.62-42.24-1.6612-5.9435-2.9133-11.263-3.2376-16.065-0.08113-1.2005-0.10527-2.3785-0.06172-3.5152z" color="#000000" fill="url(#h)"/>
  <path d="m166.76 892.52c9.7613 13.076 19.272 25.002 28.146 35.208 10.634 12.231 20.33 21.979 28.804 28.354 4.2366 3.187 8.1514 5.5682 12.117 6.9239 3.9656 1.3558 8.4967 1.6812 12.359-0.58854 6.2282-3.66 12.317-11.026 20.599-22.018 5.947-7.8936 12.687-17.623 19.976-28.7-7.7248 0.71948-15.579 1.1078-23.507 1.1078-35.197 0-68.565-7.2837-98.493-20.287z" color="#000000" fill="url(#g)"/>
  <path d="m439.77 580.72c-0.81823 0.0183-1.5912 0.17142-2.2666 0.34872-2.7015 0.70925-4.6083 2.0237-6.73 3.6963-4.2435 3.3452-9.0436 8.4102-14.855 14.89-11.623 12.959-26.889 31.548-44.704 51.086-35.631 39.075-81.638 81.529-125.12 89.966-43.477 8.4368-88.411-15.899-123.9-41.008-17.742-12.554-33.001-25.154-44.774-33.685-5.8867-4.2658-10.788-7.5279-15.448-9.3802-2.3298-0.92614-4.7156-1.6108-7.5321-1.2553-2.8165 0.35548-5.8719 2.4785-7.2182 5.0562-1.5002 2.8722-2.207 5.973-2.3363 9.3453-0.0431 1.1241-0.01015 2.265 0.06973 3.4522 0.32077 4.7488 1.5304 10.023 3.1732 15.901 3.2857 11.756 9.0132 25.941 16.459 41.775 7.6799 16.331 17.233 34.407 27.897 53.073 38.872 32.79 88.561 52.48 142.73 52.48 46.281 0 89.323-14.349 125.12-38.985 2.8744-5.2352 5.708-10.5 8.5433-15.762 23.651-43.887 45.636-88.075 60.57-123.37 7.467-17.649 13.161-33.077 16.459-45.332 1.6489-6.1272 2.7174-11.472 3.0338-16.11 0.31637-4.6384 0.12363-8.7212-2.3015-12.484-0.90285-1.4007-2.4886-2.7503-4.2891-3.3127-0.90024-0.28115-1.7622-0.40193-2.5804-0.3836z" color="#000000" fill="url(#f)"/>
 </g>
</svg>
