<?xml version='1.0' encoding='utf-8'?>
<svg xmlns="http://www.w3.org/2000/svg" version="1.1" x="0px" y="0px" viewBox="0 0 1604 1291" enable-background="new 0 0 1604 1291"> <defs> </defs> <radialGradient id="SVGID_1_" cx="297.6378" cy="250.8661" r="275.2472" fx="241.6899" fy="100.1293" gradientTransform="matrix(2.6946 0 0 2.5731 0 0)" gradientUnits="userSpaceOnUse"> <stop offset="1.312500e-02" style="stop-color:#FFFFFF"/> <stop offset="0.5652" style="stop-color:#CCD9E3"/> <stop offset="0.9888" style="stop-color:#9BB6CA"/> </radialGradient> <rect fill="url(#SVGID_1_)" width="1604" height="1291"/> <linearGradient id="SVGID_2_" gradientUnits="userSpaceOnUse" x1="1126.5101" y1="227.0411" x2="885.1974" y2="434.1989"> <stop offset="0" style="stop-color:#3291CE"/> <stop offset="1" style="stop-color:#014777"/> </linearGradient> <path fill="url(#SVGID_2_)" d="M1393.4,310.6c-64.5-92.8-171.8-153.6-293.4-153.6c-95.4,0-182.1,37.4-246.1,98.4c-3.1,3-6.2,6-9.1,9 c-3,3.1-5.9,6.2-8.8,9.4c-0.1,0.1-0.2,0.2-0.3,0.4c-57.5,63.4-92.5,147.5-92.5,239.7c0,15,0.9,29.8,2.7,44.3 c-13.8-20.1-26.4-41-37.6-62.8c0,0,0,0,0,0c-0.2-1.2-0.4-2.4-0.5-3.6c-0.7-4.9-1.3-9.9-1.8-14.9c-1.2-11.9-1.8-23.9-1.8-36.1 s0.6-24.2,1.8-36.1c0.5-5,1.1-10,1.8-14.9c9.5-66.4,37.3-126.9,78-176.3c0.6-0.8,1.3-1.5,1.9-2.3c0.2-0.2,0.3-0.4,0.5-0.6 c1.3-1.5,2.6-3.1,3.9-4.6C857.5,131.4,953.7,84.1,1061,84.1C1212.1,84.1,1341.3,178,1393.4,310.6z"/> <linearGradient id="SVGID_3_" gradientUnits="userSpaceOnUse" x1="951.1899" y1="416.5808" x2="1205.8677" y2="278.4756"> <stop offset="0" style="stop-color:#3291CE"/> <stop offset="1" style="stop-color:#014777"/> </linearGradient> <path fill="url(#SVGID_3_)" d="M1432.4,383.6c-8-11.6-16.7-22.6-26-33.1c-65.4-73.9-160.9-120.5-267.3-120.5 c-87.4,0-167.5,31.4-229.6,83.6c-4,3.4-8,6.9-11.8,10.4c-13.6,12.5-26.2,26-37.7,40.5c0,0,0,0,0,0C820,414.6,793.3,475.4,784.9,542 c0,0.4-0.1,0.8-0.1,1.1c-1.8,14.4-2.7,29-2.7,43.9c0,6.5,0.2,12.9,0.5,19.2c-10.7-12.6-20.9-25.6-30.6-39.1 c-0.2-0.2-0.3-0.5-0.5-0.7c-1.9-2.7-3.8-5.4-5.7-8.2c-1.8-14.5-2.7-29.3-2.7-44.3c0-92.3,35-176.4,92.5-239.7 c0.1-0.1,0.2-0.2,0.3-0.4c2.9-3.2,5.8-6.3,8.8-9.4c3-3.1,6-6.1,9.1-9c64-61,150.7-98.4,246.1-98.4c121.6,0,228.9,60.8,293.4,153.6 C1409,333.2,1422.2,357.7,1432.4,383.6z"/> <linearGradient id="SVGID_4_" gradientUnits="userSpaceOnUse" x1="1210.0662" y1="370.0316" x2="1035.5785" y2="501.4543"> <stop offset="0" style="stop-color:#3291CE"/> <stop offset="1" style="stop-color:#014777"/> </linearGradient> <path fill="url(#SVGID_4_)" d="M1471.4,456.6c-8-11.6-16.7-22.6-26-33.1c-9.6-10.8-19.8-21.1-30.7-30.7v0 c-63-55.8-145.9-89.8-236.7-89.8c-83.5,0-160.3,28.7-221.1,76.7c-4.9,3.9-9.7,7.8-14.3,12C871,454.6,824.8,545.6,821.3,647.4 c-13.6-13.1-26.5-26.8-38.7-41.1c-0.3-6.4-0.5-12.8-0.5-19.2c0-14.9,0.9-29.5,2.7-43.9c0-0.4,0.1-0.8,0.1-1.1 c8.4-66.6,35.1-127.4,74.9-177.4c0,0,0,0,0,0c11.5-14.5,24.1-28,37.7-40.5c3.9-3.6,7.8-7,11.8-10.4c62.1-52.2,142.2-83.6,229.6-83.6 c106.4,0,202,46.6,267.3,120.5c9.3,10.5,18,21.6,26,33.1c0,0,0,0,0,0C1448,406.2,1461.2,430.7,1471.4,456.6z"/> <linearGradient id="SVGID_5_" gradientUnits="userSpaceOnUse" x1="1003.0438" y1="546.0464" x2="1303.014" y2="418.3362"> <stop offset="0" style="stop-color:#3291CE"/> <stop offset="1" style="stop-color:#014777"/> </linearGradient> <path fill="url(#SVGID_5_)" d="M1510.4,529.6c-8-11.6-16.7-22.6-26-33.1c-9.6-10.8-19.8-21.1-30.7-30.7v0 c-11.3-10-23.3-19.3-35.8-27.9c-57.2-39-126.4-61.9-200.9-61.9c-83.8,0-160.8,28.9-221.7,77.2c-5.7,4.5-11.3,9.2-16.7,14.1 c-61.4,55.1-103.5,131.1-115.2,216.9c-14.6-11.6-28.7-23.9-42.1-36.9c3.5-101.8,49.7-192.8,121.3-255.6c4.7-4.1,9.5-8.1,14.3-12 c60.8-48,137.6-76.7,221.1-76.7c90.8,0,173.7,33.9,236.7,89.8v0c10.8,9.6,21.1,19.8,30.7,30.7c9.3,10.5,18,21.6,26,33.1c0,0,0,0,0,0 C1487,479.2,1500.2,503.7,1510.4,529.6z"/> <radialGradient id="SVGID_6_" cx="678.79" cy="858.65" r="385.3347" gradientUnits="userSpaceOnUse"> <stop offset="1.503906e-03" style="stop-color:#3291CE"/> <stop offset="0.2522" style="stop-color:#2978AC"/> <stop offset="1" style="stop-color:#0F2F48"/> </radialGradient> <path fill="url(#SVGID_6_)" d="M1043,684c0,32.2-2.6,63.8-7.7,94.6c-1,6.1-2.1,12.1-3.3,18.1c-4.3,21.8-9.8,43.2-16.5,64.1v0 c-5.8,18.1-12.4,35.8-19.9,53.1c-6,13.8-12.4,27.3-19.4,40.5c-4.9,9.2-10,18.3-15.3,27.2C859.6,1150.8,674.5,1264,463,1264 c-51.3,0-101-6.7-148.4-19.2c39.8,8.6,81.1,13.2,123.4,13.2c217,0,406.1-119.1,505.6-295.6c4.3-7.6,8.4-15.3,12.3-23 c6-11.9,11.7-24.1,16.9-36.5c6.7-16,12.8-32.3,18.1-49c6.2-19.6,11.5-39.7,15.6-60.1c1.6-8,3.1-16.1,4.4-24.2 c4.7-29.8,7.2-60.4,7.2-91.6c0-74.3-14-145.3-39.4-210.6c5.4-4.9,11-9.6,16.7-14.1C1026,524,1043,602,1043,684z"/> <linearGradient id="SVGID_7_" gradientUnits="userSpaceOnUse" x1="863.38" y1="618.485" x2="1018" y2="618.485"> <stop offset="0" style="stop-color:#FFEC00"/> <stop offset="1" style="stop-color:#39A935"/> </linearGradient> <path fill="url(#SVGID_7_)" d="M1018,678c0,31.2-2.5,61.7-7.2,91.6c-53.5-21.2-103.1-50-147.4-85.3 c11.7-85.7,53.8-161.8,115.2-216.9C1004,532.7,1018,603.7,1018,678z"/> <path fill="#3FA9F5" d="M787.7,211.5c-0.6,0.8-1.3,1.5-1.9,2.3c-40.8,49.4-68.6,109.9-78,176.3c-8.1-46.1-30.4-87.4-62.3-119.1 c-39.3-39.2-93.2-63.8-152.8-65c38.9-33.1,89.3-53,144.4-53c4,0,8,0.1,12,0.3c20.4,1.1,40,4.9,58.5,11.1 C737.6,174.3,764.8,190.6,787.7,211.5z"/> <radialGradient id="SVGID_8_" cx="486.305" cy="323.465" r="177.2368" gradientUnits="userSpaceOnUse"> <stop offset="1.503906e-03" style="stop-color:#3291CE"/> <stop offset="0.2522" style="stop-color:#2978AC"/> <stop offset="1" style="stop-color:#0F2F48"/> </radialGradient> <path fill="url(#SVGID_8_)" d="M707.7,390c-0.7,4.9-1.3,9.9-1.8,14.9c-9.1-41.3-29.6-78.3-58-107.5c-40.5-41.6-97.2-67.5-159.9-67.5 c-6.9,0-13.7,0.3-20.4,0.9c-0.3,0-0.6,0.1-0.9,0.1C357.4,241.3,271.1,330.5,265.2,441c-0.2-4-0.3-8-0.3-12 c0-123.2,99.9-223.1,223.1-223.1c1.2,0,2.3,0,3.4,0c0.4,0,0.8,0,1.2,0c59.6,1.2,113.5,25.8,152.8,65 C677.2,302.6,699.6,343.9,707.7,390z"/> <linearGradient id="SVGID_9_" gradientUnits="userSpaceOnUse" x1="647.88" y1="391.92" x2="705.88" y2="391.92"> <stop offset="0" style="stop-color:#FFEC00"/> <stop offset="1" style="stop-color:#39A935"/> </linearGradient> <path fill="url(#SVGID_9_)" d="M704.1,441c0,12.2,0.6,24.2,1.8,36.1c-0.7,3.1-1.4,6.2-2.3,9.3c-28.7-58.2-48-121.8-55.7-189 c28.4,29.2,48.9,66.2,58,107.5C704.7,416.8,704.1,428.8,704.1,441z"/> </svg>