<?xml version="1.0" encoding="UTF-8"?>
<svg viewBox="0 0 101.42441 125.91969" xmlns="http://www.w3.org/2000/svg" xmlns:xlink="http://www.w3.org/1999/xlink">
 <defs>
  <filter id="j">
   <feGaussianBlur stdDeviation="2.0239"/>
  </filter>
  <filter id="l">
   <feGaussianBlur stdDeviation=".318"/>
  </filter>
  <filter id="k">
   <feGaussianBlur stdDeviation=".2457"/>
  </filter>
  <filter id="i" x="-.03443" y="-.13238" width="1.0689" height="1.2648">
   <feGaussianBlur stdDeviation="1.5659"/>
  </filter>
  <filter id="m" x="-.12125" y="-.02114" width="1.2425" height="1.0423">
   <feGaussianBlur stdDeviation=".9204"/>
  </filter>
  <linearGradient id="h" x1="317.42" x2="400.84" gradientUnits="userSpaceOnUse">
   <stop stop-color="#febf11" offset="0"/>
   <stop stop-color="#ffc013" offset=".25"/>
   <stop stop-color="#f1581e" offset=".7978"/>
   <stop stop-color="#febf10" offset=".8989"/>
   <stop stop-color="#f4b419" offset="1"/>
  </linearGradient>
  <linearGradient id="g" x1="332.13" x2="309.11" y1="-174.14" y2="-151.09" gradientUnits="userSpaceOnUse">
   <stop stop-color="#febe14" offset="0"/>
   <stop stop-color="#ffe89c" offset="1"/>
  </linearGradient>
  <linearGradient id="f" x1="196.63" x2="248.66" gradientUnits="userSpaceOnUse">
   <stop stop-color="#e6e6e6" offset="0"/>
   <stop stop-color="#fff" offset=".3148"/>
   <stop stop-color="#bdbec2" offset="1"/>
  </linearGradient>
  <linearGradient id="e" x1="268.25" x2="227.17" y1="-431.31" y2="-422.01" gradientUnits="userSpaceOnUse">
   <stop stop-color="#fff" offset="0"/>
   <stop stop-color="#fff" stop-opacity="0" offset="1"/>
  </linearGradient>
  <linearGradient id="a">
   <stop stop-color="#fff" stop-opacity=".0126" offset="0"/>
   <stop stop-color="#fff" offset=".4729"/>
   <stop stop-color="#fff" stop-opacity="0" offset="1"/>
  </linearGradient>
  <linearGradient id="d" x1="-267.16" x2="-243.06" gradientUnits="userSpaceOnUse" xlink:href="#a"/>
  <linearGradient id="c" x1="-261.68" x2="-241.86" y1="-325.49" y2="-320.19" gradientUnits="userSpaceOnUse" xlink:href="#a"/>
  <radialGradient id="b" cx="246.86" cy="-412.7" r="12.922" gradientTransform="matrix(1.418 -.20789 1.144 7.8029 368.86 2893.7)" gradientUnits="userSpaceOnUse">
   <stop stop-color="#f3701f" offset="0"/>
   <stop stop-color="#f3701f" stop-opacity="0" offset="1"/>
  </radialGradient>
 </defs>
 <g transform="matrix(.67119 0 0 .67119 -14.073 380.51)">
  <path d="m97.21875-554.59375c-2.92403.15816-8.40625,2.34375-8.40625,2.34375l-10.03125,39.34375-.28125-.0312-5.0625,19.93745c.08024.0169.16929.0145.25.0312l-1.53125,6.03125-4.6875,18.3125-.21875-.0625-4.875,18.90625 .25.125-2.59375,10.1875c-11.5138,3.3243-19.06727,8.17935-19.90625,13.65625l-.03125-.0625c-.34298.57168-.39143,2.09753-.34375,3.71875 .05678,1.93083.25,3.99672.25,4.71875 0,5.46091 6.66242,10.37839 17.375,13.875 .11355.037.2293.0883.34375.125 .24831.0797.49748.14059.75.21875l1.34375.40625 .5625.15625 .125.0312c.61877.17326 1.23519.33643 1.875.5 2.14168.55261 4.38487,1.05452 6.75,1.5l.1875.0312 .1875.0312c1.39627.25886 2.81621.50197 4.28125.71875l.40625.0625c6.81654.9949 14.33198,1.5625 22.21875,1.5625 31.15523,0 56.40625-8.59244 56.40625-19.21875 0-.52931.13827-1.49577.25-2.5l.0312-.0625-.0312-.0625c.16099-1.48213.2519-3.08011-.1875-3.8125l-.0625.0937c.0487-.32794.0625-.66793.0625-1 0-5.41278-6.5772-10.28513-17.125-13.78125l-2.75-11.125c.0518-.0263.10516-.0673.15625-.0937l-4.65625-18.90605-.1875.0625-3.25-13.15625-2.8125-11.28125 .21875-.0312-4.9375-19.9063-.1875.0312-9.90625-39.96875c0,0-6.77683-1.84243-10.21875-1.65625z" filter="url(#j)" opacity=".5"/>
  <path transform="matrix(1.1676 0 0 1.6667 505.72 229.42)" d="m-295.88-387.66c0 7.8395-24.432 14.195-54.57 14.195s-54.57-6.3552-54.57-14.195 24.432-14.195 54.57-14.195 54.57 6.3552 54.57 14.195z" filter="url(#i)" opacity=".5"/>
  <g transform="matrix(1.3603 0 0 1.3002 -392.06 58.89)">
   <path d="m317.68-372.83c-0.55242 0.9633-0.0687 5.4663-0.0687 6.4879 0 8.1726 18.565 14.781 41.469 14.781s41.469-6.6087 41.469-14.781c0-1.0216 0.61293-3.9744 0.0605-4.9377-3.8907 6.7321-21.511 13.719-41.529 13.719s-37.509-8.537-41.4-15.269z" fill="url(#h)"/>
   <path transform="matrix(1 0 0 1.1571 35.223 -182.54)" d="m365.38-163.72c0 7.0627-18.567 12.788-41.47 12.788s-41.47-5.7255-41.47-12.788 18.567-12.788 41.47-12.788 41.47 5.7254 41.47 12.788z" fill="url(#g)"/>
   <g transform="translate(137.45 6.2006)">
    <path d="m222.24-478.03c-2.1496 0.12164-6.1875 1.8125-6.1875 1.8125l-23.25 95.312h0.4375c-8e-3 0.0832-0.0312 0.16617-0.0312 0.25 0 4.6767 13.169 8.4688 29.438 8.4688 16.232 0 29.41-3.7751 29.469-8.4375h0.375l-22.75-96.125s-4.9697-1.4244-7.5-1.2812z" fill="#ffc013"/>
    <path d="m237.16-446.04c-4.2985 0.70611-9.227 1.125-14.531 1.125-5.1558 0-9.9498-0.38792-14.156-1.0625l-3.7188 15.312c4.9586 1.0939 11.139 1.75 17.875 1.75 6.8513 0 13.15-0.68457 18.156-1.8125l-3.625-15.312zm-36.969 34.094-3.5625 14.531c4.9425 2.6776 14.718 4.5 26 4.5 11.286 0 21.081-1.8205 26.031-4.5l-3.4375-14.531c-5.4039 1.8578-13.514 3.0312-22.594 3.0312-9.0047 0-17.048-1.1936-22.438-3.0312z" fill="url(#f)"/>
    <path d="m219.59-477.22-22.25 100.88c4.5764 2.2181 12.543 3.7828 21.875 4.0938l0.375-104.97z" fill="#fff" filter="url(#l)" opacity=".3"/>
    <path d="m219.59-477.25-18.219 102.44c2.9543 0.89106 6.5636 1.6083 10.625 2.0625l7.5938-104.5z" fill="#fff" filter="url(#m)" opacity=".8"/>
    <path d="m226.31-476.47-4.3125 104.28h0.65625c10.687 0 20.021-1.645 25.188-4.0938l-21.531-100.19z" fill="url(#b)"/>
    <path d="m222.24-478.03c-2.1496 0.12164-6.1875 1.8125-6.1875 1.8125l-23.25 95.312h0.4375c-8e-3 0.0832-0.0312 0.16617-0.0312 0.25 0 4.6767 13.169 8.4688 29.438 8.4688 16.232 0 29.41-3.7751 29.469-8.4375h0.375l-22.75-96.125s-4.9697-1.4244-7.5-1.2812z" fill="url(#e)"/>
   </g>
   <path transform="matrix(.73514 0 0 .76909 526.73 -114.9)" d="m-265.5625-322.625-1.59375,1.15625v8.28125l.0937.125c.11355.037.2293.0883.34375.125 .24831.0797.49748.14059.75.21875l1.34375.40625c1.67126.48404 3.41935.92933 5.25,1.34375 2.74597.62163 5.66036,1.17246 8.71875,1.625 1.01946.15085 2.07493.2753 3.125.40625s2.10888.2645 3.1875.375l1.28125-8.0625c-8.37356-1.22877-16.03647-3.39311-22.5-6z" fill="url(#d)"/>
   <path transform="matrix(.73514 0 0 .76909 526.73 -114.9)" d="m-255.78-329.72-11.375 8.25v1.0312c6.6291 2.1839 14.84 3.7849 23.969 4.6562l1.875-11.875-14.469-2.0625z" fill="url(#c)"/>
   <path d="m317.44-369.97 0.62027 1.1962c0.0202-0.0668 0.0287-0.13055 0.0459-0.21571 2.2919 2.7176 6.9805 5.872 13.93 8.1644 7.4063 2.4429 16.862 4.2162 26.924 4.2162 10.053 0 19.487-1.4446 26.924-3.5691 6.4306-1.8368 11.264-4.1689 13.784-6.6283l1.1027-1.51-0.27568-0.41182-0.34459 0.45104c-1.8505 2.6126-7.1694 5.4311-14.519 7.5304s-16.706 3.5102-26.672 3.5102c-9.9558 0-19.309-1.7442-26.626-4.1574-7.2028-2.3758-12.089-5.7047-14.022-8.3016l0.22973-0.27455h-1.1027z" fill="#fff" filter="url(#k)"/>
  </g>
 </g>
</svg>
