<?xml version='1.0' encoding='utf-8'?>
<svg xmlns="http://www.w3.org/2000/svg" width="100%" height="100%" viewBox="0 0 667 667" version="1.1" style="fill-rule:evenodd;clip-rule:evenodd;stroke-linejoin:round;stroke-miterlimit:1.41421;"><g><path d="M528.425,0l-389.913,0c-22.173,0 -40.215,18.04 -40.215,40.215l0,586.509c0,22.175 18.04,40.215 40.215,40.215l318.635,0c3.713,0 7.273,-1.476 9.9,-4.1l97.493,-97.495c2.625,-2.625 4.1,-6.187 4.1,-9.899l0,-515.23c0,-22.175 -18.04,-40.215 -40.215,-40.215ZM471.148,619.137l0,-37.478c0,-6.735 5.479,-12.215 12.215,-12.215l37.478,0l-49.693,49.693ZM138.512,28l389.913,0c6.736,0 12.215,5.479 12.215,12.215l0,43.269l-414.343,0l0,-43.269c0,-6.736 5.48,-12.215 12.215,-12.215ZM126.297,626.724l0,-515.24l414.343,0l0,429.96l-57.277,0c-22.175,0 -40.215,18.04 -40.215,40.215l0,57.28l-304.636,0c-6.735,0 -12.215,-5.48 -12.215,-12.215Z" style="fill:#147ac9;fill-rule:nonzero;"/><path d="M183.936,215.148l183.333,0c7.732,0 14,-6.268 14,-14c0,-7.732 -6.268,-14 -14,-14l-183.333,0c-7.732,0 -14,6.268 -14,14c0,7.732 6.268,14 14,14Z" style="fill:#147ac9;fill-rule:nonzero;"/><path d="M423.269,215.148l47.334,0c7.732,0 14,-6.268 14,-14c0,-7.732 -6.268,-14 -14,-14l-47.334,0c-7.732,0 -14,6.268 -14,14c0,7.732 6.268,14 14,14Z" style="fill:#147ac9;fill-rule:nonzero;"/><path d="M183.936,326.315l183.333,0c7.732,0 14,-6.268 14,-14c0,-7.732 -6.268,-14 -14,-14l-183.333,0c-7.732,0 -14,6.268 -14,14c0,7.732 6.268,14 14,14Z" style="fill:#147ac9;fill-rule:nonzero;"/><path d="M423.269,326.315l47.334,0c7.732,0 14,-6.268 14,-14c0,-7.732 -6.268,-14 -14,-14l-47.334,0c-7.732,0 -14,6.268 -14,14c0,7.732 6.268,14 14,14Z" style="fill:#147ac9;fill-rule:nonzero;"/><path d="M381.269,423.481c0,-7.732 -6.268,-14 -14,-14l-183.333,0c-7.732,0 -14,6.268 -14,14c0,7.732 6.268,14 14,14l183.333,0c7.732,0 14,-6.268 14,-14Z" style="fill:#147ac9;fill-rule:nonzero;"/><path d="M423.269,437.481l47.334,0c7.732,0 14,-6.268 14,-14c0,-7.732 -6.268,-14 -14,-14l-47.334,0c-7.732,0 -14,6.268 -14,14c0,7.732 6.268,14 14,14Z" style="fill:#147ac9;fill-rule:nonzero;"/><path d="M470.603,517.481c7.732,0 14,-6.268 14,-14c0,-7.732 -6.268,-14 -14,-14l-133.334,0c-7.732,0 -14,6.268 -14,14c0,7.732 6.268,14 14,14l133.334,0Z" style="fill:#147ac9;fill-rule:nonzero;"/></g></svg>