<?xml version="1.0" encoding="UTF-8"?>
<svg width="48.209" height="231.04" version="1.1" viewBox="0 0 48.209396 1107.2201" xmlns="http://www.w3.org/2000/svg" xmlns:xlink="http://www.w3.org/1999/xlink">
 <defs>
  <clipPath id="ac">
   <path d="m642.03 943.58c-9.3932-2.6061-14.556-12.189-11.402-21.163 0.50521-1.4374 25.913-45.517 56.462-97.955 58.786-100.91 57.24-98.4 62.11-100.71 2.7074-1.2848 7.1354-1.8561 10.071-1.2994 3.5165 0.6669 6.2892 2.199 8.8216 4.8745 1.4965 1.5811 19.212 31.579 57.387 97.174 30.372 52.188 55.544 95.626 55.937 96.53 1.1319 2.6041 1.5923 7.8577 0.9134 10.423-1.3518 5.1078-4.8297 9.3138-9.5042 11.494l-2.3265 1.0851-113.12 0.0818c-89.194 0.0645-113.59-0.0485-115.35-0.53437v2e-5z"/>
  </clipPath>
  <clipPath id="ab">
   <path d="m-380.32 1638.7c-49.931 0-90.455 40.523-90.455 90.455 0 49.931 40.523 90.455 90.455 90.454 20.323 0 39.098-6.715 54.206-18.044 0 0 22.31 15.227 40.607 11.819-15.002-13.006-21.842-30.62-21.842-30.62 11.466-15.16 17.484-33.151 17.484-53.61 0-49.931-40.523-90.455-90.455-90.455z" fill-rule="evenodd"/>
  </clipPath>
  <clipPath id="ad">
   <path transform="matrix(.67881 -.18316 .18316 .67881 -625.77 -72.387)" d="m1528 1467.8-100.18 57.831-111.73-29.947-57.831-100.18 29.947-111.73 100.18-57.831 111.73 29.947 57.831 100.18-29.947 111.73z" fill-rule="evenodd"/>
  </clipPath>
  <clipPath id="aa">
   <path d="m497.25 290.73c-1.7311 1.7311-1.7313 4.5202-2.3e-4 6.2515l144.76 144.75-144.8 144.8c-1.7311 1.7311-1.7311 4.5202 0 6.2513l38.213 38.213c1.7311 1.7314 4.5204 1.7314 6.2515 0l144.8-144.79 144.79 144.79c1.7314 1.7314 4.5204 1.7314 6.2515 0l38.169-38.169c1.7311-1.7309 1.7311-4.5199-2.4e-4 -6.2513l-144.79-144.8 144.79-144.79c1.7311-1.7311 1.7311-4.5202-2.4e-4 -6.2515l-38.213-38.213c-1.7311-1.7311-4.5199-1.7311-6.2513 0l-144.79 144.79-144.75-144.75c-1.7311-1.7312-4.5202-1.7312-6.2513 0l-38.169 38.169z" fill-rule="evenodd"/>
  </clipPath>
  <clipPath id="j">
   <path transform="matrix(1.3243 0 0 1.3243 -119.25 239.74)" d="m774.87 820.65a54.221 54.221 0 1 1 -108.44 0 54.221 54.221 0 1 1 108.44 0z"/>
  </clipPath>
  <clipPath id="ae">
   <path transform="translate(-239.82 579.52)" d="m1054.8 665.38a97.105 97.105 0 1 1 -194.21 0 97.105 97.105 0 1 1 194.21 0z"/>
  </clipPath>
  <filter id="z" color-interpolation-filters="sRGB">
   <feGaussianBlur stdDeviation="5.98138"/>
  </filter>
  <filter id="x" color-interpolation-filters="sRGB">
   <feGaussianBlur stdDeviation="6.59992"/>
  </filter>
  <filter id="v" color-interpolation-filters="sRGB">
   <feGaussianBlur stdDeviation="2.48771"/>
  </filter>
  <filter id="w" color-interpolation-filters="sRGB">
   <feGaussianBlur stdDeviation="1.88039"/>
  </filter>
  <filter id="g" x="-.5" y="-.5" width="1.5" height="1.5" color-interpolation-filters="sRGB">
   <feGaussianBlur stdDeviation="2"/>
  </filter>
  <filter id="b" x="-.5" y="-.5" width="10" height="10" color-interpolation-filters="sRGB">
   <feGaussianBlur stdDeviation="2"/>
  </filter>
  <filter id="i" x="-.5" y="-.5" width="2" height="2" color-interpolation-filters="sRGB">
   <feGaussianBlur stdDeviation="2"/>
  </filter>
  <filter id="h" x="-.10944" y="-.10957" width="1.2189" height="1.2191" color-interpolation-filters="sRGB">
   <feGaussianBlur stdDeviation="6.59525"/>
  </filter>
  <filter id="y" x="-.2108" y="-.04166" width="1.4216" height="1.0833" color-interpolation-filters="sRGB">
   <feGaussianBlur stdDeviation="2.86778"/>
  </filter>
  <linearGradient id="a">
   <stop stop-color="#fff" offset="0"/>
   <stop stop-color="#fff" stop-opacity="0" offset="1"/>
  </linearGradient>
  <linearGradient id="u" x2="0" y1="479.42" y2="659.12" gradientTransform="translate(-131.34 -75.64)" gradientUnits="userSpaceOnUse">
   <stop stop-color="#fcfcff" offset="0"/>
   <stop stop-color="#fff" stop-opacity="0" offset="1"/>
  </linearGradient>
  <linearGradient id="t" x1="-243.57" x2="-203.95" y1="356.27" y2="538.57" gradientUnits="userSpaceOnUse">
   <stop stop-color="#fce703" offset="0"/>
   <stop stop-color="#fcc403" offset="1"/>
  </linearGradient>
  <radialGradient id="e" cx="989.86" cy="566.5" r="12.704" gradientTransform="matrix(2.1063 .38234 -.90875 5.0062 -580.28 -2606.9)" gradientUnits="userSpaceOnUse" xlink:href="#a"/>
  <radialGradient id="d" cx="991.55" cy="644.62" r="11.936" gradientTransform="matrix(1.2549 .47518 -.55024 1.4531 101.28 -761.22)" gradientUnits="userSpaceOnUse">
   <stop stop-color="#fff" offset="0"/>
   <stop stop-color="#fff" stop-opacity=".00448" offset="1"/>
  </radialGradient>
  <linearGradient id="s" x2="0" y1="482.84" y2="385.18" gradientUnits="userSpaceOnUse" xlink:href="#a"/>
  <radialGradient id="k" cx="31.073" cy="1763.1" r="195.52" gradientTransform="matrix(1.0643 -.3184 .20638 .68987 408.76 -388.38)" gradientUnits="userSpaceOnUse">
   <stop stop-color="#b8e4e6" offset="0"/>
   <stop stop-color="#fbfbfb" offset="1"/>
  </radialGradient>
  <linearGradient id="r" x1="803.48" x2="858.87" y1="838.71" y2="926.98" gradientUnits="userSpaceOnUse">
   <stop stop-color="#fff" offset="0"/>
   <stop stop-color="#fefffa" stop-opacity="0" offset="1"/>
  </linearGradient>
  <linearGradient id="f" x1="1035.2" x2="840.58" y1="783.73" y2="566.28" gradientUnits="userSpaceOnUse">
   <stop offset="0"/>
   <stop stop-opacity="0" offset="1"/>
  </linearGradient>
  <radialGradient id="c" cx="711.56" cy="811.56" r="55.354" gradientUnits="userSpaceOnUse">
   <stop stop-color="#3f5beb" offset="0"/>
   <stop stop-color="#06048f" offset="1"/>
  </radialGradient>
  <linearGradient id="q" x1="815.02" x2="641.51" y1="1342" y2="1171" gradientUnits="userSpaceOnUse">
   <stop stop-color="#545151" offset="0"/>
   <stop stop-color="#545151" stop-opacity="0" offset="1"/>
  </linearGradient>
  <linearGradient id="p" x1="412.11" x2="257.5" y1="1617.6" y2="1328.7" gradientTransform="matrix(.52324 0 0 .42882 807.6 618.12)" gradientUnits="userSpaceOnUse">
   <stop stop-color="#296099" offset="0"/>
   <stop stop-color="#296099" stop-opacity="0" offset="1"/>
  </linearGradient>
  <linearGradient id="o" x1="90.426" x2="166.41" y1="1035.1" y2="1182.2" gradientUnits="userSpaceOnUse" xlink:href="#a"/>
  <linearGradient id="n" x1="-189.89" x2="-113.91" y1="646.22" y2="793.31" gradientUnits="userSpaceOnUse" xlink:href="#a"/>
  <linearGradient id="m" x1="1418.3" x2="1351.1" y1="1231.3" y2="1538.8" gradientUnits="userSpaceOnUse">
   <stop stop-color="#f00" offset="0"/>
   <stop stop-color="#c62b2b" offset="1"/>
  </linearGradient>
  <linearGradient id="l" x1="158.71" x2="175.35" y1="84.803" y2="217.88" gradientUnits="userSpaceOnUse" xlink:href="#a"/>
 </defs>
 <g transform="translate(254.33 -131.83)">
  <path d="m-310.69 530.11c-7.3114-2.0285-11.33-9.4873-8.8747-16.473 0.39325-1.1188 20.17-35.429 43.949-76.245 45.758-78.544 44.8-75.361 48.591-77.16 2.1074-1 5.554-1.4447 7.8388-1.0114 2.7372 0.5191 4.8953 1.7116 6.8665 3.7942 1.1649 1.2307 14.708 23.349 44.422 74.407 23.641 40.621 42.742 74.433 43.047 75.137 0.88104 2.027 1.2394 6.1162 0.71097 8.1126-1.0522 3.9758-3.7593 7.2497-7.3978 8.9468l-1.8109 0.84461-87.561 0.0638c-69.426 0.0502-88.419-0.0378-89.782-0.41596z" fill="url(#t)" stroke="#b69812" stroke-linecap="round" stroke-linejoin="round" stroke-width="3.1135"/>
  <g transform="matrix(.77837 0 0 .77837 -984.62 7.5504)" filter="url(#y)">
   <path d="m994.57 492.43c-8.0012 0.3106-16.046-0.3694-24.021 0.3536-1.7881 0.8635-1.7116 3.1884-1.5598 4.8822 0.0247 14.872-0.5011 29.777 0.8305 44.614 1.6953 23.683 3.2598 47.378 5.1073 71.048 0.7431 1.9789 3.2544 2.2416 5.0642 1.9394 3.7358-0.1748 7.5923 0.5633 11.236-0.5095 1.9503-1.6326 1.2201-4.4185 1.5758-6.6134 1.7069-27.062 3.8634-54.098 5.2329-81.179-0.0837-10.871 0.1865-21.75-0.1586-32.616-0.4806-1.3218-1.9761-1.9766-3.3069-1.9186zm-0.9255 134.44c-7.3915 0.2786-14.824-0.335-22.191 0.3171-1.8772 0.8757-1.7597 3.2992-1.626 5.0487 0.0799 6.7449-0.3618 13.518 0.2794 20.241 0.9404 1.8905 3.3899 1.7276 5.1734 1.6118 6.7345-0.1187 13.492 0.3031 20.21-0.2443 1.8954-0.9284 1.8317-3.3648 1.6987-5.1623-0.1457-6.6961 0.2931-13.416-0.2533-20.097-0.5637-1.2365-2.0026-1.7867-3.2913-1.7158z" stroke="#000" stroke-linecap="round" stroke-linejoin="round" stroke-width="3.499"/>
   <path d="m977.44 613.3c-0.33787-0.10998-0.58289-0.33499-0.66418-0.60995-0.15207-0.51431-3.021-40.06-5.544-76.418-0.38063-5.4852-0.55152-15.943-0.46276-28.319 0.0505-7.045 0.14062-12.935 0.20022-13.09 0.0831-0.2154 0.46082-0.30615 1.6239-0.39022 2.1186-0.15314 22.532-0.16694 22.921-0.0155 0.17508 0.0682 0.39075 0.31445 0.47925 0.54724 0.0942 0.24785 0.16092 7.2023 0.16092 16.781v16.358l-0.60976 10.512c-0.64984 11.203-1.3229 21.581-2.6995 41.62-0.47079 6.8533-1.1368 16.813-1.48 22.133-0.43184 6.6928-0.69884 9.8399-0.8668 10.217-0.20665 0.46368-0.36769 0.56473-1.0837 0.67995-1.2644 0.20346-11.347 0.19953-11.974-5e-3z" fill="url(#e)" opacity=".81081"/>
   <path d="m972.9 652.31c-0.39823-0.0486-0.82187-0.20306-0.95233-0.34721-0.0723-0.0798-0.11917-0.41536-0.19135-1.3687-0.17784-2.3488-0.21806-5.138-0.187-12.97 0.0325-8.1987 0.0301-8.1365 0.32486-8.5316 0.11236-0.1506 0.15321-0.15859 1.1655-0.22789 2.5248-0.17284 4.8318-0.20438 13.043-0.17834l8.3755 0.0266 0.34296 0.17539c0.34107 0.17444 0.34318 0.17726 0.38296 0.5123 0.17161 1.4454 0.20651 3.2716 0.20716 10.842 3.7e-4 4.3207 8e-3 8.452 0.0176 9.1806 0.0196 1.5366-0.0599 2.1087-0.34945 2.5154l-0.12428 0.17455-1.3126 0.0709-2.206 0.11388c-1.1384 0.0548-18.096 0.0655-18.537 0.0117v-1e-5z" fill="url(#d)" opacity=".73745"/>
  </g>
  <g transform="matrix(.77837 0 0 .77837 -986.59 5.5814)">
   <path d="m994.57 492.43c-8.0012 0.3106-16.046-0.3694-24.021 0.3536-1.7881 0.8635-1.7116 3.1884-1.5598 4.8822 0.0247 14.872-0.5011 29.777 0.8305 44.614 1.6953 23.683 3.2598 47.378 5.1073 71.048 0.7431 1.9789 3.2544 2.2416 5.0642 1.9394 3.7358-0.1748 7.5923 0.5633 11.236-0.5095 1.9503-1.6326 1.2201-4.4185 1.5758-6.6134 1.7069-27.062 3.8634-54.098 5.2329-81.179-0.0837-10.871 0.1865-21.75-0.1586-32.616-0.4806-1.3218-1.9761-1.9766-3.3069-1.9186zm-0.9255 134.44c-7.3915 0.2786-14.824-0.335-22.191 0.3171-1.8772 0.8757-1.7597 3.2992-1.626 5.0487 0.0799 6.7449-0.3618 13.518 0.2794 20.241 0.9404 1.8905 3.3899 1.7276 5.1734 1.6118 6.7345-0.1187 13.492 0.3031 20.21-0.2443 1.8954-0.9284 1.8317-3.3648 1.6987-5.1623-0.1457-6.6961 0.2931-13.416-0.2533-20.097-0.5637-1.2365-2.0026-1.7867-3.2913-1.7158z" stroke="#000" stroke-linecap="round" stroke-linejoin="round" stroke-width="3.499"/>
   <path d="m977.44 613.3c-0.33787-0.10998-0.58289-0.33499-0.66418-0.60995-0.15207-0.51431-3.021-40.06-5.544-76.418-0.38063-5.4852-0.55152-15.943-0.46276-28.319 0.0505-7.045 0.14062-12.935 0.20022-13.09 0.0831-0.2154 0.46082-0.30615 1.6239-0.39022 2.1186-0.15314 22.532-0.16694 22.921-0.0155 0.17508 0.0682 0.39075 0.31445 0.47925 0.54724 0.0942 0.24785 0.16092 7.2023 0.16092 16.781v16.358l-0.60976 10.512c-0.64984 11.203-1.3229 21.581-2.6995 41.62-0.47079 6.8533-1.1368 16.813-1.48 22.133-0.43184 6.6928-0.69884 9.8399-0.8668 10.217-0.20665 0.46368-0.36769 0.56473-1.0837 0.67995-1.2644 0.20346-11.347 0.19953-11.974-5e-3z" fill="url(#e)" opacity=".81081"/>
   <path d="m972.9 652.31c-0.39823-0.0486-0.82187-0.20306-0.95233-0.34721-0.0723-0.0798-0.11917-0.41536-0.19135-1.3687-0.17784-2.3488-0.21806-5.138-0.187-12.97 0.0325-8.1987 0.0301-8.1365 0.32486-8.5316 0.11236-0.1506 0.15321-0.15859 1.1655-0.22789 2.5248-0.17284 4.8318-0.20438 13.043-0.17834l8.3755 0.0266 0.34296 0.17539c0.34107 0.17444 0.34318 0.17726 0.38296 0.5123 0.17161 1.4454 0.20651 3.2716 0.20716 10.842 3.7e-4 4.3207 8e-3 8.452 0.0176 9.1806 0.0196 1.5366-0.0599 2.1087-0.34945 2.5154l-0.12428 0.17455-1.3126 0.0709-2.206 0.11388c-1.1384 0.0548-18.096 0.0655-18.537 0.0117v-1e-5z" fill="url(#d)" opacity=".73745"/>
  </g>
  <path d="m-287.98 461.95c0.65516-1.2482 13.912-24.099 27.88-48.055 16.883-28.957 27.832-47.227 30.149-50.306 2.3141-3.076 4.011-3.9298 7.8764-3.9627 3.3325-0.0284 5.1985 0.60893 7.177 2.4512 2.0007 1.8629 4.2923 5.6172 24.253 39.732 25.235 43.13 35.41 60.712 35.236 60.886-0.0912 0.0912-1.6945-0.60083-3.563-1.538-10.263-5.1476-24.591-9.6895-36.969-11.719-17.336-2.8428-36.101-2.7972-52.563 0.12796-13.134 2.3339-25.718 6.329-35.679 11.328-2.1041 1.0559-3.9211 1.9198-4.038 1.9198-0.11683 0-8e-3 -0.38848 0.24082-0.86329z" fill="url(#s)"/>
  <g transform="matrix(.76472 0 0 .76108 -800.4 -188.9)" clip-path="url(#ac)" fill="none" opacity=".71691" stroke-width="10">
   <path d="m630.63 922.42c0.50521-1.4374 25.913-45.517 56.462-97.955 58.786-100.91 57.24-98.4 62.11-100.71 2.7074-1.2848 7.1354-1.8561 10.071-1.2994 3.5165 0.6669 6.2892 2.199 8.8216 4.8745 1.4965 1.5811 19.212 31.579 57.387 97.174 30.372 52.188 55.544 95.626 55.937 96.53 1.1319 2.6041 1.5923 7.8577 0.9134 10.423m-240.3 12.127v2e-5" filter="url(#g)" stroke="#FFF"/>
   <path d="m642.03 943.58c-9.3932-2.6061-14.556-12.189-11.402-21.163m251.7 9.036c-1.3518 5.1078-4.8297 9.3138-9.5042 11.494l-2.3265 1.0851-113.12 0.0818c-89.194 0.0645-113.59-0.0485-115.35-0.53437" filter="url(#g)" stroke="#000"/>
  </g>
 </g>
 <path d="m20.85 576.44c-20.662-1.5172-38.242-8.28-53.85-20.716-9.5063-7.5742-18.883-18.977-24.382-29.653l-1.9012-3.6904 1.1426-2.5821c7.1288-16.11 20.985-31.565 37.012-41.283 10.886-6.6007 23.126-10.873 36.577-12.766 5.0553-0.71156 20.025-0.6073 25.095 0.17477 30.139 4.6492 54.976 21.908 69.514 48.304 1.101 1.9989 2.1355 3.9862 2.299 4.4161 0.23623 0.62133-0.2183 1.8063-2.2157 5.7763-14.188 28.2-40.932 47.243-72.082 51.327-4.0514 0.53109-13.97 0.93018-17.208 0.6924z" fill="url(#u)" opacity=".68181"/>
 <g transform="translate(-825.97 85.016)">
  <g transform="translate(5.915 53.235)">
   <path d="m847.62 779.76c-51.379 0-93.077 41.698-93.077 93.077s41.698 93.077 93.077 93.077c20.912 0 36.781-6.1703 53.806-17.581 0 0 22.98 15.668 46.737 10.436-16.557-15.401-24.717-32.74-24.717-32.74 11.799-15.599 17.251-32.14 17.251-53.192 0-51.379-41.698-93.077-93.077-93.077z" fill="url(#k)" fill-rule="evenodd" stroke="#67c5c5" stroke-width="6.1336"/>
   <g transform="matrix(.99802 0 0 .99802 1227.1 -853.26)" clip-path="url(#ab)" fill="none" opacity=".61765" stroke-width="10">
    <path d="m-380.32 1638.7c-49.931 0-90.455 40.523-90.455 90.455m185.27 84.23c-15.002-13.006-21.842-30.62-21.842-30.62m17.484-53.61c0-49.931-40.523-90.455-90.455-90.455" filter="url(#b)" stroke="#FFF"/>
    <path d="m-470.78 1729.1c0 49.931 40.523 90.455 90.455 90.454 20.323 0 39.098-6.715 54.206-18.044 0 0 22.31 15.227 40.607 11.819m-21.842-30.62c11.466-15.16 17.484-33.151 17.484-53.61" filter="url(#b)" stroke="#000"/>
   </g>
  </g>
  <path d="m774.39 937.3c-1.6651-8.6246-1.435-21.582 0.54295-30.576 4.1374-18.813 14.878-35.563 30.138-47.004 11.062-8.293 23.795-13.415 38.249-15.387 4.0484-0.55244 14.712-0.54645 18.94 0.0104 14.445 1.9029 27.02 6.9585 38.249 15.377 16.407 12.3 27.191 30.015 30.899 50.757 0.92738 5.1879 1.1246 17.181 0.38143 23.2-0.32563 2.6379-0.68534 4.947-0.79934 5.1315-0.114 0.18459-1.1195-1.411-2.2343-3.5453-15.925-30.489-47.978-48.68-81.505-46.257-12.053 0.87082-21.507 3.4386-32.341 8.7839-16.401 8.0918-29.635 21.116-38.048 37.444l-2.0888 4.054-0.38366-1.9872z" fill="url(#r)" opacity=".76838"/>
 </g>
 <g transform="translate(-121.33 -386.21)">
  <path transform="matrix(.97939 0 0 .98216 -792.56 510.29)" d="m1054.8 665.38c0 53.602-43.503 97.105-97.105 97.105s-97.105-43.503-97.105-97.105 43.503-97.105 97.105-97.105 97.105 43.503 97.105 97.105z" fill="#FFF" fill-opacity=".75" fill-rule="evenodd" filter="url(#x)" stroke="url(#f)" stroke-width="10"/>
  <path transform="matrix(.97939 0 0 .98216 -795.34 507.15)" d="m1054.8 665.38c0 53.602-43.503 97.105-97.105 97.105s-97.105-43.503-97.105-97.105 43.503-97.105 97.105-97.105 97.105 43.503 97.105 97.105z" fill="#FFF" fill-opacity=".75" fill-rule="evenodd" stroke="url(#f)" stroke-width="4"/>
  <path transform="matrix(1.297 0 0 1.3007 -792.01 93.281)" d="m774.87 820.65c0 29.93-24.291 54.221-54.221 54.221s-54.221-24.291-54.221-54.221 24.291-54.221 54.221-54.221 54.221 24.291 54.221 54.221z" fill="url(#c)" fill-rule="evenodd" stroke="#0062c9" stroke-width="3.7756"/>
  <path transform="matrix(.97939 0 0 .98216 -675.22 -142.19)" d="m833.67 1259.3c-36.281-0.3579-68.107 33.678-65.781 69.75 0.63675 33.64 30.575 63.913 64.312 64.594 32.83 1.8714 64.478-23.711 69.25-56.156 5.8604-32.586-15.911-67.518-48.219-75.75-6.3746-1.7366-12.913-2.5804-19.562-2.4375z" clip-path="url(#j)" fill="none" filter="url(#h)" opacity=".51351" stroke="#0062c9" stroke-width="10"/>
  <path transform="matrix(.97939 0 0 .98216 -560.46 -62.025)" d="m717.9 1147.8c-53.602 0-97.094 43.523-97.094 97.125 1e-5 53.602 43.492 97.094 97.094 97.094 53.602 1e-4 97.125-43.492 97.125-97.094h-0.0312c0-53.602-43.492-97.125-97.094-97.125zm0 14.312c45.711 0 82.812 37.101 82.812 82.813 0 45.711-37.101 82.812-82.812 82.812s-82.812-37.101-82.812-82.812 37.101-82.813 82.812-82.813z" clip-path="url(#ae)" fill="url(#q)" fill-rule="evenodd" filter="url(#z)"/>
  <g transform="matrix(.68002 0 0 .68194 -541.82 293.52)" stroke-linecap="round" stroke-linejoin="round">
   <path d="m1012 1201.2c-22.152-0.3708-46.247 14.474-49.438 37.719-2.6179 10.152 5.4842 22.556 16.625 20.812 9.5745-0.3206 16.288-9.8872 15.219-19 1.8886-9.114 12.21-12.164 20.438-11.5 7.613-0.5492 19.148 3.8792 16.594 13.281-3.5401 11.959-17.37 15.507-24.906 24.438-7.8444 7.6485-13.318 19.745-10.125 30.562 4.129 11.727 22.668 13.65 28.313 2.3125 3.114-5.258 0.9983-12.59 6.875-16.219 12.407-9.3299 27.291-18.573 31.04-34.841 4.5961-17.457-5.8473-36.44-22.415-43.034-8.8886-3.6579-18.658-4.8057-28.219-4.5312zm-2.7707 117.07c-14.716-0.8062-24.749 20.05-13.469 30.281 10.417 11.697 33.938 5.152 34.531-11.219 0.7262-11.06-10.323-20.214-21.062-19.062z" fill="none" filter="url(#v)" stroke="#18397b" stroke-width="5"/>
   <path d="m1008 1199.2c-22.152-0.3708-46.247 14.474-49.437 37.719-2.6179 10.152 5.4842 22.556 16.625 20.812 9.5745-0.3206 16.288-9.8872 15.219-19 1.8886-9.114 12.21-12.164 20.438-11.5 7.613-0.5492 19.148 3.8792 16.594 13.281-3.5402 11.959-17.371 15.507-24.906 24.438-7.8443 7.6485-13.318 19.745-10.125 30.562 4.1289 11.727 22.668 13.65 28.313 2.3125 3.114-5.258 0.9983-12.59 6.8751-16.219 12.407-9.3299 27.291-18.573 31.04-34.841 4.5961-17.457-5.8473-36.44-22.415-43.034-8.8886-3.6579-18.658-4.8057-28.219-4.5312zm-2.7707 117.07c-14.716-0.8062-24.749 20.05-13.469 30.281 10.417 11.697 33.938 5.152 34.531-11.219 0.7262-11.06-10.323-20.214-21.063-19.062z" fill="#FFF" stroke="url(#p)" stroke-width="6"/>
  </g>
  <path d="m143.12 1092.8c-26.583 0-49.628 15.34-60.795 37.661 11.498 21.298 33.998 35.758 59.829 35.758 26.579 0 49.595-15.317 60.765-37.631-11.494-21.31-33.959-35.789-59.799-35.789z" fill="url(#o)" fill-rule="evenodd"/>
 </g>
 <g transform="matrix(1.3703 0 0 1.3703 218.13 -516.11)">
  <path transform="matrix(1.297 0 0 1.3007 -1071.8 -295.27)" d="m774.87 820.65c0 29.93-24.291 54.221-54.221 54.221s-54.221-24.291-54.221-54.221 24.291-54.221 54.221-54.221 54.221 24.291 54.221 54.221z" fill="url(#c)" fill-rule="evenodd" stroke="#0062c9" stroke-width="3.7756"/>
  <path transform="matrix(.94545 0 0 .94813 -926.71 -485.59)" d="m833.67 1259.3c-36.281-0.3579-68.107 33.678-65.781 69.75 0.63675 33.64 30.575 63.913 64.312 64.594 32.83 1.8714 64.478-23.711 69.25-56.156 5.8604-32.586-15.911-67.518-48.219-75.75-6.3746-1.7366-12.913-2.5804-19.562-2.4375z" clip-path="url(#j)" fill="none" filter="url(#h)" opacity=".51351" stroke="#003470" stroke-width="10"/>
  <g transform="translate(-121.49 -6.9616)" stroke-linecap="round" stroke-linejoin="round" stroke-width="3.6554">
   <path d="m-14.209 730.97c3.424 9e-5 6.3412 1.2053 8.7516 3.6155s3.6155 5.3276 3.6155 8.7516c-5e-5 3.4692-1.2052 6.4089-3.6155 8.8192s-5.3276 3.6156-8.7516 3.6155c-3.424-7e-5 -6.3412-1.2051-8.7516-3.6155-2.4103-2.4104-3.6155-5.3275-3.6155-8.7516-1e-5 -3.3789 1.239-6.2961 3.7169-8.7516s5.3613-3.683 8.6502-3.6831zm10.948 30.141v49.941c-4e-5 2.3878 0.13512 3.8521 0.40548 4.3927 0.27036 0.54062 0.7546 0.95739 1.453 1.2502 0.69836 0.29283 2.2639 0.43929 4.6968 0.43927h3.6493v13.043h-41.764v-13.043h3.5817c2.3428 2e-5 3.8408-0.12389 4.4941-0.37169 0.65329-0.2478 1.1376-0.66452 1.453-1.2502 0.31539-0.5857 0.47304-1.7571 0.47305-3.5142v-32.236h-10.002v-12.705c3.5592-0.18015 6.972-0.5631 10.238-1.1488 3.2664-0.58575 6.1835-1.284 8.7516-2.095 1.6669-0.54057 3.7168-1.4416 6.1498-2.7032h6.4201z" fill="#041358" filter="url(#w)" stroke="#041358"/>
   <path d="m-17.689 727.49c3.424 9e-5 6.3412 1.2053 8.7516 3.6155s3.6155 5.3276 3.6155 8.7516c-5e-5 3.4692-1.2052 6.4089-3.6155 8.8192s-5.3276 3.6156-8.7516 3.6155c-3.424-7e-5 -6.3412-1.2051-8.7516-3.6155-2.4103-2.4104-3.6155-5.3275-3.6155-8.7516-1e-5 -3.3789 1.239-6.2961 3.7169-8.7516s5.3613-3.683 8.6502-3.6831zm10.948 30.141v49.941c-4e-5 2.3878 0.13512 3.8521 0.40548 4.3927 0.27036 0.54062 0.7546 0.95739 1.453 1.2502 0.69836 0.29283 2.2639 0.43929 4.6968 0.43927h3.6493v13.043h-41.764v-13.043h3.5817c2.3428 2e-5 3.8408-0.12389 4.4941-0.37169 0.65329-0.2478 1.1376-0.66452 1.453-1.2502 0.31539-0.5857 0.47304-1.7571 0.47305-3.5142v-32.236h-10.002v-12.705c3.5592-0.18015 6.972-0.5631 10.238-1.1488 3.2664-0.58575 6.1835-1.284 8.7516-2.095 1.6669-0.54057 3.7168-1.4416 6.1498-2.7032h6.4201z" fill="#FFF" stroke="#001c9f"/>
  </g>
  <path d="m-137.19 703.91c-26.583 0-49.628 15.34-60.795 37.661 11.498 21.298 33.998 35.758 59.829 35.758 26.579 0 49.595-15.317 60.765-37.631-11.494-21.31-33.959-35.789-59.799-35.789z" fill="url(#n)" fill-rule="evenodd"/>
 </g>
 <g transform="translate(-131.34 -76.14)">
  <path transform="matrix(.67881 -.18316 .18316 .67881 -1049.1 -499.87)" d="m1528 1467.8-100.18 57.831-111.73-29.947-57.831-100.18 29.947-111.73 100.18-57.831 111.73 29.947 57.831 100.18-29.947 111.73z" fill="url(#m)" fill-rule="evenodd" stroke="#800202" stroke-opacity=".99216" stroke-width="5"/>
  <path transform="matrix(.63583 -.17156 .17156 .63583 -972.65 -457.06)" d="m1528 1467.8-100.18 57.831-111.73-29.947-57.831-100.18 29.947-111.73 100.18-57.831 111.73 29.947 57.831 100.18-29.947 111.73z" fill="none" opacity=".76838" stroke="#FFF" stroke-opacity=".99216" stroke-width="12.91"/>
  <g transform="matrix(.9826 0 0 .9826 -413.23 -416.98)" clip-path="url(#ad)" fill="none" stroke-width="10">
   <path transform="matrix(.67881 -.18316 .18316 .67881 -625.77 -72.387)" d="m1258.3 1395.5 29.947-111.73 100.18-57.831 111.73 29.947 57.831 100.18" filter="url(#b)" stroke="#FFF"/>
   <path transform="matrix(.67881 -.18316 .18316 .67881 -625.77 -72.387)" d="m1528 1467.8-100.18 57.831-111.73-29.947-57.831-100.18m299.69-39.433-29.947 111.73" filter="url(#b)" stroke="#000"/>
  </g>
  <g transform="translate(-388.25 -120.17)">
   <path d="m586.67 243.26c-2.7191 0.67614-3.9111 3.5546-6.0474 5.1347l-33.678 33.678c-12.937-12.808-25.625-25.88-38.713-38.522-2.1864-1.0919-4.0013 1.2187-5.2764 2.6158-2.9248 3.2317-6.569 5.8838-8.961 9.5141-0.53709 2.5112 2.2093 3.8337 3.5501 5.4666l35.163 35.163c-12.814 12.939-25.912 25.631-38.53 38.738-1.0766 2.1665 1.1873 3.9895 2.6052 5.2602 3.195 2.9282 5.885 6.4796 9.4335 8.9606 2.4466 0.62635 3.8225-2.0099 5.3815-3.3405l35.37-35.37c12.953 12.805 25.63 25.906 38.738 38.539 2.187 1.0539 3.9784-1.2016 5.2602-2.6218 2.9181-3.1988 6.4742-5.8724 8.944-9.4169 0.61814-2.4564-1.998-3.8189-3.3405-5.3815l-35.364-35.364c12.805-12.953 25.906-25.63 38.539-38.738 1.059-2.1954-1.2072-3.9757-2.6218-5.2685-3.2632-2.9113-5.879-6.6013-9.5496-8.9771-0.29067-0.0807-0.59463-0.10122-0.89605-0.0747z" fill="#e8e2e2" fill-rule="evenodd" stroke="#FFF" stroke-width="3.6406"/>
   <g transform="matrix(.27014 0 0 .27014 361.52 176.98)" clip-path="url(#aa)" fill="none" stroke-width="10">
    <path d="m497.25 296.98 144.76 144.75m-144.8 144.8c-1.7311 1.7311-1.7311 4.5202 0 6.2513l38.213 38.213c1.7311 1.7314 4.5204 1.7314 6.2515 0l144.8-144.79 144.79 144.79c1.7314 1.7314 4.5204 1.7314 6.2515 0l38.169-38.169m-144.79-151.05 144.79-144.79" filter="url(#i)" stroke="#FFF"/>
    <path d="m497.25 290.73c-1.7311 1.7311-1.7313 4.5202-2.3e-4 6.2515m144.76 144.75-144.8 144.8m378.47 6.2951c1.7311-1.7309 1.7311-4.5199-2.4e-4 -6.2513l-144.79-144.81m144.79-144.79c1.7311-1.7311 1.7311-4.5202-2.4e-4 -6.2515l-38.213-38.213c-1.7311-1.7311-4.5199-1.7311-6.2513 0l-144.79 144.79-144.75-144.75c-1.7311-1.7312-4.5202-1.7312-6.2513 0l-38.169 38.169" filter="url(#i)" stroke="#000"/>
   </g>
  </g>
  <path d="m83.849 176.87c-4.804-0.5643-10.744-1.622-16.759-2.9842-2.4507-0.55501-4.5171-1.0091-4.5919-1.0091-0.07481 0-0.13618-8.3048-0.13618-18.455v-18.455l28.159-28.157 28.159-28.158h79.709l28.138 28.158 28.138 28.158 0.24474 17.975c0.23912 17.563 0.22963 17.97-0.41426 17.772-4.8563-1.4958-16.521-4.0718-27.629-6.1013-18.134-3.3133-31.543-4.7304-41.649-4.4015-9.1997 0.29931-14.837 1.3503-26.544 4.9485-20.561 6.3194-28.399 8.11-43.981 10.048-8.8068 1.0955-24.319 1.4284-30.844 0.66196z" fill="url(#l)" opacity=".71691"/>
 </g>
</svg>
