<?xml version="1.0" encoding="UTF-8"?>
<svg version="1.1" viewBox="0 0 1200 1200" xmlns="http://www.w3.org/2000/svg">
 <path d="m1196.1 600.9c-0.3 324.7-262.4 590.1-590.3 589.9-325.7-0.2-589.6-263.1-589.5-590.2 0.1-327.5 265.1-589.5 590-589.6 325.6-0.1 589.8 264.3 589.8 589.9zm-488 129.2c0-72.7-0.1-145.3 0.1-218 0.1-27.5-9.7-50.8-30-68.9-32-28.6-69.2-34.6-109.1-20.5-38.1 13.5-63.6 50.1-63.4 91.5 0.8 144.8 0.4 289.6 0.2 434.4 0 81.8 70.1 95.6 103.6 95.5 50.4-0.2 99.9-40.8 98.9-99.1-1.3-71.6-0.3-143.3-0.3-214.9zm6.9-464.6c-0.1-60.4-48.3-108.5-108.8-108.5-60.6 0-109 48.5-108.9 109.1 0.1 59.9 49 108.7 109 108.7 60.4 0 108.7-48.6 108.7-109.3z"/>
</svg>
