<?xml version='1.0' encoding='utf-8'?>
<svg xmlns="http://www.w3.org/2000/svg" version="1.1" x="0px" y="0px" viewBox="0 0 1104 822" enable-background="new 0 0 1104 822"> <defs> </defs> <radialGradient id="SVGID_1_" cx="552" cy="411" r="677.6654" gradientUnits="userSpaceOnUse"> <stop offset="0" style="stop-color:#FFFFFF"/> <stop offset="1" style="stop-color:#A4D1DD"/> </radialGradient> <rect fill="url(#SVGID_1_)" width="1104" height="822"/> <g> <path d="M536.8,666.2c-60.5-28-111.7-72.4-148.3-128.4C350.9,480.2,331,413.1,331,344c0-59,23-114.5,64.7-156.3 C437.5,146,493,123,552,123s114.5,23,156.3,64.7C750,229.5,773,285,773,344v116c-58,0.2-113.8,21.5-157.3,59.8 C572.7,557.7,544.7,609.7,536.8,666.2z"/> <path d="M552,123.5c29.8,0,58.6,5.8,85.8,17.3c26.3,11.1,49.8,27,70.1,47.3c20.3,20.2,36.2,43.8,47.3,70.1 c11.5,27.2,17.3,56.1,17.3,85.8v115.5c-57.9,0.4-113.7,21.6-157.1,59.9c-43,37.9-71,89.7-79,146.1c-60.1-28-111.1-72.2-147.5-128 C351.4,480,331.5,413,331.5,344c0-29.8,5.8-58.6,17.3-85.8c11.1-26.3,27-49.8,47.3-70.1c20.2-20.3,43.8-36.2,70.1-47.3 C493.4,129.3,522.2,123.5,552,123.5 M552,122.5c-61.2,0-116.5,24.8-156.6,64.9c-40.1,40.1-64.9,95.5-64.9,156.6 c0,143.2,84.7,266.6,206.7,323c15.9-116.4,115.6-206.2,236.3-206.5V344c0-61.2-24.8-116.5-64.9-156.6 C668.5,147.3,613.2,122.5,552,122.5L552,122.5z"/> </g> <g> <path fill="#FFFFFF" d="M503.3,399.1c-52.8,0-95.8-43-95.8-95.8c0-32.8,26.7-59.5,59.5-59.5s59.5,26.7,59.5,59.5v95.8H503.3z"/> <path d="M467,244.4c32.5,0,59,26.5,59,59v95.3h-22.7c-52.5,0-95.3-42.8-95.3-95.3C408,270.8,434.5,244.4,467,244.4 M467,243.4 c-33.1,0-60,26.9-60,60v0c0,53.2,43.1,96.3,96.3,96.3H527v-96.3C527,270.2,500.1,243.4,467,243.4L467,243.4z"/> </g> <g> <path d="M466.5,337c-17.6,0-32-14.4-32-32s14.4-32,32-32s32,14.4,32,32S484.1,337,466.5,337z"/> <path d="M466.5,273.5c17.4,0,31.5,14.1,31.5,31.5s-14.1,31.5-31.5,31.5S435,322.4,435,305S449.1,273.5,466.5,273.5 M466.5,272.5 c-17.9,0-32.5,14.6-32.5,32.5s14.6,32.5,32.5,32.5S499,322.9,499,305S484.4,272.5,466.5,272.5L466.5,272.5z"/> </g> <g> <path fill="#FFFFFF" d="M466.5,317c-6.6,0-12-5.4-12-12s5.4-12,12-12s12,5.4,12,12S473.1,317,466.5,317z"/> <path d="M466.5,293.5c6.3,0,11.5,5.2,11.5,11.5s-5.2,11.5-11.5,11.5S455,311.3,455,305S460.2,293.5,466.5,293.5 M466.5,292.5 c-6.9,0-12.5,5.6-12.5,12.5s5.6,12.5,12.5,12.5S479,311.9,479,305S473.4,292.5,466.5,292.5L466.5,292.5z"/> </g> <g> <path fill="#FFFFFF" d="M577.5,399.1v-95.8c0-32.8,26.7-59.5,59.5-59.5s59.5,26.7,59.5,59.5c0,52.8-43,95.8-95.8,95.8H577.5z"/> <path d="M637,244.4c32.5,0,59,26.5,59,59c0,52.5-42.8,95.3-95.3,95.3H578v-95.3C578,270.8,604.5,244.4,637,244.4 M637,243.4 c-33.1,0-60,26.9-60,60v96.3h23.7c53.2,0,96.3-43.1,96.3-96.3v0C697,270.2,670.1,243.4,637,243.4L637,243.4z"/> </g> <g> <path d="M637.5,337c-17.6,0-32-14.4-32-32c0-11.7,6.3-22.3,16.4-28c-1,3.2-1.4,6.6-1.4,10c0,19.3,15.7,35,35,35 c3.4,0,6.7-0.5,10-1.4C659.8,330.7,649.2,337,637.5,337z"/> <path d="M621.1,278.1c-0.8,2.9-1.1,5.9-1.1,8.9c0,19.6,15.9,35.5,35.5,35.5c3,0,6-0.4,8.9-1.1c-5.7,9.4-15.8,15.1-26.9,15.1 c-17.4,0-31.5-14.1-31.5-31.5C606,293.9,611.7,283.8,621.1,278.1 M622.8,276c-10.6,5.4-17.8,16.3-17.8,29 c0,17.9,14.6,32.5,32.5,32.5c12.7,0,23.6-7.2,29-17.8c-3.5,1.2-7.1,1.8-11,1.8c-19.1,0-34.5-15.4-34.5-34.5 C621,283.2,621.6,279.5,622.8,276L622.8,276z"/> </g> <g> <path fill="#29ABE2" d="M686,699c-51.8,0-101.6-10.9-148.3-32.3c7.8-56.4,35.7-108.3,78.6-146.1c43.3-38.2,98.9-59.3,156.7-59.5 v238H686z"/> <path d="M772.5,461.5v237H686c-51.6,0-101.3-10.8-147.7-32.1c7.8-56.1,35.6-107.8,78.4-145.4C659.7,482.9,715,461.9,772.5,461.5 M773.5,460.5c-120.7,0.2-220.4,90-236.3,206.5c45.3,20.9,95.7,32.5,148.8,32.5h87.5V460.5L773.5,460.5z"/> </g> </svg>