<?xml version="1.0" encoding="UTF-8" standalone="no"?>
<svg xmlns:svg="http://www.w3.org/2000/svg"
   xmlns="http://www.w3.org/2000/svg"
   width="52mm"
   height="20mm"
   viewBox="0 0 52 20"
   version="1.1"
   id="myndexsvg">

  <g><path d="m 2,2 v 16 h 48 l 0,-16 z" id="click" fill="none" /></g>
  <g transform="translate(-5.2584018,-5.0688145)">
    <g aria-label="MYNDEX RESEARCH"
       id="text12"
       style="fill:#3300aa;fill-opacity:1;stroke-width:0.264583">
      <path d="M 15.16418,14.944844 15.153596,8.6054478 12.05269,13.960597 H 11.788107 L 8.6872003,8.6266144 V 14.944844 H 8.1580353 V 7.5365345 H 8.6131172 L 11.92569,13.2621 15.238263,7.5365345 h 0.444498 l 0.01058,7.4083095 z" id="path857" />
      <path d="m 20.578365,12.394269 v 2.550575 h -0.539749 v -2.550575 l -2.98449,-4.8577345 h 0.592665 l 2.677574,4.3603195 2.677575,-4.3603195 h 0.560915 z" id="path859" />
      <path d="M 30.779839,7.5365345 V 14.944844 H 30.335341 L 25.287107,8.5101981 V 14.944844 H 24.747358 V 7.5365345 h 0.455082 l 5.037651,6.4346465 V 7.5365345 Z" id="path861" />
      <path d="m 33.393417,7.5365345 h 2.931574 q 1.15358,0 2.042577,0.4762485 0.899581,0.4762485 1.396996,1.3229124 0.497415,0.8360806 0.497415,1.9049936 0,1.068914 -0.497415,1.915578 -0.497415,0.83608 -1.396996,1.312329 -0.888997,0.476248 -2.042577,0.476248 h -2.931574 z m 2.889241,6.9214775 q 1.02658,0 1.809744,-0.402165 0.783165,-0.412749 1.206497,-1.142996 0.423332,-0.730248 0.423332,-1.672162 0,-0.941913 -0.423332,-1.672161 Q 38.875567,8.8382804 38.092402,8.436115 37.309238,8.0233663 36.282658,8.0233663 h -2.349492 v 6.4346457 z" id="path863" />
      <path d="m 47.275236,14.458012 v 0.486832 H 42.163502 V 7.5365345 h 4.952984 V 8.0233663 H 42.70325 v 2.9209907 h 3.947571 v 0.476248 H 42.70325 v 3.037407 z"
 id="path865" />
      <path d="m 53.822659,14.944844 -2.550576,-3.428989 -2.539992,3.428989 h -0.634998 l 2.846908,-3.820571 -2.645825,-3.5877385 h 0.634998 l 2.360076,3.1855735 2.360076,-3.1855735 h 0.603248 l -2.645825,3.5771555 2.846908,3.831154 z"
 id="path867" />
      <path d="M 12.09504,22.695617 10.659014,20.68346 q -0.318161,0.043 -0.584729,0.043 H 8.3544929 v 1.969162 h -0.438547 v -6.019272 h 2.1583391 q 1.135063,0 1.779985,0.541735 0.644922,0.533135 0.644922,1.48762 0,0.713713 -0.369756,1.203854 -0.361156,0.481542 -1.040474,0.679318 l 1.504818,2.106745 z m -2.020755,-2.356115 q 0.963083,0 1.470422,-0.421349 0.507339,-0.429948 0.507339,-1.212453 0,-0.782506 -0.507339,-1.203855 -0.507339,-0.429948 -1.470422,-0.429948 H 8.3544929 v 3.267605 z" id="path869" />
      <path d="m 18.266541,22.300065 v 0.395552 h -4.153298 v -6.019272 h 4.024313 v 0.395552 H 14.55179 v 2.373313 h 3.207412 v 0.386953 H 14.55179 v 2.467902 z" id="path871" />
      <path d="m 21.456083,22.738612 q -0.66212,0 -1.264047,-0.223573 -0.593328,-0.232172 -0.928688,-0.593328 l 0.197776,-0.326761 q 0.318162,0.33536 0.851298,0.550334 0.541734,0.206375 1.135062,0.206375 0.859896,0 1.298443,-0.326761 0.438547,-0.32676 0.438547,-0.851297 0,-0.404151 -0.232172,-0.644922 -0.232172,-0.240771 -0.57613,-0.369755 -0.343959,-0.128984 -0.928688,-0.266568 -0.66212,-0.16338 -1.066271,-0.318161 -0.395552,-0.154782 -0.679318,-0.472943 -0.275166,-0.326761 -0.275166,-0.868495 0,-0.438547 0.232172,-0.799703 0.232171,-0.369756 0.705114,-0.58473 0.481542,-0.214974 1.195256,-0.214974 0.498739,0 0.980281,0.146183 0.481542,0.146182 0.834099,0.395552 l -0.16338,0.352557 q -0.361156,-0.24937 -0.799703,-0.378354 -0.429948,-0.128984 -0.851297,-0.128984 -0.834099,0 -1.264047,0.335359 -0.429948,0.335359 -0.429948,0.868495 0,0.404151 0.232172,0.644922 0.232171,0.240771 0.57613,0.369755 0.343958,0.128985 0.937286,0.275167 0.66212,0.16338 1.057673,0.318161 0.395552,0.154782 0.670718,0.472943 0.283766,0.309563 0.283766,0.842698 0,0.438547 -0.240771,0.799704 -0.232172,0.361156 -0.722312,0.57613 -0.490141,0.214974 -1.203855,0.214974 z" id="path873" />
      <path d="m 29.267163,22.300065 v 0.395552 h -4.153297 v -6.019272 h 4.024313 v 0.395552 h -3.585766 v 2.373313 h 3.207412 v 0.386953 h -3.207412 v 2.467902 z" id="path875" />
      <path d="m 34.597847,21.001622 h -3.491178 l -0.765307,1.693995 h -0.472943 l 2.768865,-6.019272 h 0.438547 l 2.768865,6.019272 h -0.472943 z m -0.16338,-0.369755 -1.582209,-3.47398 -1.57361,3.47398 z" id="path877" />
      <path d="M 41.116531,22.695617 39.680504,20.68346 q -0.318161,0.043 -0.584729,0.043 h -1.719792 v 1.969162 h -0.438547 v -6.019272 h 2.158339 q 1.135063,0 1.779985,0.541735 0.644922,0.533135 0.644922,1.48762 0,0.713713 -0.369756,1.203854 -0.361156,0.481542 -1.040474,0.679318 l 1.504818,2.106745 z m -2.020756,-2.356115 q 0.963083,0 1.470422,-0.421349 0.507339,-0.429948 0.507339,-1.212453 0,-0.782506 -0.507339,-1.203855 -0.507339,-0.429948 -1.470422,-0.429948 h -1.719792 v 3.267605 z" id="path879" />
      <path d="m 45.680026,22.738612 q -0.885693,0 -1.599406,-0.395552 -0.705115,-0.395552 -1.117865,-1.092068 -0.404151,-0.696516 -0.404151,-1.565011 0,-0.868495 0.404151,-1.565011 0.41275,-0.696515 1.117865,-1.092068 0.713713,-0.395552 1.599406,-0.395552 0.653521,0 1.203855,0.214974 0.550333,0.206375 0.937286,0.619125 L 47.546,17.751215 q -0.722312,-0.713714 -1.848776,-0.713714 -0.756708,0 -1.375833,0.343959 -0.619126,0.343958 -0.971683,0.954484 -0.352557,0.601928 -0.352557,1.350037 0,0.74811 0.352557,1.358636 0.352557,0.601927 0.971683,0.945885 0.619125,0.343959 1.375833,0.343959 1.117865,0 1.848776,-0.722313 l 0.275167,0.283766 q -0.386953,0.41275 -0.945885,0.627724 -0.550334,0.214974 -1.195256,0.214974 z" id="path881" />
      <path d="m 54.199849,16.676345 v 6.019272 h -0.438547 v -2.863454 h -4.024313 v 2.863454 h -0.438547 v -6.019272 h 0.438547 v 2.768865 h 4.024313 v -2.768865 z" id="path883" />
    </g>
  </g>
</svg>
