<?xml version="1.0" encoding="UTF-8"?>
<svg width="492.68" height="521.36" version="1.1" viewBox="0 0 492.67517 521.36273" xmlns="http://www.w3.org/2000/svg">
 <path d="m195.16 519.69c-1.5457-0.80597-3.4774-2.069-4.2926-2.8067-1.9289-1.7456-2.7158-1.6915-4.3476 0.29929-1.244 1.5176-1.31 1.4787-0.88079-0.52021 0.53018-2.4689-2.0853-3.9118-7.1828-3.9627-6.1925-0.0619-7.6971-3.2926-3.9185-8.4142 2.014-2.7299 2.3245-4.0789 2.1796-9.4712-0.25124-9.3527 4.0068-13.819 11.762-12.336 3.3123 0.63319 3.1618-1.2123-0.24241-2.9727-4.2061-2.1751-4.6612-6.0896-1.5325-13.182 0.68239-1.5469 1.4906-6.1875 1.796-10.312 0.3054-4.125 1.1751-10.031 1.9326-13.125 0.75753-3.0938 1.3924-6.9616 1.4107-8.5952 0.0399-3.5521 0.8538-5.936 2.0266-5.936 0.47029 0 0.60196 1.1602 0.29262 2.5781-0.43308 1.9852-0.3327 2.2547 0.43653 1.1719 1.33-1.8722 1.2851-6.5106-0.11357-11.74-0.7734-2.8916-0.84158-4.7846-0.21153-5.8728 0.51135-0.88318 1.0636-5.4027 1.2272-10.043 0.29497-8.3669 1.9866-13.837 2.015-6.5156 9e-3 2.3778 0.29756 3.2564 0.80564 2.4549 0.89971-1.4193 0.58659-5.2469-0.87252-10.666-1.8327-6.806-0.49618-9.51 4.3708-8.8429 3.5904 0.49212 4.1193 0.34125 4.1193-1.1753 0-3.802-1.2413-7.5992-2.4841-7.5992-2.461 0-3.3446-4.6067-1.7701-9.2277 2.8587-8.3897 1.3603-20.741-3.8532-31.761-4.9607-10.486-2.062-20.886 5.8211-20.886 4.3557 0 10.724 9.3368 10.724 15.723 0 1.3434 2.7043 7.953 6.0095 14.688 9.6914 19.748 11.973 31.391 6.3166 32.232-4.0512 0.60272-2.6599 5.2926 2.1106 7.1145 4.8388 1.8479 5.6546 4.9704 3.7664 14.415-0.58921 2.9472-1.103 6.805-1.1418 8.5729-0.0895 4.0804-2.908 7.8995-6.2762 8.5043-4.6709 0.83874-4.2393 5.625 0.50721 5.625 5.9179 0 8.7646 8.1638 5.6604 16.233-0.55841 1.4515-1.0153 4.3184-1.0153 6.3707 0 4.1752-3.2163 8.3339-6.4454 8.3339-1.2856 0-2.03 0.85069-2.4608 2.8125-0.77502 3.5287-2.4841 3.7486-1.7802 0.22907 0.44962-2.2481-4.5671-8.1821-5.6135-6.6398-1.6004 2.3591-1.9173 10.161-0.41269 10.161 1.3266 0 1.7126-0.72697 1.7126-3.2259 0-1.7743 0.46798-3.5152 1.04-3.8686 0.73179-0.45227 0.85452 0.45482 0.41418 3.0612-0.62153 3.6788-0.60023 3.7116 3.1369 4.8312 7.1298 2.1362 7.9671 6.803 3.2578 18.158-1.2231 2.9493-2.2239 7.0822-2.2239 9.1842 0 3.25-0.41457 4.0598-2.7708 5.412-1.5239 0.87461-3.1829 2.437-3.6866 3.472-0.88044 1.8092-0.91822 1.7993-0.97922-0.25776-0.0719-2.4256-3.8156-4.432-4.971-2.6643-1.3169 2.015-0.75303 4.3351 1.0537 4.3351 6.0063 0 8.0054 7.6196 3.5363 13.479-1.4122 1.8514-3.1951 5.145-3.9622 7.319-2.5949 7.3548-7.3238 9.3309-13.999 5.8502zm9.2165-2.1002c0.84723-0.93618 1.817-3.151 2.155-4.9219s1.8196-4.8849 3.2924-6.92c4.9672-6.864 3.706-8.7902-7.1361-10.898-4.6345-0.90113-6.3158-1.7984-9.7923-5.2258-7.8746-7.7634-13.801-5.7-12.657 4.4071 0.62978 5.5665-0.11375 8.026-3.577 11.832-2.2444 2.4668-1.498 4.0519 1.9113 4.059 4.0318 8e-3 9.0544 1.705 12.477 4.2147 7.0621 5.1787 10.872 6.1658 13.327 3.453zm-7.8311-5.3518c-1.9319-2.3278-0.10936-2.8659 2.1282-0.62838 1.6534 1.6534 1.7629 2.0573 0.55751 2.0573-0.82489 0-2.0334-0.643-2.6857-1.4289zm-14.044-6.4845c0-2.8257 0.70766-3.2997 3.9897-2.6723 1.9482 0.37241 2.5728 1.0343 2.5728 2.7263 0 2.7134-1.4668 2.959-2.1466 0.35946-0.26968-1.0312-0.95169-1.875-1.5156-1.875-1.4144 0-1.295 2.5474 0.14661 3.1291 0.64453 0.26007 0.22265 0.50617-0.9375 0.54687-1.6316 0.0573-2.1094-0.4443-2.1094-2.2144zm11.25 0.3476c0-1.1392-0.70136-2.5841-1.5586-3.2109-2.3167-1.694-0.90818-4.2233 2.3519-4.2233 2.6025 0 5.3806 1.9511 4.307 3.0247-0.27965 0.27965-0.5999 1.7174-0.71166 3.195-0.26202 3.4639-4.3886 4.6059-4.3886 1.2145zm3.1218-4.0753c0.63854-1.664-2.1448-2.8357-3.5051-1.4755-0.71803 0.71803-0.60571 1.2611 0.39115 1.8914 1.9184 1.2128 2.5197 1.1325 3.1139-0.41584zm6.2532 1.3616c0-0.53376 0.42187-0.97048 0.9375-0.97048 0.51562 0 0.9375-0.46701 0.9375-1.0378s-0.6193-0.80016-1.3762-0.50969c-0.75693 0.29045-1.6456 0.0923-1.9748-0.44035-0.37134-0.60085 0.39049-0.8522 2.0071-0.66218 3.2475 0.38173 3.9589 2.188 1.4009 3.557-1.2909 0.69086-1.932 0.71192-1.932 0.0635zm-16.957-7.4271c-1.7133-1.3997-2-2.1145-1.1822-2.9472 1.3901-1.4155 6.4203 0.81046 6.4203 2.8411 0 2.1126-2.7148 2.1676-5.2381 0.10613zm20.773-6.3729c0.91219-2.3992-0.0918-4.0366-2.5414-4.1448-0.90807-0.0401-3.1064 5.4548-2.4464 6.1148 1.4105 1.4106 4.1074 0.34532 4.9877-1.9701zm-4.9988-6.4401c-1.7295-1.4326-4.3735-1.1732-4.8984 0.48043-0.86395 2.7221-2.1848 2.3778-1.6481-0.42957 0.32845-1.7182 0.0436-2.3438-1.0675-2.3438-2.6909 0-1.6482 3.7508 1.9989 7.1904l3.5144 3.3145 1.162-4.0135c0.63912-2.2074 1.0616-4.0968 0.93873-4.1985zm15.49-3.1801c0.40153-2.8082 1.7763-6.8912 3.055-9.0732 5.2237-8.9135 3.4335-12.414-6.9425-13.575-3.9599-0.44303-9.8018-1.8628-12.982-3.155-8.2431-3.3495-9.1305-2.7509-10.028 6.7639-0.25524 2.7046-0.90185 5.7355-1.4369 6.7352-3.0549 5.7082-0.44759 9.8767 6.7394 10.775 3.094 0.38656 7.1239 1.8541 10.594 3.8578 7.9924 4.6153 10.072 4.1752 11.001-2.3286zm-26.495-6.5361c0-3.5702 3.9168-6.5709 6.1537-4.7144 2.0115 1.6694 1.6258 3.095-1.1916 4.4034-2.9821 1.3849-4.962 1.509-4.962 0.31106zm5.625-3.1834c0-1.5234-3.265-0.12556-3.5847 1.5347-0.28661 1.4883-0.094 1.5434 1.6299 0.46685 1.0752-0.67147 1.9549-1.5722 1.9549-2.0016zm13.495 2.9474c-0.46093-0.74581-0.159-0.8977 0.94349-0.47465 1.2943 0.49669 1.5021 0.24639 1.03-1.241-0.45352-1.4289-0.24929-1.7319 0.8762-1.3 2.152 0.82579 1.8706 4.1126-0.35212 4.1126-1.0008 0-2.1247-0.49357-2.4976-1.0968zm-9.5342-2.3455c-2.4175-2.7141-2.0034-4.0577 1.2505-4.0577 1.2586 0 2.2884-0.42188 2.2884-0.9375 0-0.51563-0.42188-0.9375-0.9375-0.9375-1.4238 0-1.1199-2.4316 0.46875-3.75 3.5155-2.9176 5.7916 3.9109 2.3438 7.0312-1.0312 0.93327-1.875 2.2394-1.875 2.9025 0 2.2208-1.4274 2.1196-3.5389-0.251zm2.1712-2.1204c-0.33988-0.54993-1.0666-0.99987-1.6149-0.99987-0.62166 0-0.55053 0.53792 0.18893 1.4289 1.2858 1.5493 2.435 1.2036 1.426-0.42904zm4.1802-3.6976c0-0.45249-0.63281-1.3479-1.4062-1.9898-1.5264-1.2668-1.7173-0.96382-0.8372 1.3296 0.60239 1.5698 2.2434 2.0528 2.2434 0.66022zm3.75 0.88968c0-2.1361 2.3764-4.7545 4.3151-4.7545 2.1682 0 2.6325 2.7081 0.80952 4.7224-2.171 2.3989-5.1246 2.4174-5.1246 0.0321zm4.1518-0.60269c1.6401-1.6401 1.9353-3.2143 0.60269-3.2143-1.1275 0-3.817 2.6895-3.817 3.817 0 1.3326 1.5742 1.0374 3.2143-0.60269zm-19.078-2.5579c-1.2139-0.61883-2.149-1.4416-2.078-1.8283 0.0711-0.38671 0.12919-1.3359 0.12919-2.1094 0-0.86593 0.87927-1.4062 2.2884-1.4062 2.3844 0 4.0285 1.5322 2.8334 2.6405-0.38004 0.35241-0.87142 0.13711-1.092-0.47846s-1.0065-0.88683-1.7466-0.60282c-1.7448 0.66953-1.7411 2.1908 6e-3 2.1908 1.3407 0 2.9169 1.6697 2.2272 2.3594-0.19781 0.1978-1.3529-0.14668-2.5668-0.7655zm15.674-14.494c0.27049-5.6693 0.20771-5.85-2.0334-5.85-4.3794 0-8.0769 2.9303-8.0835 6.4062-7e-3 4.019 2.052 3.5219 2.9162-0.70382 0.34462-1.685 1.0433-3.4804 1.5526-3.9897 0.60973-0.60973 0.65806 0.46068 0.14148 3.1337-1.1128 5.7579-1.0601 6.2142 0.77438 6.7046 3.8638 1.0328 4.4443 0.33336 4.7322-5.7011zm-11.643-0.45934c0.50027-2.0853 0.29654-2.5781-1.0658-2.5781-0.92634 0-2.6492-0.67584-3.8285-1.5019-2.5718-1.8013-2.621-1.7638-3.439 2.6153l-0.64572 3.4572 4.0777 0.29284c2.2428 0.16107 4.1239 0.29284 4.1802 0.29284s0.38081-1.1602 0.72099-2.5781zm25.421-3.8641c1.2281-0.898 1.976-3.0901 2.4788-7.2656 0.39606-3.2888 0.96821-7.6671 1.2715-9.7296 0.80538-5.4776-0.12619-6.2318-8.0732-6.5358-5.4682-0.20919-8.2004-0.87925-13.015-3.1919-6.9056-3.3171-7.4258-3.4062-9.7888-1.6784-1.4906 1.09-1.5701 1.6729-0.62055 4.5502 1.9319 5.8537 1.9197 7.3348-0.11039 13.415-2.6688 7.993 0.51787 11.806 6.2458 7.4738 2.3945-1.8111 8.9356-1.759 11.579 0.0923 5.8268 4.0812 7.6597 4.6056 10.033 2.8702zm-24.838-6.6061c0-4.249 2.2958-5.6402 2.4436-1.4808 0.0636 1.79-0.36188 2.8104-1.1719 2.8104-0.69943 0-1.2717-0.59831-1.2717-1.3296zm16.461-0.10649c-1.7855-1.3505-1.7825-1.3764 0.15625-1.3764 1.0868 0 2.1888 0.52734 2.4489 1.1719 0.26007 0.64454 0.50617 0.34922 0.54687-0.65625 0.0544-1.3424 0.35125-1.5509 1.1173-0.7848 2.5208 2.5208-1.2107 3.9591-4.2694 1.6456zm-8.6379-2.8231c-0.30533-0.79568-0.39755-1.5662-0.20495-1.7122 3.9986-3.0317 7.6605-4.4724 8.4-3.3046 1.0824 1.7093 1.0629 2.4753-0.081 3.1823-0.51563 0.31867-0.9375-0.0783-0.9375-0.88217s-0.31641-1.4476-0.70313-1.4304c-1.2978 0.0576-5.1944 3.7588-4.5917 4.3615 0.32769 0.3277 1.4421-0.17011 2.4766-1.1062s1.8808-1.2296 1.8808-0.65223c0 2.4845-5.3683 3.8131-6.239 1.5441zm9.989-1.4536c0-0.46735 0.63281-0.84973 1.4062-0.84973 0.82387 0 1.4062-0.85417 1.4062-2.0625 0-1.4186 0.30226-1.7602 0.96823-1.0943 0.53253 0.53253 0.71428 1.63 0.4039 2.4389-0.61632 1.6061-4.1846 2.9429-4.1846 1.5676zm-16.549-2.2909c-0.69662-1.8154 2.2129-5.1213 4.5072-5.1213 2.3717 0 2.1702 2.0718-0.4401 4.5241-2.5724 2.4167-3.3264 2.5274-4.0671 0.59725zm4.3619-3.3317c0-0.4363-0.63281-0.55045-1.4062-0.25366-0.77344 0.2968-1.4062 1.179-1.4062 1.9604 0 1.1566 0.26146 1.2038 1.4062 0.25366 0.77344-0.6419 1.4062-1.5241 1.4062-1.9604zm4.3937-1.5553c1.4598-4.095 4.9813-5.5698 4.9813-2.0862 0 1.175-0.91624 2.2466-2.4048 2.8125-3.1756 1.2074-3.2576 1.1842-2.5765-0.72633zm9.0074-0.71286c-0.88439-0.96097-0.86591-1.3294 0.085-1.6942 1.9772-0.75872 3.7243 0.73015 2.2614 1.9271-0.8728 0.7141-1.5354 0.64834-2.3464-0.23285zm-17.644-1.6759c-0.45704-1.1326-0.10335-2.1225 1.078-3.0171 2.4282-1.8388 3.101-1.7186 4.0229 0.71834 1.0546 2.7877 0.39275 3.3617-1.2722 1.1034-1.2905-1.7503-1.3602-1.7336-2.2402 0.53719-0.80292 2.072-0.98707 2.1483-1.5884 0.65809zm19.242-9.0403c0-1.5164-0.42188-3.0179-0.9375-3.3366-0.52951-0.32725-0.9375 0.44057-0.9375 1.7644 0 1.2891-0.44878 2.6211-0.99729 2.9601-0.67293 0.41589-0.798-0.44594-0.38456-2.6498 0.3741-1.9942 0.21484-3.5121-0.40895-3.8976-0.6332-0.39133-1.0217 0.25978-1.0217 1.7123 0 1.2891-0.42188 2.6045-0.9375 2.9232-0.55793 0.34481-0.9375-0.77152-0.9375-2.7572 0-2.934-0.28278-3.3366-2.3438-3.3366-3.9448 0-3.3988 6.1944 0.70312 7.9773 5.3559 2.3279 8.2031 1.856 8.2031-1.3595zm-12.77-4.0397c0.46839-1.9525 0.2729-2.5781-0.80562-2.5781-1.4355 0-2.0368 3.7623-0.79911 5 0.7916 0.7916 0.85777 0.69175 1.6047-2.4219zm-6.8406 1.1719c1.8068 0 2.7358-0.47751 2.7358-1.4062 0-0.84239-0.86458-1.4062-2.1562-1.4062-1.1859 0-2.5722-0.41599-3.0806-0.9244-0.60755-0.60755-1.2971 0.0628-2.0116 1.9557-0.93409 2.4747-0.88553 2.8028 0.34483 2.3307 0.78759-0.30223 2.6631-0.5495 4.1678-0.5495zm25.986-3.9375c0.61875-0.61875 1.13-2.8336 1.1361-4.9219 7e-3 -2.0883 0.63393-6.1172 1.3951-8.9531 3.1499-11.736-1.3554-14.952-15-10.71-3.2097 0.99801-6.387 1.2757-10.078 0.8808-6.1583-0.65885-6.4951-0.0998-4.0741 6.7621 1.1716 3.3207 1.365 9.4213 0.42404 13.379-0.27552 1.159 0.73709 1.3616 5.7594 1.1524 4.5144-0.18809 7.0656 0.21744 9.8438 1.5647 4.3279 2.0989 8.9698 2.4693 10.594 0.84539zm-6.1406-4.2353c-0.64453-0.23154-1.1719-0.79446-1.1719-1.2509 0-0.45647 0.63009-0.58816 1.4002-0.29264 0.89646 0.344 1.7183-0.25683 2.2843-1.67 0.84158-2.1012 0.88698-2.1114 0.94354-0.21277 0.0678 2.2754-1.7217 4.0495-3.4562 3.4264zm-15.234-3.4907c0-1.2586 0.36093-2.5115 0.80207-2.7841 0.44114-0.27264 0.59091 0.60892 0.33282 1.959-0.32332 1.6913-0.13542 2.2484 0.60418 1.7913 0.59039-0.36488 1.0734-0.21665 1.0734 0.32941 0 0.54605-0.63281 0.99283-1.4062 0.99283-0.86593 0-1.4062-0.87927-1.4062-2.2884zm10.038 0.5012c0.44781-1.773 0.28731-2.0857-0.74976-1.4607-1.1216 0.67601-1.1278 0.55892-0.0414-0.78059 2.3862-2.9422 3.8842-0.40531 1.581 2.6774-1.2997 1.7396-1.3345 1.7204-0.78982-0.43616zm-5.3506-5.6574c0-1.0008 0.49357-2.1247 1.0968-2.4976 0.73054-0.4515 0.90302-0.17284 0.5165 0.83444-0.41487 1.0811-0.17761 1.3578 0.83205 0.97031 0.77682-0.29809 1.1904-1.1204 0.91919-1.8272-0.51296-1.3367 0.54115-1.7546 1.644-0.65171 0.68649 0.68649-2.9656 4.9914-4.2345 4.9914-0.42574 0-0.77408-0.81885-0.77408-1.8197zm9.1406 1.1734c-0.90234-0.2358-1.6406-0.81967-1.6406-1.2975 0-1.1817 1.2745-1.0942 2.5433 0.17456 1.1834 1.1834 3.3993 0.22908 2.5729-1.1081-0.29665-0.47999-0.0926-0.87272 0.45346-0.87272 1.5547 0 1.1623 2.5469-0.4901 3.181-0.8156 0.31298-1.5539 0.52011-1.6406 0.4603-0.0867-0.0598-0.89598-0.30169-1.7983-0.5375zm-13.641-3.2912c-1.871-1.871-1.3339-3.7226 0.98437-3.3933 1.3556 0.19253 2.2164 1.0534 2.409 2.409 0.32924 2.3183-1.5223 2.8554-3.3933 0.98438zm12-4.0414c1.2984-1.5892 1.2443-1.6796-0.70442-1.1774-1.1609 0.29913-1.8742 0.16136-1.5853-0.30618 0.28895-0.46754 1.3752-0.85007 2.4138-0.85007 2.208 0 2.1094 2.8526-0.12407 3.5904-1.25 0.4129-1.25 0.27326 0-1.2568zm5.9294 0.7995c0.33927-0.33928 0.14699-1.183-0.4273-1.875-0.80054-0.96459-0.68926-1.2581 0.47689-1.2581 0.89604 0 1.521 0.77045 1.521 1.875 0 1.0312-0.49219 1.875-1.0938 1.875s-0.81616-0.27759-0.47688-0.61687zm-9.9131-9.1549c0.93958-0.91764 0.33226-8.3379-0.73648-8.9984-2.0724-1.2808-2.8801-0.0615-2.2355 3.3746 0.3919 2.089 0.23841 3.2081-0.43999 3.2081-0.57301 0-1.0418-1.5117-1.0418-3.3594 0-5.5276-2.3124-3.3775-2.5387 2.3605l-0.19497 4.9427 3.4762-0.6493c1.9119-0.35711 3.582-0.7526 3.7112-0.87884zm8.8684-4.3096c-0.21533-1.4672-0.91475-2.8684-1.5542-3.1138-0.77979-0.29924-1.0275 0.26134-0.75206 1.7021 0.22587 1.1816-0.0509 2.4336-0.61512 2.7822-0.65731 0.40624-1.0258-0.39616-1.0258-2.2339 0-1.9242-0.46272-2.8678-1.4062-2.8678-1.0018 0-1.4062 1.0184-1.4062 3.5404 0 3.5363 4e-3 3.54 3.5756 3.1994 3.3366-0.3182 3.5494-0.51929 3.1841-3.0086zm3.5528-8.5088c0-8.8225-13.609-39.43-15.491-34.84l-1.0602 2.5862-1.1513-2.1448c-1.5103-2.8135-0.47682-6.1386 1.7286-5.5619 3.2863 0.85938-0.93327-11.397-4.5991-13.359-7.561-4.0465-10.43 5.0997-5.2757 16.822 5.1901 11.804 6.6044 24.002 3.8396 33.114-1.6166 5.3279-0.88741 6.0159 4.8015 4.5302 2.6668-0.69645 4.8424-0.60659 8.3014 0.34288 7.6454 2.0986 8.9062 1.8878 8.9062-1.4894zm-17.501-7.0139c-0.31214-0.81343 0.0529-2.0994 0.81118-2.8576 1.2133-1.2133 1.3284-1.0358 0.9593 1.4789-0.46941 3.1982-0.93357 3.5597-1.7705 1.3787zm8.1264-4.6148c-0.66258-0.79836-0.99375-1.6625-0.73594-1.9203 0.25782-0.25781 1.0109 0.18445 1.6734 0.98281s0.99375 1.6625 0.73594 1.9203c-0.25782 0.25781-1.0109-0.18445-1.6734-0.98281zm-7.0817-2.4254c-0.34645-0.56056-0.1604-1.4887 0.41341-2.0625 0.76609-0.76609 1.0433-0.74439 1.0433 0.0817 0 0.61875 0.40864 1.125 0.90808 1.125s0.67853-0.73828 0.39796-1.6406c-0.48236-1.5514-0.4525-1.551 0.54892 7e-3 0.58246 0.90644 0.80035 2.0666 0.48421 2.5781-0.76494 1.2377-3.0084 1.185-3.7959-0.0892zm0.84959-6.0346c-0.91175-2.376 1.1372-3.8001 2.9128-2.0245 1.3599 1.3599 1.3233 1.5771-0.42239 2.5114-1.5255 0.81643-2.0279 0.71818-2.4904-0.48692zm-2.3608-6.6705c-0.30373-1.1031-0.22465-2.5356 0.17574-3.1835 1.0607-1.7163 3.6447-0.38549 3.4806 1.7926-0.16479 2.1876-1.5753 1.6653-1.7368-0.64318-0.061-0.87191-0.39361-0.31967-0.7391 1.2272-0.56021 2.5082-0.68794 2.5955-1.1804 0.80691zm5.4054-1.8382c-0.33365-0.86948-0.3957-1.7918-0.13789-2.0496 0.25782-0.25781 0.74174 0.24264 1.0754 1.1121 0.33365 0.86947 0.3957 1.7918 0.13789 2.0496-0.25782 0.25781-0.74174-0.24265-1.0754-1.1121zm-8.8281-6.2031c-1.2926-1.2926-1.4927-4.4844-0.28116-4.4844 0.7275 0 2.1621 4.8054 1.6046 5.375-0.11775 0.12032-0.71331-0.28047-1.3235-0.89063zm-2.6732-7.8383c-0.88721-2.312 2.0304-4.7665 3.8606-3.2476 1.6138 1.3394 1.9835 4.7266 0.5158 4.7266-0.51563 0-0.9375-0.84375-0.9375-1.875 0-1.9773-1.364-2.5228-2.3438-0.9375-0.31868 0.51562-0.13264 0.9375 0.41342 0.9375 0.54605 0 0.99283 0.42187 0.99283 0.9375 0 1.4919-1.877 1.0856-2.5014-0.54144zm15.626 193.05c0-0.34155 1.6536-5.7205 3.6746-11.953 6.3837-19.687 11.208-38.775 13.646-53.988 0.86749-5.4141 1.7662-10.898 1.9972-12.188 3.8269-21.361 4.0501-76.366 0.39743-97.969-6.2694-37.079 4.5973-69.857 21.678-65.39 2.1976 0.57468 2.2633 2.1061 0.0908 2.1182-16.016 0.0894-26.041 34.43-18.608 63.741 8.0688 31.818 1.1445 112.7-13.202 154.22-1.7819 5.1562-3.6451 11.001-4.1404 12.989-1.4743 5.9159-5.5345 12.094-5.5345 8.4212zm-100.81-1.2394c-1.562-0.3469-4.7514-1.7508-7.0874-3.1198-2.8319-1.6596-6.728-2.8254-11.691-3.4983-9.7457-1.3213-11.686-4.6228-6.0376-10.271 0.25781-0.25781 0.58564-1.1762 0.7285-2.0409 0.14287-0.86469 0.88908-3.185 1.6583-5.1562 1.4383-3.6859 1.3738-1.1159-0.10137 4.0417-1.1656 4.0752 6.7424 0.70196 8.4687-3.6124 1.9496-4.8725 1.8829-6.7528-0.20716-5.8458-4.3222 1.8755-7.2394 1.5332-9.7457-1.1437-4.5675-4.8784 0.53275-9.9972 12.874-12.921 10.945-2.5927 17.262-9.0873 17.262-17.745 0-2.2372-0.25918-2.4255-2.5781-1.8732-5.7194 1.3621-7.6211 3.2636-8.749 8.748-0.58879 2.8627-1.6794 6.2597-2.4237 7.5487l-1.3531 2.3438 0.5082-2.8125c0.27952-1.5469 0.89129-4.3945 1.3595-6.3281 0.83073-3.4307 0.78762-3.5156-1.7844-3.5156-1.4496 0-2.8484-0.52734-3.1085-1.1719-0.2608-0.64633-0.5373-0.331-0.61654 0.70313-0.2249 2.9349-0.7778 5.2892-2.3118 9.8438-1.2339 3.6635-1.3588 3.7934-0.94944 0.98698 0.2593-1.7775 0.73836-5.5028 1.0646-8.2785 0.5007-4.2601 1.266-5.8021 4.9104-9.8932 2.9106-3.2674 4.2726-5.6101 4.1804-7.1902-0.26722-4.5779-0.44799-22.264-0.39239-38.391 0.0678-19.648 1.743-21.014 2.1379-1.7433l0.26224 12.797 3.2224-2.8813 3.2224-2.8813-0.0388-8.5283-0.0388-8.5283 0.5664 7.471 0.56639 7.471 1.6495-2.5296c2.4392-3.7408 6.4474-5.4439 12.241-5.2014 4.3507 0.18205 5.5632-0.19033 9.1082-2.7973 8.0989-5.956 13.489-3.5243 12.072 5.4454-1.6503 10.44-6.5237 14.651-17.408 15.045-4.1699 0.15078-16.067 3.5322-18.131 5.1531-0.77343 0.60754-2.6719 1.5091-4.2188 2.0035-3.3074 1.057-3.7366 2.7587-2.8304 11.221l0.62975 5.8805 2.497-2.3153c1.3734-1.2734 2.8721-2.3153 3.3305-2.3153s2.4572-1.3711 4.4419-3.0469c8.4386-7.1254 10.434-8.4534 14.579-9.7008 11.969-3.6021 15.698 0.80067 9.9934 11.797-1.7592 3.3909-2.1931 5.0462-1.4438 5.5093 0.79786 0.4931 0.76504 1.969-0.12869 5.7861-1.3464 5.7506-3.5335 10.387-4.0993 8.6892-0.20486-0.61458 0.14274-2.0801 0.77245-3.2567 1.4264-2.6653 2.7386-8.2875 1.9248-8.2473-1.4869 0.0733-3.8922 2.682-3.9577 4.2923-0.0397 0.97441-0.66146 3.4592-1.3819 5.5216l-1.3098 3.75 0.49435-3.75c0.2719-2.0625 0.72354-4.5271 1.0036-5.4768 0.37536-1.2727 0.0817-1.6425-1.1164-1.4062-1.3642 0.26898-4.9712 9.9304-3.9625 10.614 0.138 0.0935 1.7224 0.5723 3.5208 1.064 4.8372 1.3225 5.4466 4.0871 2.7832 12.628-1.1924 3.8239-2.1083 7.7963-2.0352 8.8276 0.25794 3.64-3.1256 14.531-4.5144 14.531-0.40579 0 0.064-2.6367 1.0441-5.8594 2.2421-7.3727 2.2318-7.677-0.20278-5.9718-3.5137 2.4611-5.4507 9.9743-3.4295 13.302 2.2946 3.7783 2.1195 5.4986-1.1399 11.195-3.9948 6.9821-7.3937 8.6253-14.553 7.0354zm8.468-3.5446c8.9396-6.5474 6.8677-18.382-2.6754-15.281-1.6239 0.52755-7.5931 1.1285-13.265 1.3354-11.805 0.43067-15.115 1.4234-16.449 4.933-1.2101 3.1829-1.5092 3.0147 6.6604 3.7464 4.8743 0.43655 8.53 1.4186 12.133 3.2594 4.9821 2.5456 11.54 3.5137 13.597 2.0073zm-6.5164-3.8907c-0.93365-1.5107 4.041-4.333 5.3429-3.0312 0.67569 0.67569 0.74507 1.3869 0.18623 1.909-1.5138 1.4144-4.9211 2.1059-5.5291 1.1222zm-11.514-2.7718c-0.79338-0.79339-1.0396-1.5768-0.54715-1.741 0.86502-0.28834 7.7932 2.2752 7.7932 2.8836 0 1.0035-6.0547 0.0487-7.2461-1.1426zm-9.1602-1.9098c1.0312-0.48996 1.4531-0.93391 0.9375-0.98655-1.4128-0.14424 2.4875-2.8486 4.1084-2.8486 1.0748 0 0.9774 0.34777-0.41356 1.4758-1.0009 0.81167-1.2925 1.2087-0.64793 0.88217 0.64453-0.32648 1.1719-0.14683 1.1719 0.39923 0 0.54605-0.52734 0.99859-1.1719 1.0056-0.64454 7e-3 -2.2266 0.22664-3.5156 0.48799-2.0426 0.41414-2.1029 0.36074-0.46875-0.41566zm13.608-1.1567c-0.0171-1.8355 2.4394-2.9724 4.2424-1.9633 0.88606 0.49586 1.0062 1.1491 0.38818 2.1109-0.79064 1.2304-1.0043 1.2288-1.8325-0.0135-0.83333-1.25-1.0401-1.25-1.8606 0-0.80214 1.2219-0.92502 1.2044-0.9375-0.13407zm14.997-0.82453c0.56339-1.0527 0.61611-1.8539 0.12199-1.8539-0.47859 0-1.0761 0.53664-1.3278 1.1926-0.2517 0.6559-1.6679 1.2845-3.1472 1.397-2.0427 0.15527-2.3514-0.0154-1.2833-0.70944 1.1732-0.76242 1.0955-0.93328-0.46875-1.031-1.0312-0.0644-0.0226-0.48088 2.2415-0.92553 2.2641-0.44464 4.4789-0.58446 4.9219-0.3107 1.3014 0.8043 0.92415 2.9534-0.62257 3.5469-1.165 0.44705-1.2452 0.20656-0.43577-1.306zm-17.424-10.624c0.47766-1.8794 1.2055-3.4171 1.6174-3.4171 0.41193 0 0.33753 1.0822-0.16533 2.4048-2.0462 5.3818 0.59967 6.8774 8.886 5.023 7.712-1.7259 10.069-12.115 2.7479-12.115-2.9798 0-3.4472 0.38097-5.1276 4.1799-1.0169 2.299-2.2588 4.4332-2.7598 4.7428-1.2788 0.79032-1.0782-0.54503 0.49544-3.2978 2.2541-3.9431 2.0395-4.0175-6.6422-2.303-1.7737 0.3503-4.139 5.3275-4.139 8.7096 0 2.6131 4.261-0.67622 5.0872-3.9271zm11.195 0.1399c0.84163-3.5108 2.332-7.307 2.8689-7.307 0.60381 0-1.9738 8.4621-2.8124 9.2329-0.36554 0.33598-0.39097-0.53069-0.0565-1.9259zm10.981-1.5394 1.3947-4.545-2.2729 0.0918c-2.5802 0.10423-5.7015 7.5257-3.5388 8.4142 2.4025 0.98707 3.087 0.3732 4.417-3.9611zm-24.45-6.3631c7.0958-0.75784 14.988-3.4268 12.169-4.1154l-2.3257-0.5682 2.5781-0.51167c1.418-0.28141 2.5781-0.1483 2.5781 0.29582s0.74988 0.8075 1.6664 0.8075c0.91653 0 2.4986 0.57142 3.5156 1.2698 5.9326 4.0738 8.1253 2.4888 11.671-8.4361 2.4094-7.4237 2.1212-9.7087-1.2246-9.7087-4.4001 0-16.651 4.5677-19.898 7.4192-1.8467 1.6214-5.5533 3.4707-8.6249 4.3031-2.9625 0.80285-6.9458 1.8789-8.8518 2.3913-7.964 2.1409-8.6417 9.2159-0.75342 7.8656 1.8047-0.30892 5.1797-0.76442 7.5-1.0122zm-6.5625-3.6376c0-1.5288 1.5326-1.9156 2.0312-0.51265 0.17188 0.48359 2.4219-0.14537 5-1.3977 5.3552-2.6012 7.0312-2.8402 7.0312-1.0026 0 2.1683-2.081 3.1125-8.2031 3.7217-4.8183 0.47948-5.8594 0.33578-5.8594-0.80878zm10.781-1.3919c1.2363-0.53126 1.396-0.82327 0.46875-0.85725-0.77344-0.0283-2.0391 0.35741-2.8125 0.85725-1.7137 1.1075-0.23352 1.1075 2.3438 0zm16.406-0.86946c0-0.4782 1.1043-1.7381 2.4539-2.7997 3.3841-2.662 5.0997-1.3054 1.8664 1.4758-2.6654 2.2927-4.3203 2.7998-4.3203 1.3239zm-10.312-2.3788c0-1.5284 3.1684-3.5833 4.0955-2.6562 1.165 1.165 0.56336 2.0847-0.977 1.4936-1.1887-0.45613-1.423-0.22174-0.96692 0.96692 0.39451 1.0281 0.12742 1.569-0.77474 1.569-0.75725 0-1.3768-0.61797-1.3768-1.3733zm6.1637-3.6272c1.1286-2.9411 6.0238-4.6153 6.0238-2.0602 0 0.8535-0.54777 1.1666-1.4412 0.82379-0.79264-0.30416-2.2874 0.21277-3.3216 1.1487-1.7072 1.545-1.8234 1.553-1.261 0.0877zm8.094-2.196c-1.7282-0.69342 0.42154-3.1161 2.765-3.1161 1.5027 0 1.6306 0.30376 0.78972 1.875-1.0311 1.9266-1.467 2.0788-3.5548 1.2411zm-1.9256-7.9568c3.1556-0.94426 6.4179-7.2117 6.4179-12.33 0-3.8758-5.2871 1.6465-6.425 6.7108-0.49969 2.2239-1.2163 4.3271-1.5924 4.6736-0.62711 0.57782-0.10103-2.6136 1.0938-6.6355 0.37523-1.263-0.0666-1.6406-1.9195-1.6406-1.7281 0-2.4069 0.49556-2.4069 1.7571 0 0.96642-0.62303 3.523-1.3845 5.6813-1.5574 4.4142-2.0773 4.2651 6.2166 1.7833zm-17.168-7.9696c0.17617-0.0957-0.037-0.81266-0.47388-1.5932-1.1861-2.1195-5.5598 1.2869-4.6607 3.6299 0.60076 1.5656 0.74618 1.56 2.7245-0.10442 1.1494-0.96704 2.234-1.8366 2.4101-1.9323zm14.154-3.6932c1.2576-0.27285 3.3926-1.2836 4.7443-2.2462s4.3306-1.8837 6.6197-2.047c3.9119-0.27911 4.2329-0.51431 5.3434-3.9157 0.6498-1.9903 2.0209-4.7976 3.0469-6.2385 3.1194-4.3808 2.5482-8.4333-1.1815-8.3829-4.3583 0.0589-10.031 2.2869-11.628 4.567-0.75289 1.0749-1.9631 1.9544-2.6894 1.9544-0.72625 0-2.7062 1.1956-4.4 2.6568-1.6937 1.4613-4.4574 3.4547-6.1414 4.4298-3.4129 1.9761-8.4938 8.8418-6.5607 8.8652 0.80974 0.01 0.73971 0.30615-0.22107 0.93548-1.4118 0.92475 8.075 0.50485 13.068-0.5784zm-5.4601-4.035c-1.0412-0.6594-0.91314-1.0286 0.64623-1.8632 2.0496-1.0969 3.6207 7e-3 2.5273 1.7768-0.7061 1.1425-1.473 1.1634-3.1735 0.0864zm8.4038-2.0453c-0.0728-1.4667 4.3984-4.1937 5.337-3.2551 0.8469 0.84691-1.9155 3.442-3.1569 2.9656-0.65751-0.25231-1.4004 0.0449-1.6508 0.66046-0.27058 0.6651-0.48535 0.51461-0.52932-0.37093zm-4.5509-2.2491c0.36461-2.4304 3.5448-3.1365 3.525-0.78262-0.0112 1.3292-0.19529 1.4237-0.82798 0.425-0.65786-1.0385-1.0206-0.94875-1.8952 0.46875-1.0376 1.6819-1.0702 1.6774-0.80189-0.11113zm14.511-3.6689c0.92641-1.2386 1.824-2.1184 1.9947-1.9553 0.58544 0.55961-1.7822 4.2072-2.7308 4.2072-0.52155 0-0.19031-1.0134 0.73611-2.2519zm-9.5656 0.37693c-0.73918-1.196 0.24319-2.8168 1.696-2.7982 0.6817 8e-3 0.57945 0.35403-0.26256 0.88653-0.7585 0.47969-1.1353 1.116-0.83731 1.414 0.9061 0.90609 3.6227-0.55347 3.6227-1.9464 0-0.71827 0.42187-1.306 0.9375-1.306 1.6265 0 1.0188 1.7118-1.1461 3.2281-2.4322 1.7036-3.2167 1.8057-4.0102 0.52191zm8.0924-4.1067c0.57325-2.9286 4.8316-5.3073 4.4173-2.4675-0.17722 1.2147-0.95502 2.4157-1.7285 2.6689-1.0644 0.34837-1.1783 0.12755-0.46875-0.90825 0.51562-0.75268 0.14939-0.50488-0.81384 0.55067-1.63 1.7862-1.7274 1.797-1.4062 0.15619zm-19.7-12.228c2.3814-0.72279 6.056-2.1948 8.1658-3.2711s4.4723-1.9569 5.2501-1.9569c0.81272 0 1.2044-0.54664 0.92096-1.2853-0.27125-0.7069 0.21083-1.5554 1.0713-1.8856 1.1356-0.43576 1.4155-0.21192 1.0208 0.81653-0.41692 1.0864 0.15999 1.4099 2.4737 1.3871 3.0978-0.0307 7.112-2.2819 6.0186-3.3754-0.33662-0.33662-1.2652-0.0699-2.0636 0.59266-2.0941 1.738-2.6822 0.59686-0.64328-1.2483 1.5985-1.4466 1.8489-1.4218 3.7771 0.37465 4.2998 4.0058 7.3914 0.62095 8.2977-9.0847l0.57877-6.198-2.2552 0.68514c-1.2403 0.37682-4.1205 1.9026-6.4003 3.3907-4.3321 2.8276-4.9429 2.9859-10.54 2.7306-4.937-0.22522-8.2926 1.8914-12.359 7.7958-1.9636 2.8511-4.5922 5.8535-5.8413 6.6719-1.7384 1.139-3.3499 5.2415-2.0366 5.1847 0.1289-6e-3 2.1828-0.60153 4.5642-1.3243zm-1.3876-2.8843c0.6566-1.711 1.8852-1.8244 2.5416-0.23438 0.29309 0.70995 0.73651 0.34042 1.125-0.9375 0.71622-2.3562 2.2975-2.8629 2.2975-0.7361 0 1.4975-2.7766 3.3142-5.0652 3.3142-0.89347 0-1.234-0.53279-0.89884-1.4062zm8.1222-5.7705c-0.63028-1.6425 2.1411-4.7978 3.2101-3.6548 0.399 0.42662 0.19811 0.964-0.44643 1.1942-0.64453 0.23019-1.1719 0.85691-1.1719 1.3927 0 0.58128 0.57628 0.49589 1.4289-0.21173 1.5154-1.2577 2.8839-0.71281 1.9608 0.78077-1.012 1.6375-4.4139 1.9782-4.9815 0.49883zm7.5195-3.6992c-0.31676-0.82548 0.0128-1.8737 0.73254-2.3294 1.8033-1.1418 6.4647-1.0711 6.4647 0.0981 0 0.55092-0.9922 0.70633-2.3438 0.36711-1.5371-0.38578-2.3438-0.19606-2.3438 0.5512 0 0.62669 0.6193 0.90179 1.3762 0.61132 0.75693-0.29045 1.5983-0.16886 1.8696 0.27022 0.52947 0.8567-1.5973 1.9323-3.8207 1.9323-0.74745 0-1.6182-0.67539-1.9349-1.5009zm10.596-2.0595c-0.65044-1.0524 0.47047-2.5373 2.868-3.7993 2.6312-1.3849 3.1085-1.3568 3.1085 0.18311 0 2.5795-4.8162 5.4936-5.9766 3.6162zm16.806 108.64c-0.50255-0.81314 0.35454-3.8805 2.2486-8.0474 3.2524-7.1552 8.5597-27.901 13.551-52.969 1.2833-6.4453 3.1787-15.399 4.212-19.897 2.3548-10.251 5.3846-34.355 6.6318-52.759 0.9249-13.649 0.77421-17.905-1.7482-49.383-1.4154-17.663-0.47162-22.147 9.8322-46.71 4.0681-9.698 5.1254-19.688 2.0837-19.688-0.46641 0-0.74205-0.52734-0.61252-1.1719 0.35172-1.7502-1.0139-6.3281-1.8877-6.3281-1.5861 0-6.8014 12.846-9.1152 22.452-0.92515 3.841-1.8308 6.5375-2.0126 5.9922-0.59709-1.7913 1.3798-11.001 3.4897-16.257 1.1384-2.8359 2.5846-6.533 3.214-8.2156 0.62932-1.6826 2.2784-4.2432 3.6646-5.69s2.198-2.9854 1.8041-3.4191c-0.39394-0.43363-0.2706-0.53545 0.27409-0.22624 1.03 0.58471 18.597-6.1222 20.779-7.9333 0.68454-0.56813 1.5473-0.73025 1.9173-0.36029s-0.0685 1.0875-0.97453 1.5945c-0.90595 0.507-2.5465 1.8464-3.6457 2.9766-1.0992 1.1301-1.6902 1.5105-1.3133 0.8453 0.83574-1.4752-2.6088-0.75957-8.5971 1.7861-3.6004 1.5306-3.8831 1.8868-3.0443 3.8365 0.50857 1.1821 1.3831 3.2994 1.9434 4.705 1.0064 2.5247 1.0594 2.5387 4.373 1.1542 3.4355-1.4354 9.8895-7.3296 8.9999-8.2192-0.27222-0.27223 0.40148-0.97472 1.4971-1.5611 4.5862-2.4545 9.6332-18.748 8.4394-27.245-1.9062-13.568-10.596-15.077-22.637-3.9317-1.4833 1.3731-3.1244 2.1036-3.9844 1.7736-2.6613-1.0212-1.5308-4.2684 2.9017-8.335 4.1301-3.7891 8.63-11.479 7.4234-12.685-0.92325-0.92324-6.1804 4.6482-8.6342 9.1502-1.8959 3.4785-2.1988 3.7353-1.7264 1.4634 0.7565-3.6382 3.394-7.2314 7.966-10.852 2.0527-1.6258 3.7322-3.5382 3.7322-4.2497s1.5745-2.3636 3.4989-3.6712c3.0686-2.0852 3.2347-2.3776 1.3509-2.3776-1.1932 0-1.8904-0.4167-1.5686-0.9375 0.31868-0.51563 1.9657-0.9375 3.66-0.9375 5.3904 0 7.4653-3.5544 2.2918-3.926-17.174-1.2335-32.64 6.8186-34.911 18.177-0.60583 3.0291-6.1784 17.624-7.3052 19.133-1.0584 1.417-4.1972 10.598-6.5355 19.117-2.0519 7.4751-3.7096 21.584-4.0754 34.688-0.12238 4.3828-0.47027 9.4453-0.77311 11.25-0.47263 2.8166-2.222 30.526-2.4566 38.913-0.0434 1.5504 0.79214 8.9332 1.8567 16.406 4.1426 29.08 4.6522 53.702 1.4014 67.703-0.80493 3.4669-1.6085 8.3184-1.7858 10.781-0.17724 2.4628-1.4 8.6966-2.7172 13.853-1.3172 5.1562-3.2773 13.172-4.3557 17.812-3.3849 14.566-9.2775 35.272-12.673 44.531-1.7964 4.8984-3.7088 10.655-4.2498 12.791-0.7541 2.9784-1.5385 4.0244-3.3611 4.4818-4.5903 1.1521-5.317-1.308-2.3982-8.1174 2.9291-6.8334 13.821-45.077 17.827-62.593 14.804-64.735 9.7284-104.34-15.511-121.02-1.1057-0.7307-4.4213-2.9348-7.368-4.898-5.2369-3.489-7.5427-3.9975-5.1718-1.1407 0.65224 0.78591 1.8374 1.4289 2.6336 1.4289s1.1626 0.28511 0.81414 0.63357c-0.34847 0.34847 0.28756 1.6141 1.4134 2.8125 3.4893 3.7142 0.0366 2.394-4.3758-1.6732-4.0187-3.7043-4.4441-3.8619-11.082-4.1048-7.1039-0.26-9.9915-0.94986-20.106-4.8036-3.2329-1.2317-7.0551-2.2394-8.4938-2.2394s-5.613-1.4766-9.2763-3.2812c-4.9504-2.4388-7.8772-3.2812-11.399-3.2812-7.6046 0-19.472-8.711-25.11-18.431-0.94485-1.629-3.6906-6.2697-6.1017-10.312-21.702-36.389-27.033-74.925-17.174-124.15 4.3749-21.845 16.49-45.236 33.044-63.8 5.353-6.0027 11.553-13.416 13.778-16.473 13.32-18.306 43-34.045 97.08-51.48 22.908-7.3857 54.225-8.7243 84.351-3.6054 1.2761 0.21683 6.5496 0.85466 11.719 1.4174 18.792 2.0458 58.301 13.023 68.393 19.002 3.647 2.1608 7.3726 4.2329 8.279 4.6045 22.49 9.2204 57.423 51.028 70.96 84.926 0.96615 2.4193 4.4698 10.094 7.7859 17.055 11.27 23.657 12.086 28.947 5.7481 37.256-1.8886 2.4761-2.205 3.674-1.6923 6.4071 1.4929 7.9577-2.9992 10.712-17.471 10.712-16.97 0-22.942 2.1592-33.698 12.183-8.31 7.7444-12.777 9.7365-27.188 12.125-18.098 2.9999-22.065 5.6115-29.522 19.438-13.326 24.706-25.931 31.488-57.665 31.025-21.749-0.3173-24.129 0.80655-30.934 14.605-3.1061 6.2984-3.4879 6.6995-6.1116 6.4201-7.4122-0.78933-5.445-13.644 3.7563-24.546 1.9584-2.3203 4.126-5.561 4.8169-7.2015 0.69087-1.6405 1.6844-3.2474 2.2078-3.571 0.52343-0.3235 0.9517-1.8943 0.9517-3.4907 0-2.7838-0.14678-2.6754-3.5871 2.6474-3.2441 5.0193-8.7008 10.672-10.313 10.683-1.8463 0.0127-6.7285 5.9675-6.7609 8.2463-0.0198 1.3918-1.9462 8.015-4.2809 14.718-8.8892 25.522-8.2381 20.565-8.3748 63.75-0.0669 21.141-0.42872 41.391-0.80402 45-0.93394 8.9818-5.1267 37.078-6.6454 44.531-3.2545 15.972-7.4853 33.257-10.326 42.188-1.7223 5.4141-4.0201 13.219-5.1062 17.344-3.345 12.705-7.1658 18.01-9.8467 13.672zm-45.037-204.17c-1.5406-0.83352-6.6031-4.0964-11.25-7.2508-11.726-7.9598-22.074-14.24-24.855-15.083-1.961-0.59489-6.5064-3.3545-13.867-8.419-7.1291-4.9054-14.074-12.106-19.428-20.142-2.5709-3.8592-5.3435-7.6924-6.1614-8.5182-1.2973-1.31-4.7043-7.0361-8.9216-14.994-5.4014-10.193-9.5778-36.582-6.9029-43.618 0.53893-1.4175 1.3711-6.8299 1.8493-12.028 1.0358-11.259 4.2336-29.565 6.6453-38.044 0.95334-3.3516 2.171-8.1076 2.706-10.569 0.92728-4.2668 2.7227-7.3404 17.374-29.743 5.8029-8.8731 19.522-24.206 31.376-35.068 9.6653-8.8557 47.645-31.494 52.838-31.495 1.1122-2.61e-4 4.2655-0.85312 7.0074-1.8952 8.0551-3.0616 17.741-5.4198 28.765-7.0031 5.6719-0.81465 12.974-2.1401 16.226-2.9456 6.7594-1.6738 8.9178-1.7389 33.93-1.0241 26.622 0.76082 47.049 4.47 76.584 13.906 7.3361 2.3439 14.039 5.3784 38.698 17.518 10.213 5.0281 30.067 30.637 34.843 44.941 1.9704 5.9021 7.3758 29.917 7.3758 32.769 0 0.23673 0.66294-0.23251 1.4732-1.0428 1.8647-1.8647 2.8635-1.8645 3.5794 9.3e-4 0.92091 2.3998-1.0893 5.2683-2.9826 4.256-1.4792-0.79092-1.6013 0.29748-1.6013 14.285 0 36.836-19.819 57.262-61.024 62.889-11.071 1.5121-12.412 1.4088-29.443-2.2693-11.122-2.4019-11.722-1.9762-10.806 7.6712 1.1378 11.991-6.6964 19.722-18.411 18.168-8.055-1.0685-11.077-4.7267-11.092-13.428-6e-3 -3.4885-0.10023-3.5307-3.7113-1.6634-3.3183 1.7159-6.2369 6.3369-7.1199 11.273-0.86579 4.8396-1.8099 6.6101-6.1941 11.616-2.3928 2.7322-3.6049 5.0235-3.6049 6.8141 0 3.3182-3.9928 11.25-8.1506 16.192-6.8142 8.0989-10.57 21.159-6.0844 21.159 1.522 0 6.6185-9.5543 5.6396-10.572-0.4863-0.50576 5.8925-5.7403 9.5622-7.8469 4.9175-2.8229 10.468-3.3582 22.023-2.1236 23.243 2.4834 42.825-6.861 52.233-24.926 1.6112-3.0938 3.7871-7.3125 4.8353-9.375 5.2241-10.279 12.361-14.26 30.568-17.052 11.745-1.8008 16.111-3.8285 24.61-11.429 11.435-10.226 17.295-12.279 35.094-12.293 12.453-0.0102 16.763-2.5873 14.46-8.6452-0.81174-2.135-0.49904-3.05 2.2915-6.7047 4.5031-5.8975 3.9577-13.681-1.8369-26.215-1.2329-2.6668-3.5832-7.8019-5.2228-11.411-17.091-37.622-22.713-47.567-35.98-63.639-11.883-14.396-29.852-29.802-41.013-35.162-2.2674-1.089-6.8648-3.4131-10.216-5.1647-11.896-6.2167-42.791-14.59-64.289-17.424-4.1637-0.54888-8.5934-1.2053-9.8438-1.4586-9.7861-1.983-18.546-2.5423-41.648-2.6594-19.809-0.1004-33.312 2.1303-50.625 8.3632-4.6406 1.6707-13.235 4.5829-19.099 6.4715-31.428 10.123-56.826 25.554-70.755 42.989-3.7883 4.7419-10.691 12.84-15.339 17.997-14.493 16.078-35.371 57.702-26.584 52.999 2.5959-1.3893 3.1881 0.20462 1.5408 4.147-1.7099 4.0923-2.157 4.1362-3.1486 0.30931-0.71473-2.7582-0.94816-2.2624-2.7586 5.8594-5.2783 23.679-6.765 47.373-3.6368 57.961 0.70666 2.3919 1.7753 7.0911 2.3748 10.443 1.0751 6.0103 6.6707 24.117 10.89 35.238 4.7359 12.483 24.436 40.882 23.135 33.35-0.42189-2.4419-0.39832-2.4547 1.1322-0.61879 1.5458 1.8543 1.5566 1.8517 0.98257-0.23438-0.31926-1.1602-0.17937-2.1094 0.31086-2.1094 1.6052 0 2.1074 4.1521 0.63536 5.2532-2.7734 2.0747 5.5548 6.929 11.912 6.9434 2.2901 6e-3 6.1565 0.99875 8.9528 2.3006 4.1186 1.9175 7.0728 1.9427 3.9844 0.0339-1.3475-0.83282-1.1578-4.2243 0.23438-4.1891 1.3982 0.0353 6.7335 4.565 6.1107 5.1878-0.23859 0.23862-1.5751-0.46392-2.97-1.5612s-2.8304-1.6997-3.19-1.3387c-1.1337 1.1381 3.6504 4.2449 6.5367 4.2449 1.5202 0 2.5472 0.3507 2.2823 0.77932-0.26491 0.42863 2.7162 1.9066 6.6246 3.2845 5.5945 1.9722 6.8336 2.1765 5.8243 0.96044-1.1406-1.3743-1.0502-1.4711 0.82005-0.87753 2.2865 0.72572 2.7654-0.29581 0.97702-2.0842-0.83724-0.83724-0.84568-1.125-0.033-1.125 1.831 0 3.3319 3.6664 2.1058 5.1438-1.2573 1.515 0.69041 2.0512 7.9584 2.191l4.6875 0.0901-2.8011-1.5155zm-24.48-8.2611c-1.2934-1.2934-2.0931-2.7699-1.7771-3.2812 0.87438-1.4148 3.8347-1.1099 5.2003 0.53556 1.0684 1.2874 0.88318 1.3934-1.5258 0.87363-2.8873-0.62296-2.3923 0.0838 2.0988 2.9967 1.6361 1.0612 1.638 1.1195 0.03862 1.1719-0.92578 0.0304-2.7415-1.0031-4.0349-2.2965zm-21.525-5.5993c-1.5751-1.2018-1.6307-1.5149-0.41356-2.3294 2.1269-1.4232 4.2248-1.1598 5.9505 0.74703 2.7019 2.9856-1.9538 4.3161-5.5369 1.5824zm4.7427-0.48656c-0.31867-0.51563-1.4232-0.9375-2.4544-0.9375s-1.6143 0.42187-1.2956 0.9375c0.31867 0.51562 1.4232 0.9375 2.4544 0.9375s1.6143-0.42188 1.2956-0.9375zm4.2517-1.8134c-1.3303-2.4856-1.2333-2.8741 0.71702-2.8741 1.9741 0 3.9375 1.7296 3.9375 3.4688 0 1.8913-3.568 1.4355-4.6545-0.59462zm-18.525-0.99913c0.07768-1.0312 0.40795-1.875 0.73394-1.875s1.3563 0.84375 2.2895 1.875c1.6554 1.8292 1.6375 1.875-0.73394 1.875-1.8529 0-2.3972-0.44578-2.2895-1.875zm11.775-1.6013c-2.8365-0.43465-4.1316-2.7162-2.5937-4.5693 1.0612-1.2786 4.6237 0.044 4.6237 1.7166 0 0.39596-0.82456 0.20498-1.8324-0.4244s-2.1047-0.87196-2.4376-0.53907c-1.0982 1.0982 0.59036 2.605 2.9191 2.605 1.2586 0 2.2884 0.42187 2.2884 0.9375 0 0.51562-0.10547 0.87429-0.23438 0.79703-0.12891-0.0772-1.3588-0.31276-2.7332-0.52336zm-10.573-3.2948c-0.80268-1.146-1.4261-3.3608-1.3854-4.9219 0.04071-1.561 0.28768-2.3083 0.54882-1.6606 0.26114 0.64774 0.86949 0.93378 1.3519 0.63565 1.059-0.6545 3.942 5.8624 3.156 7.1342-0.88977 1.4397-2.107 1.046-3.6713-1.1874zm2.1501-1.6664c-0.53924-1.5469-1.361-2.8125-1.8262-2.8125-1.0615 0-1.0559 0.26286 0.0685 3.2202 1.3204 3.4729 2.9766 3.0887 1.7577-0.40772zm151.14-4.9219c-0.0449-1.946 0.386-2.5781 1.7573-2.5781 1.2388 0 1.7718 0.59646 1.6755 1.875-0.0777 1.0312-0.51847 1.875-0.97953 1.875-0.46107 0-0.59547-0.63281-0.29867-1.4062 0.29679-0.77344 0.32833-1.4062 0.0701-1.4062-0.25824 0-0.85107 0.94922-1.3174 2.1094-0.81499 2.0276-0.85016 2.0094-0.90728-0.46875zm-168.71-1.0656c-2.3662-2.5187-2.5448-4.8431-0.43437-5.653 1.8756-0.71974 1.8186-0.77406 3.5606 3.395 1.764 4.2218-0.0503 5.5322-3.1262 2.258zm2.0047-1.9812c-0.44748-2.3408-1.2356-2.9001-2.419-1.7167-0.49266 0.49265 1.8565 4.0604 2.6736 4.0604 0.10639 0-0.0082-1.0547-0.25459-2.3438zm4.6756-0.46875c-0.64402-1.0312-0.76647-1.875-0.2721-1.875s1.3414 0.73828 1.8823 1.6406c0.9258 1.5446 1.0658 1.534 2.3903-0.17918 1.143-1.4784 1.4069-1.5412 1.4069-0.33468 0 1.3139-1.7975 2.6232-3.6012 2.6232-0.34942 0-1.1622-0.84375-1.8063-1.875zm-13.158-7.7723c-2.5879-2.7547-2.7555-6.2902-0.29827-6.2902 2.1945 0 4.4033 4.8273 3.1959 6.9848-0.7352 1.3137-1.0911 1.2284-2.8977-0.6946zm1.8051-2.7263c-0.87751-2.3722-2.9271-3.4125-2.9271-1.4858 0 1.3989 1.7985 3.5469 2.9698 3.5469 0.39588 0 0.37669-0.9275-0.04266-2.0611zm4.2044 3.3907c-1.1328-2.952-0.63537-5.2296 1.0716-4.9062 2.1245 0.40244 2.9329 6.3892 0.86282 6.3892-0.75094 0-1.6214-0.66731-1.9344-1.4829zm175.68-1.3296c0-0.51563 0.37614-0.9375 0.83587-0.9375s1.0889-1.0082 1.3982-2.2403c0.30927-1.2322 1.1988-2.4846 1.9766-2.7831 2.4678-0.94697 1.6965 3.6854-0.89643 5.3844-2.6835 1.7583-3.3142 1.868-3.3142 0.57657zm10.304-6.0834c1.171-1.4109 2.8211-1.1104 2.8211 0.51376 0 0.48519-0.89541 0.88217-1.9898 0.88217-1.6559 0-1.7954-0.23426-0.83128-1.3959zm-2.3752-2.2893c0.29666-0.48 0.0901-1.1504-0.45894-1.4897-0.69422-0.42905-0.66391-1.0199 0.0995-1.9398 1.7347-2.0902 2.4528-1.5568 2.0057 1.4897-0.22704 1.5469-0.81168 2.8125-1.2992 2.8125-0.48753 0-0.6437-0.39273-0.34705-0.87272zm11.002 0.20401c-1.1899-0.22734-1.999-0.90665-1.798-1.5096 0.42258-1.2677 7.2427-2.6088 7.2427-1.4242 0 0.43446-1.3711 0.85313-3.0469 0.93039-2.8588 0.1318-2.8868 0.16466-0.45285 0.53255 1.4267 0.21565 2.351 0.78525 2.054 1.2658-0.29699 0.48053-0.83149 0.81624-1.1878 0.74602-0.35628-0.0702-1.6213-0.31369-2.8112-0.54104zm16.289-1.2515c-4.1268-1.2333-7.021-5.3206-7.0609-9.9719-0.0737-8.5714 2.5593-11 13.593-12.537 12.165-1.6951 15.589-3.1498 20.936-8.8946 9.9874-10.731 20.707-4.6614 18.442 10.442-0.83298 5.5548-7.3732 12.847-15.321 17.083-7.0382 3.7513-23.872 5.8855-30.589 3.8781zm23.168-3.9121c6.2934-2.1424 15.329-9.6978 18.251-15.261 5.7602-10.968-3.7554-19.681-11.36-10.401-4.3812 5.3466-9.829 7.9096-19.047 8.961-13.148 1.4996-17.923 6.3638-14.221 14.488 1.9214 4.217 16.819 5.4672 26.377 2.2135zm-45.868 2.5695c0.33305-0.86791 0.60554-1.7544 0.60554-1.9701 0-0.21563 0.66375-0.39207 1.475-0.39207 2.0852 0 1.2736 3.1776-0.91942 3.5999-1.3296 0.25606-1.6168-0.0502-1.1611-1.2378zm3.9659-3.4616c-2.5134-1.459 0.63544-4.0242 3.2332-2.6339 1.1552 0.61823 1.9769 0.48402 2.7515-0.44934 0.60747-0.73196 1.704-1.1008 2.4368-0.81956 1.7474 0.67052 0.76917 2.1898-1.4099 2.1898-0.93769 0-2.2301 0.63281-2.872 1.4062-1.3751 1.6568-1.7641 1.6857-4.1396 0.30679zm-5.8044-3.196c0.31298-0.8156 0.56905-1.6594 0.56905-1.875 0-0.21563 0.63281-0.39207 1.4062-0.39207s1.4062 0.42187 1.4062 0.9375c0 0.51562-0.44678 0.9375-0.99283 0.9375-0.54606 0-0.7321 0.42187-0.41342 0.9375 0.31868 0.51562-0.12344 0.9375-0.98247 0.9375-1.0391 0-1.3714-0.49639-0.99283-1.4829zm6.8857-1.978c-0.90866-0.23703-1.4111-0.8209-1.1166-1.2975 0.855-1.3834 2.9249-1.0015 2.9249 0.5397 0 0.77344-0.0351 1.3573-0.0781 1.2975-0.0429-0.0598-0.82157-0.30268-1.7302-0.5397zm-205.07-3.1797c0-2.2847 2.1907-1.9618 2.6469 0.39019 0.17941 0.92508-0.29884 1.5629-1.1719 1.5629-0.86966 0-1.475-0.80156-1.475-1.9531zm209.55 1.0394c-0.28273-0.45747-0.0853-1.0968 0.43873-1.4206s0.95925-0.24756 0.96714 0.16959c7e-3 0.41715 0.42331 0.12565 0.92315-0.64779 0.78884-1.2206 0.91069-1.203 0.92315 0.13407 0.016 1.7203-2.452 3.0595-3.2522 1.7648zm-216.81-4.4368c-1.4974-3.2242-1.5028-6.5704-0.0116-7.0675 1.1711-0.39037 3.4864 4.8588 3.5131 7.9649 0.02155 2.5051-2.1839 1.9399-3.5015-0.89734zm0.78269-4.1228c-0.8259-2.0647-0.903-2.0882-0.95764-0.29236-0.03268 1.0742 0.22183 2.2344 0.56558 2.5781 1.1197 1.1197 1.3102 9e-3 0.39206-2.2858zm213.97 3.1451c0.10116-2.0526 1.58-3.0976 1.58-1.1165 0 0.54606 0.48706 0.69181 1.0824 0.3239 0.67598-0.41778 0.82765-0.25681 0.40397 0.42871-0.3731 0.6037-1.0351 0.8772-1.471 0.60776s-0.99662 0.0401-1.2459 0.68783c-0.2493 0.64775-0.40649 0.2285-0.34932-0.93166zm6.2674-5.3906c0-0.79741 0.84078-1.4062 1.942-1.4062 1.7262 0 1.7857 0.15625 0.53571 1.4062-0.77344 0.77344-1.6473 1.4062-1.942 1.4062-0.29465 0-0.53572-0.63281-0.53572-1.4062zm-4.6875-3.2812c0-1.0417 0.625-1.875 1.4062-1.875s1.4062 0.83333 1.4062 1.875-0.625 1.875-1.4062 1.875-1.4062-0.83333-1.4062-1.875zm-220.17-2.9334c-1.0078-2.7243-0.3124-5.5041 1.3768-5.5041 0.81601 0 1.2969 1.0429 1.2969 2.8125 0 1.5469 0.03164 3.1184 0.07031 3.4922 0.18139 1.7534-2.0389 1.1057-2.7441-0.80059zm221.11-2.1675c0-1.5132 1.3278-2.6338 2.1484-1.8132 0.73161 0.73161-0.27642 3.1641-1.3112 3.1641-0.46046 0-0.8372-0.60791-0.8372-1.3509zm-224.39-11.266c-0.73515-1.9158 0.28084-4.429 1.6112-3.9855 0.581 0.19367 1.0564 1.3365 1.0564 2.5396 0 2.5501-1.8575 3.5569-2.6676 1.4459zm-0.82813-23.357c-1.2551-1.2551-1.3661-2.0914-0.57786-4.3526 1.7832-5.1152 4.3422-2.6253 2.9246 2.8455-0.73842 2.8496-0.90024 2.9536-2.3467 1.5071zm384.89-10.657c-1.1227-0.19634-2.5455-0.96447-3.1617-1.707-1.411-1.7001-4.4206-1.6774-7.4533 0.0562-11.009 6.2932-15.02-2.5672-6.7901-15 4.5975-6.9456 4.9666-8.7717 3.5556-17.591-1.7337-10.837 7.2162-15.508 14.931-7.7934 5.9234 5.9234 7.4969 11.814 6.6655 24.954-0.93824 14.828-2.3854 18.018-7.7469 17.081zm-11.341-3.9909c3.9872-2.431 7.1083-2.3744 9.8253 0.17806 5.9084 5.5506 9.4128-18.586 4.334-29.85-6.1866-13.721-16.037-12.512-13.606 1.67 1.2573 7.3322 1.0756 7.9539-5.4431 18.623-4.1256 6.7525-4.5535 8.8196-2.1192 10.237 2.376 1.3839 3.5701 1.2375 7.0086-0.8589zm-372.73 1.7832c-1.9775-2.3096-1.4172-4.5992 1.1256-4.5992 1.889 0 3.1961 2.9585 2.3181 5.2467-0.69134 1.8016-1.4724 1.6548-3.4436-0.64746zm1.8307-3.4078c-0.95298-0.95298-1.7393 0.48178-0.95739 1.7469 0.59066 0.95571 0.81148 0.95645 1.129 4e-3 0.21712-0.65136 0.13988-1.4392-0.17164-1.7507zm391.45-3.186c-0.0773-1.3548 0.49234-2.9885 1.2658-3.6304 1.1831-0.9819 1.404-0.81418 1.3919 1.0571-0.0109 1.6856-0.21898 1.9008-0.85947 0.88885-0.63588-1.0047-0.94569-0.6566-1.2514 1.4062-0.39061 2.6355-0.41176 2.6462-0.54679 0.27822zm-392.72-3.3179c-1.4937-0.59749-1.526-5.2083-0.04687-6.6875 2.2397-2.2397 3.39-1.2277 3.183 2.8-0.20084 3.9074-0.90479 4.78-3.1361 3.8875zm1.8701-3.5938c0.49356-2.5819-0.63267-3.2133-1.5354-0.86082-0.79896 2.082-0.70818 3.2046 0.25916 3.2046 0.45551 0 1.0298-1.0547 1.2762-2.3438zm390.71-7.4706c0-0.83633 0.54994-1.1658 1.4009-0.83926 0.77047 0.29566 1.1674 0.91523 0.88217 1.3768-0.81808 1.3237-2.283 0.97874-2.283-0.53756zm-390.33-1.8744c-0.29046-0.75693-0.17262-1.5959 0.26186-1.8645 0.43448-0.26853 1.0094 0.35077 1.2775 1.3762 0.56046 2.1432-0.74541 2.5573-1.5394 0.48823zm2.765-1.9988c-0.33365-0.86948-0.3957-1.7918-0.13788-2.0496 0.25781-0.25781 0.74174 0.24264 1.0754 1.1121 0.33365 0.86947 0.3957 1.7918 0.13788 2.0496-0.25781 0.25781-0.74174-0.24264-1.0754-1.1121zm358.5-3.1388c0-1.767 0.57124-3.1392 1.4467-3.4752 2.1252-0.8155 2.7688 0.32111 1.7747 3.1338-1.2958 3.6664-3.2214 3.8704-3.2214 0.34139zm1.1179-10.831c-0.13043-3.4694 1.4018-5.2513 2.7225-3.1662 1.3809 2.1802 0.87565 3.2837-0.60609 1.3238-1.3099-1.7325-1.3587-1.669-0.81324 1.0582 0.31914 1.5957 0.18361 3.1465-0.3012 3.4461-0.4848 0.29963-0.93571-0.89826-1.002-2.662zm13.583-9.2986c-3.2548-3.0165-3.5153-7.3801-0.41407-6.9376 1.2286 0.1753 2.2338 1.0775 2.4228 2.1746 0.17768 1.0312 1.0065 2.4065 1.8419 3.056 1.3603 1.0578 1.3698 1.3301 0.091 2.6089s-1.6903 1.1847-3.9417-0.90191zm1.7722-1.7162c-0.76016-1.1602-1.3711-2.5207-1.3576-3.0234 0.0135-0.50274-0.42895-1.0652-0.98325-1.25-1.709-0.56966-1.1132 2.5274 0.86719 4.5078 2.4895 2.4895 3.1858 2.3788 1.4736-0.23437zm-9.8152 0.23438c-0.0668-0.77344-0.33539-2.4609-0.59674-3.75-0.40594-2.0022-0.35141-2.0705 0.37412-0.46875 1.0374 2.2902 2.6247-2.1805 1.6634-4.6854-0.69988-1.8239-2.4743-1.8254-2.4743-2e-3 0 0.77344-0.46701 1.4062-1.0378 1.4062s-0.78173-0.66731-0.46875-1.4829c0.31298-0.8156 0.56905-1.6594 0.56905-1.875 0-0.21563 0.85419-0.39207 1.8982-0.39207 2.7059 0 4.2118 4.2764 2.4518 6.9625-0.72864 1.1121-1.5347 2.8481-1.7912 3.8578-0.28436 1.1195-0.51378 1.2872-0.5879 0.42968zm-361.64-3.7587c0.76798-3.8399 2.8087-5.5204 3.2631-2.6871 0.17957 1.1196-0.58079 2.7751-1.7936 3.905l-2.1053 1.9614 0.63587-3.1793zm5.9724-2.5694c-0.69623-1.32 2.1902-9.4299 3.5408-9.9481 2.1816-0.83714 2.236 0.50703 0.232 5.7294-1.7696 4.6116-2.8993 5.8748-3.7728 4.2187zm346.05-4.4077c-0.34917-4.3903 1.9639-6.3257 3.3241-2.7813 0.88006 2.2934 0.68925 2.5964-0.8372 1.3296-1.203-0.99843-1.4042-0.71017-1.3919 1.9946 0.0113 2.4894 0.22582 2.8627 1.0089 1.7554 0.80893-1.1438 0.92653-1.1547 0.63018-0.0586-0.8371 3.0963-2.4122 1.806-2.734-2.2397zm8.617-5.1338c-0.9551-1.7846-0.4466-4.7554 0.81395-4.7554 1.1773 0 2.9002 2.2231 2.8699 3.7031-0.0251 1.2228-0.22725 1.193-1.2752-0.1875-1.9191-2.5282-2.8577-1.9415-1.1249 0.70312 0.84463 1.2891 1.1189 2.3438 0.60956 2.3438-0.50937 0-1.3613-0.81319-1.8932-1.8071zm-7.5693-4.3264c-0.90897-1.0952-0.93682-1.7092-0.1148-2.5312 0.82203-0.82203 1.0853-0.60166 1.0853 0.90849 0 1.1105 0.72683 2.1837 1.6406 2.4225 1.3842 0.36173 1.4021 0.44575 0.11478 0.5375-0.8392 0.0598-2.0658-0.54194-2.7259-1.3372zm-343.09-2.6874c0-2.5558 2.2984-4.9568 3.2583-3.4038 0.86912 1.4063-0.26413 4.4543-1.8877 5.0774-0.96241 0.36931-1.3706-0.12908-1.3706-1.6736zm345.71-2.2809c-1.3739-2.3258-1.4098-2.9188-0.27054-4.4621 1.6833-2.2802 3.0575-0.98101 3.4732 3.2835 0.39621 4.0654-1.1592 4.6378-3.2026 1.1786zm1.2751-3.2302c-0.76563-0.76563-1.043-0.66071-1.043 0.39453 0 1.8636 1.2607 3.1243 1.7266 1.7266 0.19765-0.59297-0.10997-1.5474-0.6836-2.1211zm-7.5912-0.64125c-1.3873-2.5922-1.167-3.9567 0.58302-3.6111 2.1308 0.42082 3.4516 4.2066 1.7018 4.878-0.74183 0.28466-1.7551-0.27722-2.2848-1.2669zm-331.89-1.9017c0-0.51562 0.88594-1.8234 1.9688-2.9062 2.4457-2.4457 4.3828-1.1405 2.7726 1.8681-1.0623 1.985-4.7414 2.7905-4.7414 1.0382zm3.75-1.9303c0-0.4852-0.42188-0.88217-0.9375-0.88217s-0.9375 0.65771-0.9375 1.4616 0.42188 1.2008 0.9375 0.88217 0.9375-0.97639 0.9375-1.4616zm328.54-3.1593c-1.4679-1.0834-1.5942-1.5802-0.64604-2.5415 0.95387-0.96701 1.4824-0.89095 2.7723 0.39893 2.2016 2.2017 0.40575 4.0113-2.1263 2.1425zm-323.34-7.3323c0.91329-4.2097 3.6665-5.9328 4.7922-2.9992 0.55627 1.4496-2.9444 6.046-4.6047 6.046-0.46796 0-0.55208-1.3666-0.18755-3.0469zm3.238-1.1719c0.95585-1.1517 0.89178-1.4062-0.35396-1.4062-0.83657 0-1.521 0.63281-1.521 1.4062 0 0.77344 0.15928 1.4062 0.35396 1.4062s0.87915-0.63281 1.521-1.4062zm312.97-5.1413c-0.29062-3.0473-0.0737-3.7668 1.0692-3.5467 0.95173 0.18329 1.4338 1.3487 1.4338 3.4664 0 4.6462-2.0613 4.7123-2.503 0.08029zm-308.28-1.3771c0-1.8579 2.507-5.2004 3.9005-5.2004 1.9702 0 2.3381 2.7614 0.59952 4.5-1.0682 1.0682-4.5 1.6023-4.5 0.70036zm4.3038-3.0841c-0.65015-0.65016-2.4288 0.67082-2.4288 1.8038 0 0.62165 0.53792 0.55053 1.4289-0.18892 0.7859-0.65224 1.2358-1.379 0.99987-1.6149zm294.89-6.19c-2.2472-2.392-2.613-3.7831-0.8394-3.1919 0.64454 0.21484 1.1783 0.77734 1.1862 1.25 0.0348 2.0833 1.5959 3.4512 2.4322 2.1313 0.53929-0.85112 0.81071-0.90254 0.82032-0.15542 0.0272 2.1166-1.5934 2.1013-3.5994-0.03399zm-288.73-0.28353c0.18165-0.94325 1.102-1.8636 2.0453-2.0453 1.2385-0.23852 1.6232 0.1462 1.3847 1.3847-0.18165 0.94325-1.102 1.8636-2.0453 2.0453-1.2385 0.23852-1.6232-0.1462-1.3847-1.3847zm4.5275-8.8399c0-1.5528 5.2942-6.4904 6.9591-6.4904 2.1828 0 1.8157 1.2439-1.3423 4.5485-2.7895 2.919-5.6168 3.8965-5.6168 1.9419zm7.5-5.2391c0-0.88203-1.7527-0.09831-3.5732 1.5977-3.1464 2.9313-2.4369 4.0711 0.76072 1.222 1.5469-1.3783 2.8125-2.6472 2.8125-2.8197zm263.86 0.95557c-2.7044-2.9181-2.9452-4.3448-0.65836-3.9009 0.90235 0.17515 1.6455 1.0336 1.6515 1.9077 6e-3 0.87411 0.53333 2.1117 1.1719 2.7503 0.92299 0.92299 1.161 0.91903 1.161-0.01933 0-0.64918 0.42876-0.91534 0.95279-0.59147 1.0886 0.67282 0.33924 2.3343-1.0529 2.3343-0.50981 0-1.9615-1.1163-3.2259-2.4806zm-258.24-1.7683c0-0.75682 0.41621-1.376 0.92492-1.376 0.5087 0 1.5419-1.4766 2.2959-3.2812 0.93502-2.2378 1.9824-3.2812 3.2938-3.2812 2.4547 0 2.4201 0.86889-0.18653 4.6895-2.3846 3.4951-6.3281 5.5199-6.3281 3.2491zm6.5481-6.3532c0.0079-0.41715-0.40752-0.49772-0.92315-0.17905s-0.93104 1.2928-0.92315 2.1647c0.01519 1.6781 1.8136-0.25599 1.8463-1.9857zm244.3-0.34672c-0.53288-1.3887-0.76944-1.4372-1.4711-0.30196-0.45985 0.74406-1.1473 1.0416-1.5277 0.66123-0.38038-0.38038-0.18937-1.1938 0.42447-1.8077 0.86309-0.86309 1.4738-0.75836 2.6942 0.46206 0.86796 0.86797 1.339 1.8173 1.0466 2.1096-0.29232 0.29233-0.81724-0.21315-1.1665-1.1233zm-236.78-1.9677c0-0.40103 0.73828-1.3914 1.6406-2.2007 0.90234-0.80936 2.0687-2.2111 2.5918-3.115 0.60244-1.0409 1.787-1.523 3.2308-1.3149l2.2796 0.3285-3.0936 3.5156c-2.7466 3.1214-6.6493 4.7568-6.6493 2.7865zm6.0938-3.9584c0.93327-1.0312 1.2244-1.875 0.64703-1.875-0.57739 0-1.5014 0.84375-2.0533 1.875s-0.84307 1.875-0.64703 1.875 1.12-0.84375 2.0533-1.875zm217.53 1.9287c-0.99283-1.6064 0.18937-2.5943 2.9829-2.4925 3.4315 0.12499 3.5314 2.8008 0.11932 3.1956-1.3693 0.15846-2.7653-0.15795-3.1022-0.70312zm-4.209-4.6609c-0.57591-1.0761-0.65517-1.9553-0.17626-1.9553 0.96352 0 2.2937 2.8396 1.6376 3.4957-0.22817 0.22817-0.88575-0.46502-1.4613-1.5404zm-202.04-3.1272c0.76094-2.5617 3.0138-4.4531 5.3039-4.4531 2.3759 0 2.1172 1.1205-0.9336 4.0434-3.2779 3.1404-5.236 3.324-4.3703 0.40977zm5.582-3.3572c-0.55961-0.58544-4.2072 1.7822-4.2072 2.7308 0 0.52156 1.0134 0.19031 2.2519-0.73611s2.1184-1.824 1.9553-1.9947zm191.73 4.5291c1.836-1.1865 3.077-1.1865 2.3438 0-0.31867 0.51562-1.2928 0.93104-2.1647 0.92314-1.3662-0.01237-1.3909-0.13996-0.17904-0.92314zm-7.7458-2.5873c-0.90866-0.20192-1.4354-0.71774-1.1706-1.1463 0.26483-0.42852-0.36281-0.55832-1.3948-0.28846-1.0494 0.27444-1.8763 0.02934-1.8763-0.55618 0-1.6268 5.599-1.2679 6.239 0.39984 0.67799 1.7668 0.33999 2.066-1.7973 1.5911zm-178.07-5.1002c0.875-0.875 1.375-0.875 2.25 0s0.625 1.125-1.125 1.125-2-0.25-1.125-1.125zm159.04-0.21429c-2.4011-1.7671 0.40578-3.1561 3.0451-1.5069 1.4788 0.92403 1.4106 0.9816-0.52921 0.44676-1.5106-0.4165-2.0205-0.28014-1.5853 0.42398 0.79955 1.2937 4.9048 1.3662 5.6871 0.10044 0.31868-0.51562 0.0623-0.9375-0.56967-0.9375-0.632 0-0.92821-0.22087-0.65826-0.49082s1.2432-0.2021 2.1628 0.15078c1.5952 0.61215 1.5932 0.69921-0.045 1.8971-2.2291 1.63-5.2243 1.5965-7.5075-0.08382zm-145.23-2.3606c-0.24181-0.39126 0.11864-1.4749 0.801-2.4081 1.4327-1.9593 4.5794-1.2726 3.7749 0.82384-0.58447 1.5231-3.9035 2.6722-4.5759 1.5842zm136.38-1.356c0-1.5896 2.5354-2.7134 3.3066-1.4656 0.30477 0.49311 0.29337 1.3184-0.0253 1.8341-0.8663 1.4017-3.2812 1.1305-3.2812-0.36845zm-11.25-1.9008c0-1.5745 4.768-2.8166 7.4926-1.9519 3.2005 1.0158 0.96977 2.5963-2.9268 2.0737-2.0538-0.27548-3.4011-0.11854-3.1044 0.36161 0.28835 0.46658 0.0775 0.84832-0.46854 0.84832-0.54606 0-0.99283-0.59929-0.99283-1.3318zm-117.19-0.42845c0-0.45249 0.59526-1.3167 1.3228-1.9205 1.4691-1.2193 2.9718 0.16617 1.9585 1.8057-0.71396 1.1552-3.2812 1.245-3.2812 0.11479zm7.9434-0.15586c-0.92033-1.4891 1.4928-3.8356 3.6199-3.5198 2.805 0.4164 2.8743 2.1515 0.13563 3.3993-2.9375 1.3384-3.0016 1.3405-3.7555 0.12048zm3.9898-2.4007c-0.65615-0.65615-3.4957 0.67403-3.4957 1.6376 0 0.4789 0.8792 0.39965 1.9553-0.17626 1.0754-0.57554 1.7686-1.2331 1.5404-1.4613zm93.395 1.0643c0.33522-0.87358 0.6095-1.7648 0.6095-1.9804 0-0.21564 1.8984-0.39208 4.2188-0.39208 4.1851 0 5.7287 1.3235 2.5781 2.2106-6.0759 1.7107-8.017 1.7532-7.4064 0.16189zm-83.766-2.3037c0-1.0691 0.17644-1.9437 0.39207-1.9437 0.21565 0 1.0965-0.27032 1.9575-0.60071 1.2343-0.47366 1.4984-0.12869 1.2486 1.631-0.40671 2.8645-3.5981 3.6746-3.5981 0.9134zm70.841 0.9655c-0.73042-1.1819 1.8902-2.6172 5.5652-3.0482 2.2974-0.26942 2.8125 0.01356 2.8125 1.5452 0 2.0709-7.2256 3.3672-8.3777 1.503zm6.9715-1.0342c0-1.1908-2.8448-1.1908-4.6875 0-1.0671 0.68962-0.67146 0.91225 1.6406 0.92314 1.6758 0.0079 3.0469-0.40752 3.0469-0.92314zm-20.182-0.97875c-0.9183-1.4858 0.45996-2.7713 2.9714-2.7713 1.3722 0 2.215 0.45478 2.0058 1.0823-0.50159 1.5048-4.2954 2.7921-4.9772 1.6889zm-46.693-0.58375c-1.3277-1.3277-0.52983-2.2902 1.4844-1.7906 1.1602 0.2878 1.582 0.28107 0.9375-0.01494-1.8221-0.83686-1.3797-2.257 0.70313-2.257 2.0884 0 2.4752 1.8373 0.75 3.5625-1.2448 1.2447-2.9148 1.4602-3.875 0.5zm30.468-0.37076c-2.207-0.88457-2.3889-2.7912-0.33164-3.4769 0.6123-0.2041 1.1133 0.29687 1.1133 1.1133 0 0.81641 0.44677 1.4844 0.99283 1.4844s0.7321-0.42188 0.41342-0.9375 0.0332-0.9375 0.78187-0.9375c1.4571 0 2.7394 2.26 1.8098 3.1896-0.74897 0.74898-2.141 0.62218-4.7795-0.43535zm25.753-1.3534c-0.32653-0.85093 3e-3 -1.4009 0.83926-1.4009 1.5163 0 1.8612 1.465 0.53756 2.283-0.46159 0.28528-1.0812-0.1117-1.3768-0.88217zm-41.285-0.35684c-1.5692-0.61561-1.4348-0.84311 1.1242-1.9031 1.5986-0.66216 3.4553-0.98399 4.126-0.71518 0.67074 0.26881 0.2952 0.52205-0.83452 0.56276-1.1297 0.04071-2.3427 0.54108-2.6955 1.112-0.437 0.70707 0.031 0.82448 1.4683 0.36831s1.9053-0.33876 1.4683 0.36831c-0.7234 1.1705-2.0504 1.2295-4.6568 0.20696zm-62.816 280.2c2.4826 0.0204 4.2584-3.5058 3.6074-7.1631-0.49166-2.7619-0.38182-3.3647 0.46767-2.5663 0.61064 0.57388 1.1488 2.3998 1.196 4.0576 0.26711 9.3943 11.984 5.7078 11.984-3.7706 0-2.9724-5.6867-8.3421-8.8855-8.3902-1.6868-0.0253-1.7221-0.12982-0.32083-0.94732 1.0557-0.6159 2.3465-0.56727 3.9152 0.14748 8.4738 3.8609 11.36-13.462 3.3369-20.031-6.7992-5.5675-16.443 1.3826-11.935 8.6012 0.85619 1.371 0.85619 2.6289 0 5.4867-0.611 2.0393-1.1109 4.819-1.1109 6.1772 0 1.7978-0.48262 2.4694-1.7747 2.4694-2.4202 0-2.9128-1.7442-2.9128-10.312 0-11.289-1.8374-12.907-8.7871-7.7344-3.139 2.3362-3.4248 2.9133-3.0451 6.1502 0.90691 7.7327-3.1909 14.32-7.8894 12.682-4.8031-1.6744-5.2684-3.2182-2.1514-7.139 3.9094-4.9176 6.3191-11.273 4.9154-12.964-1.4828-1.7866-9.1791-1.6999-11.197 0.12614-4.6986 4.2522-8.0363-1.5305-3.7206-6.4459 1.5469-1.7618 2.8125-3.8069 2.8125-4.5447s-1.2656-2.554-2.8125-4.036c-3.2458-3.1097-3.6535-6.0494-0.9375-6.7596 1.0312-0.26968 1.875-1.0223 1.875-1.6724 0-5.3664 4.4196-3.3384 4.9709 2.281 0.63944 6.5175 6.1052 10.346 10.264 7.1898 2.286-1.7353 1.05-6.3189-4.4684-16.572-1.4805-2.7507 1.0241-8.3732 3.7299-8.3732 1.7344 0 4.1793 3.5938 4.1502 6.1008-0.13597 11.743 9.3436 22.68 10.15 11.712 0.27941-3.7984 3.1106-10.293 4.4848-10.287 2.299 8e-3 3.1768 1.5588 2.657 4.6916-2.1212 12.783 10.45 17.734 13.797 5.4341 0.60719-2.2314 1.2535-4.5844 1.4362-5.2289 1.0624-3.7469 3.4223-0.96532 2.9908 3.5251-0.54742 5.6972-2.126 7.602-7.6523 9.2337-9.4964 2.804-14.665-2.6101-12.404-12.993l0.71445-3.2812-1.9352 2.8125c-1.0898 1.5839-1.9379 4.319-1.9414 6.2612-0.0189 10.593-11.604 6.6348-13.332-4.5556-0.46337-3.0006-0.99822-6.4579-1.1885-7.6829-0.49615-3.1936-1.8397-4.217-3.2714-2.492-1.0054 1.2114-0.70124 2.6651 1.8225 8.7116 5.0284 12.048 4.8059 14.596-1.3756 15.756-5.3638 1.0063-10.637-4.0166-10.891-10.374-0.0632-1.5839-0.29955-2.0958-0.54101-1.1719-0.2358 0.90234-0.7142 1.6471-1.0631 1.655-3.031 0.0686-3.1489 1.8874-0.3305 5.0974 3.621 4.124 3.9903 9.8883 0.63361 9.8883-1.6463 0-2.6688 2.9697-1.3113 3.8087 0.60276 0.37252 2.5917 0.0523 4.4198-0.7115 5.5494-2.3187 12.36 0.28883 12.36 4.732 0 1.6982 0.35652 1.5681 3.1679-1.1568 8.2095-7.957 12.927-4.7993 12.912 8.6424l-0.01 8.5914 1.4111-5.1562c1.129-4.1253 1.1916-5.7813 0.31296-8.2826-2.6642-7.5847-0.60698-10.247 9.2382-11.957 8.0254-1.3936 8.9275-2.1434 13.278-11.037 2.977-6.0853 2.9916-5.9613-1.8338-15.521-1.5834-3.1366-3.475-5.7029-4.2036-5.7029-2.7333 0-5.3559-4.8042-4.7099-8.6278 0.65947-3.9034-0.68013-4.8533-2.3759-1.6847-0.55191 1.0312-1.5763 1.875-2.2764 1.875s-1.5158 0.63281-1.8126 1.4062c-0.58718 1.5302-2.4735 1.9427-2.4735 0.54086 0-0.47596 1.2656-2.131 2.8125-3.6779 3.6207-3.6207 3.9928-9.1122 0.70312-10.376-1.1602-0.4457-3.2913-1.9118-4.7358-3.258-5.4948-5.1208-12.842 2.7087-12.842 13.685 0 2.8301-0.36112 4.38-0.9375 4.0238-1.3802-0.85303-1.1402-8.0959 0.41426-12.502 1.841-5.218-3.322-10.586-7.5495-7.8498-1.5621 1.0112-2.487 10.169-1.2587 12.464 0.57524 1.0748 0.7964 2.2037 0.49149 2.5086-1.0165 1.0165-3.2875-3.02-3.3177-5.897-0.0955-9.0891-12.548-9.642-14.673-0.65141-0.33173 1.4037-1.333 3.3959-2.2251 4.4272-2.3655 2.7344-7.8798 13.533-7.2382 14.175 0.30127 0.30127-0.83642 2.517-2.5282 4.9239-1.6918 2.4069-3.3877 6.0552-3.7688 8.1074-0.38107 2.0522-1.2333 4.364-1.8939 5.1375-2.0484 2.3984-2.4496 6.0606-0.90554 8.2652 1.4216 2.0297 5.4375 2.803 6.4073 1.2339 0.91847-1.4861 12.991-0.75923 13.511 0.81346 0.38475 1.1647 0.21639 1.2015-0.98012 0.21422-1.062-0.8763-2.1118-0.93838-3.9635-0.23438-1.3854 0.52672-3.7268 0.95766-5.2033 0.95766s-3.279 0.5945-4.0056 1.3211c-0.72661 0.72661-2.3388 1.4653-3.5826 1.6416-1.8622 0.26388-2.226 0.80699-2.0605 3.0762 0.11052 1.5157-0.31135 3.3756-0.9375 4.1332-1.3762 1.6651-1.5002 5.9562-0.20095 6.9544 0.57929 0.44506 0.31063 1.0897-0.70312 1.6872-2.5146 1.482-1.9543 3.4684 1.1719 4.155 2.0952 0.46017 2.8125 1.1487 2.8125 2.6995 0 2.9844 1.7345 4.313 4.8242 3.695 2.3648-0.47296 2.6758-0.2661 2.6758 1.78 0 2.736 3.628 7.2943 5.8056 7.2943 2.4751 0 5.7765-7.8593 5.0941-12.127-0.58262-3.6436 1.8815-8.4981 4.3137-8.4981 0.55811 0 0.25918 0.8349-0.66431 1.8553-3.5618 3.9357-1.791 25.332 2.0965 25.332 0.44739 0 1.747 0.86972 2.888 1.9327 5.0532 4.7077 11.673-0.19558 12.917-9.5667 0.96609-7.2827 2.229-6.2822 1.9882 1.5751-0.21079 6.876-0.11093 7.2516 2.5321 9.5253l2.7516 2.367 2.4047-2.9252c1.3226-1.6088 2.8666-2.9214 3.4312-2.9167zm-28.52-63.947c-1.1386-1.8423-3.1054-3.6095-4.3707-3.927-1.8016-0.45217-5.3546-4.3053-3.97-4.3053 2.094 0 8.4626 4.3937 9.624 6.6397 2.176 4.208 1.1331 5.5024-1.2833 1.5926zm29.661-14.853c-0.2041-0.61231-1.5137-1.1133-2.9102-1.1133-1.5294 0-2.5391-0.51261-2.5391-1.2891 0-2.0745 4.4832-1.5476 5.668 0.66624 0.57554 1.0754 0.84526 2.1565 0.59939 2.4023-0.24588 0.24588-0.61405-0.0539-0.81815-0.66623zm-18.299 58.407c1.4064-2.408 1.6124-3.7718 0.97607-6.4623l-0.80647-3.4101-3.5202 5.9309c-2.6564 4.4755-3.2285 6.1192-2.3316 6.6985 2.0168 1.3025 3.8232 0.42598 5.6822-2.757zm-50.437-33.512c1.169-2.5822 2.8869-7.4338 3.8176-10.781 0.93075-3.3475 3.4953-9.1507 5.699-12.896 2.2037-3.7454 4.8253-8.6602 5.8257-10.922 4.4563-10.074 17.797-18.718 33.365-21.617 15.253-2.8407 25.83-10.596 25.83-18.939 0-0.73326 1.4831-3.6517 3.2959-6.4854 9.3562-14.626 19.387-22.094 35.142-26.166 3.3516-0.86603 10.734-3.3776 16.406-5.5812 21.796-8.468 36.073-10.493 55.867-7.9256 18.915 2.4538 29.712 7.3562 40.151 18.229 20.045 20.879 0.29339 42.681-29.654 32.734-6.3368-2.1048-9.6447-0.48931-9.6447 4.7102 0 3.4983 1.6846 7.9912 2.9963 7.9912 1.0525 0 4.5037 8.0097 4.5037 10.452 0 2.9473-4.8131 1.9564-6.3724-1.3119-0.67647-1.418-1.6256-2.5781-2.1091-2.5781-1.6851 0-5.8786-5.6323-9.2336-12.402-1.8583-3.7494-4.2805-7.2543-5.3828-7.7886s-4.2971-3.0358-7.0997-5.5589c-3.6388-3.276-6.6841-5.0608-10.652-6.2433-3.0561-0.9107-9.2683-2.9443-13.805-4.5192-11.723-4.0695-23.764-3.3614-32.356 1.9027-3.4264 2.0991-8.3109 11.012-10.489 19.139-2.1521 8.0307-2.9424 9.462-5.7092 10.34-2.6831 0.85158-0.53352 4.5723 2.2248 3.8509 4.3484-1.1371 6.0212 4.6173 2.6048 8.9606-2.7668 3.5175-3.1766 6.6357-1.5152 11.529 0.90137 2.6549 1.2728 5.6616 0.92701 7.5046-1.7218 9.1781 1.9237 8.3758 5.1242-1.1277 9.6031-28.516 13.08-32.373 32.451-35.994 22.416-4.191 45.5 7.3992 50.115 25.162 2.2864 8.8009 3.0046 10.556 4.3186 10.556 1.9575 0 1.6245 3.459-0.54145 5.625-5.0983 5.0983 3.1493 8.9223 10.102 4.6836 3.9983-2.4378 5.2946-5.7989 3.8148-9.8912-0.88792-2.4555-0.87432-3.4064 0.0649-4.5381 0.93675-1.1287 0.95302-2.1443 0.0769-4.799-3.4982-10.6 7.0373-13.772 21.812-6.5669 20.875 10.179 63.726-6.8816 75.305-29.982 8.0759-16.112 3.6318-25.326-6.7769-14.05-2.9783 3.2263-4.5531 4.2061-6.7604 4.2061-1.7484 0-3.6238 0.80095-4.7792 2.0412-2.604 2.795-3.3495 1.6479-0.92901-1.4293 1.3322-1.6936 2.8444-2.4869 4.7408-2.4869 1.9588 0 4.0934-1.1816 7.1976-3.9844 2.4271-2.1914 5.2183-4.428 6.2026-4.9702 3.2923-1.8136 5.4164-7.0041 4.7758-11.67-0.31855-2.3203-0.97429-8.2266-1.4572-13.125-1.5697-15.922-9.4227-38.738-15.924-46.267-10.117-11.715-18.818-18.842-28.551-23.387-8.7467-4.0846-10.37-3.0721-11.437 7.1342-0.60534 5.7917-4.4118 11.895-7.4186 11.895-0.72002 0-2.2027 0.89356-3.2948 1.9857s-3.0482 2.2698-4.3468 2.6171c-1.6655 0.44543-2.8312 1.834-3.957 4.7133-1.7942 4.589-4.354 6.9254-6.8713 6.2718-1.15-0.29859-1.9625 0.27195-2.5363 1.7811-1.4674 3.8597-5.1525 5.6499-7.9102 3.843-1.407-0.92193-2.5165-1.145-2.8678-0.57658-0.31513 0.50989-1.4742 0.92708-2.5757 0.92708s-3.1581 1.1069-4.5701 2.4597c-3.2085 3.074-8.203 2.5652-10.591-1.0788-1.7913-2.7339-3.161-2.8782-6.908-0.72771-8.0829 4.639-16.721-22.256-12.898-40.158 0.58902-2.7579 0.34479-3.9296-1.2761-6.122-1.1025-1.4912-2.3672-5.0053-2.8104-7.809-0.59573-3.7686-1.3781-5.4723-3.0008-6.5342-1.2072-0.79009-3.5478-2.6156-5.2012-4.0566-4.3824-3.8195-19.216-6.075-22.427-3.4101-3.0481 2.5297-3.261 4.2895-0.83542 6.9067 1.529 1.6499 2.3182 3.5959 2.3182 5.7165 0 2.6333 0.41717 3.3198 2.3054 3.7937 3.0039 0.75393 5.7191 5.4568 6.3422 10.985 0.55768 4.9478 5.4279 12.97 11.268 18.563 1.9368 1.8544 3.5214 4.2802 3.5214 5.3906 0 2.9682-1.5527 2.4586-2.188-0.71809-0.3292-1.646-1.3246-2.9838-2.497-3.3559-1.0723-0.34033-3.0705-2.3782-4.4404-4.5285s-3.2611-4.7902-4.2026-5.8664c-0.94149-1.0762-2.1703-4.6621-2.7307-7.9688-1.1758-6.9377-2.7047-9.8158-5.7131-10.755-2.4607-0.76808-3.5059-2.0716-3.5262-4.3979-0.0148-1.6879-0.7899-2.7764-6.1081-8.5781-8.4455-9.2133-50.156 0.10362-50.156 11.203 0 0.61372-2.123 4.0182-4.7177 7.5656-6.332 8.6568-6.4962 9.6639-2.7934 17.13 2.551 5.144 3.1807 7.7044 3.7137 15.101 0.97517 13.531 4.712 18.272 13.58 17.23 6.2047-0.72924 8.0297 1.2287 8.0297 8.6145 0 7.6917 8.9647 12.014 16.52 7.9646 4.208-2.2553 7.1836-2.467 8.7165-0.61993 0.59991 0.72284 2.1281 1.5746 3.396 1.8929 2.3511 0.59008 2.7637 2.0181 1.7144 5.9335-0.91803 3.4256-2.3653 2.4226-1.691-1.1719 0.50537-2.6939 0.33317-3.2812-0.96199-3.2812-0.86765 0-2.2104-0.63281-2.9838-1.4062-1.9527-1.9527-4.7102-1.7562-7.9748 0.56843-2.0016 1.4252-3.4765 1.7955-5.301 1.3307-1.3903-0.35416-4.1144-0.86563-6.0536-1.1366-4.9248-0.68817-7.2514-3.8981-7.2698-10.03-0.0199-6.6359-0.59514-7.2282-6.8227-7.0247-10.007 0.327-14.725-5.4975-14.726-18.18-6.1e-4 -5.5835-0.49622-7.8253-2.8125-12.721-4.0686-8.6004-3.787-11.536 1.9401-20.223 7.7626-11.774 4.1124-16.12-8.2463-9.8189-1.9055 0.97147-4.1136 1.7762-4.9069 1.7882-2.1488 0.03263-9.279 4.3948-18.036 11.034-11.769 8.9231-11.526 8.609-11.571 14.924-0.02869 4.0271-0.6066 6.4292-2.1459 8.9199-3.824 6.1873-3 23.217 1.0036 20.743 0.55139-0.34077 0.7364-0.18899 0.41113 0.33729-0.32526 0.52629 0.67614 3.2971 2.2253 6.1574 2.5672 4.7399 2.864 6.2249 3.3506 16.766 0.68183 14.771 0.87883 15.235 13.798 32.524 4.0033 5.3574 5.9814 5.923 11.522 3.294 4.6984-2.2296 4.9365-3.245 4.4578-19.018-0.49541-16.326 0.0753-19.096 4.8249-23.418 1.7866-1.6258 3.2484-3.3925 3.2484-3.9261s0.38227-0.73383 0.84949-0.44507c1.4452 0.89318-0.0576 4.3797-2.335 5.4173-4.0267 1.8347-5.0039 6.5548-4.6053 22.245 0.47042 18.518-1.0359 21.506-11.271 22.354l-4.8366 0.40109-5.231-7.3692c-2.8771-4.0531-6.3038-8.8458-7.6149-10.65-3.316-4.5644-5.2593-12.947-5.3163-22.931l-0.0484-8.4749-3.803-3.0469c-3.348-2.6824-4.4812-3.0469-9.4725-3.0469-5.9785 0-7.5708-0.80237-14.928-7.5217-8.5212-7.7829-28.166 16.791-20.129 25.18 1.3354 1.3938 4.4872 6.7452 7.004 11.892 4.0449 8.2715 7.6478 13.478 7.6893 11.112 0.0079-0.44985 0.35539-0.28055 0.7722 0.37621 0.41682 0.65677 3.089 1.5735 5.9381 2.0372 8.028 1.3066 14.647 6.4679 18.905 14.741 0.93988 1.8264 2.9742 3.61 5.2756 4.6254 2.0602 0.90894 5.0227 3.2416 6.5835 5.1837 2.2213 2.7641 4.0635 3.8751 8.4814 5.1147 3.104 0.87094 5.8854 1.9747 6.1809 2.4527 2.6908 4.3538-11.566-1.345-15.895-6.3538-3.9874-4.6131-6.2552-5.3213-6.2552-1.9533 0 2.6062-1.7078 4.1562-7.802 7.081-2.4864 1.1933-4.7316 2.719-4.9892 3.3905-0.50724 1.3218-5.7338 3.805-6.4666 3.0722-0.71093-0.71093 9.6331-8.6239 12.471-9.54 6.107-1.9714 6.2586-3.7069 0.9891-11.318-8.6344-12.471-10.735-14.14-18.954-15.063-7.3951-0.83-9.0543-2.3905-14.658-13.786-2.4667-5.0161-5.5326-10.459-6.8131-12.095l-2.3282-2.9749-3.2488 3.1887c-4.6509 4.5649-5.9561 10.664-3.8923 18.189 0.8485 3.0938 1.7628 6.6797 2.0319 7.9688 1.3399 6.4204 5.1039 8.7563 14.264 8.8524 6.8078 0.0714 8.2489 2.395 5.948 9.5903-1.8194 5.6893-1.2861 8.2783 2.7387 13.297 1.6792 2.0939 3.6883 4.7036 4.4645 5.7994 0.90898 1.2832 3.0781 2.2991 6.0938 2.854 4.7983 0.88291 9.7793 5.1326 9.7951 8.357 0.0037 0.77344-1.4964-0.38672-3.3338-2.5781-3.4302-4.0912-10.398-5.7872-12.147-2.9568-0.3493 0.56518-1.8703 0.84633-3.3799 0.62476-2.3363-0.34289-3.2761 0.23671-6.3144 3.8943-5.9734 7.1909-7.5385 13.125-4.3125 16.351 1.5781 1.5781 1.9297 7.1652 0.45089 7.1652-0.54526 0-0.70834-0.98422-0.3799-2.2928 0.35426-1.4115 7.78e-4 -3.1133-0.91964-4.4273-3.1942-4.5603-0.79895-12.215 6.331-20.233 2.2131-2.4887 0.9192-2.7369-2.8853-0.5534-2.961 1.6994-14.114-1.4184-15.043-4.2052-0.29526-0.88577 0.55663-0.79028 3.2093 0.35976 7.6814 3.3302 9.5539 3.6543 11.41 1.975 2.0221-1.83 4.2016-1.9863 6.6215-0.47505 5.9135 3.693 5.092-1.3299-1.4333-8.7639-3.8202-4.3522-4.5766-8.3323-2.7276-14.353 2.304-7.5021 0.96411-9.4008-5.9616-8.4483-8.0035 1.1008-11.243-1.2668-13.775-10.067-2.0231-7.0321-2.5559-6.8171-4.645 1.875-2.1657 9.0108-2.1517 14.381 0.05308 20.269 1.492 3.9847 1.5612 5.1455 0.54333 9.1171-1.075 4.1943-1.0078 4.7738 0.8569 7.3925 1.1128 1.5628 1.8763 3.5773 1.6966 4.4767-0.24722 1.2373-0.94815 0.72667-2.8802-2.098-2.8102-4.1086-3.0965-6.4243-1.4667-11.864 1.2292-4.1026-0.43622-10.182-2.0138-7.3512-1.4207 2.5491-3.9292 22.767-3.3628 27.103 1.9299 14.777 2.8374 19.8 4.3299 23.97 2.5877 7.2293 9.2292 19.216 15.328 27.663l5.5238 7.651 7.0043-6.8755c4.3796-4.2991 7.8007-8.6348 9.1297-11.57zm-3.5878-16.086c-0.34375-0.34375-0.61217-2.3476-0.59649-4.4531 0.03158-4.2407 1.1849-3.1575 2.1629 2.0312 0.5368 2.8482-0.12179 3.8665-1.5664 2.4219zm237.5-28.292c0-1.2218 3.269-3.8954 4.7613-3.8942 0.78101 6.8e-4 0.20514 0.97063-1.3915 2.3438-2.972 2.5559-3.3698 2.739-3.3698 1.5504zm8.9008-2.0291c-0.98982-1.6016 0.24848-2.2831 1.8034-0.99261 1.1349 0.94188 1.7519 0.55415 3.5383-2.2236 1.6279-2.5313 3.5092-3.8604 7.5974-5.3673 6.01-2.2153 9.0975-5.3381 9.0975-9.2014 0-1.3974 0.7715-3.239 1.7144-4.0923 2.3507-2.1273 3.6364-1.9634 1.6672 0.21256-0.87808 0.97027-2.0088 3.2574-2.5127 5.0825-1.1818 4.28-5.675 9.0869-8.5106 9.1047-3.3497 0.021-6.5752 2.0208-8.2946 5.1424-1.5993 2.9036-4.9551 4.1881-6.1004 2.335zm-16.401-5.9669c0-4.2736 9.8052-10.899 16.13-10.899 1.6458 0 3.4168-0.70389 4.1279-1.6406 0.68499-0.90234 1.2588-1.1649 1.2752-0.58353 0.0516 1.8278-2.5018 3.2614-6.453 3.6231-3.9964 0.3658-13.205 6.9723-13.205 9.4737 0 0.66229-0.42188 1.4649-0.9375 1.7836-0.5292 0.32707-0.9375-0.43809-0.9375-1.7569zm9.2472-17.931c2.6236-1.8047 5.108-3.2812 5.521-3.2812 3.7834 0 13.268-10.074 13.324-14.152 0.0183-1.3381 0.8611-3.182 1.8729-4.0977 2.3864-2.1596 4.1198-7.4779 3.3878-10.394-0.63154-2.5162 0.78945-3.1928 1.7034-0.81103 1.0698 2.788 0.56809 4.7988-2.2264 8.9229-1.5375 2.269-2.8031 5.1024-2.8125 6.2965-0.03 3.8137-5.3996 11.423-8.0609 11.423-0.62181 0-1.3571 0.59034-1.634 1.3119s-2.115 1.8373-4.0847 2.4796c-1.9697 0.64222-4.7738 2.1612-6.2313 3.3756s-3.2978 2.2079-4.0896 2.2079 0.70702-1.4766 3.3306-3.2812zm12.379 2.1763c-0.09-2.2329 2.4928-4.5201 5.1044-4.5201 2.3804 0 3.8644 1.3968 2.4275 2.2848-0.47999 0.29665-1.0329 0.0589-1.2286-0.52838-0.54737-1.6421-4.0885-0.12016-5.2317 2.2486-0.76257 1.58-1.0236 1.7055-1.0716 0.51509zm-8.501-21.315c1.2891-1.0521 2.6439-1.9223 3.0107-1.9338 1.0768-0.0337 2.8009-7.5871 2.241-9.8179-1.4213-5.663-10.885-15.303-18.157-18.496-4.7719-2.095-7.6148-3.9732-8.6916-5.7422-1.565-2.571-1.8039-2.6328-10.861-2.8125-8.4432-0.16747-9.7744-0.45263-15.082-3.2306-6.2631-3.2783-11.6-3.9028-17.067-1.997-2.3769 0.82859-4.3535 0.72372-9.3782-0.49753-6.8593-1.6672-9.9285-1.1733-13.671 2.2-7.4626 6.7258-21.783 1.5226-31.406-11.411-5.2751-7.0899-6.8923-8.5816-12.038-11.104-4.6098-2.2598-6.2408-3.6238-7.2656-6.0766-1.542-3.6906-1.8576-10.191-0.384-7.9105 0.49984 0.77344 0.91525 2.2986 0.92315 3.3892 0.0208 2.8786 3.4178 6.7534 7.3666 8.4029 4.4416 1.8554 7.3421 4.6971 13.96 13.677 8.8341 11.987 20.993 15.548 28.671 8.3958 2.2909-2.1338 3.3438-2.4288 7.9688-2.2329 7.3762 0.31247 16.53 0.33894 22.788 0.0659 4.3127-0.18816 5.9323 0.20422 8.9062 2.1577 8.6473 5.6802 25.666 6.5575 25.666 1.3229 0-0.72486 0.43182-1.5848 0.95962-1.911 0.62998-0.38935 0.75075 0.71299 0.3516 3.2091-0.69076 4.3198 2.7388 8.6525 7.8162 9.8746 16.995 4.0905 27.249 29.973 13.373 33.753l-2.3438 0.6384 2.3438-1.9129zm-215.03-11.872c-1.475-1.297-3.8398-2.5899-5.2552-2.873-1.4154-0.28309-4.1876-1.9507-6.1604-3.7058s-4.0625-3.1911-4.6437-3.1911c-0.58122 0-1.8757-0.66308-2.8766-1.4735-1.7267-1.3982-1.664-1.4473 1.2271-0.96093 3.5548 0.59803 3.4545 1.005 1.5618-6.3365-1.3162-5.1056-5.0842-11.766-7.148-12.635-0.40807-0.17188-0.72465-1.0156-0.7035-1.875 0.08715-3.5417 7.1753 6.2663 8.8445 12.238 2.8588 10.228 5.8746 14.749 10.805 16.197 1.2891 0.37864 3.6867 1.6942 5.3281 2.9234s3.4094 2.2349 3.929 2.2349 1.2054 0.42187 1.5241 0.9375c1.2037 1.9476-3.8587 0.78262-6.4318-1.48zm65.872-1.5018c-0.61719-1.1532-1.9252-2.7471-2.9066-3.5419-1.8734-1.5171-4.0085-8.8758-3.0332-10.454 0.31269-0.50596 0.8806-3.7485 1.262-7.2056 0.67373-6.1066 0.72653-6.206 1.8532-3.4894 0.95413 2.3007 0.89963 3.6299-0.30753 7.5-1.7716 5.6796-0.73424 10.769 2.6463 12.984 2.3291 1.5261 3.7599 4.9731 2.4104 5.8071-0.44135 0.27277-1.3074-0.44763-1.9246-1.6009zm168.95-4.6378c-0.0598-0.8392-0.74156-2.051-1.515-2.6929-2.0558-1.7062-1.7266-5.0469 1.0139-10.288 1.6137-3.0862 2.205-5.3063 1.7746-6.6626-0.43643-1.3751-0.30932-1.8263 0.39233-1.3927 1.5813 0.97732 1.2332 5.3539-0.67621 8.4996-2.5312 4.1701-2.9271 6.68-1.3981 8.863 0.7524 1.0742 1.1766 2.6835 0.94262 3.5763-0.36381 1.3883-0.44112 1.4024-0.53413 0.0973zm-219.48-2.1129c0-0.71224 1.477-2.4215 3.2822-3.7985 5.1573-3.9336 6.4477-7.2692 5.6227-14.534-0.3843-3.3845-0.83692-9.1913-1.0058-12.904-0.19447-4.2749-1.0601-8.501-2.3605-11.524-3.5179-8.1775-0.99586-23.379 4.7398-28.57 2.6089-2.361 2.4018-1.3443-0.928 4.5558-4.2318 7.4983-4.696 14.961-1.5056 24.204 1.5544 4.5034 2.2592 8.1105 1.9182 9.8159-0.29658 1.4829 0.12602 6.2031 0.93909 10.489 1.9556 10.309-0.27723 17.426-6.514 20.764-1.2722 0.68089-2.3132 1.5886-2.3132 2.0171 0 0.42849-0.42187 0.77908-0.9375 0.77908-0.51562 0-0.9375-0.58274-0.9375-1.295zm42.188-9.1101c0-0.56656-1.3102-2.254-2.9116-3.75-3.2826-3.0664-2.3476-3.7082 1.2637-0.86749 2.3875 1.878 4.0546 5.6476 2.4977 5.6476-0.46735 0-0.84973-0.46356-0.84973-1.0301zm164.68-15.708c-5.913-5.3548-8.2643-6.1362-13.278-4.4127-3.5278 1.2128-3.9865 1.1352-9.1391-1.5464-3.67-1.91-6.3292-2.6906-8.2203-2.4131-1.5375 0.22566-2.7954 0.0615-2.7954-0.36485 0-1.5269 7.5037-0.74523 10.524 1.0964 3.4612 2.1103 7.0247 2.3856 10.483 0.80978 3.1394-1.4304 7.0308 0.21456 12.955 5.4763 5.1566 4.5798 8.7434 5.2131 11.595 2.0473 3.5687-3.9617 9.7547-4.1274 9.7547-0.26121 0 1.2813-0.16255 1.2777-1.4732-0.033-2.116-2.116-3.4484-1.8412-6.4955 1.3393-4.1472 4.3288-7.7025 3.8846-13.911-1.7378zm25.49-4.9978c-2.2364-0.77225-3.1907-2.2451-4.899-7.5612-0.28996-0.90234-1.2903-1.6406-2.223-1.6406-2.7571 0-5.863-2.7363-5.863-5.1653 0-5.4247-2.227-7.5753-7.3691-7.1163-2.522 0.2251-5.7559-2.2912-5.7559-4.4785 0-1.0714 0.39537-0.90507 1.4594 0.61405 1.1098 1.5845 2.4011 2.087 5.3906 2.098 5.2603 0.01921 6.3104 0.85858 7.6438 6.1101 0.96797 3.8122 1.5859 4.6124 4.2452 5.4968 3.3178 1.1033 4.2571 2.2875 5.144 6.4846 0.37737 1.7858 1.4929 3.0305 3.4556 3.8558 3.4231 1.4393 2.3775 2.5479-1.2287 1.3027zm-115.94-3.8794c-1.8334-4.1447-9.0569-10.947-11.625-10.947-2.2964 0-6.2682-3.6487-8.2937-7.619-1.3907-2.726-2.6292-3.8409-4.7343-4.2619-6.3861-1.2772-9.2675-5.7106-9.2675-14.259 0-7.6105-0.0107-7.644-3.0469-9.4952l-3.0469-1.8577 2.525-0.0035c4.205-0.0058 5.5833 3.0693 4.8757 10.878l-0.60384 6.6636 3.2986 2.632c1.8142 1.4476 4.7092 3.0897 6.4332 3.6491 2.4072 0.78109 3.6288 2.0589 5.2645 5.5071 1.756 3.7018 2.9103 4.8229 6.5747 6.3862 6.5652 2.8008 18.391 16.78 14.195 16.78-0.41624 0-1.5635-1.8236-2.5494-4.0525zm-55.851-28.368c-0.31298-0.81561-0.57063-2.6086-0.57256-3.9844-4e-3 -2.9001-3.202-8.5952-4.8265-8.5952-0.60914 0-0.88666-0.22087-0.61671-0.49082 2.1456-2.1456 5.7974 3.2876 6.7886 10.1 0.64707 4.4472 0.3023 5.7721-0.77291 2.9702zm63.309 161.39c2.3496-8.6458 2.9159-9.9056 5.6575-12.586 1.5765-1.5413 4.0838-3.3067 5.5719-3.923 4.0699-1.6858 3.434-5.8231-1.7495-11.384-1.5316-1.6431-2.1341-3.0875-1.7286-4.1441 1.1813-3.0783-3.6995-11.137-7.8897-13.026l-3.7627-1.6968-4.9101 3.273c-2.7005 1.8001-6.0187 3.952-7.3737 4.7818-1.8503 1.1332-2.6224 2.5671-3.101 5.7591-0.35055 2.3376-1.0349 4.496-1.5207 4.7962-2.0369 1.2589-0.61807 2.3103 3.1178 2.3103 12.201 0 18.002 16.366 11.466 32.344l-2.3012 5.625 3.7448-4.1603c2.0596-2.2882 4.2106-5.8741 4.7798-7.9688zm26.573-41.496c-0.77411-1.8527-2.4376-4.3986-3.6966-5.6577-8.8782-8.8782-1.2954-19.932 11.062-16.126 28.782 8.8655 43.736-11.905 22.419-31.139-17.425-15.722-56.401-19.273-84.61-7.7079-9.2522 3.7932-12.87 5.06-22.5 7.8796-16.471 4.8226-32.185 17.973-35.567 29.766-2.011 7.012 5.1766 18.163 10.647 16.517 2.8317-0.85204 3.1319-1.2967 4.3677-6.4702 4.2356-17.733 9.6867-23.918 24.048-27.289 13.357-3.1347 38.824 3.4629 47.946 12.421 1.2227 1.2007 4.224 3.709 6.6695 5.5739 3.472 2.6478 5.2053 5.0122 7.9095 10.789 2.2662 4.8413 4.5657 8.2393 6.6531 9.8315 1.7545 1.3382 3.4478 3.2456 3.763 4.2385 0.31515 0.99297 0.96073 1.5658 1.4346 1.2729 0.4931-0.30475 0.25964-1.9733-0.54582-3.901zm-106.39-12.393c0-1.0676 6.3565-2.469 7.2312-1.5943 0.31971 0.31971-0.36051 0.58129-1.5116 0.58129-1.1511 0-2.9089 0.43672-3.9062 0.97048-1.1679 0.62506-1.8134 0.64018-1.8134 0.0425zm-2.4796-3.6057c0.95798-1.5501 5.9513-2.3483 7.8344-1.2524 1.4334 0.83415 1.2686 0.9816-1.1361 1.0169-1.5469 0.0227-3.8277 0.31293-5.0685 0.64493-1.5006 0.4015-2.0463 0.2644-1.6299-0.40942zm-0.33291-4.7539c0-1.082 5.7389-2.9522 9.0853-2.9607 3.7761-0.01 3.1098 1.6134-0.90377 2.2014-2.1795 0.31929-4.912 0.84638-6.0722 1.1713-1.241 0.34758-2.1094 0.17798-2.1094-0.41198zm94.658-3.7376c-1.3051-0.86464-5.2746-3.6609-8.8211-6.214-3.5465-2.553-9.8616-6.0182-14.033-7.7003-19.19-7.7375 15.106-17.927 37.415-11.116 14.449 4.4115 13.41 25.343-1.1135 22.438-2.1201-0.42402-3.4358 0.0126-5.6481 1.874-3.3144 2.7889-4.5069 2.8986-7.7988 0.71765zm7.2416-3.5096c2.6927-1.8273 4.259-2.2725 6.5099-1.8502 3.2408 0.60797 9.7151-5.3903 9.7151-9.0008 0-8.7586-32.687-13.343-48.021-6.735-3.4203 1.4738-3.9507 3.1172-1.0061 3.1172 2.9528 0 14.946 6.612 21.2 11.688 7.4038 6.0092 6.9913 5.9103 11.603 2.7808zm24.428 3.1315c-2.4492-0.51045-4.4531-1.3495-4.4531-1.8645 0-0.53321 0.70641-0.63527 1.6406-0.23705 0.90235 0.38463 5.4375 0.93032 10.078 1.2126 6.0925 0.37065 7.6558 0.69444 5.625 1.165-3.8731 0.8975-7.647 0.81665-12.891-0.27618zm-125.39-2.8346c-5e-3 -0.96257 6.5918-0.76599 8.903 0.26534 1.3236 0.59061 0.2906 0.77802-3.5123 0.63723-2.963-0.10969-5.3888-0.51585-5.3906-0.90257zm12.046-2.0916c-0.24803-0.24802-2.4337-0.56443-4.8571-0.70312s-4.2946-0.67404-4.1584-1.1897c0.13623-0.51563 1.0914-0.88221 2.1227-0.81463 1.0312 0.0676 2.7188 0.17951 3.75 0.24874 2.2448 0.15068 4.8431 1.6603 4.1135 2.3899-0.28586 0.28584-0.72266 0.31679-0.97069 0.0687zm114.51-3.0956c0-0.5255 2.3533-0.87578 5.3906-0.80239 2.9648 0.0716 6.8672-0.23059 8.6719-0.67163 2.7423-0.67019 3.0819-0.59403 2.0676 0.4637-1.4627 1.5252-16.13 2.4439-16.13 1.0103zm-116.72-3.0578c-2.5781-0.92551-3.9357-1.7166-3.0168-1.7579 1.8657-0.0839 8.173 2.3534 8.173 3.1582 0 0.28413-0.10547 0.4639-0.23438 0.39951-0.1289-0.0644-2.3438-0.87434-4.9219-1.7998zm4.2188-2.0946c-2.7606-1.2946-3.6734-2.097-2.6411-2.3214 1.6878-0.36682 6.8269 1.9502 7.7932 3.5137 0.8267 1.3376-0.32668 1.0707-5.1521-1.1923zm4.497-3.3767c-2.4251-1.8285-4.2579-3.4759-4.073-3.6609 0.46753-0.46753 7.7117 4.1775 8.4972 5.4484 1.2541 2.0292-0.0741 1.4926-4.4243-1.7876zm109.88 2.5832c2.3203-0.54297 6.2227-1.77 8.6719-2.7266 2.4492-0.95669 4.4531-1.3466 4.4531-0.86648 0 1.4609-6.5163 3.7001-12.085 4.1528l-5.2586 0.42753 4.2188-0.98721zm-103.32-5.0362c-1.9092-1.7754-3.0946-3.4607-2.6342-3.7453 0.92634-0.57251 7.5118 4.8485 7.5118 6.1836 0 1.5155-1.353 0.83912-4.8776-2.4383zm7.2046-3.3011c-2.0047-2.053-3.2202-3.7328-2.7011-3.7328 1.2147 0 7.4273 6.3844 6.8117 7-0.25607 0.25608-2.1058-1.2142-4.1106-3.2672zm7.2597 0.14032c-3.1678-3.9419-3.5647-4.8106-2.1979-4.8106 1.2156 0 5.929 6.4531 5.5481 7.5959-0.17928 0.53784-1.6868-0.71554-3.3501-2.7853zm11.038 2.3795c0-0.68606-1.0402-3.3021-2.3116-5.8134s-2.1612-4.7165-1.9773-4.9004c0.58417-0.58418 3.9605 4.8072 5.083 8.1166 1.3106 3.864 1.3099 3.8445 0.14339 3.8445-0.51563 0-0.9375-0.56131-0.9375-1.2474zm70.312 0.47578c0-0.4711 1.6007-1.0712 3.5571-1.3336 1.9564-0.26242 5.4106-1.3726 7.6761-2.4672 4.7039-2.2727 4.7043-2.2728 4.7043-1.168 0 1.0777-7.946 4.4041-12.422 5.2002-1.9534 0.34741-3.5156 0.24464-3.5156-0.2313zm-64.213-6.7101c-0.85562-2.5761-1.9453-4.9246-2.4215-5.2188-1.0817-0.66854-1.1376-2.2994-0.0788-2.2994 1.4626 0 6.0684 10.958 4.9074 11.676-0.46825 0.2894-1.5514-1.5815-2.4071-4.1576zm65.206-1.8508c2.8052-2.5547 5.5223-4.648 6.0379-4.6518 0.51562-4e-3 -1.3068 2.0865-4.0498 4.645s-5.4601 4.6518-6.0379 4.6518c-0.57785 0 1.2445-2.0902 4.0498-4.645zm-59.264-0.79845c-0.7884-2.4202-1.773-5.2441-2.1879-6.2754-0.56909-1.4144-0.48276-1.6257 0.3514-0.86026 1.6051 1.4728 4.888 10.536 4.0124 11.077-0.40836 0.25237-1.3875-1.5213-2.1759-3.9415zm7.0124-1.8222c-0.59261-2.4492-1.35-5.2969-1.6832-6.3281s0.20246-0.39844 1.1902 1.4062c1.9667 3.5934 3.3621 9.375 2.2626 9.375-0.38071 0-1.1771-2.0039-1.7697-4.4531zm5.5019 1.5371c-0.0994-1.346-0.44626-4.5101-0.77092-7.0312-0.451-3.5024-0.329-4.3403 0.5171-3.5512 0.70399 0.65652 0.9848 3.2178 0.77091 7.0312-0.18505 3.2992-0.41775 4.8973-0.51709 3.5512zm36.382 0.10353c0-0.51563 0.36749-0.9375 0.81666-0.9375 0.44915 0 1.8202-1.4737 3.0469-3.2748 2.481-3.6432 4.3109-4.4677 2.6148-1.1783-2.2398 4.3438-6.4783 7.8707-6.4783 5.3906zm-29.258-4.4531c0.45894-7.124 0.9066-7.7387 1.0241-1.4062 0.0598 3.2227-0.21069 5.8594-0.60113 5.8594s-0.58079-2.0039-0.423-4.4531zm23.507 0.9375c0.94548-1.9336 2.1758-4.5703 2.734-5.8594 0.86995-2.0089 1.0211-2.0758 1.0578-0.46875 0.0575 2.5129-3.3255 9.8438-4.5426 9.8438-0.53258 0-0.19476-1.5819 0.75075-3.5156zm-16.749 1.4902c0-3.384 1.2438-10.162 1.8648-10.162 0.92181 0-8e-3 9.6271-1.0373 10.734-0.50534 0.54387-0.82754 0.32105-0.82754-0.57227zm7.5 0.25305c0-2.3751 2.1275-9.4776 2.8389-9.4776 0.40774 0 0.1734 2.153-0.52077 4.7845-1.251 4.7422-2.3182 6.9028-2.3182 4.6932zm132.75-5.4738c-0.95299-0.95298-1.7393 0.48178-0.95739 1.7469 0.59065 0.95571 0.81148 0.95645 1.129 4e-3 0.21712-0.65136 0.13988-1.4392-0.17164-1.7507zm-288.07-26.621c-5.0447-8.5758-5.3941-15.053-1.2729-23.598 8.1746-16.949-8.7216-10.423-22.308 8.6176l-4.2975 6.0224 2.2643 1.4907c1.2454 0.81987 4.14 3.1087 6.4326 5.0863 5.0938 4.3941 7.3721 5.3106 13.201 5.3106 3.0589 0 5.2389 0.58072 6.7358 1.7943 3.2581 2.6414 3.1389 1.8958-0.7553-4.7241zm173.7-5.991c1.7005-1.297 3.6388-2.2463 4.3072-2.1094 0.91167 0.18669 1.3533-2.34 1.7672-10.111 0.30347-5.6978 1.0273-11.182 1.6085-12.188 1.1024-1.9068 0.96796 2.2293-0.37149 11.431-0.6191 4.2533 1.4804 10.082 3.9766 11.04 1.7803 0.68317 5.0159-1.0097 5.0159-2.6243 0-1.7717 3.4456-4.6299 4.6695-3.8734 1.5238 0.94173 3.556-1.1141 5.5441-5.6085 1.2776-2.8883 2.4731-4.1461 4.4003-4.6298 1.4553-0.36527 3.2162-1.4781 3.913-2.473 0.69682-0.99486 2.0078-1.8088 2.9134-1.8088 4.2962 0 6.8639-4.9519 7.2341-13.951l0.34898-8.4832-3.0273-2.1775c-1.665-1.1976-4.293-2.6536-5.8398-3.2354-1.5469-0.58184-5.415-2.1509-8.5957-3.4868-5.4156-2.2745-21.407-6.825-33.123-9.4254-2.8359-0.62946-7.2656-1.886-9.8438-2.7924-13.769-4.8404-22.419-1.4664-18.75 7.3136 0.77344 1.8511 1.4078 4.5393 1.4098 5.9739 2e-3 1.4345 0.84567 3.9895 1.875 5.6778 2.0903 3.4285 2.3894 7.8212 0.83588 12.278-0.82895 2.3779-0.7354 3.6034 0.46875 6.141 0.88831 1.872 1.5044 5.5995 1.5044 9.1024 0 12.237 5.5755 21.657 10.794 18.237 3.3094-2.1684 5.3562-1.834 8.1312 1.3285 3.0083 3.4283 4.8124 3.5211 8.8332 0.45424zm43.538 414.95c-1.8979-3.5462-1.1812-13.851 1.333-19.165 7.3224-15.478 17.621-19.926 47.839-20.659 16.969-0.41209 38.681-2.6998 54.686-5.7621 18.189-3.4802 23.82-16.854 17.553-41.689-5.3969-21.385-4.3646-36.517 3.2585-47.763 6.3304-9.3386 6.2312-13.555-0.40925-17.394-2.4876-1.438-0.9865-3.4992 4.3948-6.0349 9.4195-4.4385 12.278-10.014 9.657-18.839-4.1172-13.864 1.8134-23.54 15.197-24.794 25.771-2.4138 30.09-12.722 12.85-30.667-4.6406-4.8304-13.289-14.454-19.219-21.386s-13.523-15.585-16.875-19.23c-14.667-15.949-16.22-18.282-16.714-25.121-0.2408-3.3291 0.0175-5.8888 0.6592-6.5304 0.58037-0.58037 1.0552-1.5931 1.0552-2.2505s1.3711-4.0535 3.0469-7.5469c9.5632-19.936-12.437-87.87-38.185-117.91-1.3257-1.5469-5.0361-5.9663-8.2453-9.8209-30.769-36.957-54.789-51.627-104.27-63.681-41.102-10.013-98.205-8.2791-133.98 4.0679-17.898 6.1777-29.475 11.143-37.809 16.216-5.033 3.0638-11.682 6.9821-14.776 8.7073-14.604 8.1443-32.523 23.981-44.347 39.194-2.937 3.7788-8.1883 10.529-11.67 15-19.08 24.507-27.63 42.149-33.241 68.598-2.2018 10.378-2.7152 48.603-0.7815 58.182 2.2846 11.317 12.669 40.312 16.432 45.881 0.87117 1.2891 3.3681 6.1185 5.5487 10.732 9.6966 20.516 16.373 29.914 28.684 40.38 7.8381 6.6635 7.4758 6.2032 9.8824 12.553 1.0572 2.7895 2.7762 6.2711 3.8199 7.7368s3.4502 5.5583 5.3477 9.0945c1.8975 3.5363 5.6965 10.527 8.4422 15.536 5.9507 10.855 6.3077 12.909 6.1191 35.217-0.13978 16.538-0.40546 18.622-5.3777 42.188-4.1627 19.729-17.661 64.24-20.303 66.954-2.375 2.4386-1.4259-3.1176 2.4717-14.469 7.6749-22.352 13.374-42.689 15.76-56.235 0.77179-4.3828 2.063-11.344 2.8694-15.469 5.3882-27.563-2.3885-65.576-15.729-76.882-1.054-0.89332-2.3944-3.5217-7.0084-13.743-1.3911-3.0816-4.3487-6.4502-10.005-11.395-10.498-9.1778-16.605-16.005-15.918-17.794 0.29592-0.77114 0.02221-1.7209-0.60824-2.1105-0.78129-0.48286-0.90477-0.31769-0.38781 0.51877 0.50517 0.81739 0.39254 1.001-0.3373 0.54999-1.3745-0.8495-5.1101-8.0714-4.4937-8.6877 0.25082-0.2508-0.36795-1.28-1.375-2.2871-1.0071-1.0071-1.6021-2.2015-1.3223-2.6543 0.27983-0.45278 0.06131-0.97239-0.48561-1.1547s-1.0868-0.95662-1.1997-1.7207c-0.40155-2.7174-2.7345-7.4519-3.4532-7.0077-0.93845 0.58-2.0426-2.241-1.329-3.3956 0.29781-0.48187 0.02374-0.7602-0.60905-0.61853-1.4082 0.31531-3.9466-5.7064-13.525-32.086-6.8494-18.863-7.8112-66.941-1.7818-89.062 4.5185-16.578 16.891-40.282 28.817-55.21 2.665-3.3358 5.4782-6.9873 6.2517-8.1144 4.0162-5.8526 12.831-17.194 15.378-19.785 1.5966-1.6243 4.6958-4.8592 6.8872-7.1887s3.9908-3.9536 3.9987-3.6092c0.0079 0.34439 0.3243 0.19036 0.70312-0.3423 2.6118-3.6724 19.881-16.496 32.445-24.092 61.477-37.17 156.95-42.128 224.91-11.681 2.6902 1.2051 6.3679 2.7674 8.1726 3.4716 1.8047 0.70421 4.7578 2.162 6.5625 3.2395s4.8925 2.7909 6.8619 3.8076c8.3125 4.2912 34.312 29.32 44.957 43.278 12.638 16.571 15.154 20.479 21.533 33.452 1.4893 3.0285 3.7847 7.2123 5.1009 9.2973 3.4058 5.3952 12.931 28.863 14.349 35.353 0.3943 1.8047 2.0688 8.5141 3.7211 14.91 4.0685 15.748 4.2934 25.719 0.74405 32.974-1.3681 2.7966-3.5179 7.8269-4.7773 11.178l-2.2898 6.0938 1.8571 3.9376c1.0214 2.1657 5.7226 8.0952 10.447 13.177 12.367 13.302 16.273 17.71 23.103 26.072 3.3417 4.0913 10.985 12.768 16.985 19.283 11.636 12.634 12.849 14.961 11.54 22.14-1.637 8.9767-11.839 14.875-27.298 15.78-9.6384 0.56469-13.554 6.9604-10.575 17.273 3.8089 13.186 1.5173 19.108-9.6179 24.856-3.7363 1.9284-4.3476 3.0027-2.1818 3.8338 5.1284 1.968 4.7928 10.853-0.66276 17.545-7.9219 9.7175-9.6453 19.749-6.2293 36.259 4.8363 23.374 5.6339 35.832 2.6529 41.437-2.1123 3.9715-8.6218 11.064-11.448 12.474-6.3482 3.1669-58.86 9.5092-68.943 8.3269-22.472-2.6347-42.411 11.477-42.484 30.067-0.0287 7.3152-0.90535 9.405-2.6096 6.2206zm-227.86-11.55c0-0.8535 0.3556-1.7716 0.79023-2.0402 0.43463-0.26861 1.8057-3.8773 3.0469-8.0194 1.2412-4.142 2.573-7.5331 2.9598-7.5357 1.2277-8e-3 0.77131 2.5044-1.7346 9.5488-2.516 7.0726-5.0623 11.12-5.0623 8.0465zm67.5-8.4438c0-0.3266 1.7004-5.1571 3.7788-10.734 4.4476-11.935 9.0417-31.08 10.307-42.953 1.1994-11.251 2.5942-16.085 2.7052-9.375 0.16629 10.046-5.4265 35.49-11.277 51.302-3.418 9.238-5.5148 13.71-5.5148 11.761zm8.4375-4.2716c0-0.40721 1.2232-4.7314 2.7182-9.6094 1.495-4.8779 3.2623-11.084 3.9272-13.791 0.66494-2.707 1.5795-4.9219 2.0324-4.9219s0.60919 0.73828 0.34732 1.6406c-0.26187 0.90235-0.95432 3.5391-1.5388 5.8594-2.5304 10.046-7.4864 23.83-7.4864 20.822zm-15.814-18.01c-0.0243-0.77344 0.53495-3.7266 1.2427-6.5625s1.3145-4.3125 1.3484-3.2812c0.0339 1.0312-0.52531 3.9844-1.2427 6.5625s-1.3242 4.0547-1.3484 3.2812zm-50.749-0.52853c0-0.41697 0.82296-3.7382 1.8288-7.3804 7.9559-28.809 8.5835-97.117 1.0428-113.5-0.47476-1.0312-1.7686-4.4062-2.8752-7.5-2.5765-7.2032-6.7307-14.456-11.952-20.866-2.2736-2.7913-3.8861-5.3228-3.5833-5.6256 1.5844-1.5845 16.477 17.728 16.477 21.367 0 0.88834 0.68721 3.2487 1.5271 5.2453 6.5362 15.537 10.064 46.025 7.9854 69.012-1.7072 18.881-2.1725 31.741-1.0142 28.031 1.4955-4.7893 2.2484-2.6873 0.83966 2.3443-0.94314 3.3686-1.3796 3.9871-1.8558 2.6298-0.41687-1.1884-0.84161-0.0794-1.2855 3.3567-1.1234 8.695-4.378 21.355-5.7915 22.528-0.73849 0.61289-1.3427 0.7732-1.3427 0.35624zm22.147-11.659c0.30015-2.3203 0.95403-4.6406 1.4531-5.1562 0.91265-0.94297 0.37981 2.0957-1.233 7.0312-0.50735 1.5527-0.58165 0.91979-0.22011-1.875zm55.939-12.656c0.95971-3.7138 3.4667-16.044 4.289-21.094l0.83952-5.1562 0.11136 4.8856c0.12265 5.3801-3.1494 20.816-4.7275 22.301-0.69096 0.65041-0.8482 0.36297-0.51237-0.9366zm-21.48-8.3461c0.34769-0.98097 1.3086-4.4766 2.1354-7.7682 0.82681-3.2915 1.689-5.7989 1.9159-5.572 0.64349 0.64347-2.6267 13.135-3.7137 14.186-0.66201 0.63999-0.76913 0.3715-0.33758-0.84608zm26.541-40.873c0.33409-3.3516 0.57567-9.2578 0.53683-13.125-0.065-6.4652 4e-3 -6.7293 0.85559-3.2812 1.0087 4.0842 0.40204 15.198-1.0748 19.688-0.70386 2.1398-0.77983 1.3551-0.31767-3.2812zm-46.437-2.2097c-0.12529-3.076-0.39224-3.5056-1.7879-2.8772-4.5742 2.0595-9.6094-0.26412-9.6094-4.4346 0-2.2052 5.4045-8.291 7.3627-8.2909 1.6832 8e-5 1.2484-20.363-0.64583-30.252-0.471-2.4588-0.51436-4.682-0.0964-4.9403 1.0478-0.64759-3.1298-9.8232-7.3499-16.143-5.0415-7.5501-5.7771-8.9346-5.2231-9.831 0.4868-0.78765 4.654 4.6392 8.2407 10.732 3.2338 5.493 7.8691 16.579 7.0537 16.87-0.43576 0.15554-0.40947 3.2359 0.0584 6.8453 0.46789 3.6094 0.89416 9.7266 0.94728 13.594 0.13523 9.8464 0.92864 11.567 3.4192 7.416 5.5934-9.323 8.0014-14.932 7.4952-17.458-1.346-6.7195-1.9658-8.4421-4.0382-11.223-1.2232-1.6414-2.2239-3.6204-2.2239-4.3978s-0.42187-1.6742-0.9375-1.9929c-1.7084-1.0558-1.0736-7.555 0.91358-9.3533 3.3501-3.0318 11.423 2.3537 15.493 10.335 1.0312 2.0225 2.3725 4.2114 2.9805 4.8641 6.6007 7.0859 4.3334 38.172-2.9168 39.992-1.6651 0.41791-2.129 1.2417-2.2313 3.962-0.18358 4.8833-1.1137 5.2226-1.1137 0.40631v-4.0127l-4.4531 0.64963c-7.474 1.0903-9.9856 3.1016-10.634 8.5157-0.51818 4.3268-0.56582 4.3963-0.70313 1.0254zm-1.6378-7.0722c1.1298-1.2484 1.2945-1.9785 0.55013-2.4386-0.58436-0.36117-0.83603-1.2468-0.55925-1.9681 0.78574-2.0476-1.9536-1.5516-4.0889 0.74036-1.0514 1.1285-1.9115 2.816-1.9115 3.75 0 2.3033 3.8985 2.249 6.0095-0.0837zm5.0141-3.4019c1.5808-0.78862 5.6858-1.6964 9.1221-2.0173 9.0415-0.84431 10.351-2.1916 10.212-10.505-0.23774-14.24-7.6169-16.378-14.006-4.0575-1.6807 3.241-4.6696 7.8619-6.6418 10.269-1.9723 2.4069-2.9601 3.9985-2.1951 3.5368 1.1861-0.7158 1.2065-0.61189 0.13831 0.70574-2.3917 2.9503-0.60098 4.0494 3.37 2.0684zm2.7512-5.7288c-0.76217-0.76217 1.024-4.0874 2.1956-4.0874 0.49749 0 0.90452 0.58116 0.90452 1.2915 0 1.558-2.2809 3.6151-3.1002 2.7959zm4.7272-2.7728c-0.79314-0.79313 0.2591-3.1896 1.4005-3.1896 0.59854 0 0.56432 0.46712-0.0922 1.2581-0.57428 0.69197-0.76656 1.5357-0.42729 1.875 0.33928 0.33928 0.40593 0.61687 0.14812 0.61687-0.25782 0-0.72093-0.25218-1.0292-0.56041zm7.1244-4.2362c0.0851-1.6605 0.68207-3.1941 1.3266-3.4081 1.6409-0.54477 1.5105 3.9441-0.15473 5.3261-1.1007 0.91352-1.3003 0.58692-1.1719-1.918zm-5.939-2.1365c0-0.96313 0.52065-1.2458 1.56-0.84693 1.049 0.40252 1.338 0.23931 0.88218-0.49817-0.37284-0.60325-0.20017-1.0968 0.3837-1.0968 0.58385 0 0.92031 0.73343 0.74768 1.6299-0.39942 2.074-3.5736 2.7953-3.5736 0.81206zm4.7615-4.5807c-0.0739-1.6669 2.3327-3.267 3.3635-2.2362 0.29927 0.29927 0.25839 1.2888-0.0908 2.1989-0.50014 1.3034-0.79929 1.389-1.4086 0.4031-0.64218-1.0391-0.85991-1.0346-1.2818 0.0263-0.34956 0.87898-0.53133 0.75657-0.58224-0.39209zm7.0991-8.4637c-0.32175-2.7376-1.1378-6.5741-1.8134-8.5257l-1.2284-3.5482-1.1081 2.4319c-0.60943 1.3376-1.4659 2.4319-1.9033 2.4319s-0.60068 1.3256-0.3629 2.9457c0.29949 2.0406 0.10556 2.7437-0.63112 2.2884-0.58489-0.36148-1.0634-1.4053-1.0634-2.3196 0-1.0884-1.1524-2.016-3.3376-2.6867-2.5481-0.78206-3.1211-0.76353-2.4224 0.0783 0.50331 0.60645 1.0907 2.5786 1.3053 4.3826 0.37904 3.1862 0.49619 3.2722 4.0958 3.005 2.9671-0.22025 4.152 0.20015 5.9457 2.1094 3.0522 3.249 3.1934 3.1039 2.5239-2.593zm-7.3398-12.197c0.19829-1.7241-0.5268-3.7139-2.1094-5.7888-1.3263-1.7389-2.4115-3.583-2.4115-4.0979 0-2.0071-5.6044-5.0606-7.0643-3.849-2.1585 1.7914-1.6273 4.9935 1.6737 10.088 4.5458 7.0162 9.3219 8.7737 9.9115 3.6473zm-6.3959-2.0443c-0.93155-1.1224-0.92961-1.6924 0.01-2.8241 1.376-1.658 3.7404-0.2796 3.7404 2.1805 0 1.1858-0.28173 1.1182-1.4548-0.34916-1.4138-1.7686-1.4385-1.7604-0.87432 0.28956 0.6753 2.454 0.21943 2.6796-1.4209 0.70313zm-1.6992-4.2773c0.22558-0.67677 0.96386-1.415 1.6406-1.6406 0.70312-0.23437 1.0547 0.11719 0.82031 0.82031-0.22559 0.67676-0.96387 1.415-1.6406 1.6406-0.70312 0.23437-1.0547-0.11719-0.82031-0.82031zm-4.8633 55.84c0-2.4922 0.30388-4.2274 0.67528-3.856 0.67297 0.67297 0.43109 7.254-0.2939 7.9966-0.20976 0.21484-0.38138-1.6484-0.38138-4.1406zm37.04 2.5781c1.0866-2.6274 2.2943-17.23 1.7637-21.328-0.41107-3.1752-0.31336-3.4768 0.63745-1.9674 2.1212 3.3674 0.2683 24.936-2.1422 24.936-0.52635 0-0.63992-0.71951-0.25895-1.6406zm-12.421-13.828c-9.4e-4 -11.504 0.0928-12.315 0.76278-6.5625 0.42041 3.6094 0.42112 9.5156 2e-3 13.125-0.66851 5.7514-0.76298 4.9403-0.76437-6.5625zm-16.864 7.9688c0-2.3203 0.18283-3.2695 0.40628-2.1094 0.22346 1.1602 0.22346 3.0586 0 4.2188-0.22345 1.1602-0.40628 0.21094-0.40628-2.1094zm12.076-3.7284c0.29873-5.063 1.731-5.9482 1.731-1.0698 0 2.0625-0.44114 4.0226-0.98031 4.3559-0.63428 0.392-0.89924-0.76789-0.75065-3.2861zm-46.375-15.725c-1.1979-20.825-10.998-49.531-18.491-54.162-0.49665-0.30695-0.90301-1.034-0.90301-1.6157 0-4.1046 11.767 12.907 14.101 20.387 0.64374 2.0625 1.4537 3.9609 1.7999 4.2188 0.5553 0.41351 2.3418 7.5806 4.7906 19.219 1.0367 4.9271 1.096 22.031 0.0764 22.031-0.43684 0-1.0551-4.5352-1.374-10.078zm14.477 3.9844c-0.11909-2.5781-0.9659-9.6647-1.8818-15.748s-1.3288-11.269-0.91745-11.523c1.4322-0.88516 4.0243 19.864 3.4067 27.271l-0.39088 4.6875-0.21653-4.6875zm75.459-5.9169c-0.42784-3.2543-0.54975-6.1451-0.27088-6.4239 0.7899-0.7899 1.7471 5.541 1.3793 9.1226-0.26431 2.5737-0.4863 2.0332-1.1084-2.6986zm-14.643-0.11556c0-2.5444-0.60352-7.5014-1.3411-11.016-1.9928-9.494-2.8772-22.396-1.5898-23.191 0.73868-0.45654 1.056 1.0572 1.056 5.0378 0 3.1297 0.59458 9.5882 1.3213 14.352 2.1159 13.871 2.5456 19.443 1.4994 19.443-0.52013 0-0.94569-2.0818-0.94569-4.6262zm-5.0163 0.17308c-0.25032-0.90234-0.7306-4.1719-1.0673-7.2656s-1.215-9.1607-1.9518-13.482c-0.73679-4.3214-1.2924-9.8058-1.2348-12.188l0.10485-4.3303 0.71528 4.2188c3.316 19.558 5.4864 40.446 3.4337 33.047zm-62.63-2.5807c-0.33834-0.51702-0.85024-4.5984-1.1375-9.0697-0.67358-10.483-4.4698-25.642-8.6046-34.359-3.6041-7.5987-3.4221-11.129 0.24253-4.7031 3.2229 5.6511 6.4322 14.501 7.119 19.632 0.31728 2.3703 1.243 6.2718 2.0573 8.67 1.4532 4.2803 1.7422 21.998 0.3234 19.83zm15.454-15.935c4e-3 -3.6094 0.17361-4.9711 0.37656-3.026 0.20294 1.9451 0.19953 4.8982-7e-3 6.5625-0.20711 1.6643-0.37316 0.0728-0.36899-3.5365zm37.795-2.5781c-0.3251-3.2226-0.85669-8.0564-1.1813-10.742s-0.24586-5.6384 0.17504-6.5625c0.54325-1.1927 0.94387-0.0483 1.3809 3.9448 0.33861 3.0938 0.95053 8.6836 1.3598 12.422 0.48494 4.4292 0.41542 6.7969-0.19959 6.7969-0.51908 0-1.2098-2.6367-1.5349-5.8594zm3.9087-22.402c-0.39747-5.5366 2.6251-38.19 3.8057-41.113 1.0879-2.6941 0.90662 0.86812-1.4077 27.656-1.5441 17.873-1.9268 20.02-2.3979 13.457zm-4.5118-3.6685c0-1.5773 0.3653-2.6421 0.81177-2.3661 0.75522 0.46674 0.34324 5.234-0.45231 5.234-0.1977 0-0.35946-1.2905-0.35946-2.8678zm-96.974-10.165c-0.2873-0.46486-2.8722-2.4049-5.7441-4.3112s-4.9982-3.6896-4.7249-3.9629c0.63373-0.63373 9.132 4.7941 11.359 7.255 0.92794 1.0254 1.2248 1.8643 0.65969 1.8643s-1.2625-0.38034-1.5498-0.8452zm98.352-23.999c0.23848-2.0625 0.70408-7.9688 1.0347-13.125 0.73866-11.521 3.6703-28.514 5.1597-29.908 0.83295-0.77951 0.96539-0.34602 0.54459 1.7825-2.448 12.383-5.252 32.234-5.3699 38.017-0.0362 1.7779-0.45667 4.0763-0.9343 5.1076-0.64483 1.3923-0.75678 0.90953-0.43482-1.875zm18.896-7.9688c0.61032-4.7864 3.809-12.793 4.7392-11.862 0.33828 0.33827 0.10894 1.5636-0.50964 2.723-0.61857 1.1594-1.9443 4.6392-2.9461 7.733-1.7712 5.47-1.8066 5.5088-1.2835 1.4062zm-10.748-3.3524c-0.15547-3.9594 2.3824-23.868 3.1391-24.624 0.77292-0.77293-0.60219 18.084-1.459 20.008-0.45937 1.0312-0.99155 3.3516-1.1826 5.1562-0.33943 3.2059-0.35085 3.1936-0.49743-0.53993zm7.3761-10.71c-0.0307-3.2978 4.085-14.339 5.5237-14.819 0.90984-0.30328 0.96006 0.0402 0.21064 1.4405-0.54124 1.0113-2.048 4.9625-3.3483 8.7803-1.3395 3.9329-2.3737 5.9257-2.3861 4.5978zm28.895-37.89c2.7582-1.3325 5.5004-2.4212 6.0938-2.4193 2.007 7e-3 -5.1748 3.826-8.153 4.3359-2.3521 0.40276-1.9316 0.0113 2.0593-1.9167zm-25.55-3.829c0.77945-3.6491 4.8534-10.781 6.1583-10.781 0.69388 0 0.71246 0.36899 0.0591 1.1719-0.52455 0.64454-2.2732 3.7031-3.8859 6.7969-1.9728 3.7847-2.7356 4.7048-2.3314 2.8125zm-5.2805-4.1504c1.5428-3.0562 3.2272-5.8176 3.7431-6.1365 0.51596-0.31888-0.42382 2.1701-2.0884 5.5311-1.6646 3.361-3.349 6.1224-3.7431 6.1365-0.39413 0.0141 0.54565-2.4749 2.0884-5.5311zm21.597 4.7438c0-0.91777 10.521-5.8539 11.145-5.2292 0.5192 0.51921 0.72118 0.39753-5.7547 3.4668-2.9648 1.4052-5.3906 2.1983-5.3906 1.7624zm-11.744-23.514c1.544-2.9858 6.9394-7.5485 8.9261-7.5485 0.67323 0-0.42129 1.1944-2.4322 2.6542-2.011 1.4598-4.2549 3.7801-4.9866 5.1562-0.73167 1.3761-1.6917 2.5021-2.1334 2.5021s-0.15996-1.2438 0.62618-2.764zm14.955-9.3103c0.28021-0.45339 1.3839-1.053 2.4527-1.3325 1.5955-0.41723 1.7453-0.26973 0.83732 0.82433-1.1854 1.4283-4.1408 1.8848-3.29 0.50817z"/>
</svg>
