<?xml version='1.0' encoding='utf-8'?>
<svg xmlns="http://www.w3.org/2000/svg" version="1.1" x="0px" y="0px" width="11055.154px" height="11870.504px" viewBox="0 0 11055.154 11870.504" enable-background="new 0 0 11055.154 11870.504"> <g id="Layer_2"> </g> <g id="Layer_1"> <g> <g> <path fill="#F1F2F2" d="M9089.117,10333.145c0,442.033-1636.216,928.117-3654.631,928.117 c-2018.406,0-3654.654-486.084-3654.654-928.117c0-442.045,1636.248-774.781,3654.654-774.781 C7452.901,9558.363,9089.117,9891.1,9089.117,10333.145z"/> <linearGradient id="SVGID_1_" gradientUnits="userSpaceOnUse" x1="4453.8604" y1="8933.1309" x2="3705.1919" y2="6876.1816"> <stop offset="0.457" style="stop-color:#785832"/> <stop offset="0.6085" style="stop-color:#886439"/> <stop offset="0.8375" style="stop-color:#9A7140"/> <stop offset="1" style="stop-color:#A17643"/> </linearGradient> <polygon fill="url(#SVGID_1_)" points="5487.114,8557.057 5456.422,6310.194 2569.193,7289.65 2662.577,9389.072 "/> <linearGradient id="SVGID_2_" gradientUnits="userSpaceOnUse" x1="6502.2676" y1="8946.7383" x2="7263.8521" y2="6962.7427"> <stop offset="0.457" style="stop-color:#785832"/> <stop offset="0.6085" style="stop-color:#886439"/> <stop offset="0.8375" style="stop-color:#9A7140"/> <stop offset="1" style="stop-color:#A17643"/> </linearGradient> <polygon fill="url(#SVGID_2_)" points="8389.725,9390.813 8330.368,7372.139 5456.422,6310.194 5487.114,8557.057 "/> <polygon fill="#BF8C4F" points="8330.368,7372.139 5456.422,6310.194 6865.37,6328.43 9620.47,7183.298 "/> <polygon fill="#DBA25A" points="2569.193,7289.65 5456.422,6310.194 3875.228,6297.589 1247.384,7196.669 "/> <g> <g> <g> <g> <g> <g> <g> <path fill="#FDD0A7" d="M6318.957,4764.085c-5.6-606.519-548.43-694.125-570.532-490.949 c-30.184,278.6,69.653,291.671,135.202,462.817c43.078,112.554,84.042,285.695-292.442,348.053 c-375.147,62.133-988.658-78.887-985.822-306.061c2.262-184.846,269.449-374.496,104.966-548.755 c-243.39-258.076-539.144,277.369-462.824,644.294c63.525,305.42,632.653,425.568,632.653,425.568 c-194.377,54.677-415.148-4.621-599.531-78.124c-553.266-220.395-629.788-552.229-769.065-395.559 c-299.411,337.173,296.189,672.934,702.37,710.973c284.193,26.653,537.23-20.523,537.23-20.523 c-144.326,76.303-294.797,96.315-443.557,111.522c-492.038,50.267-677.319-269.188-796.449-122.787 c-207.81,255.205,201.027,464.551,824.055,337.695c295.341-60.203,504.33-149.939,504.33-149.939 c-92.02,101.992-183.061,127.949-288.733,166.642c-347.609,127.488-667.122-2.945-614.722,259.036 c38.815,193.933,462.779,93.038,778.268-71.947c270.551-141.491,229.603-174.249,229.603-174.249l-7.05,1424.804 l811.287-69.653l-40.063-1794.145C6061.475,5299.794,6322.714,5171.372,6318.957,4764.085z"/> <g> <polygon fill="#F5F0E1" points="4832.027,6142.109 5805.094,6144.867 5803.946,6434.287 4833.332,6438.701 "/> <polygon fill="#081651" points="4784.399,6320.453 5861.002,6299.291 5931.132,9413.135 4747.729,9420.939 "/> </g> </g> </g> <path fill="#58595B" d="M5747.452,6576.672c38.818-26.253,48.968-78.997,22.74-117.783 c-26.266-38.818-78.978-48.968-117.796-22.715c-38.768,26.253-48.968,78.965-22.715,117.771 C5655.921,6592.744,5708.665,6602.913,5747.452,6576.672z"/> <path fill="#58595B" d="M5756.854,6857.334c38.813-26.253,48.98-78.952,22.715-117.771 c-26.239-38.799-78.971-48.98-117.758-22.728c-38.799,26.253-48.968,78.983-22.728,117.783 C5665.349,6873.419,5718.048,6883.575,5756.854,6857.334z"/> <path fill="#58595B" d="M5766.249,7137.997c38.818-26.24,48.987-78.952,22.715-117.771 c-26.239-38.786-78.965-48.968-117.751-22.729c-38.799,26.254-48.968,78.979-22.715,117.784 C5674.751,7154.093,5727.449,7164.25,5766.249,7137.997z"/> </g> </g> </g> </g> <g> <g> <g> <g> <g> <path fill="#FCCF5B" d="M4852.058,4010.956c-70.378-629.283-887.165-944.559-450.713-1791.861 c294.355-571.054,1494.711-754.154,1760.739,247.894c204.682,770.706-399.141,879.004-487.939,1556.967L4852.058,4010.956z "/> </g> <g> <g> <path fill="#231F20" d="M5669.646,4401.217c0,0,125.162-104.119,3.178-172.983c0,0,143.443-120.886,1.32-204.278 l-192.643-3c23.063-219.322,56.842-438.096,79.441-656.956c13.912-135.653,25.324-271.728,38.064-407.49 c12.791-134.026,36.39-270.871,26.936-405.55c-4.948-70.894-5.689-164.502-72.771-206.263 c-45.565-28.302-86.453,24.375-105.888,58.193c-26.956,46.861-42.976,101.103-56.92,154.633 c-19.039-84.304-54.107-147.023-118.067-132.295c-77.943,17.798-113.076,179.633-129.112,240.397 c-1.375,5.132-2.662,10.442-4.169,15.729c-6.541-32.461-14.441-64.752-24.542-96.669 c-22.86-71.925-43.168-169.065-119.732-199.738c-117.545-47.135-154.024,236.182-158.755,294.465 c-21.787,272.163,32.175,557.854,83.183,823.737c25.737,134.064,50.237,268.737,75.166,402.934 c5.162,28.061,8.419,67.636,14.889,107.331l-157.166-2.458c0,0-153.876,63.38-12.169,206.488 c0,0-145.283,71.467-8.993,180.619c0,0-130.987,85.022,14.309,164.19l162.256,9.328l126.354,149.462l213.074,11.602 l135.946-142.193l159.205-6.418C5642.041,4584.033,5822.112,4501.853,5669.646,4401.217z M5077.788,4014.574 c-9.92-39.789-13.806-83.602-20.943-121.988c-18.156-98.193-41.529-195.153-58.428-293.572 c-37.44-218.461-80.73-435.209-92.604-657.201c-8.216-153.886-19.48-307.083,39.398-452.788 c31.801-78.765,76.087,24.442,87.684,55.57c18.495,50.057,33.928,99.621,45.443,151.592 c13.333,60.103,20.054,121.476,27.642,182.716c-0.335,33.651,3.605,66.325,13.839,96.496 c0.129,0.342,0.158,0.586,0.167,0.883c0.078,0,0.078-0.025,0.193-0.025c0.813,2.651,1.641,5.284,2.648,7.839 c13.591,35.123,65.832,12.865,59.791-21.388c-6.579-36.502-11.692-73.229-16.726-109.928 c3.982-109.116,52.01-240.281,91.383-317.042c47.94-93.464,74.653,114.716,78.33,143.183 c3.109,23.353,5.394,47.65,7.214,72.134c-8.622,51.42-10.459,103.182,5.564,145.638 c11.792,31.015,58.833,16.887,60.441-12.798c1.102-19.338,2.526-53.817,2.352-95.525c2.03-8.232,3.77-16.623,4.35-25.254 c3.338-54.887,14.622-105.958,28.811-158.738c12.527-46.438,25.989-92.536,43.252-137.376 c24.281-62.822,58.415-39.833,65.246,20.073c6.205,55.019,12.952,107.492,11.271,163.082 c-2.958,100.327-18.392,202.951-28.928,302.842c-22.058,208.292-41.363,417.14-59.078,625.899 c-12.386,147.632-37.015,293.927-55.786,441.053L5077.788,4014.574z"/> </g> </g> </g> </g> </g> <g> <path fill="#FDE29D" d="M4434.165,2676.467c30.09-66.992,42.137-139.735,67.572-208.57 c19.062-51.69,45.279-97.752,74.174-144.429c30.821-49.745,61.988-102.415,95.558-149.961 c11.541-16.326-0.332-38.796-21.423-33.116c-67.072,18.256-108.027,56.179-145.689,114.329 c-30.745,47.547-58.354,96.199-79.281,148.847c-32.619,82.361-52.557,171.053-52.451,259.723 C4372.618,2695.235,4421.022,2705.594,4434.165,2676.467L4434.165,2676.467z"/> </g> <g> <path fill="#FDE29D" d="M4821.887,2007.487c-0.638-0.435-1.153-0.876-1.601-1.437c2.445,2.922,4.888,5.825,7.381,8.76 c-10.819-14.309-26.694-29.742-46.777-26.124c7.475,1.599,15.079,3.264,22.576,4.846c-0.399-0.158-0.805-0.341-1.305-0.574 c-14.077-6.424-29.643-6.557-42.92,2.033c-12.549,8.171-20.743,23.228-19.438,38.364c0.045,0.435,0.051,0.87,0.071,1.356 c1.627-7.549,3.215-15.127,4.839-22.657c-8.68,15.746-6.267,35.262,3.821,49.645c10.72,15.34,27.857,23.027,46.213,22.235 c15.224-0.615,29.469-10.194,36.496-23.591C4839.76,2043.995,4837.388,2019.337,4821.887,2007.487L4821.887,2007.487z"/> </g> <g> <path fill="#FDE29D" d="M5869.225,3295.542c34.068,14.772,61.965-26.269,77.354-50.18 c23.875-36.969,43.98-77.009,65.232-115.521c18.333-33.29,38.754-68.632,48.065-105.678 c6.851-26.827,6.644-79.893-26.556-90.757c-26.807-8.835-49.722,31.447-59.285,49.825 c-19.563,37.43-34.507,76.928-54.696,114.271c-19.28,35.741-37.439,72.047-53.987,109.139 C5853.643,3232.771,5831.771,3279.333,5869.225,3295.542L5869.225,3295.542z"/> </g> </g> </g> <g> <polygon fill="#DBA25A" points="2569.193,7289.65 5364.775,8333.152 5352.705,11108.957 2662.577,10160.504 "/> <polygon fill="#DBA265" points="8330.368,7372.139 8413.812,10162.244 5352.705,11108.957 5364.775,8333.152 "/> <polygon fill="#D1D3D4" points="5364.775,8333.152 5987.774,9572.057 9089.117,8317.082 8331.38,7371.656 "/> <polygon fill="#E3A75D" points="5364.775,8333.152 6302.216,9568.982 9403.545,8314.008 8331.38,7371.656 "/> <polygon fill="#D1D3D4" points="5364.775,8333.152 2569.193,7289.65 1989.072,8430.857 4714.724,9567.998 "/> <polygon fill="#C99353" points="5364.775,8333.152 2569.193,7289.65 1594.574,8434.922 4320.225,9572.057 "/> </g> </g> <g> <g> <path fill="#FCCF5B" d="M6352.492,1971.355c43.561-20.708,89.7-57.558,125.483-89.601 c63.609-56.852,113.215-124.26,156.558-196.597c10.646-17.875-7.721-46.96-29.404-37.762 c-86.117,36.631-150.029,79.255-209.572,153.035c-32.594,40.514-105.913,78.488-97.227,140.302 C6302.216,1968.62,6325.937,1983.879,6352.492,1971.355L6352.492,1971.355z"/> </g> <g> <path fill="#FCCF5B" d="M4284.187,1958.358c-3.467-72.431-65.246-124.666-107.999-177.884 c-21.503-26.871-45.736-51.545-67.907-77.75c-24.6-28.966-45.755-60.268-75.259-84.31 c-21.475-17.479-64.721-15.346-69.721,18.884c-11.864,80.018,45.945,136.677,97.13,190.23 c53.241,55.676,106.213,122.713,175.071,159.192C4256.288,1997.666,4285.508,1983.931,4284.187,1958.358L4284.187,1958.358z"/> </g> <g> <path fill="#FCCF5B" d="M4333.471,1250.062c-10.497,73.562,30.444,143.331,63.119,206.669 c37.877,73.513,85.689,134.267,142.38,193.877c14.573,15.301,42.298,3.509,41.48-17.486 c-2.793-77.669-27.874-143.108-65.355-210.361c-34.333-61.524-65.265-140.26-114.613-190.891 C4381.205,1212.065,4337.82,1219.534,4333.471,1250.062L4333.471,1250.062z"/> </g> <g> <path fill="#FCCF5B" d="M5715.425,1550.833c21.858-20.75,35.333-55.46,47.925-82.332 c18.771-40.056,35.436-80.038,50.785-121.515c16.619-45.15,33.966-90.042,48.227-136.04 c13.912-44.931,34.984-94.71,30.506-142.586c-1.23-12.959-13.822-21.236-25.879-14.65 c-38.87,21.375-69.377,66.45-89.771,104.879c-27.342,51.929-51.133,104.025-69.627,159.827 c-19.113,57.636-78.56,181.344-20.377,232.59C5695.636,1558.327,5707.216,1558.601,5715.425,1550.833L5715.425,1550.833z"/> </g> <g> <path fill="#FCCF5B" d="M6081.638,1697.321c-10.562,10.835,8.706-9.566,8.989-10.349c1.586-3.828,3.583-7.311,5.703-10.865 c7.43-11.873,14.77-23.65,22.889-35.916c21.472-32.729,45.141-64.047,68.854-95.188 c45.972-60.161,99.74-118.044,125.562-186.982c13.604-36.212-30.751-57.426-58.602-44.399 c-73.004,34.079-129.75,117.078-174.162,185.842c-23.469,36.438-108.949,172.01-35.378,202.783 C6058.04,1707.46,6071.398,1707.815,6081.638,1697.321L6081.638,1697.321z"/> </g> <g> <path fill="#FCCF5B" d="M5346.188,1437.402c25.18-22.734,30.576-65.803,39.459-97.024 c14.512-51.575,18.568-106.506,24.152-159.667c5.89-55.831,3.977-112.589-0.493-168.449 c-3.664-48.417-10.53-103.465-39.859-143.595c-8.355-11.509-22.999-11.509-31.311,0.209 c-28.989,41.435-30.925,95.22-34.347,144.133c-3.896,55.895-3.119,112.386-4.939,168.433 c-1.778,54.307-6.058,108.414-8.013,162.75c-1.292,33.892,0.638,75.549,30.67,96.576 C5329.281,1446.163,5339.792,1443.169,5346.188,1437.402L5346.188,1437.402z"/> </g> <g> <path fill="#FCCF5B" d="M4939.055,1498.333c-0.161,1.463-0.435,2.916-0.603,4.424c-1.118,9.218,10.626,10.726,16.065,6.495 c52.647-41.535,6.869-153.116-6.782-203.382c-19.422-71.2-39.273-177.14-100.903-224.918 c-13.352-10.291-34.192-7.984-39.051,10.674c-21.191,81.688,1.792,168.211,28.959,245.655 c16.129,45.697,48.027,175.563,111.146,174.751c-0.048-6.254-0.006-12.492-0.064-18.655c-1.543,0.209-3.003,0.451-4.401,0.638 C4940.766,1494.374,4939.41,1495.714,4939.055,1498.333L4939.055,1498.333z"/> </g> </g> </g> </g> </svg>