<?xml version='1.0' encoding='utf-8'?>
<svg xmlns="http://www.w3.org/2000/svg" version="1.1" id="Layer_1" x="0px" y="0px" viewBox="0 0 5000 5000" enable-background="new 0 0 5000 5000"> <path d="M4999.417,2365.5212l-1.9937-122.6965l-329.8042-3.4429c-214.1743-2.2361-334.2407-5.8167-342.4585-10.2153 c-11.6099-6.2122-12.3198-11.1445-8.5908-59.6626l4.0659-52.8901l-91.6465-4.3147 c-122.2041-5.7544-275.4934-24.3945-341.1365-41.4822c-13.4543-3.502-44.5315-11.2815-69.0596-17.2869 c-63.9346-15.6538-201.658-61.7375-261.2102-87.4027c-121.813-52.4983-146.657-63.6725-158.968-71.5 c-7.1768-4.5621-25.9497-15.4368-41.7178-24.1649c-15.7681-8.7283-28.6694-19.5104-28.6694-23.9596 c0-8.7633,106.6245-57.4111,160.8672-73.397c18.3967-5.4207,33.4478-12.556,33.4478-15.8558s-15.051-12.8182-33.4478-21.1537 c-34.6553-15.7019-171.1975-111.2417-174.9141-122.3893c-1.1587-3.4802,26.613-27.6257,61.7158-53.658 c35.1025-26.0322,63.8232-49.2965,63.8232-51.6989s-10.751-10.9011-23.8911-18.8859 c-23.6641-14.3798-56.8801-40.5077-102.3105-80.4779c-12.9341-11.3794-45.5986-38.6147-72.5867-60.5243 c-26.9895-21.9095-49.21-44.4249-49.375-50.0345c-0.3018-10.0698,49.8215-60.2443,79.8137-79.8954 c21.293-13.9513,19.4116-23.3763-8.4451-42.3298c-41.5466-28.2682-178.3516-169.9835-227.3386-235.4991 c-9.8252-13.1401-20.7981-23.8912-24.3845-23.8912c-16.053,0-181.1948,160.2505-212.2722,205.9851 c-15.6746,23.0675-33.6843,30.8983-35.4321,15.4064c-0.4944-4.3801-2.6443-116.9073-4.7783-250.0609l-3.8799-242.0971h-251.1802 c-1.7771-362.6402-4.8035-634.6382-8.4026-638.9752c-5.5242-6.6533-33.4531-8.0524-129.7356-6.4876l-122.6965,1.994 l-3.4429,329.8038c-2.2361,214.1743-5.8167,334.2407-10.2153,342.4587c-6.2122,11.6096-11.1445,12.3196-59.6626,8.5906 l-52.8901-4.0659l-4.3147,91.6465c-5.7544,122.2042-24.3945,275.4935-41.4822,341.1367 c-3.502,13.4542-11.2815,44.5315-17.2869,69.0596c-15.6538,63.9346-61.7375,201.658-87.4027,261.2101 c-52.4983,121.813-63.6725,146.6569-71.5,158.968c-4.5621,7.177-15.4368,25.9497-24.1649,41.7178 c-8.7283,15.7679-19.5104,28.6694-23.9596,28.6694c-8.7633,0-57.4111-106.6245-73.397-160.8672 c-5.4207-18.3967-12.556-33.4476-15.8558-33.4476s-12.8182,15.0509-21.1537,33.4476 c-15.7019,34.6554-111.2417,171.1974-122.3893,174.9137c-3.4802,1.1595-27.6257-26.6124-53.658-61.715 s-49.2965-63.8237-51.6989-63.8237s-10.9011,10.7511-18.8859,23.8912c-14.3798,23.6637-40.5077,56.8799-80.4779,102.3108 c-11.3794,12.9337-38.6147,45.5978-60.5243,72.5865s-44.4249,49.2095-50.0345,49.3751 c-10.0698,0.3009-60.2443-49.8223-79.8954-79.8142c-13.9513-21.2924-23.3763-19.4115-42.3298,8.4456 c-28.2682,41.5459-169.9835,178.3512-235.4991,227.3383c-13.1401,9.8251-23.8912,20.7982-23.8912,24.3845 c0,16.0531,160.2505,181.1948,205.9851,212.2722c23.0675,15.6746,30.8983,33.6843,15.4064,35.4321 c-4.3801,0.4944-116.9073,2.6443-250.0609,4.7783l-242.0971,3.8799v251.1802c-362.6402,1.7771-634.6382,4.8035-638.9752,8.4026 c-6.6533,5.5242-8.0524,33.4531-6.4876,129.7356l1.994,122.6965l329.8038,3.4429c214.1743,2.2361,334.2407,5.8167,342.4587,10.2153 c11.6096,6.2122,12.3196,11.1445,8.5906,59.6626l-4.0659,52.8901l91.6465,4.3147c122.2042,5.7544,275.4935,24.3945,341.1367,41.4822 c13.4542,3.502,44.5315,11.2815,69.0596,17.2869c63.9346,15.6538,201.658,61.7375,261.2101,87.4026 c121.813,52.4985,146.6569,63.6726,158.968,71.5002c7.177,4.562,25.9497,15.4365,41.7178,24.1648 c15.7679,8.7283,28.6694,19.5105,28.6694,23.9597c0,8.7632-106.6245,57.4111-160.8672,73.3967 c-18.3967,5.4207-33.4476,12.5562-33.4476,15.856s15.0509,12.8181,33.4476,21.1536 c34.6554,15.7019,171.1974,111.2417,174.9137,122.3894c1.1595,3.4802-26.6124,27.6257-61.715,53.658 s-63.8237,49.2966-63.8237,51.699c0,2.4021,10.7511,10.9011,23.8912,18.8857c23.6637,14.3799,56.8799,40.5076,102.3108,80.4778 c12.9337,11.3796,45.5978,38.6147,72.5865,60.5244s49.2095,44.425,49.3751,50.0347c0.3009,10.0696-49.8223,60.2441-79.8142,79.8953 c-21.2924,13.9514-19.4115,23.3765,8.4456,42.3298c41.5459,28.2681,178.3512,169.9834,227.3383,235.499 c9.8251,13.1401,20.7982,23.8914,24.3845,23.8914c16.0531,0,181.1948-160.2505,212.2722-205.9851 c15.6746-23.0676,33.6843-30.8984,35.4321-15.4065c0.4944,4.3801,2.6443,116.9072,4.7783,250.061l3.8799,242.0972h251.1802 c1.7771,362.6401,4.8035,634.6382,8.4026,638.9751c5.5242,6.6533,33.4531,8.0522,129.7356,6.4873l122.6965-1.9937l3.4429-329.8042 c2.2361-214.1743,5.8167-334.2407,10.2153-342.4585c6.2122-11.6099,11.1445-12.3198,59.6626-8.5908l52.8901,4.0659l4.3147-91.6465 c5.7544-122.2041,24.3945-275.4934,41.4822-341.1365c3.502-13.4543,11.2815-44.5315,17.2869-69.0596 c15.6538-63.9346,61.7375-201.658,87.4026-261.2102c52.4985-121.813,63.6726-146.657,71.5002-158.968 c4.562-7.177,15.4365-25.9497,24.1648-41.7178s19.5105-28.6694,23.9597-28.6694c8.7632,0,57.4111,106.6245,73.3967,160.8672 c5.4207,18.3967,12.5562,33.4478,15.856,33.4478s12.8181-15.051,21.1536-33.4478 c15.7019-34.6553,111.2417-171.1975,122.3894-174.9136c3.4802-1.1597,27.6257,26.6123,53.658,61.7148 s49.2966,63.8237,51.699,63.8237c2.4021,0,10.9011-10.751,18.8857-23.8911c14.3799-23.6638,40.5076-56.8801,80.4778-102.311 c11.3796-12.9336,38.6147-45.5977,60.5244-72.5864s44.425-49.2095,50.0347-49.375c10.0696-0.301,60.2441,49.8223,79.8953,79.814 c13.9514,21.2925,23.3765,19.4116,42.3298-8.4453c28.2681-41.5459,169.9834-178.3513,235.499-227.3384 c13.1401-9.8252,23.8914-20.7981,23.8914-24.3845c0-16.053-160.2505-181.1948-205.9851-212.2722 c-23.0676-15.6746-30.8984-33.6843-15.4065-35.4321c4.3801-0.4944,116.9072-2.6443,250.061-4.7783l242.0972-3.8799v-251.1802 c362.6401-1.7771,634.6377-4.8035,638.9751-8.4026C4999.583,2489.7327,5000.9819,2461.8037,4999.417,2365.5212z M3503.429,2001.9493 c49.8938,22.4679,153.1506,60.9108,207.0566,77.0863c31.5361,9.4631,64.5063,19.7319,73.2664,22.8196 c59.3267,20.907,283.9783,55.2512,393.8525,60.2107c39.6655,1.7903,74.7861,4.9036,78.0444,6.9177 c10.3608,6.4028,6.9951,52.105-4.1514,56.3823c-5.5425,2.1294-11.9937,3.365-14.3345,2.7539 c-2.3408-0.6121-17.1587-2.05-32.9268-3.1948c-218.4175-15.863-474.553-76.4121-697.6218-164.9167 c-46.9192-18.6152-273.1768-131.7335-287.8506-143.9132c-10.7791-8.9459-2.3401-20.2103,23.0032-30.7078 c15.8853-6.5802,21.408-5.5854,42.7932,7.7086C3306.4988,1906.7339,3445.4478,1975.8401,3503.429,2001.9493z M3001.262,993.6309 c4.6289,0.2014,24.1838,19.2101,43.4563,42.2411c19.2722,23.0303,61.5593,68.4352,93.9719,100.8998 c32.4124,32.4639,58.9312,61.6317,58.9312,64.8157c0,9.7034-41.3376,46.5154-52.2341,46.5154 c-5.6189,0-30.2971-21.502-54.8398-47.7823c-24.543-26.2803-46.0525-47.7822-47.7988-47.7822 c-6.3696,0-121.6917,131.9138-155.9507,178.3873c-19.3733,26.2803-42.7883,57.8163-52.0347,70.0807 c-26.7607,35.4969-92.9265,145.5231-117.8105,195.9076c-12.5471,25.4045-26.8867,46.1896-31.8662,46.1896 c-12.5786,0-105.4492-92.824-105.4492-105.3964c0-20.7656,76.186-141.045,165.2783-260.9348 C2833.5803,1157.4573,2982.6382,992.819,3001.262,993.6309z M2549.0029,723.667l1.9648-20.2826l69.1467-3.1855 c38.0308-1.7522,72.0286-1.3906,75.5508,0.8033c4.02,2.5042,7.2156,85.6481,8.584,223.3373 c1.3127,132.0998,4.8389,226.3408,8.8647,236.9301c10.282,27.0439,7.9976,51.5914-6.5195,70.0465l-0.0005,0.0007 c-7.2627,9.2329-15.6477,16.7869-18.6338,16.7869s-10.3105-15.0518-16.2766-33.4476 c-9.0515-27.9097-11.3464-69.1608-13.8596-249.1425l-3.012-215.694l-40.3323,4.3186 C2562.7578,759.6772,2546.2583,751.9988,2549.0029,723.667z M1893.0959,1715.4397 c13.6379-21.938,82.7441-160.8875,108.8534-218.8687c22.4679-49.8938,60.9108-153.1508,77.0863-207.0568 c9.4631-31.536,19.7319-64.5061,22.8196-73.2662c20.907-59.3267,55.2512-283.9782,60.2107-393.8527 c1.7903-39.6654,4.9036-74.7859,6.9177-78.0445c6.4028-10.3606,52.105-6.9947,56.3823,4.1514 c2.1294,5.5427,3.365,11.9938,2.7539,14.3347c-0.6121,2.3409-2.05,17.1586-3.1948,32.9266 c-15.863,218.4175-76.4121,474.5531-164.9167,697.6221c-18.6152,46.9191-131.7335,273.1763-143.9132,287.8503 c-8.9459,10.7791-20.2103,2.3402-30.7078-23.0029C1878.8071,1742.3475,1879.8019,1736.8251,1893.0959,1715.4397z M1501.3843,1900.0763c92.2042-99.1923,161.7561-184.4738,223.8654-274.4929c7.8572-11.3879,16.7332-20.7057,19.7234-20.7057 c2.9904,0,14.9087,20.7854,26.4841,46.1896c45.474,99.7961,63.3442,130.2582,151.5533,258.3442 c76.1609,110.5907,135.7969,181.6869,235.0232,280.1864c86.1216,85.4915,212.8855,186.1677,234.407,186.1677 c4.3,0,6.9917-375.8695,8.1147-1133.5453l1.6821-1133.5455l-13.2358-7.0834c-9.0461-4.842-17.0139-5.0629-25.1682-0.6984 c-11.2114,6.0008-12.1951,20.7446-16.2773,243.9138c-6.011,328.5805-18.8359,533.3578-41.6113,664.3844 c-3.0454,17.5201-8.7219,51.9236-12.615,76.4518c-7.634,48.0996-14.5479,76.6228-49.218,203.0422 c-22.3381,81.4524-45.8708,153.4976-72.0671,220.6277c-13.1689,33.7463-21.6646,52.0885-85.5781,184.7584 c-43.207,89.6859-85.778,167.1985-99.5021,181.1708c-11.7325,11.9443-12.532,11.9685-24.9255,0.7524 c-17.1492-15.52-22.2844-33.9155-12.6946-45.4711c12.9659-15.6233,41.8811-69.9252,98.1016-184.2345 c192.3605-391.1136,248.4838-706.813,247.1251-1390.0801l-0.3953-198.7065l71.0576-1.9793 c41.2302-1.1479,74.1724,0.696,78.48,4.3925h-0.0007c8.5681,7.3462,13.9187,1245.3923,8.5042,1965.4462l-3.1853,423.6699 l-21.6428,2.0664c-45.9065,4.3828-177.6191-19.6716-260.9861-47.6638c-159.9099-53.6931-338.6232-147.1931-519.0559-271.5615 c-34.6647-23.8936-162.5634-121.637-188.4159-143.9926l-21.712-18.775L1501.3843,1900.0763z M2349.6443,2498.8611l-270.1289-2.0466 h-0.0007c-244.5604-1.8528-567.6049-2.438-885.6809-2.0752c23.9534-1.5208,39.5204-3.5488,52.101-6.2649 c49.1052-10.6013,119.1315-42.2117,137.7257-62.1704c6.3088-6.7717,13.1798-12.3125,15.2672-12.3125s36.4263,18.948,76.3063,42.1062 c63.2074,36.7043,73.8628,40.9954,83.0576,33.4475c21.488-17.6387,118.619-117.4526,127.7703-131.2993 c5.2114-7.884,13.6364-14.3347,18.7233-14.3347c5.087,0,41.3103,14.0999,80.4974,31.3325 c68.8776,30.2898,203.2382,74.7837,268.749,88.9971C2164.385,2488.1836,2239.1768,2497.1226,2349.6443,2498.8611z M993.6309,1998.7382c0.2014-4.6289,19.2101-24.184,42.2411-43.4563c23.0303-19.2723,68.4352-61.5594,100.8998-93.9719 c32.4639-32.4125,61.6317-58.9315,64.8157-58.9315c9.7034,0,46.5154,41.3378,46.5154,52.2343 c0,5.6189-21.502,30.2971-47.7823,54.8401c-26.2803,24.5428-47.7822,46.0522-47.7822,47.7986 c0,6.3699,131.9138,121.6918,178.3873,155.9508c26.2803,19.3733,57.8163,42.7883,70.0807,52.0347 c35.4969,26.7607,145.5231,92.9265,195.9076,117.8105c25.4045,12.5471,46.1896,26.8867,46.1896,31.8662 c0,12.5786-92.824,105.4492-105.3964,105.4492c-20.7656,0-141.045-76.186-260.9348-165.2783 C1157.4573,2166.4197,992.819,2017.3619,993.6309,1998.7382z M701.0023,2304.3347c2.5042-4.02,85.6481-7.2156,223.3373-8.584 c132.0998-1.3127,226.3408-4.8389,236.9301-8.8647c27.0439-10.282,51.5914-7.9976,70.0465,6.5195l0.0007,0.0005 c9.2329,7.2627,16.7869,15.6477,16.7869,18.6338s-15.0518,10.3105-33.4476,16.2766 c-27.9097,9.0515-69.1608,11.3464-249.1425,13.8596l-215.694,3.012l4.3186,40.3323c5.5389,51.7219-2.1395,68.2214-30.4713,65.4768 l-20.2826-1.9648l-3.1855-69.1467C698.4467,2341.8547,698.8083,2307.8569,701.0023,2304.3347z M1496.571,2998.0508 c-49.8938-22.468-153.1508-60.9109-207.0568-77.0864c-31.536-9.4631-64.5061-19.7319-73.2662-22.8196 c-59.3267-20.907-283.9782-55.2512-393.8527-60.2107c-39.6654-1.7903-74.7859-4.9036-78.0445-6.9177 c-10.3606-6.4028-6.9947-52.105,4.1514-56.3823c5.5427-2.1294,11.9938-3.365,14.3347-2.7539 c2.3409,0.6121,17.1586,2.05,32.9266,3.1948c218.4175,15.863,474.5531,76.4121,697.6221,164.9167 c46.9191,18.6152,273.1763,131.7336,287.8503,143.9131c10.7791,8.946,2.3402,20.2104-23.0029,30.7078 c-15.8855,6.5803-21.408,5.5857-42.7933-7.7085C1693.5017,3093.2661,1554.5522,3024.1599,1496.571,2998.0508z M1625.5834,3274.7502 c-11.3879-7.8572-20.7057-16.7332-20.7057-19.7234s20.7854-14.9087,46.1896-26.4839 c99.7961-45.4741,130.2582-63.3442,258.3442-151.5535c110.5907-76.1609,181.6869-135.7969,280.1864-235.0232 c85.4915-86.1216,186.1677-212.8855,186.1677-234.407c0-4.3-375.8695-6.9917-1133.5453-8.1147l-1133.5455-1.6821l-7.0834,13.2358 c-4.842,9.0461-5.0629,17.0139-0.6984,25.1682c6.0008,11.2114,20.7446,12.1951,243.9138,16.2773 c328.5805,6.011,533.3578,18.8359,664.3844,41.6113c17.5201,3.0454,51.9236,8.7219,76.4518,12.615 c48.0996,7.634,76.6228,14.5479,203.0422,49.218c81.4524,22.3381,153.4976,45.8708,220.6277,72.0671 c33.7463,13.1689,52.0885,21.6646,184.7584,85.5781c89.6859,43.207,167.1985,85.7778,181.1708,99.5022 c11.9443,11.7324,11.9685,12.532,0.7524,24.9255c-15.52,17.1492-33.9155,22.2844-45.4711,12.6943 c-15.6233-12.9658-69.9252-41.8811-184.2345-98.1016c-391.1136-192.3604-706.813-248.4836-1390.0801-247.125l-198.7065,0.3953 l-1.9793-71.0576c-1.1479-41.2302,0.696-74.1724,4.3925-78.48v0.0007c7.3462-8.5681,1245.3923-13.9187,1965.4462-8.5042 l423.6699,3.1853l2.0664,21.6428c4.3828,45.9065-19.6716,177.6191-47.6638,260.9861 c-53.6931,159.9099-147.1931,338.623-271.5615,519.0559c-23.8936,34.6648-121.637,162.5632-143.9926,188.4158l-18.775,21.7122 l-69.0289-64.1655C1800.884,3406.4116,1715.6025,3336.8596,1625.5834,3274.7502z M1998.7382,4006.3691 c-4.6289-0.2014-24.184-19.2102-43.4563-42.2412c-19.2723-23.0303-61.5594-68.4351-93.9719-100.8997 c-32.4125-32.4639-58.9315-61.6318-58.9315-64.8157c0-9.7036,41.3378-46.5156,52.2343-46.5156 c5.6189,0,30.2971,21.5022,54.8401,47.7825c24.5428,26.2803,46.0522,47.7822,47.7986,47.7822 c6.3699,0,121.6918-131.9138,155.9508-178.3872c19.3733-26.2805,42.7883-57.8164,52.0347-70.0808 c26.7607-35.4968,92.9265-145.5229,117.8105-195.9077c12.5471-25.4045,26.8867-46.1895,31.8662-46.1895 c12.5786,0,105.4492,92.824,105.4492,105.3965c0,20.7654-76.186,141.0449-165.2783,260.9346 C2166.4197,3842.5427,2017.3619,4007.1809,1998.7382,4006.3691z M2450.9971,4276.333l-1.9648,20.2827l-69.1467,3.1855 c-38.0308,1.752-72.0286,1.3901-75.5508-0.8037c-4.02-2.5039-7.2156-85.6479-8.584-223.3372 c-1.3127-132.0999-4.8389-226.3408-8.8647-236.9299c-10.282-27.0439-7.9976-51.5916,6.5195-70.0466l0.0005-0.0007 c7.2627-9.2329,15.6477-16.7869,18.6338-16.7869s10.3105,15.0518,16.2766,33.4478c9.0515,27.9094,11.3464,69.1606,13.8596,249.1423 l3.012,215.6938l40.3323-4.3184C2437.2422,4240.3228,2453.7417,4248.001,2450.9971,4276.333z M2496.8145,2920.4846v0.0007 c-1.8528,244.5605-2.438,567.605-2.0752,885.6809c-1.5208-23.9534-3.5488-39.5203-6.2649-52.1011 c-10.6013-49.105-42.2117-119.1313-62.1704-137.7256c-6.7717-6.3088-12.3125-13.1799-12.3125-15.2671 c0-2.0874,18.948-36.4263,42.1062-76.3064c36.7043-63.2073,40.9954-73.8628,33.4475-83.0576 c-17.6387-21.488-117.4526-118.6189-131.2993-127.7703c-7.884-5.2114-14.3347-13.6362-14.3347-18.7234 c0-5.0869,14.0999-41.3101,31.3325-80.4973c30.2898-68.8777,74.7837-203.2383,88.9971-268.749 c23.9429-110.3535,32.8818-185.1453,34.6204-295.6128L2496.8145,2920.4846z M2501.1389,2349.6443l2.0466-270.1289v-0.0007 c1.8528-244.5604,2.438-567.6049,2.0752-885.6809c1.5208,23.9534,3.5488,39.5204,6.2649,52.101 c10.6013,49.1052,42.2117,119.1315,62.1704,137.7257c6.7717,6.3088,12.3125,13.1798,12.3125,15.2672 s-18.948,36.4263-42.1062,76.3063c-36.7043,63.2074-40.9954,73.8628-33.4475,83.0576 c17.6387,21.488,117.4526,118.619,131.2993,127.7703c7.884,5.2114,14.3347,13.6364,14.3347,18.7233 c0,5.087-14.0999,41.3103-31.3325,80.4974c-30.2898,68.8776-74.7837,203.2382-88.9971,268.749 C2511.8164,2164.385,2502.8774,2239.1768,2501.1389,2349.6443z M3106.9041,3284.5603 c-13.6379,21.938-82.7441,160.8875-108.8533,218.8687c-22.468,49.8938-60.9109,153.1506-77.0864,207.0566 c-9.4631,31.5361-19.7319,64.5063-22.8196,73.2664c-20.907,59.3267-55.2512,283.9783-60.2107,393.8525 c-1.7903,39.6655-4.9036,74.7861-6.9177,78.0444c-6.4028,10.3608-52.105,6.9951-56.3823-4.1514 c-2.1294-5.5425-3.365-11.9937-2.7539-14.3345c0.6121-2.3408,2.05-17.1587,3.1948-32.9268 c15.863-218.4175,76.4121-474.553,164.9167-697.6218c18.6152-46.9192,131.7336-273.1763,143.9131-287.8506 c8.946-10.7791,20.2104-2.3401,30.7078,23.0032C3121.1929,3257.6523,3120.1982,3263.175,3106.9041,3284.5603z M3498.6157,3099.9238 c-92.2041,99.1921-161.7561,184.4736-223.8655,274.4929c-7.8572,11.3879-16.7332,20.7056-19.7234,20.7056 s-14.9087-20.7854-26.4839-46.1897c-45.4741-99.7961-63.3442-130.2581-151.5535-258.344 c-76.1609-110.5908-135.7969-181.687-235.0232-280.1865c-86.1216-85.4915-212.8855-186.1677-234.407-186.1677 c-4.3,0-6.9917,375.8694-8.1147,1133.5452l-1.6821,1133.5457l13.2358,7.0835c9.0461,4.8418,17.0139,5.063,25.1682,0.6982 c11.2114-6.001,12.1951-20.7446,16.2773-243.9141c6.011-328.5801,18.8359-533.3574,41.6113-664.3843 c3.0454-17.52,8.7219-51.9236,12.615-76.4517c7.634-48.0996,14.5479-76.6228,49.218-203.0422 c22.3381-81.4524,45.8708-153.4976,72.0671-220.6277c13.1689-33.7463,21.6646-52.0886,85.5781-184.7583 c43.207-89.686,85.7778-167.1985,99.5022-181.1709c11.7324-11.9443,12.532-11.9685,24.9255-0.7524 c17.1492,15.52,22.2844,33.9155,12.6943,45.4709c-12.9658,15.6235-41.8811,69.9253-98.1016,184.2346 c-192.3604,391.1138-248.4836,706.813-247.125,1390.0801l0.3953,198.7065l-71.0576,1.9795 c-41.2302,1.1475-74.1724-0.6963-78.48-4.3926h0.0007c-8.5681-7.3462-13.9187-1245.3923-8.5042-1965.4463l3.1853-423.6699 l21.6428-2.0664c45.9065-4.3828,177.6191,19.6716,260.9861,47.6638c159.9099,53.6931,338.623,147.1931,519.0559,271.5615 c34.6648,23.8936,162.5632,121.637,188.4158,143.9927l21.7122,18.7749L3498.6157,3099.9238z M2650.3557,2501.1389l270.1289,2.0466 h0.0007c244.5605,1.8528,567.605,2.438,885.6809,2.0752c-23.9534,1.5208-39.52,3.5488-52.1011,6.2649 c-49.105,10.6013-119.1313,42.2117-137.7256,62.1704c-6.3088,6.7717-13.1799,12.3125-15.2671,12.3125 c-2.0874,0-36.4263-18.948-76.3064-42.1062c-63.2073-36.7043-73.8628-40.9954-83.0576-33.4475 c-21.488,17.6387-118.6189,117.4526-127.7703,131.2993c-5.2114,7.884-13.6362,14.3347-18.7234,14.3347 c-5.0869,0-41.3101-14.0999-80.4973-31.3325c-68.8777-30.2898-203.2383-74.7837-268.749-88.9971 C2835.615,2511.8164,2760.8232,2502.8774,2650.3557,2501.1389z M4006.3691,3001.262c-0.2014,4.6289-19.2102,24.1838-42.2412,43.4563 c-23.0303,19.2722-68.4351,61.5593-100.8997,93.9719c-32.4639,32.4124-61.6318,58.9314-64.8157,58.9314 c-9.7036,0-46.5156-41.3379-46.5156-52.2344c0-5.6189,21.5022-30.2971,47.7825-54.8398 c26.2803-24.543,47.7822-46.0525,47.7822-47.7988c0-6.3696-131.9138-121.6917-178.3872-155.9507 c-26.2805-19.3733-57.8164-42.7883-70.0808-52.0347c-35.4968-26.7607-145.5229-92.9265-195.9077-117.8105 c-25.4045-12.5471-46.1895-26.8867-46.1895-31.8662c0-12.5786,92.824-105.4492,105.3965-105.4492 c20.7654,0,141.0449,76.186,260.9346,165.2783C3842.5427,2833.5803,4007.1809,2982.6382,4006.3691,3001.262z M4298.9976,2695.6653 c-2.5039,4.02-85.6479,7.2156-223.3372,8.584c-132.0999,1.3127-226.3408,4.8389-236.9299,8.8647 c-27.0439,10.282-51.5916,7.9976-70.0466-6.5195l-0.0007-0.0005c-9.2329-7.2627-16.7869-15.6477-16.7869-18.6338 s15.0518-10.3105,33.4478-16.2766c27.9094-9.0515,69.1606-11.3464,249.1423-13.8596l215.6938-3.012l-4.3184-40.3323 c-5.5391-51.7219,2.1392-68.2214,30.4712-65.4768l20.2827,1.9648l3.1855,69.1467 C4301.5532,2658.1453,4301.1914,2692.1431,4298.9976,2695.6653z M4940.0845,2443.7134v-0.0007 c-7.3462,8.5681-1245.3923,13.9187-1965.4463,8.5042l-423.6699-3.1853l-2.0664-21.6428 c-4.3828-45.9065,19.6716-177.6191,47.6638-260.9861c53.6931-159.9099,147.1931-338.6232,271.5615-519.0559 c23.8936-34.6647,121.637-162.5634,143.9927-188.4159l18.7749-21.712l69.0291,64.1655 c99.1921,92.2042,184.4739,161.7561,274.4929,223.8654c11.3879,7.8572,20.7056,16.7332,20.7056,19.7234 c0,2.9904-20.7859,14.9087-46.1897,26.4841c-99.7961,45.474-130.2581,63.3442-258.344,151.5533 c-110.5908,76.1609-181.687,135.7969-280.1865,235.0232c-85.4915,86.1216-186.1677,212.8855-186.1677,234.407 c0,4.3,375.8694,6.9917,1133.5452,8.1147l1133.5457,1.6821l7.0835-13.2358c4.8418-9.0461,5.063-17.0139,0.6982-25.1682 c-6.001-11.2114-20.7446-12.1951-243.9141-16.2773c-328.5801-6.011-533.3574-18.8359-664.3843-41.6113 c-17.52-3.0454-51.9236-8.7219-76.4517-12.615c-48.0996-7.634-76.6228-14.5479-203.0422-49.218 c-81.4524-22.3381-153.4976-45.8708-220.6277-72.0671c-33.7463-13.1689-52.0886-21.6646-184.7583-85.5781 c-89.686-43.207-167.1985-85.778-181.1709-99.5021c-11.9443-11.7325-11.9685-12.532-0.7524-24.9255 c15.52-17.1492,33.9155-22.2844,45.4709-12.6946c15.6238,12.9659,69.9248,41.8811,184.2346,98.1016 c391.1138,192.3605,706.813,248.4838,1390.0801,247.1251l198.7065-0.3953l1.9795,71.0576 C4945.6245,2406.4636,4943.7808,2439.4058,4940.0845,2443.7134z"/> </svg>