<?xml version="1.0" encoding="UTF-8" standalone="no"?>
<!-- Created with Inkscape (http://www.inkscape.org/) -->

<svg
   version="1.1"
   id="svg2"
   width="1600"
   height="1600"
   viewBox="0 0 1600 1600"
   sodipodi:docname="eye-1915454.svg"
   inkscape:version="1.2.2 (b0a8486, 2022-12-01)"
   xmlns:inkscape="http://www.inkscape.org/namespaces/inkscape"
   xmlns:sodipodi="http://sodipodi.sourceforge.net/DTD/sodipodi-0.dtd"
   xmlns="http://www.w3.org/2000/svg"
   xmlns:svg="http://www.w3.org/2000/svg">
  <defs
     id="defs6">
    <clipPath
       clipPathUnits="userSpaceOnUse"
       id="clipPath18">
      <path
         d="M 0,1200 H 1200 V 0 H 0 Z"
         id="path16" />
    </clipPath>
  </defs>
  <sodipodi:namedview
     id="namedview4"
     pagecolor="#ffffff"
     bordercolor="#666666"
     borderopacity="1.0"
     inkscape:showpageshadow="2"
     inkscape:pageopacity="0.0"
     inkscape:pagecheckerboard="0"
     inkscape:deskcolor="#d1d1d1"
     showgrid="false"
     inkscape:zoom="0.1475"
     inkscape:cx="796.61017"
     inkscape:cy="800"
     inkscape:window-width="1419"
     inkscape:window-height="456"
     inkscape:window-x="0"
     inkscape:window-y="23"
     inkscape:window-maximized="0"
     inkscape:current-layer="g10">
    <inkscape:page
       x="0"
       y="0"
       id="page8"
       width="1600"
       height="1600" />
  </sodipodi:namedview>
  <g
     id="g10"
     inkscape:groupmode="layer"
     inkscape:label="Page 1"
     transform="matrix(1.3333333,0,0,-1.3333333,0,1600)">
    <g
       id="g12">
      <g
         id="g14"
         clip-path="url(#clipPath18)">
        <g
           id="g20"
           transform="translate(594.2214,408.4879)">
          <path
             d="m 0,0 c -115.908,0 -209.87,90.84 -209.87,202.896 0,112.057 93.962,202.897 209.87,202.897 115.909,0 209.871,-90.84 209.871,-202.897 C 209.871,90.84 115.909,0 0,0 m -478.221,202.118 c 529.572,-548.113 947,0 947,0 -461.04,554.137 -947,0 -947,0"
             style="fill:#231f20;fill-opacity:1;fill-rule:nonzero;stroke:none"
             id="path22" />
        </g>
        <g
           id="g24"
           transform="translate(596.0246,661.3725)">
          <path
             d="m 0,0 c 0,42.559 35.686,77.06 79.709,77.06 0.801,0 1.58,-0.094 2.377,-0.116 C 59.024,93.124 30.674,102.692 0,102.692 c -77.286,0 -139.938,-60.571 -139.938,-135.288 0,-74.718 62.652,-135.289 139.938,-135.289 70.5,0 128.798,50.41 138.496,115.975 C 123.921,-67.328 103.016,-77.059 79.709,-77.059 35.686,-77.059 0,-42.559 0,0"
             style="fill:#231f20;fill-opacity:1;fill-rule:nonzero;stroke:none"
             id="path26" />
        </g>
      </g>
    </g>
  </g>
</svg>
