<?xml version="1.0" encoding="UTF-8"?>
<svg data-name="Layer 1" viewBox="0 0 295.63 118.03" xmlns="http://www.w3.org/2000/svg" xmlns:xlink="http://www.w3.org/1999/xlink">
 <defs>
  <style>.cls-1{fill:url(#a);}.cls-2{fill:url(#d);}.cls-3{fill:url(#e);}</style>
  <radialGradient id="a" cx="208.16" cy="59.86" r="43.43" gradientUnits="userSpaceOnUse">
   <stop stop-color="#6cb5e4" offset="0"/>
   <stop stop-color="#63b0e1" offset=".09"/>
   <stop stop-color="#49a3d9" offset=".24"/>
   <stop stop-color="#208dcc" offset=".44"/>
   <stop stop-color="#007cc2" offset=".57"/>
   <stop stop-color="#0059a9" offset="1"/>
  </radialGradient>
  <radialGradient id="d" cx="553.32" cy="177.32" r="43.43" xlink:href="#a"/>
  <radialGradient id="e" cx="208.16" cy="56.86" r="9.75" fx="216.21" gradientUnits="userSpaceOnUse">
   <stop stop-color="#fff" offset="0"/>
   <stop offset=".47"/>
  </radialGradient>
 </defs>
 <circle class="cls-1" cx="208.16" cy="59.86" r="43.43"/>
 <path transform="translate(-345.16 -120.47)" d="M345.16,153.27l.52.8c.35.52.83,1.33,1.53,2.33A50.34,50.34,0,0,0,354,164.3a38.23,38.23,0,0,0,13.41,8.14,48.37,48.37,0,0,0,20,2.08,101.94,101.94,0,0,0,23.71-5.29,241.43,241.43,0,0,0,25.5-10.47q6.52-3.1,13.19-6.46l13.45-6.92c9.07-4.71,18.27-9.57,28-14,2.44-1.08,4.91-2.12,7.47-3.08,1.28-.48,2.58-.94,3.91-1.36.65-.22,1.34-.41,2-.61l1-.28.94-.25c5.14-1.36,10.32-2.44,15.51-3.32a147.39,147.39,0,0,1,15.57-1.79,125.69,125.69,0,0,1,15.35-.06,108,108,0,0,1,28.57,5.4,94.93,94.93,0,0,1,23.27,11.57A93.16,93.16,0,0,1,621.27,152a91.17,91.17,0,0,1,10.05,13.27,78.89,78.89,0,0,1,5.05,9.37c.51,1.11.86,2,1.09,2.58l.26.66c-.08-.07-.07-.21-.08-.19s.09.08,0,.21l-.36-.62c-.32-.54-.81-1.34-1.45-2.37a96.26,96.26,0,0,0-6.16-8.5,105.29,105.29,0,0,0-11.13-11.73,98.26,98.26,0,0,0-16.79-12.15,95.63,95.63,0,0,0-22.4-9.28,108.57,108.57,0,0,0-26.72-3.73,136.21,136.21,0,0,0-14.31.53c-4.83.44-9.7,1.14-14.59,2s-9.78,2.06-14.64,3.36l-.94.25-.85.24c-.56.17-1.13.32-1.7.52-1.14.37-2.28.78-3.43,1.22-2.3.87-4.61,1.86-6.92,2.9-9.26,4.13-18.46,9-27.65,13.48-4.58,2.29-9.17,4.54-13.75,6.68s-9.12,4.24-13.67,6.15a212.4,212.4,0,0,1-26.95,9.58,100.37,100.37,0,0,1-25.65,3.88A58.73,58.73,0,0,1,376,179.25,44.92,44.92,0,0,1,365.93,176a38.48,38.48,0,0,1-13.41-10.31,45.78,45.78,0,0,1-5.82-9c-.57-1.09-.89-2-1.16-2.54Z"/>
 <path class="cls-2" transform="translate(-345.16 -120.47)" d="M583.47,189.44c-12.72-5.27-12.47-5.35,1.16-.37-14.5-5.57-21.89-8.38-8-3.73-13.47-4.75-3.56-1.64,10.42,2.65-14.07-4.57-25.29-8.11-11.85-4.35-14.21-4.2-8.45-2.79,7.92,1.27-15.81-4.12-17.48-4.67-2.42-1.41-12.1-2.85,4.19.52,12.93,2.13-8.45-1.83-24.9-5.2-12.79-2.88-15.2-3-14-2.88,2.21.06-16.88-3.15-23.22-4.33-9.08-2-13.63-2.34-3.51-.77,12.45,1.66-16.07-2.54-27.16-4.26-14.2-2.45-13.84-2-9.56-1.49,8,.66-17.27-2.19-19.58-2.51-4.2-.88-13.25-1.49,2.45.09,15,1.26-12.92-1.42-26.25-2.75-12.43-1.83-15-1.25-8.8-1,7.23-.45-15.19-.8-15.44-1-1-.86-10.55-.35,5.78-.36,11.94-.6-6.16-.24-22.49-.24-11.94-.6-14.4.12-14.16-.06,1-.86-16,.59-22.19.8-7.23-.45-13.82.92-.49-.41,12.43-1.83-12.56,1.17-28.26,2.75-15,1.26-15.37,1.63-13.07,1.31,4.2-.88-17.55,2.15-21.83,2.67-8,.66-13,1.81-1.86.09,14.2-2.45-16,2.43-26.07,4-12.45,1.66-14.14,2.34-7.8,1.16,9.08-2-16.2,2.93-17.42,3.1-2.21.06-12.12,2.33,4.33-1,12.79-2.88-8.74,1.61-25,5-12.93,2.13-15.06,3.26-13.39,2.72,2.42-1.41-16.38,4.05-22.14,5.47-7.92,1.27-13.44,3.77-2.22.22,11.85-4.35-14,4.29-23.9,7.4-10.42,2.65-13.89,4.65-6.5,1.84,8-3.73-13.63,5-13.87,4.9-1.16-.37-9.35,3.6,4.57-2.31,9.86-4.79-5.47,2.07-19.41,7.93-10.31,3.73-12.65,5.44-12.54,5.21.54-1.08-14.11,6.51-21.28,9.85-8.25,3.14-12.8,6.34-3.66,1.41,9.18-5.61-13.09,6.89-23.46,12.46-11.38,5.46-12.93,7.24-7.89,4.11,6.45-4.77-14,8.43-15.55,9.25-2.68.76-10.49,6.66,3.3-2.63,10.58-7.74-7.47,4.83-21.26,14.14-11.15,6.91C563.61,170,565,168.83,578,159c-13.62,10-18.41,13.46-6.85,4.2-11,8.57-2,1.06,9.34-8.5-11.34,9.27-19.34,15.89-8.66,6.41-11.11,9.55-5.33,4.17,6-6.47-10.76,9.76-11,9.79-1.21.1-7.32,6.87,3.37-3.86,7.36-8.16-4.3,4-15,14.69-8.16,7.36-9.68,9.81-9.66,9.56.1-1.21-10.64,11.35-16,17.13-6.47,6-9.48,10.69-2.85,2.68,6.41-8.66-9.56,11.31-17.07,20.36-8.5,9.34-9.27,11.56-5.77,6.77,4.2-6.85-9.81,13.07-10.95,14.41-2.2,1.71-7.23,10.11,2.08-3.68,6.91-11.15-5.12,7.28-14.4,21.07-7.74,10.58-8.49,12.87-7.67,11.31.76-2.68-8.89,14.34-12,19.38-4.77,6.45-7,12.08-1.43,1.72,5.46-11.38-7,12.83-12,22-5.61,9.18-6.71,13-3.37,5.85,3.14-8.25-6.3,13.07-6.53,13.19-1.08.54-4.2,9.1,1.67-4.84,3.73-10.31-2.48,5.29-8.39,19.22-4.79,9.86-5.27,12.72-5.35,12.47-.37-1.16-5.57,14.5-8.38,21.89-3.73,8-4.75,13.47-1.64,3.56,2.65-10.42-4.57,14.07-8.11,25.29-4.35,11.85-4.2,14.21-2.79,8.45,1.27-7.92-4.12,15.81-4.67,17.48-1.41,2.42-2.85,12.1.52-4.19,2.13-12.93-1.83,8.45-5.2,24.9-2.88,12.79-3,15.2-2.88,14,.06-2.21-3.15,16.88-4.33,23.22-2,9.08-2.34,13.63-.77,3.51,1.66-12.45-2.54,16.07-4.26,27.16-2.45,14.2-2,13.84-1.49,9.56.66-8-2.19,17.27-2.51,19.58-.88,4.2-1.49,13.25.09-2.45,1.26-15-1.42,12.92-2.75,26.25-1.83,12.43-1.25,15-1,8.8-.45-7.23-.8,15.19-1,15.44-.86,1-.35,10.55-.36-5.78-.6-11.94-.24,6.16-.24,22.49-.6,11.94.12,14.4-.06,14.16-.86-1,.59,16,.8,22.19-.45,7.23.92,13.82-.41.49-1.83-12.43,1.17,12.56,2.75,28.26,1.26,15,1.63,15.37,1.31,13.07-.88-4.2,2.15,17.55,2.67,21.83.66,8,1.81,13,.09,1.86-2.45-14.2,2.43,16,4,26.07,1.66,12.45,2.34,14.14,1.16,7.8-2-9.08,2.93,16.2,3.1,17.42.06,2.21,2.33,12.12-1-4.33-2.88-12.79,1.61,8.74,5,25,2.13,12.93,3.26,15.06,2.72,13.39-1.41-2.42,4.05,16.38,5.47,22.14,1.27,7.92,3.77,13.44.22,2.22-4.35-11.85,4.29,14,7.4,23.9,2.65,10.42,4.65,13.89,1.84,6.5-3.73-8,5,13.63,4.9,13.87-.37,1.16,3.6,9.35-2.31-4.57-4.79-9.86h0c2.07,5.47,7.93,19.41,3.73,10.31,5.44,12.65,5.21,12.54-1.08-.54,6.51,14.11,9.85,21.28,3.14,8.25,6.34,12.8,1.41,3.66-5.61-9.18,6.89,13.09,12.46,23.46,5.46,11.38,7.24,12.93,4.11,7.89-4.77-6.45,8.43,14,9.25,15.55.76,2.68,6.66,10.49-2.63-3.3-7.74-10.58,4.83,7.47,14.14,21.26,6.91,11.15,8.75,12.7,7.61,11.36-2.2-1.71,10,13.62,13.46,18.41,4.2,6.85,8.57,11,1.06,2-8.5-9.34,9.27,11.34,15.89,19.34,6.41,8.66,9.55,11.11,4.17,5.33-6.47-6,9.76,10.76,9.79,11,.1,1.21,6.87,7.32-3.86-3.37-8.16-7.36,4,4.3,14.69,15,7.36,8.16,9.81,9.68,9.56,9.66-1.21-.1,11.35,10.64,17.13,16,6,6.47,10.69,9.48,2.68,2.85-8.66-6.41,11.31,9.56,20.36,17.07,9.34,8.5,11.56,9.27,6.77,5.77-6.85-4.2,13.07,9.81,14.41,10.95,1.71,2.2,10.11,7.23-3.68-2.08-11.15-6.91,7.28,5.12,21.07,14.4,10.58,7.74,12.87,8.49,11.31,7.67-2.68-.76,14.34,8.89,19.38,12,6.45,4.77,12.08,7,1.72,1.43-11.38-5.46,12.83,7,22,12,9.18,5.61,13,6.71,5.85,3.37-8.25-3.14,13.07,6.3,13.19,6.53.54,1.08,9.1,4.2-4.84-1.67-10.31-3.73h0c5.3,2.48,19.22,8.39,9.86,4.79,12.72,5.27,12.47,5.35-1.16.37,14.5,5.57,21.89,8.38,8,3.73,13.47,4.75,3.56,1.64-10.42-2.65,14.07,4.57,25.29,8.11,11.85,4.35,14.21,4.2,8.45,2.79-7.92-1.27,15.81,4.12,17.48,4.67,2.42,1.41C538,174,521.74,170.64,513,169c8.45,1.83,24.9,5.2,12.79,2.88,15.2,3,14,2.88-2.21-.06,16.88,3.15,23.22,4.33,9.08,2,13.63,2.34,3.51.77-12.45-1.66,16.07,2.54,27.16,4.26,14.2,2.45,13.84,2,9.56,1.49-8-.66,17.27,2.19,19.58,2.51,4.2.88,13.25,1.49-2.45-.09-15-1.26,12.92,1.42,26.25,2.75,12.43,1.83,15,1.25,8.8,1-7.23.45,15.19.8,15.44,1,1,.86,10.55.35-5.78.36-11.94.6,6.16.24,22.49.24,11.94.6,14.4-.12,14.16.06-1,.86,16-.59,22.19-.8,7.23.45,13.82-.92.49.41-12.43,1.83,12.56-1.17,28.26-2.75,15-1.26,15.37-1.63,13.07-1.31-4.2.88,17.55-2.15,21.83-2.67,8-.66,13-1.81,1.86-.09-14.2,2.45,16-2.43,26.07-4,12.45-1.66,14.14-2.34,7.8-1.16-9.08,2,16.2-2.93,17.42-3.1,2.21-.06,12.12-2.33-4.33,1-12.79,2.88,8.74-1.61,25-5,12.93-2.13,15.06-3.26,13.39-2.72-2.42,1.41,16.38-4.05,22.14-5.47,7.92-1.27,13.44-3.77,2.22-.22-11.85,4.35,14-4.29,23.9-7.4,10.42-2.65,13.89-4.65,6.5-1.84-8,3.73,13.63-5,13.87-4.9,1.16.37,9.35-3.6-4.57,2.31-9.86,4.79h0c5.47-2.07,19.41-7.93,10.31-3.73,12.65-5.44,12.54-5.21-.54,1.08,14.11-6.51,21.28-9.85,8.25-3.14,12.8-6.34,3.66-1.41-9.18,5.61,13.09-6.89,23.46-12.46,11.38-5.46,12.93-7.24,7.89-4.11-6.45,4.77,14-8.43,15.55-9.25,2.68-.76,10.49-6.66-3.3,2.63-10.58,7.74,7.47-4.83,21.26-14.14,11.15-6.91,12.7-8.75,11.36-7.61-1.71,2.2,13.62-10,18.41-13.46,6.85-4.2,11-8.57,2-1.06-9.34,8.5,11.34-9.27,19.34-15.89,8.66-6.41,11.11-9.55,5.33-4.17-6,6.47,10.76-9.76,11-9.79,1.21-.1,7.32-6.87-3.37,3.86-7.36,8.16,4.3-4,15-14.69,8.16-7.36,9.68-9.81,9.66-9.56-.1,1.21,10.64-11.35,16-17.13,6.47-6,9.48-10.69,2.85-2.68-6.41,8.66,9.56-11.31,17.07-20.36,8.5-9.34,9.27-11.56,5.77-6.77-4.2,6.85,9.81-13.07,10.95-14.41,2.2-1.71,7.23-10.11-2.08,3.68-6.91,11.15,5.12-7.28,14.4-21.07,7.74-10.58,8.49-12.87,7.67-11.31-.76,2.68,8.89-14.34,12-19.38,4.77-6.45,7-12.08,1.43-1.72-5.46,11.38,7-12.83,12-22,5.61-9.18,6.71-13,3.37-5.85-3.14,8.25,6.3-13.07,6.53-13.19,1.08-.54,4.2-9.1-1.67,4.84-3.73,10.31h0c2.48-5.29,8.39-19.22,4.79-9.86,5.27-12.72,5.35-12.47.37,1.16,5.57-14.5,8.38-21.89,3.73-8,4.75-13.47,1.64-3.56-2.65,10.42,4.57-14.07,8.11-25.29,4.35-11.85,4.2-14.21,2.79-8.45-1.27,7.92,4.12-15.81,4.67-17.48,1.41-2.42,2.85-12.1-.52,4.19-2.13,12.93,1.83-8.45,5.2-24.9,2.88-12.79,3-15.2,2.88-14-.06,2.21,3.15-16.88,4.33-23.22,2-9.08,2.34-13.63.77-3.51-1.66,12.45,2.54-16.07,4.26-27.16,2.45-14.2,2-13.84,1.49-9.56-.66,8,2.19-17.27,2.51-19.58.88-4.2,1.49-13.25-.09,2.45-1.26,15,1.42-12.92,2.75-26.25,1.83-12.43,1.25-15,1-8.8.45,7.23.8-15.19,1-15.44.86-1,.35-10.55.36,5.78.6,11.94.24-6.16.24-22.49.6-11.94-.12-14.4.06-14.16.86,1-.59-16-.8-22.19.45-7.23-.92-13.82.41-.49,1.83,12.43-1.17-12.56-2.75-28.26-1.26-15-1.63-15.37-1.31-13.07.88,4.2-2.15-17.55-2.67-21.83-.66-8-1.81-13-.09-1.86,2.45,14.2-2.43-16-4-26.07-1.66-12.45-2.34-14.14-1.16-7.8,2,9.08-2.93-16.2-3.1-17.42-.06-2.21-2.33-12.12,1,4.33,2.88,12.79-1.61-8.74-5-25-2.13-12.93-3.26-15.06-2.72-13.39,1.41,2.42-4.05-16.38-5.47-22.14-1.27-7.92-3.77-13.44-.22-2.22,4.35,11.85-4.29-14-7.4-23.9-2.65-10.42-4.65-13.89-1.84-6.5,3.73,8-5-13.63-4.9-13.87.37-1.16-3.6-9.35,2.31,4.57,4.79,9.86-2.07-5.47-7.93-19.41-3.73-10.31-5.44-12.65-5.21-12.54,1.08.54-6.51-14.11-9.85-21.28-3.14-8.25-6.34-12.8-1.41-3.66,5.61,9.18-6.89-13.09-12.46-23.46-5.46-11.38-7.24-12.93-4.11-7.89,4.77,6.45-8.43-14-9.25-15.55-.76-2.68-6.66-10.49,2.63,3.3,7.74,10.58-4.83-7.47-14.14-21.26-6.91-11.15-8.75-12.7-7.61-11.36,2.2,1.71-10-13.62-13.46-18.41-4.2-6.85-8.57-11-1.06-2,8.5,9.34-9.27-11.34-15.89-19.34-6.41-8.66-9.55-11.11-4.17-5.33,6.47,6-9.76-10.76-9.79-11-.1-1.21C569,193.35,579.73,204,584,208c-4-4.3-14.69-15-7.36-8.16-9.81-9.68-9.56-9.66,1.21.1-11.35-10.64-17.13-16-6-6.47-10.69-9.48-2.68-2.85,8.66,6.41-11.31-9.56-20.36-17.07-9.34-8.5-11.56-9.27-6.77-5.77,6.85,4.2-13.07-9.81-14.41-10.95-1.71-2.2-10.11-7.23,3.68,2.08,11.15,6.91-7.28-5.12-21.07-14.4-10.58-7.74-12.87-8.49-11.31-7.67,2.68.76-14.34-8.89-19.38-12-6.45-4.77-12.08-7-1.72-1.43,11.38,5.46-12.83-7-22-12-9.18-5.61-13-6.71-5.85-3.37,8.25,3.14-13.07-6.3-13.19-6.53-.54-1.08-9.1-4.2,4.84,1.67,10.31,3.73C588,191.75,574.12,185.84,583.47,189.44Z"/>
 <path transform="translate(-345.16 -120.47)" d="M353,165.16l2.26,3a68.84,68.84,0,0,0,6.95,7.52,47.61,47.61,0,0,0,5.54,4.39,39.7,39.7,0,0,0,7.11,3.77,41.09,41.09,0,0,0,18.41,2.69A62.53,62.53,0,0,0,404,184.81a100.6,100.6,0,0,0,11.42-3.44,216.73,216.73,0,0,0,24.2-10.78c4.14-2.15,8.39-4.34,12.67-6.66l13.07-7.1c4.43-2.4,8.94-4.86,13.6-7.2s9.43-4.7,14.49-6.81c2.55-1,5.16-2,7.9-2.93,1.37-.45,2.79-.87,4.24-1.25.76-.19,1.43-.37,2.26-.55l1.87-.41c2.42-.56,5.13-1,7.78-1.53s5.21-.88,7.82-1.23c5.21-.76,10.44-1.24,15.63-1.53l3.89-.17,3.87-.08q3.86,0,7.68.17A122.81,122.81,0,0,1,585.5,138a92.9,92.9,0,0,1,24.19,10.91,77.46,77.46,0,0,1,16.81,14.57,69.85,69.85,0,0,1,9.38,14,59.31,59.31,0,0,1,4,9.91c.35,1.17.57,2.09.71,2.7l.21.93s-.65-1.13-2-3.14a78.35,78.35,0,0,0-6.24-8.19,79.46,79.46,0,0,0-28.37-20.72,94.38,94.38,0,0,0-22.12-6.46,131.65,131.65,0,0,0-25.83-1.55c-2.26.07-4.54.22-6.84.39l-3.46.27-3.48.35c-4.66.52-9.37,1.27-14.12,2.08-2.37.4-4.75.9-7.13,1.37L514.07,157l-1.87.43-1.46.38c-1,.28-2,.6-3.1,1-2.11.72-4.28,1.57-6.46,2.49-8.81,3.67-17.8,8.4-26.84,12.82-4.51,2.25-9,4.49-13.59,6.6s-9.08,4.21-13.66,6.08a176.65,176.65,0,0,1-27.42,9.13,105.27,105.27,0,0,1-13.58,2.22,70.81,70.81,0,0,1-13.11,0,52.85,52.85,0,0,1-12-2.59,43.15,43.15,0,0,1-9.87-4.92,42.09,42.09,0,0,1-7.22-6.17,44.79,44.79,0,0,1-4.81-6.22,53.85,53.85,0,0,1-4.87-9.56c-.44-1.13-.71-2-.93-2.62Z"/>
 <path transform="translate(-345.16 -120.47)" d="M491,162.93l-.38,4c0,.38-.06.81-.11,1.29,0,.25-.07.47-.08.77l0,1c0,.71,0,1.47.09,2.28l.27,2.59.5,2.88.75,3.13,1,3.34c.43,1.13.83,2.31,1.3,3.5,1,2.37,2.08,4.84,3.38,7.3.64,1.24,1.3,2.48,2,3.71s1.45,2.47,2.22,3.7c1.53,2.46,3.19,4.88,4.88,7.24s3.46,4.63,5.23,6.8,3.54,4.23,5.25,6.17,3.39,3.73,5,5.36c6.3,6.54,11,10.49,11,10.49s-5.58-2.5-13.59-7.17a170.76,170.76,0,0,1-28-20.13c-1.19-1.08-2.39-2.17-3.53-3.31s-2.3-2.28-3.41-3.45c-2.23-2.34-4.32-4.8-6.28-7.29-1-1.25-1.88-2.54-2.8-3.79l-2.51-3.85-2.2-3.85-1.87-3.8c-.55-1.26-1-2.5-1.52-3.67s-.82-2.36-1.19-3.45l-.51-1.6c-.16-.54-.28-1.15-.41-1.69-.25-1.11-.47-2.13-.66-3.07l-.8-4.31Z"/>
 <circle class="cls-3" cx="208.16" cy="56.86" r="20.01"/>
</svg>
