<?xml version="1.0" encoding="UTF-8"?>
<svg enable-background="new 0 0 2650.502 1019.005" version="1.1" viewBox="0 0 2650.502 1019.005" xmlns="http://www.w3.org/2000/svg">
 <path d="m1226 267.38c69.472-48.963 147.42-52.909 235.55-2.7076 37.695 20.741 76.959 28.303 108.3-1.3537 141.12-133.53 287.46-210.15 481.94-197.65 134.28 8.6308 250.64 43.766 350.62 109.65 44.109 29.067 89.695 51.856 134.98 70.701 28.492 11.856 50.114 35.99 58.099 65.799 6.5286 24.37 9.4192 50.621 9.7339 78.204 0.2573 22.547-14.098 42.948-35.782 49.131-0.1724 0.0492-0.3452 0.098-0.5186 0.1464-32.655 4.7975-55.002 61.455-73.103 148.91-29.438 142.24-93.664 258.53-208.48 326.93-135.9 80.966-283.71 95.263-425.76 34.521-205.77-87.994-317.46-274.81-350.62-358.07-40.83-102.49-48.502-174.22-165.16-175.99-85.439-1.2975-125.02 11.393-144.85 87.994-48.498 187.29-132.89 328.21-310.01 409.51-213.23 97.878-388.15 67.2-563.16-59.565-97.393-70.545-160.87-193.74-192.23-369.58-8.3713-46.927-32.77-77.3-67.524-96.54-14.219-7.8715-22.816-23.133-22.795-39.386 0.0955-75.06 8.3498-136.81 54.445-136.86 39.498-5.9005 80.396-21.661 122.51-46.028 217.4-145.98 437.27-165.31 673.49-90.702 73.161 23.108 161.33 87.47 254.51 180.05 24.449 24.119 49.692 29.072 75.81 12.861zm-571.12-163.47c-235.79 0-426.94 178.42-426.94 398.51s191.15 398.51 426.94 398.51 426.94-178.42 426.94-398.51-191.15-398.51-426.94-398.51zm1378.1 16.245c-235.79 0-426.94 178.42-426.94 398.51s191.15 398.51 426.94 398.51 426.94-178.42 426.94-398.51-191.15-398.51-426.94-398.51z"/>
</svg>
