<?xml version="1.0" encoding="UTF-8" standalone="no"?>
<svg
   inkscape:export-ydpi="191.87601"
   inkscape:export-xdpi="191.87601"
   inkscape:export-filename="/Users/asomers/ARTlogoReview.png"
   sodipodi:docname="ARTtextPaths_v03.svg"
   inkscape:version="1.2.2 (b0a8486, 2022-12-01)"
   id="svg8"
   version="1.1"
   viewBox="0 0 122.46429 42.333328"
   height="42.333328mm"
   width="122.46429mm"
   xmlns:inkscape="http://www.inkscape.org/namespaces/inkscape"
   xmlns:sodipodi="http://sodipodi.sourceforge.net/DTD/sodipodi-0.dtd"
   xmlns="http://www.w3.org/2000/svg"
   xmlns:svg="http://www.w3.org/2000/svg"
   xmlns:rdf="http://www.w3.org/1999/02/22-rdf-syntax-ns#"
   xmlns:cc="http://creativecommons.org/ns#"
   xmlns:dc="http://purl.org/dc/elements/1.1/">
  <defs
     id="defs2">
    <rect
       x="94.748169"
       y="80.035721"
       width="103.1833"
       height="33.348217"
       id="rect1063" />
    <rect
       x="94.355835"
       y="79.054886"
       width="63.36161"
       height="15.10478"
       id="rect1057" />
    <rect
       x="30.015337"
       y="77.312233"
       width="113.39127"
       height="26.377115"
       id="rect854" />
    <rect
       x="39.309525"
       y="50.648811"
       width="124.73214"
       height="48.380951"
       id="rect837" />
    <rect
       x="30.015337"
       y="77.312233"
       width="113.39127"
       height="26.377115"
       id="rect854-1" />
    <rect
       x="30.015337"
       y="77.312233"
       width="113.39127"
       height="26.377115"
       id="rect905" />
    <filter
       x="-1.38"
       width="3.0421848"
       y="-0.058084488"
       height="1.6962249"
       inkscape:menu-tooltip="Oversaturate colors which can be fluorescent in real world"
       inkscape:menu="Color"
       inkscape:label="Color Shift"
       style="color-interpolation-filters:sRGB"
       id="filter156">
      <feGaussianBlur
         result="result8"
         stdDeviation="7.8100000000000005"
         id="feGaussianBlur144" />
      <feTurbulence
         baseFrequency="0.0049999999999999932"
         numOctaves="1"
         type="fractalNoise"
         result="result7"
         seed="20"
         id="feTurbulence146" />
      <feComposite
         in="SourceGraphic"
         operator="over"
         result="result6"
         in2="result8"
         id="feComposite148" />
      <feComposite
         in="result6"
         operator="arithmetic"
         result="result2"
         in2="result7"
         k3="1"
         id="feComposite150"
         k1="0"
         k2="0"
         k4="0" />
      <feComposite
         in2="result6"
         operator="in"
         in="result2"
         result="fbSourceGraphic"
         id="feComposite152" />
      <feComposite
         in2="fbSourceGraphic"
         in="fbSourceGraphic"
         k2="2.5"
         operator="arithmetic"
         id="feComposite154"
         result="fbSourceGraphic"
         k1="0"
         k3="0"
         k4="0" />
      <feColorMatrix
         result="fbSourceGraphicAlpha"
         in="fbSourceGraphic"
         values="0 0 0 -1 0 0 0 0 -1 0 0 0 0 -1 0 0 0 0 1 0"
         id="feColorMatrix206" />
      <feColorMatrix
         id="feColorMatrix208"
         type="hueRotate"
         values="0"
         in="fbSourceGraphic" />
      <feColorMatrix
         id="feColorMatrix210"
         type="saturate"
         values="0.75572519083969469" />
      <feColorMatrix
         id="feColorMatrix212"
         type="matrix"
         values="2 -1 0 0 0 0 2 -1 0 0 -1 0 2 0 0 0 0 0 1 0 "
         result="fbSourceGraphic" />
      <feColorMatrix
         result="fbSourceGraphicAlpha"
         in="fbSourceGraphic"
         values="0 0 0 -1 0 0 0 0 -1 0 0 0 0 -1 0 0 0 0 1 0"
         id="feColorMatrix332" />
      <feColorMatrix
         id="feColorMatrix334"
         values="1.4644 0 0 -0.14115 -0.232198 0 1.4644 0 -0.14115 -0.232198 0 0 1.4644 -0.14115 -0.232198 0 0 0 1 0"
         in="fbSourceGraphic"
         result="fbSourceGraphic" />
      <feColorMatrix
         result="fbSourceGraphicAlpha"
         in="fbSourceGraphic"
         values="0 0 0 -1 0 0 0 0 -1 0 0 0 0 -1 0 0 0 0 1 0"
         id="feColorMatrix324" />
      <feColorMatrix
         id="feColorMatrix326"
         type="hueRotate"
         values="0"
         result="color1"
         in="fbSourceGraphic" />
      <feColorMatrix
         id="feColorMatrix328"
         type="saturate"
         values="0.849498"
         result="fbSourceGraphic" />
      <feColorMatrix
         result="fbSourceGraphicAlpha"
         values="0 0 0 -1 0 0 0 0 -1 0 0 0 0 -1 0 0 0 0 1 0"
         id="feColorMatrix330"
         in="fbSourceGraphic" />
      <feColorMatrix
         id="feColorMatrix333"
         type="hueRotate"
         values="0"
         result="color1"
         in="fbSourceGraphic" />
      <feColorMatrix
         id="feColorMatrix335"
         type="saturate"
         values="0.849498"
         result="color2" />
      <feBlend
         mode="normal"
         id="feBlend227"
         in2="color2" />
    </filter>
    <filter
       style="color-interpolation-filters:sRGB"
       id="filter214"
       inkscape:label="filter1" />
    <filter
       style="color-interpolation-filters:sRGB"
       inkscape:label="Drop Shadow"
       id="filter1324">
      <feFlood
         flood-opacity="0.498039"
         flood-color="rgb(0,0,0)"
         result="flood"
         id="feFlood1314" />
      <feComposite
         in="flood"
         in2="SourceGraphic"
         operator="in"
         result="composite1"
         id="feComposite1316" />
      <feGaussianBlur
         in="composite1"
         stdDeviation="1.4"
         result="blur"
         id="feGaussianBlur1318" />
      <feOffset
         dx="0.7"
         dy="1.7"
         result="offset"
         id="feOffset1320" />
      <feComposite
         in="SourceGraphic"
         in2="offset"
         operator="over"
         result="composite2"
         id="feComposite1322" />
    </filter>
    <filter
       style="color-interpolation-filters:sRGB"
       inkscape:label="Drop Shadow"
       id="filter1852">
      <feFlood
         flood-opacity="0.59715639810426535"
         flood-color="rgb(113,9,149)"
         result="flood"
         id="feFlood1842" />
      <feComposite
         in="flood"
         in2="SourceGraphic"
         operator="out"
         result="composite1"
         id="feComposite1844" />
      <feGaussianBlur
         in="composite1"
         stdDeviation="0.29999999999999999"
         result="blur"
         id="feGaussianBlur1846" />
      <feOffset
         dx="0.20000000000000001"
         dy="0.20000000000000001"
         result="offset"
         id="feOffset1848" />
      <feComposite
         in="offset"
         in2="SourceGraphic"
         operator="atop"
         result="composite2"
         id="feComposite1850" />
    </filter>
    <filter
       style="color-interpolation-filters:sRGB"
       inkscape:label="Drop Shadow"
       id="filter2284"
       x="-0.031396494"
       y="-0.080962449"
       width="1.0736945"
       height="1.1900369">
      <feFlood
         flood-opacity="0.48341232227488151"
         flood-color="rgb(113,9,149)"
         result="flood"
         id="feFlood2274" />
      <feComposite
         in="flood"
         in2="SourceGraphic"
         operator="out"
         result="composite1"
         id="feComposite2276" />
      <feGaussianBlur
         in="composite1"
         stdDeviation="0.6"
         result="blur"
         id="feGaussianBlur2278" />
      <feOffset
         dx="0.5"
         dy="0.5"
         result="offset"
         id="feOffset2280" />
      <feComposite
         in="offset"
         in2="SourceGraphic"
         operator="atop"
         result="composite2"
         id="feComposite2282" />
    </filter>
    <rect
       x="30.015337"
       y="77.312233"
       width="113.39127"
       height="26.377115"
       id="rect854-1-4" />
    <rect
       x="30.015337"
       y="77.312233"
       width="113.39127"
       height="26.377115"
       id="rect2295" />
    <filter
       style="color-interpolation-filters:sRGB"
       inkscape:label="Drop Shadow"
       id="filter1852-9">
      <feFlood
         flood-opacity="0.59715639810426535"
         flood-color="rgb(113,9,149)"
         result="flood"
         id="feFlood1842-1" />
      <feComposite
         in="flood"
         in2="SourceGraphic"
         operator="out"
         result="composite1"
         id="feComposite1844-7" />
      <feGaussianBlur
         in="composite1"
         stdDeviation="0.29999999999999999"
         result="blur"
         id="feGaussianBlur1846-5" />
      <feOffset
         dx="0.20000000000000001"
         dy="0.20000000000000001"
         result="offset"
         id="feOffset1848-5" />
      <feComposite
         in="offset"
         in2="SourceGraphic"
         operator="atop"
         result="composite2"
         id="feComposite1850-4" />
    </filter>
    <filter
       style="color-interpolation-filters:sRGB"
       inkscape:label="Blur"
       id="filter2416"
       width="2.5"
       height="1.5"
       y="-0.30000001"
       x="-0.1">
      <feGaussianBlur
         stdDeviation="0.39999999999999991 0.40000000000000002"
         result="blur"
         id="feGaussianBlur2414" />
    </filter>
    <rect
       x="30.015337"
       y="77.312233"
       width="113.39127"
       height="26.377115"
       id="rect854-1-0" />
    <rect
       x="30.015337"
       y="77.312233"
       width="113.39127"
       height="26.377115"
       id="rect2445" />
    <filter
       style="color-interpolation-filters:sRGB"
       inkscape:label="Blur"
       id="filter1852-4"
       height="2"
       y="-0.30000001">
      <feFlood
         flood-opacity="0.59715639810426535"
         flood-color="rgb(113,9,149)"
         result="flood"
         id="feFlood1842-0" />
      <feComposite
         in="flood"
         in2="SourceGraphic"
         operator="out"
         result="composite1"
         id="feComposite1844-5" />
      <feGaussianBlur
         in="composite1"
         stdDeviation="0.29999999999999999"
         result="blur"
         id="feGaussianBlur1846-6" />
      <feOffset
         dx="0.20000000000000001"
         dy="0.20000000000000001"
         result="offset"
         id="feOffset1848-8" />
      <feComposite
         in="offset"
         in2="SourceGraphic"
         operator="atop"
         result="fbSourceGraphic"
         id="feComposite1850-5" />
      <feColorMatrix
         result="fbSourceGraphicAlpha"
         in="fbSourceGraphic"
         values="0 0 0 -1 0 0 0 0 -1 0 0 0 0 -1 0 0 0 0 1 0"
         id="feColorMatrix2752" />
      <feGaussianBlur
         id="feGaussianBlur2754"
         stdDeviation="0.7 0.7"
         result="blur"
         in="fbSourceGraphic" />
    </filter>
    <filter
       x="-0.34025658"
       width="1.6805132"
       y="-0.98132191"
       height="2.9626438"
       inkscape:menu-tooltip="Oversaturate colors which can be fluorescent in real world"
       inkscape:menu="Color"
       inkscape:label="Lightness-Contrast"
       style="color-interpolation-filters:sRGB"
       id="filter156-8">
      <feGaussianBlur
         result="result8"
         stdDeviation="12.999674"
         id="feGaussianBlur144-6" />
      <feTurbulence
         baseFrequency="0.019000000000000003"
         numOctaves="1"
         type="fractalNoise"
         result="result7"
         seed="45"
         id="feTurbulence146-9" />
      <feComposite
         in="SourceGraphic"
         operator="over"
         result="result6"
         in2="result8"
         id="feComposite148-0" />
      <feComposite
         in="result6"
         operator="arithmetic"
         result="result2"
         in2="result7"
         k3="1"
         id="feComposite150-1"
         k1="0"
         k2="0"
         k4="0" />
      <feComposite
         in2="result6"
         operator="in"
         in="result2"
         result="fbSourceGraphic"
         id="feComposite152-6" />
      <feComposite
         in2="fbSourceGraphic"
         in="fbSourceGraphic"
         k2="2.5"
         operator="arithmetic"
         id="feComposite154-4"
         result="fbSourceGraphic"
         k1="0"
         k3="0"
         k4="0" />
      <feColorMatrix
         result="fbSourceGraphicAlpha"
         in="fbSourceGraphic"
         values="0 0 0 -1 0 0 0 0 -1 0 0 0 0 -1 0 0 0 0 1 0"
         id="feColorMatrix206-4" />
      <feColorMatrix
         id="feColorMatrix208-8"
         type="hueRotate"
         values="0"
         in="fbSourceGraphic" />
      <feColorMatrix
         id="feColorMatrix210-6"
         type="saturate"
         values="1" />
      <feColorMatrix
         id="feColorMatrix212-1"
         type="matrix"
         values="2 -1 0 0 0 0 2 -1 0 0 -1 0 2 0 0 0 0 0 1 0 "
         result="fbSourceGraphic" />
      <feColorMatrix
         result="fbSourceGraphicAlpha"
         in="fbSourceGraphic"
         values="1"
         id="feColorMatrix332-4"
         type="saturate" />
      <feColorMatrix
         id="feColorMatrix334-0"
         values="1"
         in="fbSourceGraphic"
         type="hueRotate" />
      <feGaussianBlur
         stdDeviation="13"
         id="feGaussianBlur255"
         result="result9" />
      <feBlend
         mode="color-burn"
         in2="result9"
         id="feBlend257" />
    </filter>
    <clipPath
       clipPathUnits="userSpaceOnUse"
       id="clipPath3943">
      <rect
         style="fill:#55d400;stroke-width:0.175098"
         id="rect3945"
         width="110.12624"
         height="56.853722"
         x="46.534058"
         y="44.022469"
         ry="9.5123463" />
    </clipPath>
    <clipPath
       clipPathUnits="userSpaceOnUse"
       id="clipPath3947">
      <rect
         style="fill:#55d400;stroke-width:0.175098"
         id="rect3949"
         width="110.12624"
         height="56.853722"
         x="46.050304"
         y="43.508286"
         ry="9.5123463" />
    </clipPath>
    <clipPath
       clipPathUnits="userSpaceOnUse"
       id="clipPath3951">
      <rect
         style="fill:#55d400;stroke-width:0.185782"
         id="rect3953"
         width="120.46445"
         height="58.510712"
         x="27.922983"
         y="46.614925"
         ry="9.7895813" />
    </clipPath>
    <filter
       x="-0.25"
       width="1.5"
       y="-0.25"
       height="1.5"
       inkscape:menu-tooltip="Oversaturate colors which can be fluorescent in real world"
       inkscape:menu="Color"
       inkscape:label="Lightness-Contrast"
       style="color-interpolation-filters:sRGB"
       id="filter156-0">
      <feGaussianBlur
         result="result8"
         stdDeviation="9.8129411764705878"
         id="feGaussianBlur144-8" />
      <feTurbulence
         baseFrequency="0.018000000000000002"
         numOctaves="1"
         type="fractalNoise"
         result="result7"
         seed="43"
         id="feTurbulence146-2" />
      <feComposite
         in="SourceGraphic"
         operator="over"
         result="result6"
         in2="result8"
         id="feComposite148-06" />
      <feComposite
         in="result6"
         operator="arithmetic"
         result="result2"
         in2="result7"
         k3="1"
         id="feComposite150-0"
         k1="0"
         k2="0"
         k4="0" />
      <feComposite
         in2="result6"
         operator="in"
         in="result2"
         result="fbSourceGraphic"
         id="feComposite152-7" />
      <feComposite
         in2="fbSourceGraphic"
         in="fbSourceGraphic"
         k2="2.5"
         operator="arithmetic"
         id="feComposite154-2"
         result="fbSourceGraphic"
         k1="0"
         k3="0"
         k4="0" />
      <feColorMatrix
         result="fbSourceGraphicAlpha"
         in="fbSourceGraphic"
         values="0 0 0 -1 0 0 0 0 -1 0 0 0 0 -1 0 0 0 0 1 0"
         id="feColorMatrix206-9" />
      <feColorMatrix
         id="feColorMatrix208-81"
         type="hueRotate"
         values="0"
         in="fbSourceGraphic" />
      <feColorMatrix
         id="feColorMatrix210-1"
         type="saturate"
         values="1" />
      <feColorMatrix
         id="feColorMatrix212-6"
         type="matrix"
         values="2 -1 0 0 0 0 2 -1 0 0 -1 0 2 0 0 0 0 0 1 0 "
         result="fbSourceGraphic" />
      <feColorMatrix
         result="fbSourceGraphicAlpha"
         in="fbSourceGraphic"
         values="0 0 0 -1 0 0 0 0 -1 0 0 0 0 -1 0 0 0 0 1 0"
         id="feColorMatrix332-1" />
      <feColorMatrix
         id="feColorMatrix334-1"
         values="1.4644 0 0 -0.14115 -0.232198 0 1.4644 0 -0.14115 -0.232198 0 0 1.4644 -0.14115 -0.232198 0 0 0 1 0"
         in="fbSourceGraphic" />
    </filter>
    <clipPath
       clipPathUnits="userSpaceOnUse"
       id="clipPath4712">
      <rect
         style="fill:#55d400;stroke-width:0.219516"
         id="rect4714"
         width="105.51295"
         height="93.263702"
         x="48.840698"
         y="28.307737"
         ry="15.68252"
         clip-path="none"
         rx="13.696996" />
    </clipPath>
    <clipPath
       clipPathUnits="userSpaceOnUse"
       id="clipPath4716">
      <rect
         style="fill:#55d400;stroke-width:0.219516"
         id="rect4718"
         width="105.51295"
         height="93.263702"
         x="48.356945"
         y="27.793558"
         ry="15.68252"
         clip-path="none"
         rx="13.696996" />
    </clipPath>
    <clipPath
       clipPathUnits="userSpaceOnUse"
       id="clipPath4720">
      <rect
         style="fill:#55d400;stroke-width:0.23291"
         id="rect4722"
         width="115.41808"
         height="95.98185"
         x="30.446163"
         y="30.442192"
         ry="16.139584"
         clip-path="none"
         rx="14.982815" />
    </clipPath>
    <filter
       style="color-interpolation-filters:sRGB"
       inkscape:label="Drop Shadow"
       id="filter1535"
       x="-0.028846738"
       y="-0.076855997"
       width="1.0657065"
       height="1.1750609">
      <feFlood
         flood-opacity="0.784314"
         flood-color="rgb(43,0,47)"
         result="flood"
         id="feFlood1525" />
      <feComposite
         in="flood"
         in2="SourceGraphic"
         operator="in"
         result="composite1"
         id="feComposite1527" />
      <feGaussianBlur
         in="composite1"
         stdDeviation="0.6"
         result="blur"
         id="feGaussianBlur1529" />
      <feOffset
         dx="0.4"
         dy="0.4"
         result="offset"
         id="feOffset1531" />
      <feComposite
         in="SourceGraphic"
         in2="offset"
         operator="over"
         result="composite2"
         id="feComposite1533" />
    </filter>
    <rect
       x="94.748169"
       y="80.035721"
       width="103.1833"
       height="33.348217"
       id="rect1063-4" />
    <rect
       x="94.748169"
       y="80.035721"
       width="103.1833"
       height="33.348217"
       id="rect162" />
    <filter
       style="color-interpolation-filters:sRGB"
       inkscape:label="Drop Shadow"
       id="filter1535-6"
       x="-0.014658047"
       y="-0.29235697"
       width="1.0333878"
       height="1.6659242">
      <feFlood
         flood-opacity="0.784314"
         flood-color="rgb(43,0,47)"
         result="flood"
         id="feFlood1525-0" />
      <feComposite
         in="flood"
         in2="SourceGraphic"
         operator="in"
         result="composite1"
         id="feComposite1527-3" />
      <feGaussianBlur
         in="composite1"
         stdDeviation="0.6"
         result="blur"
         id="feGaussianBlur1529-2" />
      <feOffset
         dx="0.4"
         dy="0.4"
         result="offset"
         id="feOffset1531-6" />
      <feComposite
         in="SourceGraphic"
         in2="offset"
         operator="over"
         result="composite2"
         id="feComposite1533-9" />
    </filter>
    <filter
       style="color-interpolation-filters:sRGB"
       id="filter337"
       inkscape:label="filter12" />
    <rect
       x="94.748169"
       y="80.035721"
       width="103.1833"
       height="33.348217"
       id="rect1063-4-3" />
    <rect
       x="94.748169"
       y="80.035721"
       width="103.1833"
       height="33.348217"
       id="rect168" />
    <filter
       style="color-interpolation-filters:sRGB"
       inkscape:label="Felt"
       id="filter1535-6-7"
       x="-0.15000001"
       y="-0.15000001"
       width="1.3"
       height="1.3"
       inkscape:menu-tooltip="Felt like texture with color turbulence and slightly darker at the edges"
       inkscape:menu="Textures">
      <feFlood
         flood-opacity="0.784314"
         flood-color="rgb(43,0,47)"
         result="flood"
         id="feFlood1525-0-9" />
      <feComposite
         in="flood"
         in2="SourceGraphic"
         operator="in"
         result="composite1"
         id="feComposite1527-3-0" />
      <feGaussianBlur
         in="composite1"
         stdDeviation="0.6"
         result="blur"
         id="feGaussianBlur1529-2-2" />
      <feOffset
         dx="0.4"
         dy="0.4"
         result="offset"
         id="feOffset1531-6-3" />
      <feComposite
         in="SourceGraphic"
         in2="offset"
         operator="over"
         result="fbSourceGraphic"
         id="feComposite1533-9-9" />
      <feColorMatrix
         result="fbSourceGraphicAlpha"
         in="fbSourceGraphic"
         values="0 0 0 -1 0 0 0 0 -1 0 0 0 0 -1 0 0 0 0 1 0"
         id="feColorMatrix211" />
      <feGaussianBlur
         id="feGaussianBlur213"
         result="result1"
         in="fbSourceGraphic"
         stdDeviation="2" />
      <feTurbulence
         id="feTurbulence215"
         result="result0"
         numOctaves="5"
         baseFrequency="0.05"
         type="fractalNoise" />
      <feDisplacementMap
         in2="result0"
         id="feDisplacementMap217"
         result="result2"
         scale="20"
         yChannelSelector="G"
         xChannelSelector="R"
         in="result1" />
      <feGaussianBlur
         id="feGaussianBlur219"
         result="result4"
         in="result2"
         stdDeviation="5" />
      <feComposite
         in2="result4"
         id="feComposite221"
         result="result6"
         k1="1"
         k3="1"
         k2="0.5"
         in="result0"
         operator="arithmetic"
         k4="0" />
      <feComposite
         in2="result0"
         id="feComposite223"
         in="result6"
         operator="in"
         result="result91" />
      <feComposite
         in2="result91"
         id="feComposite225"
         operator="arithmetic"
         k1="1.5"
         in="result2"
         k2="0"
         k3="0"
         k4="0" />
    </filter>
    <rect
       x="94.748169"
       y="80.035721"
       width="103.1833"
       height="33.348217"
       id="rect1063-4-2" />
    <rect
       x="94.748169"
       y="80.035721"
       width="103.1833"
       height="33.348217"
       id="rect180" />
    <filter
       style="color-interpolation-filters:sRGB"
       inkscape:label="Alpha Draw Liquid"
       id="filter1535-6-73"
       x="-0.5"
       y="-0.5"
       width="2"
       height="2"
       inkscape:menu="Image Paint and Draw"
       inkscape:menu-tooltip="Gives a transparent fluid drawing effect with rough line and filling">
      <feFlood
         flood-opacity="0.784314"
         flood-color="rgb(43,0,47)"
         result="flood"
         id="feFlood1525-0-7" />
      <feComposite
         in="flood"
         in2="SourceGraphic"
         operator="in"
         result="composite1"
         id="feComposite1527-3-9" />
      <feGaussianBlur
         in="composite1"
         stdDeviation="0.6"
         result="blur"
         id="feGaussianBlur1529-2-0" />
      <feOffset
         dx="0.4"
         dy="0.4"
         result="offset"
         id="feOffset1531-6-2" />
      <feComposite
         in="SourceGraphic"
         in2="offset"
         operator="over"
         result="fbSourceGraphic"
         id="feComposite1533-9-3" />
      <feColorMatrix
         result="fbSourceGraphicAlpha"
         in="fbSourceGraphic"
         values="0 0 0 -1 0 0 0 0 -1 0 0 0 0 -1 0 0 0 0 1 0"
         id="feColorMatrix223" />
      <feGaussianBlur
         id="feGaussianBlur225"
         result="result12"
         stdDeviation="2"
         in="fbSourceGraphic" />
      <feTurbulence
         id="feTurbulence227"
         numOctaves="1"
         seed="0"
         type="fractalNoise"
         baseFrequency="0.03"
         result="result1" />
      <feDisplacementMap
         in2="result12"
         id="feDisplacementMap229"
         in="result1"
         scale="200"
         yChannelSelector="B"
         xChannelSelector="R"
         result="result3" />
      <feComposite
         in2="result1"
         id="feComposite231"
         result="result14"
         operator="in" />
      <feGaussianBlur
         id="feGaussianBlur233"
         in="result14"
         stdDeviation="0.5"
         result="result8" />
      <feConvolveMatrix
         id="feConvolveMatrix235"
         bias="0"
         result="result0"
         preserveAlpha="true"
         targetY="1"
         targetX="1"
         divisor="1"
         in="result8"
         kernelMatrix="1 1 1 1 -8 1 1 1 1 "
         order="3 3" />
      <feColorMatrix
         id="feColorMatrix237"
         type="luminanceToAlpha"
         result="result1"
         in="result0"
         values="1" />
      <feComposite
         in2="result1"
         id="feComposite239"
         in="result1"
         k2="5"
         operator="arithmetic"
         result="result11"
         k1="0"
         k3="0"
         k4="0" />
      <feGaussianBlur
         id="feGaussianBlur241"
         stdDeviation="0.2"
         in="result11"
         result="result7" />
      <feColorMatrix
         id="feColorMatrix243"
         values="1 0 0 0 0 0 1 0 0 0 0 0 1 0 0 0 0 0 5 -0.5 "
         result="result9" />
      <feComposite
         in2="result9"
         id="feComposite245"
         result="result13"
         operator="in"
         in="result12" />
      <feFlood
         id="feFlood247"
         flood-color="rgb(157,87,40)"
         result="result10"
         flood-opacity="1" />
      <feComposite
         in2="result13"
         id="feComposite249"
         operator="in"
         in="result10"
         result="result15" />
      <feComposite
         in2="fbSourceGraphic"
         id="feComposite251"
         operator="in" />
    </filter>
    <clipPath
       clipPathUnits="userSpaceOnUse"
       id="clipPath8420">
      <rect
         style="opacity:1;fill:#71db00;fill-opacity:1;stroke:none;stroke-width:0.529;stroke-linecap:round;stroke-linejoin:round;paint-order:stroke fill markers"
         id="rect8422"
         width="122.46429"
         height="42.333328"
         x="18.520832"
         y="14.363094"
         ry="14.741072" />
    </clipPath>
  </defs>
  <sodipodi:namedview
     id="base"
     pagecolor="#ffffff"
     bordercolor="#666666"
     borderopacity="1.0"
     inkscape:pageopacity="0.0"
     inkscape:pageshadow="2"
     inkscape:zoom="0.7"
     inkscape:cx="144.28571"
     inkscape:cy="312.14286"
     inkscape:document-units="mm"
     inkscape:current-layer="layer1"
     inkscape:document-rotation="0"
     showgrid="false"
     inkscape:window-width="1403"
     inkscape:window-height="855"
     inkscape:window-x="7"
     inkscape:window-y="23"
     inkscape:window-maximized="0"
     showguides="true"
     inkscape:snap-center="false"
     inkscape:snap-object-midpoints="false"
     inkscape:snap-global="false"
     inkscape:snap-nodes="true"
     inkscape:showpageshadow="2"
     inkscape:pagecheckerboard="0"
     inkscape:deskcolor="#d1d1d1" />
  <metadata
     id="metadata5">
    <rdf:RDF>
      <cc:Work
         rdf:about="">
        <dc:format>image/svg+xml</dc:format>
        <dc:type
           rdf:resource="http://purl.org/dc/dcmitype/StillImage" />
      </cc:Work>
    </rdf:RDF>
  </metadata>
  <g
     inkscape:label="Layer 1"
     inkscape:groupmode="layer"
     id="layer1"
     style="display:inline"
     transform="translate(-18.520832,-14.363094)">
    <g
       id="g8418"
       clip-path="url(#clipPath8420)">
      <rect
         style="opacity:1;fill:#150078;fill-opacity:1;stroke:#f9ff40;stroke-width:2;stroke-linecap:round;paint-order:stroke fill markers"
         id="rect253"
         width="202.5663"
         height="94.330505"
         x="-26.38892"
         y="-6.1405559" />
      <rect
         style="opacity:0.874576;mix-blend-mode:hard-light;fill:#0ed400;fill-opacity:1;stroke-width:0.185782;filter:url(#filter156-8)"
         id="rect833"
         width="183.38872"
         height="63.586899"
         x="-7.0288901"
         y="25.25148"
         ry="0"
         clip-path="none"
         transform="matrix(-1.0261747,0,0,-1.2434664,161.0176,110.1245)"
         rx="0"
         inkscape:export-xdpi="191.87595"
         inkscape:export-ydpi="191.87595" />
    </g>
    <g
       aria-label="IRT"
       id="text952"
       style="font-weight:300;font-size:25.4px;line-height:1.25;font-family:Montserrat;-inkscape-font-specification:'Montserrat Light';stroke-width:0.264583;filter:url(#filter2284)"
       transform="matrix(1.4312672,0,0,1.4312672,-136.56959,-25.44669)">
      <path
         d="m 130.93969,50.489044 h -3.22461 v -4.365625 h -11.33574 v 4.365625 h -3.22461 v -8.89248 q 0,-1.947168 0.66972,-3.584277 0.66973,-1.63711 1.86036,-2.815332 1.19062,-1.178223 2.81533,-1.835547 1.6247,-0.657324 3.54707,-0.657324 h 7.26777 q 0.33486,0 0.63252,0.124023 0.29766,0.124023 0.5209,0.347266 0.22324,0.223242 0.34726,0.520898 0.12403,0.297656 0.12403,0.63252 z M 116.37934,42.89881 h 11.33574 v -6.970117 h -5.66787 q -0.14883,0 -0.63252,0.04961 -0.47129,0.03721 -1.10381,0.21084 -0.62012,0.173633 -1.31465,0.533301 -0.69453,0.359668 -1.27744,0.992187 -0.58291,0.63252 -0.96738,1.5875 -0.37207,0.942578 -0.37207,2.294434 z"
         style="font-style:normal;font-variant:normal;font-weight:normal;font-stretch:normal;font-size:25.4px;font-family:Audiowide;-inkscape-font-specification:Audiowide;fill:#ffffff;stroke-width:0.264583"
         id="path954" />
      <path
         id="path956"
         style="font-style:normal;font-variant:normal;font-weight:normal;font-stretch:normal;font-size:25.4px;font-family:Audiowide;-inkscape-font-specification:Audiowide;fill:#ffffff;stroke-width:0.999999"
         d="m 495.9043,123.60547 c 1.76905,0.9612 3.15262,2.5616 3.5,4.62305 0.0414,2.52075 0.052,5.04288 0.0781,7.56445 h 35.92383 c 0.25002,0 0.51568,0.0155 0.79687,0.0469 0.31257,0.0313 0.59393,0.14063 0.84376,0.32813 0.28131,0.15625 0.50015,0.42187 0.65624,0.79687 0.18747,0.34376 0.28126,0.85938 0.28126,1.54688 v 7.6875 c 0,1.59375 -0.25001,3.01562 -0.75,4.26562 -0.5,1.21875 -1.21874,2.26563 -2.15626,3.14063 -0.90625,0.875 -1.99999,1.57812 -3.28124,2.10937 -1.25001,0.5 -2.6406,0.81251 -4.17188,0.9375 h -27.5625 v 12.1875 h 8.76562 l 25.40626,21.98438 H 553.0781 L 527.625,168.83984 c 1.50002,0 3.09377,-0.17187 4.78125,-0.51562 1.71874,-0.34375 3.40624,-0.89063 5.0625,-1.64063 1.68748,-0.78124 3.29685,-1.76562 4.82813,-2.95312 1.53123,-1.1875 2.87497,-2.60937 4.03124,-4.26563 1.18749,-1.68749 2.12501,-3.625 2.8125,-5.8125 0.68769,-2.1875 1.03126,-4.67187 1.03126,-7.45312 v -7.78125 c 0,-1.5 -0.26563,-3.10937 -0.79688,-4.82813 -0.49999,-1.71875 -1.34376,-3.3125 -2.53125,-4.78125 -1.15627,-1.5 -2.67189,-2.73437 -4.54687,-3.70312 -1.87499,-1 -4.17186,-1.5 -6.89063,-1.5 z"
         transform="scale(0.26458333)" />
      <path
         id="path958"
         style="font-style:normal;font-variant:normal;font-weight:normal;font-stretch:normal;font-size:25.4px;font-family:Audiowide;-inkscape-font-specification:Audiowide;fill:#ffffff;stroke-width:0.999999"
         d="m 544.80078,123.60547 c 4.29123,1.62916 7.85317,5.18768 9.24024,9.63672 0.20467,0.84225 0.35206,1.69505 0.47851,2.55078 h 13.12109 v 55.03125 h 12.1875 v -55.03125 h 21.19009 v -6.09375 c 0,0 0.11482,-2.64822 -1.87109,-4.4375 -2.01415,-1.81472 -5.10547,-1.65625 -5.10547,-1.65625 z"
         transform="scale(0.26458333)"
         sodipodi:nodetypes="cccccccccscc" />
    </g>
    <g
       aria-label="IRT"
       id="text952-0"
       style="font-weight:300;font-size:25.4px;line-height:1.25;font-family:Montserrat;-inkscape-font-specification:'Montserrat Light';display:inline;stroke-width:0.264583"
       transform="translate(-69.542575,-29.568775)" />
    <text
       xml:space="preserve"
       id="text1055"
       style="font-style:normal;font-variant:normal;font-weight:normal;font-stretch:normal;font-size:10.5833px;line-height:1.25;font-family:'Arima Madurai';-inkscape-font-specification:'Arima Madurai';white-space:pre;shape-inside:url(#rect1057);display:inline"
       transform="translate(-69.542575,-29.568775)" />
    <g
       aria-label="ACCESSIBLE
READING
TECHNOLOGIES  "
       transform="translate(-9.946456,-52.56507)"
       id="text1061"
       style="font-size:6.87917px;line-height:1;font-family:'DIN Alternate';-inkscape-font-specification:'DIN Alternate';white-space:pre;shape-inside:url(#rect1063);display:inline;filter:url(#filter1535)">
      <path
         d="m 96.131942,83.71721 0.708743,-2.139664 h 0.01344 l 0.708742,2.139664 z m 2.0221,1.753382 h 0.78264 l -1.780254,-4.897378 h -0.621409 l -1.780254,4.897378 h 0.785999 l 0.376204,-1.095024 h 1.857511 z"
         style="fill:#ffffff"
         id="path860" />
      <path
         d="m 101.85227,84.100132 q -0.30903,0.668435 -0.9338,0.668435 -0.262,0 -0.4501,-0.110846 -0.19146,-0.09405 -0.30902,-0.245204 -0.14444,-0.157872 -0.191464,-0.413154 -0.05374,-0.255281 -0.05374,-0.97746 0,-0.722178 0.05374,-0.984178 0.04702,-0.248564 0.191464,-0.406435 0.11756,-0.151154 0.30902,-0.251923 0.1881,-0.09741 0.4501,-0.104128 0.35605,0.0067 0.60462,0.204897 0.23849,0.208256 0.32918,0.503846 h 0.786 q -0.11757,-0.614692 -0.56431,-1.031204 -0.44674,-0.413153 -1.15549,-0.419871 -0.57774,0.0067 -0.96402,0.275435 -0.393,0.265359 -0.571025,0.604615 -0.110846,0.178025 -0.16459,0.466897 -0.05038,0.288871 -0.05038,1.142049 0,0.839743 0.05038,1.135332 0.02687,0.157872 0.06718,0.262 0.04367,0.100769 0.09741,0.211615 0.178025,0.339256 0.571025,0.597896 0.38628,0.268718 0.96402,0.282154 0.63821,0 1.10511,-0.362769 0.45346,-0.366128 0.61469,-1.047999 z"
         style="fill:#ffffff"
         id="path862" />
      <path
         d="m 105.67813,84.100132 q -0.30902,0.668435 -0.93379,0.668435 -0.262,0 -0.4501,-0.110846 -0.19146,-0.09405 -0.30903,-0.245204 -0.14443,-0.157872 -0.19146,-0.413154 -0.0537,-0.255281 -0.0537,-0.97746 0,-0.722178 0.0537,-0.984178 0.047,-0.248564 0.19146,-0.406435 0.11757,-0.151154 0.30903,-0.251923 0.1881,-0.09741 0.4501,-0.104128 0.35605,0.0067 0.60461,0.204897 0.23849,0.208256 0.32918,0.503846 h 0.786 q -0.11756,-0.614692 -0.5643,-1.031204 -0.44675,-0.413153 -1.15549,-0.419871 -0.57774,0.0067 -0.96402,0.275435 -0.393,0.265359 -0.57103,0.604615 -0.11084,0.178025 -0.16459,0.466897 -0.0504,0.288871 -0.0504,1.142049 0,0.839743 0.0504,1.135332 0.0269,0.157872 0.0672,0.262 0.0437,0.100769 0.0974,0.211615 0.17803,0.339256 0.57103,0.597896 0.38628,0.268718 0.96402,0.282154 0.6382,0 1.1051,-0.362769 0.45346,-0.366128 0.61469,-1.047999 z"
         style="fill:#ffffff"
         id="path864" />
      <path
         d="m 106.98813,85.470592 h 3.1272 v -0.702025 h -2.38487 V 83.330928 H 109.766 V 82.67257 h -2.03554 v -1.397331 h 2.38487 v -0.702025 h -3.1272 z"
         style="fill:#ffffff"
         id="path866" />
      <path
         d="m 110.87446,84.281517 -0.48705,0.557589 q 0.78264,0.671794 1.87095,0.671794 1.68284,-0.02015 1.71979,-1.424203 0,-0.520641 -0.32582,-0.91364 -0.32918,-0.399718 -1.01777,-0.493769 -0.34933,-0.04367 -0.55087,-0.07726 -0.36277,-0.06718 -0.52736,-0.241846 -0.16459,-0.171307 -0.16459,-0.382922 0.007,-0.352692 0.24521,-0.530718 0.22841,-0.171307 0.57102,-0.171307 0.66172,0.01344 1.21259,0.376205 v 0 l 0.41315,-0.611333 q -0.67515,-0.487051 -1.58879,-0.507204 -0.75913,0.0067 -1.17228,0.396358 -0.42659,0.393 -0.42659,1.034563 0,0.534076 0.33926,0.906922 0.32918,0.362768 0.96066,0.466896 0.35269,0.05038 0.64828,0.09069 0.64493,0.110846 0.63821,0.658358 -0.0134,0.668435 -0.96739,0.68187 -0.80615,-0.0067 -1.39061,-0.48705 z"
         style="fill:#ffffff"
         id="path868" />
      <path
         d="m 114.82125,84.281517 -0.48705,0.557589 q 0.78264,0.671794 1.87095,0.671794 1.68284,-0.02015 1.71979,-1.424203 0,-0.520641 -0.32582,-0.91364 -0.32918,-0.399718 -1.01777,-0.493769 -0.34933,-0.04367 -0.55087,-0.07726 -0.36277,-0.06718 -0.52736,-0.241846 -0.16459,-0.171307 -0.16459,-0.382922 0.007,-0.352692 0.24521,-0.530718 0.22841,-0.171307 0.57102,-0.171307 0.66172,0.01344 1.21259,0.376205 v 0 l 0.41315,-0.611333 q -0.67515,-0.487051 -1.58879,-0.507204 -0.75913,0.0067 -1.17228,0.396358 -0.42659,0.393 -0.42659,1.034563 0,0.534076 0.33926,0.906922 0.32918,0.362768 0.96066,0.466896 0.35269,0.05038 0.64828,0.09069 0.64492,0.110846 0.63821,0.658358 -0.0134,0.668435 -0.96739,0.68187 -0.80615,-0.0067 -1.39061,-0.48705 z"
         style="fill:#ffffff"
         id="path870" />
      <path
         d="m 118.70758,85.470592 h 0.74233 v -4.897378 h -0.74233 z"
         style="fill:#ffffff"
         id="path872" />
      <path
         d="m 120.48111,85.470592 h 2.06241 q 0.57774,0 0.96403,-0.386281 0.38964,-0.369487 0.39635,-1.004332 0,-0.382923 -0.19146,-0.708743 -0.20489,-0.315743 -0.60461,-0.419871 v -0.01344 q 0.21161,-0.100769 0.35605,-0.225051 0.14443,-0.117564 0.22169,-0.248564 0.15115,-0.275435 0.14444,-0.577743 0,-0.591178 -0.36613,-0.950588 -0.36277,-0.356051 -1.08495,-0.362769 h -1.89782 z m 1.88439,-2.173253 q 0.41315,0.0067 0.60461,0.218333 0.19146,0.214974 0.19146,0.517281 0,0.295589 -0.19146,0.510563 -0.19146,0.218334 -0.60461,0.225051 h -1.14205 v -1.471228 z m -0.0705,-2.062408 q 0.40643,0.0067 0.59789,0.19818 0.19482,0.204897 0.19482,0.500486 0,0.295589 -0.19482,0.49041 -0.19146,0.211615 -0.59789,0.211615 h -1.07151 v -1.400691 z"
         style="fill:#ffffff"
         id="path874" />
      <path
         d="m 124.67647,85.470592 h 3.1272 v -0.702025 h -2.38487 v -4.195353 h -0.74233 z"
         style="fill:#ffffff"
         id="path876" />
      <path
         d="m 128.50233,85.470592 h 3.1272 v -0.702025 h -2.38487 v -1.437639 h 2.03554 V 82.67257 h -2.03554 v -1.397331 h 2.38487 v -0.702025 h -3.1272 z"
         style="fill:#ffffff"
         id="path878" />
      <path
         d="m 96.007661,88.114105 h 1.162203 q 0.356051,0 0.544153,0.151153 0.238487,0.171308 0.245205,0.55423 0,0.319102 -0.204897,0.537435 -0.208256,0.235128 -0.624769,0.241846 h -1.121895 z m -0.742333,4.23566 h 0.742333 v -2.092638 h 0.947229 l 1.01105,2.092638 h 0.883409 l -1.135332,-2.173253 q 0.933794,-0.35941 0.94723,-1.357024 -0.02015,-0.678512 -0.487051,-1.044639 -0.386282,-0.322461 -0.997614,-0.322461 h -1.911254 z"
         style="fill:#ffffff"
         id="path880" />
      <path
         d="m 99.460681,92.349765 h 3.127199 v -0.702024 h -2.38487 v -1.437639 h 2.03554 v -0.658358 h -2.03554 v -1.397332 h 2.38487 v -0.702024 h -3.127199 z"
         style="fill:#ffffff"
         id="path882" />
      <path
         d="m 104.15316,90.596383 0.70874,-2.139663 h 0.0134 l 0.70874,2.139663 z m 2.0221,1.753382 h 0.78264 l -1.78025,-4.897377 h -0.62141 l -1.78026,4.897377 h 0.786 l 0.37621,-1.095024 h 1.85751 z"
         style="fill:#ffffff"
         id="path884" />
      <path
         d="m 107.4819,92.349765 h 1.66269 q 0.55087,0 0.93044,-0.241845 0.38292,-0.225051 0.59789,-0.571025 0.0806,-0.131 0.13772,-0.251923 0.0537,-0.124282 0.0806,-0.282153 0.0571,-0.312385 0.0571,-1.101743 0,-0.742332 -0.0369,-1.044639 -0.047,-0.302307 -0.22505,-0.577743 -0.49713,-0.819588 -1.49138,-0.826306 h -1.71308 z m 0.74233,-4.195353 h 0.88677 q 0.56431,-0.01344 0.87333,0.413154 0.15116,0.171307 0.19146,0.446742 0.0302,0.275436 0.0302,0.91364 0,0.654999 -0.0302,0.893486 -0.0336,0.241846 -0.15787,0.399718 -0.28215,0.426589 -0.90692,0.426589 h -0.88677 z"
         style="fill:#ffffff"
         id="path886" />
      <path
         d="m 111.81497,92.349765 h 0.74233 v -4.897377 h -0.74233 z"
         style="fill:#ffffff"
         id="path888" />
      <path
         d="m 113.58851,92.349765 h 0.74233 v -3.479892 h 0.0134 l 2.21356,3.479892 h 0.70202 v -4.897377 h -0.74233 v 3.479892 h -0.0134 l -2.21692,-3.479892 h -0.69866 z"
         style="fill:#ffffff"
         id="path890" />
      <path
         d="m 119.88322,90.354537 h 0.99761 v 0.255282 q -0.007,0.460179 -0.28887,0.742332 -0.28216,0.29559 -0.71546,0.29559 -0.262,0 -0.4501,-0.110846 -0.19147,-0.09405 -0.30903,-0.245205 -0.14444,-0.157872 -0.19146,-0.413153 -0.0537,-0.255282 -0.0537,-0.977461 0,-0.722178 0.0537,-0.984178 0.047,-0.248563 0.19146,-0.406435 0.11756,-0.151154 0.30903,-0.251923 0.1881,-0.09741 0.4501,-0.104128 0.35605,0.0067 0.60461,0.204897 0.23849,0.208257 0.32918,0.503846 h 0.786 q -0.11756,-0.614692 -0.56431,-1.031204 -0.44674,-0.413153 -1.15548,-0.419871 -0.57775,0.0067 -0.96403,0.275435 -0.393,0.265359 -0.57102,0.604615 -0.11085,0.178025 -0.16459,0.466897 -0.0504,0.288871 -0.0504,1.142049 0,0.839743 0.0504,1.135332 0.0269,0.157872 0.0672,0.262 0.0437,0.100769 0.0974,0.211615 0.17802,0.339256 0.57102,0.597897 0.38628,0.268717 0.96403,0.282153 0.74905,-0.01344 1.24282,-0.507204 0.49041,-0.497128 0.50384,-1.232742 v -0.997614 h -1.73994 z"
         style="fill:#ffffff"
         id="path892" />
      <path
         d="m 96.094994,99.228939 h 0.745691 v -4.235661 h 1.340229 v -0.661717 h -3.426149 v 0.661717 h 1.340229 z"
         style="letter-spacing:0.15875px;fill:#ffffff"
         id="path894" />
      <path
         d="m 98.863663,99.228939 h 3.127197 v -0.702025 h -2.384864 v -1.437639 h 2.035534 v -0.658358 h -2.035534 v -1.397331 h 2.384864 v -0.702025 h -3.127197 z"
         style="letter-spacing:0.15875px;fill:#ffffff"
         id="path896" />
      <path
         d="m 105.36415,97.858479 q -0.30903,0.668435 -0.9338,0.668435 -0.262,0 -0.4501,-0.110846 -0.19146,-0.09405 -0.30902,-0.245205 -0.14444,-0.157871 -0.19146,-0.413153 -0.0538,-0.255282 -0.0538,-0.97746 0,-0.722179 0.0538,-0.984178 0.047,-0.248564 0.19146,-0.406436 0.11756,-0.151153 0.30902,-0.251922 0.1881,-0.09741 0.4501,-0.104128 0.35606,0.0067 0.60462,0.204897 0.23849,0.208256 0.32918,0.503845 h 0.786 q -0.11757,-0.614691 -0.56431,-1.031204 -0.44674,-0.413153 -1.15549,-0.419871 -0.57774,0.0067 -0.96402,0.275436 -0.393,0.265358 -0.57102,0.604614 -0.11085,0.178026 -0.16459,0.466897 -0.0504,0.288871 -0.0504,1.14205 0,0.839742 0.0504,1.135332 0.0269,0.157871 0.0672,0.261999 0.0437,0.100769 0.0974,0.211615 0.17802,0.339256 0.57102,0.597897 0.38628,0.268717 0.96402,0.282153 0.63821,0 1.10511,-0.362768 0.45346,-0.366128 0.61469,-1.047999 z"
         style="letter-spacing:0.15875px;fill:#ffffff"
         id="path898" />
      <path
         d="m 109.51335,99.228939 h 0.74234 v -4.897378 h -0.74234 v 2.099356 h -1.93812 v -2.099356 h -0.74233 v 4.897378 h 0.74233 v -2.139664 h 1.93812 z"
         style="letter-spacing:0.15875px;fill:#ffffff"
         id="path900" />
      <path
         d="m 111.449,99.228939 h 0.74233 v -3.479893 h 0.0134 l 2.21356,3.479893 h 0.70202 v -4.897378 h -0.74233 v 3.479892 h -0.0134 l -2.21692,-3.479892 H 111.449 Z"
         style="letter-spacing:0.15875px;fill:#ffffff"
         id="path902" />
      <path
         d="m 116.14572,96.78025 q 0,0.839742 0.0504,1.135332 0.0269,0.157871 0.0672,0.261999 0.0437,0.100769 0.0974,0.211615 0.17803,0.339256 0.57102,0.597897 0.38629,0.268717 0.96403,0.282153 0.58446,-0.01344 0.9741,-0.282153 0.38628,-0.258641 0.55759,-0.597897 0.12428,-0.178025 0.17131,-0.473614 0.0437,-0.29559 0.0437,-1.135332 0,-0.853179 -0.0437,-1.14205 -0.047,-0.288871 -0.17131,-0.466897 -0.17131,-0.339256 -0.55759,-0.604614 -0.38964,-0.268718 -0.9741,-0.275436 -0.57774,0.0067 -0.96403,0.275436 -0.39299,0.265358 -0.57102,0.604614 -0.11085,0.178026 -0.16459,0.466897 -0.0504,0.288871 -0.0504,1.14205 z m 0.74569,0 q 0,-0.722179 0.0537,-0.984178 0.047,-0.248564 0.19146,-0.406436 0.11757,-0.151153 0.30903,-0.251922 0.1881,-0.09741 0.4501,-0.104128 0.26536,0.0067 0.46018,0.104128 0.18474,0.100769 0.29559,0.251922 0.14443,0.157872 0.19818,0.406436 0.0504,0.261999 0.0504,0.984178 0,0.722178 -0.0504,0.97746 -0.0537,0.255282 -0.19818,0.413153 -0.11085,0.151154 -0.29559,0.245205 -0.19482,0.110846 -0.46018,0.110846 -0.262,0 -0.4501,-0.110846 -0.19146,-0.09405 -0.30903,-0.245205 -0.14443,-0.157871 -0.19146,-0.413153 -0.0537,-0.255282 -0.0537,-0.97746 z"
         style="letter-spacing:0.15875px;fill:#ffffff"
         id="path904" />
      <path
         d="m 120.66777,99.228939 h 3.1272 v -0.702025 h -2.38487 v -4.195353 h -0.74233 z"
         style="letter-spacing:0.15875px;fill:#ffffff"
         id="path906" />
      <path
         d="m 124.48444,96.78025 q 0,0.839742 0.0504,1.135332 0.0269,0.157871 0.0672,0.261999 0.0437,0.100769 0.0974,0.211615 0.17803,0.339256 0.57102,0.597897 0.38629,0.268717 0.96403,0.282153 0.58446,-0.01344 0.9741,-0.282153 0.38628,-0.258641 0.55759,-0.597897 0.12428,-0.178025 0.17131,-0.473614 0.0437,-0.29559 0.0437,-1.135332 0,-0.853179 -0.0437,-1.14205 -0.047,-0.288871 -0.17131,-0.466897 -0.17131,-0.339256 -0.55759,-0.604614 -0.38964,-0.268718 -0.9741,-0.275436 -0.57774,0.0067 -0.96403,0.275436 -0.39299,0.265358 -0.57102,0.604614 -0.11085,0.178026 -0.16459,0.466897 -0.0504,0.288871 -0.0504,1.14205 z m 0.74569,0 q 0,-0.722179 0.0537,-0.984178 0.047,-0.248564 0.19146,-0.406436 0.11757,-0.151153 0.30903,-0.251922 0.1881,-0.09741 0.4501,-0.104128 0.26536,0.0067 0.46018,0.104128 0.18474,0.100769 0.29559,0.251922 0.14443,0.157872 0.19818,0.406436 0.0504,0.261999 0.0504,0.984178 0,0.722178 -0.0504,0.97746 -0.0538,0.255282 -0.19818,0.413153 -0.11085,0.151154 -0.29559,0.245205 -0.19482,0.110846 -0.46018,0.110846 -0.262,0 -0.4501,-0.110846 -0.19146,-0.09405 -0.30903,-0.245205 -0.14443,-0.157871 -0.19146,-0.413153 -0.0537,-0.255282 -0.0537,-0.97746 z"
         style="letter-spacing:0.15875px;fill:#ffffff"
         id="path908" />
      <path
         d="m 130.59528,97.233711 h 0.99761 v 0.255281 q -0.007,0.460179 -0.28887,0.742333 -0.28215,0.295589 -0.71546,0.295589 -0.262,0 -0.4501,-0.110846 -0.19146,-0.09405 -0.30903,-0.245205 -0.14443,-0.157871 -0.19146,-0.413153 -0.0537,-0.255282 -0.0537,-0.97746 0,-0.722179 0.0537,-0.984178 0.047,-0.248564 0.19146,-0.406436 0.11757,-0.151153 0.30903,-0.251922 0.1881,-0.09741 0.4501,-0.104128 0.35605,0.0067 0.60462,0.204897 0.23848,0.208256 0.32917,0.503845 h 0.786 q -0.11756,-0.614691 -0.5643,-1.031204 -0.44675,-0.413153 -1.15549,-0.419871 -0.57774,0.0067 -0.96402,0.275436 -0.393,0.265358 -0.57103,0.604614 -0.11084,0.178026 -0.16459,0.466897 -0.0504,0.288871 -0.0504,1.14205 0,0.839742 0.0504,1.135332 0.0269,0.157871 0.0672,0.261999 0.0437,0.100769 0.0974,0.211615 0.17803,0.339256 0.57103,0.597897 0.38628,0.268717 0.96402,0.282153 0.74905,-0.01344 1.24282,-0.507204 0.49041,-0.497128 0.50384,-1.232742 v -0.997614 h -1.73994 z"
         style="letter-spacing:0.15875px;fill:#ffffff"
         id="path910" />
      <path
         d="m 133.36059,99.228939 h 0.74233 v -4.897378 h -0.74233 z"
         style="letter-spacing:0.15875px;fill:#ffffff"
         id="path912" />
      <path
         d="m 135.29288,99.228939 h 3.1272 v -0.702025 h -2.38487 v -1.437639 h 2.03554 v -0.658358 h -2.03554 v -1.397331 h 2.38487 v -0.702025 h -3.1272 z"
         style="letter-spacing:0.15875px;fill:#ffffff"
         id="path914" />
      <path
         d="m 139.33795,98.039863 -0.48705,0.557589 q 0.78264,0.671794 1.87095,0.671794 1.68284,-0.02015 1.71979,-1.424203 0,-0.52064 -0.32582,-0.91364 -0.32918,-0.399717 -1.01777,-0.493768 -0.34933,-0.04367 -0.55087,-0.07726 -0.36276,-0.06718 -0.52735,-0.241846 -0.16459,-0.171308 -0.16459,-0.382923 0.007,-0.352692 0.2452,-0.530717 0.22841,-0.171307 0.57103,-0.171307 0.66171,0.01344 1.21258,0.376204 v 0 l 0.41316,-0.611332 q -0.67516,-0.487051 -1.5888,-0.507205 -0.75912,0.0067 -1.17228,0.396359 -0.42659,0.392999 -0.42659,1.034562 0,0.534076 0.33926,0.906922 0.32918,0.362769 0.96067,0.466897 0.35269,0.05038 0.64828,0.09069 0.64492,0.110846 0.6382,0.658358 -0.0134,0.668435 -0.96738,0.681871 -0.80615,-0.0067 -1.39062,-0.487051 z"
         style="letter-spacing:0.15875px;fill:#ffffff"
         id="path916" />
    </g>
  </g>
</svg>
