<?xml version='1.0' encoding='utf-8'?>
<svg xmlns="http://www.w3.org/2000/svg" version="1.1" id="Layer_1" x="0px" y="0px" viewBox="0 0 2609.872 678.208" enable-background="new 0 0 2609.872 678.208"> <g id="Layer_x0020_1"> <g id="_804538528"> <path d="M2570.954,552.196h-359.147c-2.018,6.053-4.237,11.904-6.86,17.756h379.525L2570.954,552.196z M25.4,569.951h379.525 c-2.623-5.851-4.842-11.703-6.86-17.756H38.918L25.4,569.951z M2180.937,552.196h-577.056l13.317,17.756h556.476 C2176.7,564.302,2179.121,558.249,2180.937,552.196z M436.199,569.951h556.476l13.317-17.756H428.935 C430.751,558.249,433.173,564.302,436.199,569.951z M2120.608,412.371c127.322,66.926,72.824,245.595-80.304,200.557 c-6.8-27.2-40.571-14.279-26.23,4.842c14.204,17.482,71.633,22.292,105.928,14.527c154.051-32.432,141.77-340.372-204.189-290.949 l-5.851,1.009c4.454,13.363,6.457,29.025,6.457,41.968C1991.604,372.577,2075.435,388.355,2120.608,412.371z M693.453,384.325 c0-12.943,2.002-28.605,6.457-41.968l-5.851-1.009C348.1,291.926,335.819,599.866,489.869,632.298 c34.296,7.765,91.724,2.955,105.928-14.527c14.341-19.122-19.43-32.042-26.23-4.842 c-153.128,45.038-207.626-133.631-80.304-200.557C534.437,388.355,618.268,372.577,693.453,384.325z M1304.936,653.035 c44.712,1.082,97.573-10.444,158.111-40.712c142.041-72.224,280.55-188.33,425.327-222.55c0.699-7.692-0.533-28.82-6.255-42.169 c-179.645,38.222-378.754,237.228-533.676,266.737c-14.908,2.84-29.452,4.841-43.506,5.737 c-14.054-0.896-28.599-2.897-43.507-5.737c-154.922-29.509-354.031-228.515-533.676-266.737 c-5.721,13.35-6.954,34.478-6.255,42.169c144.777,34.22,283.285,150.326,425.327,222.55 C1207.363,642.591,1260.224,654.117,1304.936,653.035z M1304.936,294.34c22.271-0.925,48.446,6.113,65.701,13.717 c19.972,8.654,37.992,20.467,51.451,29.256c-42.623,42.623-85.818,53.343-117.152,47.194 c-31.333,6.149-74.529-4.571-117.152-47.194c13.458-8.789,31.479-20.602,51.451-29.256 C1256.49,300.453,1282.665,293.415,1304.936,294.34z M1304.936,55.281c88.649,15.519,167.395,80.645,153.268,200.72 c-4.862,40.113-15.71,56.093-23.203,66.583h-0.202l-1.211,1.614c-54.243-37.97-97.237-50.412-128.653-48.155 c-31.416-2.257-74.409,10.185-128.653,48.155l-1.211-1.614h-0.202c-7.493-10.491-18.341-26.47-23.203-66.583 C1137.541,135.925,1216.287,70.8,1304.936,55.281z M1304.936,402.09c7.159,0.93,14.935,1.168,23.33,0.596 c42.206-1.876,78.923-25.656,108.551-55.284c21.107,14.589,37.447,26.373,57.302,40.555 c-70.908,50.382-135.045,76.953-189.183,85.924c-54.138-8.971-118.275-35.542-189.183-85.924 c19.855-14.182,36.195-25.967,57.302-40.555c29.628,29.628,66.345,53.409,108.551,55.284 C1290.001,403.258,1297.777,403.02,1304.936,402.09z M1304.936,506.241c63.325-4.31,139.333-31.524,224.694-93.063 c39.014,27.01,63.885,42.649,87.971,57.1l16.747-10.29c-6.626-4.016-37.521-21.307-89.585-57.706 c456.999-330.93,424.91,198.967,141.439,83.935l-18.159,11.097c70.932,35.466,167.742,30.664,221.743-40.757 c39.977-51.97,32.234-162.492-80.707-193.495c-105.862-29.238-212.751,52.87-300.029,114.201 c-33.441-23.832-44.252-31.711-60.127-42.775c86.722-100.064,43.46-258.4-100.682-301.643 c-13.974-3.966-28.518-6.518-43.305-7.741c-14.787,1.224-29.331,3.776-43.305,7.741 c-144.142,43.243-187.404,201.579-100.682,301.643c-15.875,11.064-26.686,18.943-60.127,42.775 c-87.278-61.33-194.167-143.439-300.029-114.201c-112.941,31.003-120.684,141.526-80.707,193.495 c54.001,71.421,150.811,76.223,221.743,40.757l-18.159-11.097C640.199,601.25,608.111,71.352,1065.109,402.282 c-52.064,36.399-82.958,53.69-89.585,57.706l16.747,10.29c24.085-14.451,48.957-30.09,87.971-57.1 C1165.603,474.717,1241.611,501.931,1304.936,506.241z"/> </g> </g> </svg>