<?xml version="1.0" encoding="UTF-8" standalone="no"?>
<svg
   inkscape:export-ydpi="191.87595"
   inkscape:export-xdpi="191.87595"
   inkscape:export-filename="/Users/asomers/APCAmastadon.png"
   sodipodi:docname="ARCtextPaths_v01.svg"
   inkscape:version="1.2.2 (b0a8486, 2022-12-01)"
   id="svg8"
   version="1.1"
   viewBox="0 0 110.38421 28.777693"
   height="28.777693mm"
   width="110.38421mm"
   xmlns:inkscape="http://www.inkscape.org/namespaces/inkscape"
   xmlns:sodipodi="http://sodipodi.sourceforge.net/DTD/sodipodi-0.dtd"
   xmlns="http://www.w3.org/2000/svg"
   xmlns:svg="http://www.w3.org/2000/svg"
   xmlns:rdf="http://www.w3.org/1999/02/22-rdf-syntax-ns#"
   xmlns:cc="http://creativecommons.org/ns#"
   xmlns:dc="http://purl.org/dc/elements/1.1/">
  <defs
     id="defs2">
    <rect
       x="281"
       y="113"
       width="485"
       height="258"
       id="rect468" />
    <filter
       x="-0.16222277"
       width="1.3244455"
       y="-0.38048289"
       height="1.7609658"
       inkscape:menu-tooltip="Oversaturate colors which can be fluorescent in real world"
       inkscape:menu="Color"
       inkscape:label="Lightness-Contrast"
       style="color-interpolation-filters:sRGB"
       id="filter156">
      <feGaussianBlur
         result="result8"
         stdDeviation="9.8129411764705878"
         id="feGaussianBlur144" />
      <feTurbulence
         baseFrequency="0.020000000000000004"
         numOctaves="1"
         type="fractalNoise"
         result="result7"
         seed="38"
         id="feTurbulence146" />
      <feComposite
         in="SourceGraphic"
         operator="over"
         result="result6"
         in2="result8"
         id="feComposite148" />
      <feComposite
         in="result6"
         operator="arithmetic"
         result="result2"
         in2="result7"
         k3="1"
         id="feComposite150"
         k1="0"
         k2="0"
         k4="0" />
      <feComposite
         in2="result6"
         operator="in"
         in="result2"
         result="fbSourceGraphic"
         id="feComposite152" />
      <feComposite
         in2="fbSourceGraphic"
         in="fbSourceGraphic"
         k2="2.5"
         operator="arithmetic"
         id="feComposite154"
         result="fbSourceGraphic"
         k1="0"
         k3="0"
         k4="0" />
      <feColorMatrix
         result="fbSourceGraphicAlpha"
         in="fbSourceGraphic"
         values="0 0 0 -1 0 0 0 0 -1 0 0 0 0 -1 0 0 0 0 1 0"
         id="feColorMatrix206" />
      <feColorMatrix
         id="feColorMatrix208"
         type="hueRotate"
         values="0"
         in="fbSourceGraphic" />
      <feColorMatrix
         id="feColorMatrix210"
         type="saturate"
         values="1" />
      <feColorMatrix
         id="feColorMatrix212"
         type="matrix"
         values="1.7 -1 0 0 0 0 1.5 -1 0 0 -1 0 1.7 0 0 0 0 0 1 0"
         result="fbSourceGraphic" />
      <feColorMatrix
         result="fbSourceGraphicAlpha"
         in="fbSourceGraphic"
         values="0 0 0 -1 0 0 0 0 -1 0 0 0 0 -1 0 0 0 0 1 0"
         id="feColorMatrix332" />
      <feColorMatrix
         id="feColorMatrix334"
         values="1.4644 0 0 -0.14115 -0.232198 0 1.4644 0 -0.14115 -0.232198 0 0 1.4644 -0.14115 -0.232198 0 0 0 1 0"
         in="fbSourceGraphic" />
    </filter>
    <filter
       style="color-interpolation-filters:sRGB"
       inkscape:label="Drop Shadow"
       id="filter2284"
       x="-0.027475747"
       y="-0.092831238"
       width="1.068161"
       height="1.2302929">
      <feFlood
         flood-opacity="0.46762589928057552"
         flood-color="rgb(113,9,149)"
         result="flood"
         id="feFlood2274" />
      <feComposite
         in="flood"
         in2="SourceGraphic"
         operator="out"
         result="composite1"
         id="feComposite2276" />
      <feGaussianBlur
         in="composite1"
         stdDeviation="2.6000000000000001"
         result="blur"
         id="feGaussianBlur2278" />
      <feOffset
         dx="3"
         dy="3"
         result="offset"
         id="feOffset2280" />
      <feComposite
         in="offset"
         in2="SourceGraphic"
         operator="atop"
         result="composite2"
         id="feComposite2282" />
    </filter>
    <rect
       x="94.748169"
       y="80.035721"
       width="103.1833"
       height="33.348217"
       id="rect1063" />
    <filter
       style="color-interpolation-filters:sRGB"
       inkscape:label="Drop Shadow"
       id="filter1535"
       x="-0.036766975"
       y="-0.076855997"
       width="1.083747"
       height="1.1750609">
      <feFlood
         flood-opacity="0.784314"
         flood-color="rgb(43,0,47)"
         result="flood"
         id="feFlood1525" />
      <feComposite
         in="flood"
         in2="SourceGraphic"
         operator="in"
         result="composite1"
         id="feComposite1527" />
      <feGaussianBlur
         in="composite1"
         stdDeviation="0.6"
         result="blur"
         id="feGaussianBlur1529" />
      <feOffset
         dx="0.4"
         dy="0.4"
         result="offset"
         id="feOffset1531" />
      <feComposite
         in="SourceGraphic"
         in2="offset"
         operator="over"
         result="composite2"
         id="feComposite1533" />
    </filter>
    <clipPath
       clipPathUnits="userSpaceOnUse"
       id="clipPath11153">
      <rect
         style="fill:#55d400;stroke-width:0.230198"
         id="rect11155"
         width="87.37442"
         height="17.542934"
         x="-94.263496"
         y="54.356819"
         ry="6.2787118"
         clip-path="none"
         rx="8.1527033"
         transform="scale(-1,1)" />
    </clipPath>
  </defs>
  <sodipodi:namedview
     id="base"
     pagecolor="#ffffff"
     bordercolor="#666666"
     borderopacity="1.0"
     inkscape:pageopacity="0.0"
     inkscape:pageshadow="2"
     inkscape:zoom="1.7847405"
     inkscape:cx="368.4009"
     inkscape:cy="94.971791"
     inkscape:document-units="mm"
     inkscape:current-layer="layer1"
     inkscape:document-rotation="0"
     showgrid="false"
     inkscape:window-width="1403"
     inkscape:window-height="855"
     inkscape:window-x="10"
     inkscape:window-y="23"
     inkscape:window-maximized="0"
     showguides="true"
     inkscape:snap-center="false"
     inkscape:snap-object-midpoints="false"
     inkscape:showpageshadow="2"
     inkscape:pagecheckerboard="0"
     inkscape:deskcolor="#d1d1d1" />
  <metadata
     id="metadata5">
    <rdf:RDF>
      <cc:Work
         rdf:about="">
        <dc:format>image/svg+xml</dc:format>
        <dc:type
           rdf:resource="http://purl.org/dc/dcmitype/StillImage" />
      </cc:Work>
    </rdf:RDF>
  </metadata>
  <g
     inkscape:label="Layer 1"
     inkscape:groupmode="layer"
     id="layer1"
     style="display:inline"
     clip-path="none"
     transform="translate(-60.259945,-54.982886)">
    <rect
       style="display:inline;fill:#55d400;stroke-width:0.185782;filter:url(#filter156)"
       id="rect833"
       width="145.17728"
       height="61.897816"
       x="3.8641088"
       y="27.939938"
       ry="0.83721405"
       clip-path="url(#clipPath11153)"
       transform="matrix(-1.263347,0,0,1.640415,179.34745,-34.184855)"
       rx="1.1432408"
       inkscape:export-xdpi="191.87595"
       inkscape:export-ydpi="191.87595"
       inkscape:label="rect833" />
    <g
       aria-label="APCA
READABILITY
CRITERION  "
       transform="matrix(0.93661007,0,0,0.93661007,40.451869,-15.237383)"
       id="text1061"
       style="font-size:6.87917px;line-height:1;font-family:'DIN Alternate';-inkscape-font-specification:'DIN Alternate';white-space:pre;shape-inside:url(#rect1063);display:inline;filter:url(#filter1535)">
      <path
         d="m 96.131942,83.71721 0.708743,-2.139664 h 0.01344 l 0.708742,2.139664 z m 2.0221,1.753382 h 0.78264 l -1.780254,-4.897378 h -0.621409 l -1.780254,4.897378 h 0.785999 l 0.376204,-1.095024 h 1.857511 z"
         style="fill:#ffffff"
         id="path1299" />
      <path
         d="m 100.20301,81.275239 h 1.07151 q 0.30231,-0.0067 0.53072,0.137718 0.15116,0.08733 0.23513,0.238487 0.0806,0.167948 0.0806,0.413153 0,0.295589 -0.19818,0.537435 -0.20826,0.248564 -0.62141,0.255282 h -1.09839 z m -0.742329,4.195353 h 0.742329 v -1.911254 h 1.12862 q 0.75577,-0.01344 1.14876,-0.483691 0.38293,-0.446743 0.38293,-0.990896 0,-0.403077 -0.15116,-0.698666 -0.14443,-0.305666 -0.3762,-0.470256 -0.27544,-0.218333 -0.54415,-0.288871 -0.26872,-0.05374 -0.55759,-0.05374 h -1.773539 z"
         style="fill:#ffffff"
         id="path1301" />
      <path
         d="m 106.05434,84.100132 q -0.30903,0.668435 -0.9338,0.668435 -0.26199,0 -0.4501,-0.110846 -0.19146,-0.09405 -0.30902,-0.245204 -0.14444,-0.157872 -0.19146,-0.413154 -0.0538,-0.255281 -0.0538,-0.97746 0,-0.722178 0.0538,-0.984178 0.047,-0.248564 0.19146,-0.406435 0.11756,-0.151154 0.30902,-0.251923 0.18811,-0.09741 0.4501,-0.104128 0.35606,0.0067 0.60462,0.204897 0.23849,0.208256 0.32918,0.503846 h 0.786 q -0.11757,-0.614692 -0.56431,-1.031204 -0.44674,-0.413153 -1.15549,-0.419871 -0.57774,0.0067 -0.96402,0.275435 -0.393,0.265359 -0.57102,0.604615 -0.11085,0.178025 -0.16459,0.466897 -0.0504,0.288871 -0.0504,1.142049 0,0.839743 0.0504,1.135332 0.0269,0.157872 0.0672,0.262 0.0437,0.100769 0.0974,0.211615 0.17802,0.339256 0.57102,0.597896 0.38628,0.268718 0.96402,0.282154 0.63821,0 1.10511,-0.362769 0.45346,-0.366128 0.61469,-1.047999 z"
         style="fill:#ffffff"
         id="path1303" />
      <path
         d="m 108.23095,83.71721 0.70874,-2.139664 h 0.0134 l 0.70874,2.139664 z m 2.0221,1.753382 h 0.78264 l -1.78025,-4.897378 h -0.62141 l -1.78026,4.897378 h 0.786 l 0.37621,-1.095024 h 1.85751 z"
         style="fill:#ffffff"
         id="path1305" />
      <path
         d="m 96.007661,88.114105 h 1.162203 q 0.356051,0 0.544153,0.151153 0.238487,0.171308 0.245205,0.55423 0,0.319102 -0.204897,0.537435 -0.208256,0.235128 -0.624769,0.241846 h -1.121895 z m -0.742333,4.23566 h 0.742333 v -2.092638 h 0.947229 l 1.01105,2.092638 h 0.883409 l -1.135332,-2.173253 q 0.933794,-0.35941 0.94723,-1.357024 -0.02015,-0.678512 -0.487051,-1.044639 -0.386282,-0.322461 -0.997614,-0.322461 h -1.911254 z"
         style="fill:#ffffff"
         id="path1307" />
      <path
         d="m 99.460681,92.349765 h 3.127199 v -0.702024 h -2.38487 v -1.437639 h 2.03554 v -0.658358 h -2.03554 v -1.397332 h 2.38487 v -0.702024 h -3.127199 z"
         style="fill:#ffffff"
         id="path1309" />
      <path
         d="m 104.15316,90.596383 0.70874,-2.139663 h 0.0134 l 0.70874,2.139663 z m 2.0221,1.753382 h 0.78264 l -1.78025,-4.897377 h -0.62141 l -1.78026,4.897377 h 0.786 l 0.37621,-1.095024 h 1.85751 z"
         style="fill:#ffffff"
         id="path1311" />
      <path
         d="m 107.4819,92.349765 h 1.66269 q 0.55087,0 0.93044,-0.241845 0.38292,-0.225051 0.59789,-0.571025 0.0806,-0.131 0.13772,-0.251923 0.0537,-0.124282 0.0806,-0.282153 0.0571,-0.312385 0.0571,-1.101743 0,-0.742332 -0.0369,-1.044639 -0.047,-0.302307 -0.22505,-0.577743 -0.49713,-0.819588 -1.49138,-0.826306 h -1.71308 z m 0.74233,-4.195353 h 0.88677 q 0.56431,-0.01344 0.87333,0.413154 0.15116,0.171307 0.19146,0.446742 0.0302,0.275436 0.0302,0.91364 0,0.654999 -0.0302,0.893486 -0.0336,0.241846 -0.15787,0.399718 -0.28215,0.426589 -0.90692,0.426589 h -0.88677 z"
         style="fill:#ffffff"
         id="path1313" />
      <path
         d="m 112.5573,90.596383 0.70875,-2.139663 h 0.0134 l 0.70875,2.139663 z m 2.0221,1.753382 h 0.78264 l -1.78025,-4.897377 h -0.62141 l -1.78025,4.897377 h 0.786 l 0.3762,-1.095024 h 1.85751 z"
         style="fill:#ffffff"
         id="path1315" />
      <path
         d="m 115.88604,92.349765 h 2.06241 q 0.57774,0 0.96402,-0.386281 0.38964,-0.369487 0.39636,-1.004332 0,-0.382923 -0.19146,-0.708743 -0.2049,-0.315743 -0.60461,-0.419871 v -0.01344 q 0.21161,-0.100769 0.35605,-0.225051 0.14443,-0.117564 0.22169,-0.248563 0.15115,-0.275436 0.14444,-0.577743 0,-0.591179 -0.36613,-0.950589 -0.36277,-0.35605 -1.08495,-0.362768 h -1.89782 z m 1.88438,-2.173253 q 0.41316,0.0067 0.60462,0.218333 0.19146,0.214974 0.19146,0.517281 0,0.29559 -0.19146,0.510564 -0.19146,0.218333 -0.60462,0.225051 h -1.14205 v -1.471229 z m -0.0705,-2.062407 q 0.40643,0.0067 0.59789,0.198179 0.19482,0.204897 0.19482,0.500486 0,0.29559 -0.19482,0.49041 -0.19146,0.211615 -0.59789,0.211615 h -1.07152 v -1.40069 z"
         style="fill:#ffffff"
         id="path1317" />
      <path
         d="m 120.08139,92.349765 h 0.74234 v -4.897377 h -0.74234 z"
         style="fill:#ffffff"
         id="path1319" />
      <path
         d="m 121.85493,92.349765 h 3.1272 v -0.702024 h -2.38487 v -4.195353 h -0.74233 z"
         style="fill:#ffffff"
         id="path1321" />
      <path
         d="m 125.6808,92.349765 h 0.74233 v -4.897377 h -0.74233 z"
         style="fill:#ffffff"
         id="path1323" />
      <path
         d="m 128.284,92.349765 h 0.74569 v -4.23566 h 1.34023 v -0.661717 h -3.42615 v 0.661717 h 1.34023 z"
         style="fill:#ffffff"
         id="path1325" />
      <path
         d="m 131.7471,92.349765 h 0.69866 v -2.015381 l 1.47459,-2.881996 h -0.786 l -1.03792,2.173253 v 0 l -1.03792,-2.173253 h -0.786 l 1.47459,2.881996 z"
         style="fill:#ffffff"
         id="path1327" />
      <path
         d="m 97.781197,97.858479 q -0.309026,0.668435 -0.933794,0.668435 -0.262,0 -0.450102,-0.110846 -0.191461,-0.09405 -0.309025,-0.245205 -0.144436,-0.157871 -0.191461,-0.413153 -0.05374,-0.255282 -0.05374,-0.97746 0,-0.722179 0.05374,-0.984178 0.04702,-0.248564 0.191461,-0.406436 0.117564,-0.151153 0.309025,-0.251922 0.188102,-0.09741 0.450102,-0.104128 0.356051,0.0067 0.604614,0.204897 0.238487,0.208256 0.32918,0.503845 h 0.785998 q -0.117564,-0.614691 -0.564306,-1.031204 -0.446743,-0.413153 -1.155486,-0.419871 -0.577743,0.0067 -0.964024,0.275436 -0.393,0.265358 -0.571025,0.604614 -0.110846,0.178026 -0.16459,0.466897 -0.05038,0.288871 -0.05038,1.14205 0,0.839742 0.05038,1.135332 0.02687,0.157871 0.06718,0.261999 0.04367,0.100769 0.09741,0.211615 0.178025,0.339256 0.571025,0.597897 0.386281,0.268717 0.964024,0.282153 0.638204,0 1.105101,-0.362768 0.453461,-0.366128 0.614691,-1.047999 z"
         style="fill:#ffffff"
         id="path1329" />
      <path
         d="m 99.833527,94.993278 h 1.162203 q 0.35605,0 0.54415,0.151154 0.23849,0.171307 0.24521,0.55423 0,0.319102 -0.2049,0.537435 -0.20825,0.235128 -0.62477,0.241845 h -1.121893 z m -0.742332,4.235661 h 0.742332 v -2.092638 h 0.947233 l 1.01105,2.092638 h 0.88341 l -1.13534,-2.173254 q 0.9338,-0.359409 0.94723,-1.357023 -0.0202,-0.678512 -0.48705,-1.04464 -0.38628,-0.322461 -0.99761,-0.322461 h -1.911255 z"
         style="fill:#ffffff"
         id="path1331" />
      <path
         d="m 103.28655,99.228939 h 0.74233 v -4.897378 h -0.74233 z"
         style="fill:#ffffff"
         id="path1333" />
      <path
         d="m 105.88975,99.228939 h 0.74569 v -4.235661 h 1.34023 v -0.661717 h -3.42615 v 0.661717 h 1.34023 z"
         style="fill:#ffffff"
         id="path1335" />
      <path
         d="m 108.49967,99.228939 h 3.1272 V 98.526914 H 109.242 v -1.437639 h 2.03554 V 96.430917 H 109.242 v -1.397331 h 2.38487 v -0.702025 h -3.1272 z"
         style="fill:#ffffff"
         id="path1337" />
      <path
         d="m 113.06787,94.993278 h 1.1622 q 0.35605,0 0.54415,0.151154 0.23849,0.171307 0.24521,0.55423 0,0.319102 -0.2049,0.537435 -0.20825,0.235128 -0.62477,0.241845 h -1.12189 z m -0.74233,4.235661 h 0.74233 v -2.092638 h 0.94723 l 1.01105,2.092638 h 0.88341 l -1.13534,-2.173254 q 0.9338,-0.359409 0.94723,-1.357023 -0.0202,-0.678512 -0.48705,-1.04464 -0.38628,-0.322461 -0.99761,-0.322461 h -1.91125 z"
         style="fill:#ffffff"
         id="path1339" />
      <path
         d="m 116.52089,99.228939 h 0.74233 v -4.897378 h -0.74233 z"
         style="fill:#ffffff"
         id="path1341" />
      <path
         d="m 118.12648,96.78025 q 0,0.839742 0.0504,1.135332 0.0269,0.157871 0.0672,0.261999 0.0437,0.100769 0.0974,0.211615 0.17803,0.339256 0.57103,0.597897 0.38628,0.268717 0.96402,0.282153 0.58446,-0.01344 0.9741,-0.282153 0.38628,-0.258641 0.55759,-0.597897 0.12428,-0.178025 0.17131,-0.473614 0.0437,-0.29559 0.0437,-1.135332 0,-0.853179 -0.0437,-1.14205 -0.047,-0.288871 -0.17131,-0.466897 -0.17131,-0.339256 -0.55759,-0.604614 -0.38964,-0.268718 -0.9741,-0.275436 -0.57774,0.0067 -0.96402,0.275436 -0.393,0.265358 -0.57103,0.604614 -0.11085,0.178026 -0.16459,0.466897 -0.0504,0.288871 -0.0504,1.14205 z m 0.74569,0 q 0,-0.722179 0.0537,-0.984178 0.047,-0.248564 0.19146,-0.406436 0.11757,-0.151153 0.30903,-0.251922 0.1881,-0.09741 0.4501,-0.104128 0.26536,0.0067 0.46018,0.104128 0.18474,0.100769 0.29559,0.251922 0.14443,0.157872 0.19818,0.406436 0.0504,0.261999 0.0504,0.984178 0,0.722178 -0.0504,0.97746 -0.0537,0.255282 -0.19818,0.413153 -0.11085,0.151154 -0.29559,0.245205 -0.19482,0.110846 -0.46018,0.110846 -0.262,0 -0.4501,-0.110846 -0.19146,-0.09405 -0.30903,-0.245205 -0.14443,-0.157871 -0.19146,-0.413153 -0.0537,-0.255282 -0.0537,-0.97746 z"
         style="fill:#ffffff"
         id="path1343" />
      <path
         d="m 122.48978,99.228939 h 0.74233 v -3.479893 h 0.0134 l 2.21356,3.479893 h 0.70202 v -4.897378 h -0.74233 v 3.479892 h -0.0134 l -2.21692,-3.479892 h -0.69866 z"
         style="fill:#ffffff"
         id="path1345" />
    </g>
    <g
       aria-label="ARC"
       transform="matrix(0.26458333,0,0,0.26458333,-10.31875,24.341667)"
       id="text466"
       style="font-weight:300;font-size:96px;line-height:1.25;font-family:Montserrat;-inkscape-font-specification:'Montserrat Light';white-space:pre;shape-inside:url(#rect468);display:inline;fill:#ffffff;filter:url(#filter2284)">
      <path
         d="m 354.03125,201.23298 h -12.1875 v -16.5 H 299 v 16.5 H 286.8125 V 167.6236 q 0,-7.35937 2.53125,-13.54687 2.53125,-6.1875 7.03125,-10.64063 4.5,-4.45312 10.64062,-6.9375 6.14063,-2.48437 13.40625,-2.48437 h 27.46875 q 1.26563,0 2.39063,0.46875 1.125,0.46875 1.96875,1.3125 0.84375,0.84375 1.3125,1.96875 0.46875,1.125 0.46875,2.39062 z M 299,172.54548 h 42.84375 v -26.34375 h -21.42188 q -0.5625,0 -2.39062,0.1875 -1.78125,0.14062 -4.17188,0.79687 -2.34375,0.65625 -4.96875,2.01563 -2.625,1.35937 -4.82812,3.75 -2.20313,2.39062 -3.65625,6 Q 299,162.51423 299,167.6236 Z"
         style="font-weight:normal;font-family:Audiowide;-inkscape-font-specification:Audiowide"
         id="path1348" />
      <path
         d="m 435.35937,156.60798 q 0,4.17187 -1.03125,7.45312 -1.03125,3.28125 -2.8125,5.8125 -1.73437,2.48438 -4.03125,4.26563 -2.29687,1.78125 -4.82812,2.95312 -2.48438,1.125 -5.0625,1.64063 -2.53125,0.51562 -4.78125,0.51562 l 25.45312,21.98438 H 419.42187 L 394.01562,179.2486 H 385.25 v -12.1875 h 27.5625 q 2.29687,-0.1875 4.17187,-0.9375 1.92188,-0.79687 3.28125,-2.10937 1.40625,-1.3125 2.15625,-3.14063 0.75,-1.875 0.75,-4.26562 v -7.6875 q 0,-1.03125 -0.28125,-1.54688 -0.23437,-0.5625 -0.65625,-0.79687 -0.375,-0.28125 -0.84375,-0.32813 -0.42187,-0.0469 -0.79687,-0.0469 H 380.375 v 55.03125 h -12.1875 v -61.07813 q 0,-1.26562 0.46875,-2.39062 0.46875,-1.125 1.26562,-1.96875 0.84375,-0.84375 1.96875,-1.3125 1.125,-0.46875 2.4375,-0.46875 h 46.26563 q 4.07812,0 6.89062,1.5 2.8125,1.45312 4.54688,3.70312 1.78125,2.20313 2.53125,4.78125 0.79687,2.57813 0.79687,4.82813 z"
         style="font-weight:normal;font-family:Audiowide;-inkscape-font-specification:Audiowide"
         id="path1350" />
      <path
         d="M 507.78125,201.23298 H 463.8125 q -1.6875,0 -3.65625,-0.375 -1.92188,-0.42188 -3.84375,-1.26563 -1.875,-0.84375 -3.60938,-2.15625 -1.73437,-1.35937 -3.09375,-3.23437 -1.3125,-1.92188 -2.10937,-4.40625 -0.79688,-2.53125 -0.79688,-5.67188 v -33 q 0,-1.6875 0.375,-3.60937 0.42188,-1.96875 1.26563,-3.84375 0.84375,-1.92188 2.20312,-3.65625 1.35938,-1.73438 3.23438,-3.04688 1.92187,-1.35937 4.40625,-2.15625 2.48437,-0.79687 5.625,-0.79687 h 43.96875 v 12.1875 H 463.8125 q -2.39063,0 -3.65625,1.26562 -1.26563,1.26563 -1.26563,3.75 v 32.90625 q 0,2.34375 1.26563,3.65625 1.3125,1.26563 3.65625,1.26563 h 43.96875 z"
         style="font-weight:normal;font-family:Audiowide;-inkscape-font-specification:Audiowide"
         id="path1352" />
    </g>
  </g>
</svg>
