<?xml version='1.0' encoding='utf-8'?>
<svg xmlns="http://www.w3.org/2000/svg" version="1.1" viewBox="0 0 740.61 577.99">
  <defs>
    <linearGradient id="a" 
    gradientTransform="matrix(0.6 1.8 0.1 -0.7 0 0)" gradientUnits="userSpaceOnUse">
      <stop stop-color="#dd2" offset=".0"/>
      <stop stop-color="#0e0" offset=".1"/>
      <stop stop-color="#06c0dd" offset=".22"/>
      <stop stop-color="#28d" offset=".31"/>
      <stop stop-color="#64e" offset=".38"/>
      <stop stop-color="#a4f" offset=".47"/>
      <stop stop-color="#e2e" offset=".61"/>
      <stop stop-color="#f6a" offset=".73"/>
      <stop stop-color="#f98" offset=".85"/>
      <stop stop-color="#fa7" offset=".9"/>
      <stop stop-color="#ff6" offset="1"/>
    </linearGradient>
  </defs>
  <g transform="matrix(-1.24 0 0 -1.4 744 700)">
<rect x="2" y="100" rx="20" ry="20" width="597" height="400" stroke="none" opacity="0.15" fill="url(#a)" stroke-width="0"/>
<path opacity="1" d="m597.06 417.54c-4.026-1.205-8.058-2.357-12.092-3.475v-17.869c4.033 0.878 8.063 1.789 12.092 2.735v18.609z
m-26.184 34.17c-4.027-1.073-8.058-2.106-12.092-3.099v-16.861c4.033 0.784 8.064 1.595 12.092 2.439v17.521z
m-10.092-43.845c-4.028-0.953-8.059-1.868-12.091-2.752v-15.965c4.032 0.693 8.062 1.416 12.091 2.166v16.551z
m-18.136-4.045c-4.028-0.847-8.06-1.653-12.092-2.429v-15.173c4.032 0.611 8.062 1.245 12.092 1.912v15.69z
m-18.138-3.567c-4.028-0.742-8.06-1.451-12.092-2.126v-14.478c4.032 0.532 8.063 1.091 12.092 1.673v14.931z
m-18.138-3.115c-4.028-0.646-8.059-1.255-12.092-1.838v-13.877c4.032 0.461 8.063 0.941 12.092 1.447v14.268z
m-18.138-2.687c-4.029-0.549-8.059-1.073-12.09-1.562v-13.364c4.031 0.387 8.061 0.797 12.09 1.23v13.696z
m-18.136 23.384c-4.03-0.46-8.061-0.894-12.092-1.296v-12.937c4.031 0.318 8.062 0.657 12.092 1.021v13.212z
m-18.138-27.54c-4.03-0.374-8.06-0.722-12.092-1.04v-12.591c4.032 0.25 8.062 0.523 12.092 0.819v12.812z
m-18.138 19.209c-4.029-0.29-8.059-0.554-12.09-0.789v-12.325c4.03 0.185 8.06 0.391 12.09 0.62v12.494z
m-18.13-21.82c-4.031-0.208-8.061-0.389-12.092-0.542v-12.14c4.031 0.12 8.061 0.264 12.092 0.427v12.255z
m-18.138-0.752c-4.03-0.125-8.061-0.225-12.092-0.299v-12.031c4.03 0.058 8.062 0.135 12.092 0.235v12.095z
m7.317 39.157c-4.03-0.043-8.061-0.064-12.091-0.057v-12c4.03-8e-3 8.061 9e-3 12.091 0.045v12.012z
m-43.592-39.571c-4.031 0.036-8.061 0.095-12.092 0.184v-12.046c4.031-0.071 8.061-0.117 12.092-0.145v12.007z
m-18.137 0.337c-4.031 0.114-8.062 0.255-12.092 0.426v-12.17c4.03-0.132 8.061-0.243 12.092-0.335v12.079z
m-18.138 0.7c-4.03 0.199-8.061 0.422-12.091 0.671v-12.37c4.03-0.199 8.061-0.376 12.091-0.529v12.228z
m-18.138 49.654c-4.031 0.28-8.061 0.584-12.091 0.92v-12.651c4.03-0.262 8.061-0.502 12.091-0.724v12.455z
m-18.137-47.143c-4.031 0.361-8.062 0.754-12.091 1.173v-13.011c4.03-0.331 8.061-0.639 12.091-0.924v12.762z
m-18.137 1.825c-4.032 0.448-8.062 0.926-12.092 1.435v-13.456c4.03-0.399 8.061-0.775 12.092-1.129v13.15z
m-18.137 39.683c-4.031 0.542-8.063 1.106-12.092 1.705v-13.984c4.03-0.471 8.061-0.918 12.092-1.343v13.622z
m-18.138-34.837c-4.032 0.631-8.063 1.291-12.091 1.987v-14.604c4.029-0.549 8.059-1.068 12.091-1.564v14.181z
m-18.137 73.396c-4.033 0.728-8.063 1.49-12.092 2.283v-15.316c4.029-0.626 8.06-1.225 12.092-1.797v14.83z
m-18.138-66.842c-4.032 0.832-8.063 1.696-12.091 2.596v-16.128c4.029-0.71 8.06-1.39 12.091-2.044v15.576z
m-10.398 41.961c-4.033 0.939-8.064 1.914-12.091 2.93v-17.045c4.028-0.798 8.059-1.566 12.091-2.307v16.422z
m-25.876-33.501c-4.034 1.058-8.065 2.153-12.092 3.291v-18.076c4.028-0.897 8.059-1.759 12.092-2.591v17.376z
m-18.138 5.033c-4.035 1.181-8.066 2.411-12.091 3.686v-19.231c4.027-1.006 8.058-1.97 12.091-2.902v18.447z
m-18.137 5.636c-4.036 1.324-8.067 2.696-12.092 4.123v-20.523c4.027-1.122 8.058-2.203 12.092-3.246v19.646z
m-18.138 76.647c-4.035 1.487-8.067 3.022-12.091 4.617v-21.97c4.026-1.254 8.057-2.465 12.091-3.634v20.987z
m-18.103-63.3c-4.039 1.661-8.069 3.391-12.092 5.182v-23.591c4.025-1.414 8.056-2.771 12.092-4.08v22.489z
m-18.137 7.932c-4.04 1.876-8.073 3.822-12.092 5.85v-25.421c4.023-1.597 8.055-3.131 12.092-4.606v24.177z
m-18.138 8.966c-4.044 2.128-8.076 4.347-12.091 6.663v-27.502c4.019-1.826 8.053-3.569 12.091-5.245v26.084z
m-18.137 60.937c-4.048 2.452-8.085 5.01-12.092 7.699v-29.899c4.016-2.119 8.048-4.138 12.092-6.062v28.262z
m-18.138-38.84c-4.059 2.873-8.095 5.904-12.091 9.11v-32.725c4.007-2.528 8.041-4.913 12.091-7.172v30.787z
m580.4-79.567c-4.028-0.898-8.06-1.755-12.092-2.588v-17.871c4.032 0.594 8.062 1.209 12.092 1.85v18.609z
m-18.138-3.81c-4.028-0.798-8.06-1.566-12.092-2.307v-16.863c4.032 0.527 8.063 1.078 12.092 1.65v17.52z
m-18.138-3.395c-4.028-0.712-8.059-1.392-12.091-2.049v-15.966c4.031 0.468 8.062 0.956 12.091 1.465v16.55z
m-18.136-3.012c-4.03-0.629-8.06-1.231-12.092-1.809v-15.174c4.031 0.412 8.061 0.843 12.092 1.293v15.69z
m-18.138-2.656c-4.029-0.552-8.06-1.082-12.092-1.583v-14.48c4.031 0.359 8.062 0.738 12.092 1.132v14.931z
m-36.276-4.321c-4.029-0.41-8.059-0.799-12.09-1.163v-13.365c4.03 0.259 8.06 0.539 12.09 0.832v13.696z
m-18.136-1.695c-4.03-0.343-8.061-0.665-12.092-0.966v-12.937c4.031 0.214 8.062 0.447 12.092 0.691v13.212z
m-18.138-1.4c-4.03-0.28-8.06-0.538-12.092-0.775v-12.591c4.032 0.168 8.062 0.355 12.092 0.554v12.812z
m-18.138-1.114c-4.03-0.214-8.06-0.412-12.09-0.588v-12.326c4.03 0.124 8.06 0.265 12.09 0.42v12.494z
m-18.136-0.835c-4.031-0.156-8.061-0.292-12.092-0.404v-12.141c4.03 0.082 8.061 0.18 12.092 0.29v12.255z
m-18.138-0.56c-4.03-0.095-8.062-0.17-12.092-0.223v-12.033c4.03 0.04 8.062 0.091 12.092 0.16v12.096z
m-18.138-0.29c-4.03-0.033-8.061-0.047-12.092-0.042v-12.001c4.031-6e-3 8.062 7e-3 12.092 0.031v12.012z
m-18.137-0.019c-4.031 0.026-8.061 0.069-12.092 0.137v-12.047c4.031-0.047 8.061-0.078 12.092-0.097v12.007z
m-18.137 0.251c-4.031 0.086-8.062 0.19-12.092 0.317v-12.17c4.03-0.092 8.061-0.165 12.092-0.226v12.079z
m-18.138 0.521c-4.03 0.145-8.061 0.314-12.091 0.5v-12.371c4.03-0.132 8.061-0.252 12.091-0.356v12.227z
m-18.138 0.796c-4.03 0.209-8.061 0.435-12.091 0.685v-12.652c4.03-0.175 8.061-0.34 12.091-0.488v12.455z
m-18.137 1.074c-4.03 0.27-8.061 0.561-12.091 0.874v-13.013c4.03-0.221 8.061-0.429 12.091-0.623v12.762z
m-18.137 1.359c-4.031 0.334-8.061 0.692-12.092 1.069v-13.457c4.031-0.269 8.061-0.525 12.092-0.762v13.15z
m-18.137 1.653c-4.031 0.402-8.062 0.825-12.092 1.27v-13.987c4.03-0.317 8.061-0.618 12.092-0.905v13.622z
m-18.138 1.956c-4.031 0.471-8.062 0.964-12.091 1.48v-14.605c4.03-0.372 8.06-0.72 12.091-1.056v14.181z
m-18.137 2.274c-4.032 0.542-8.063 1.108-12.092 1.7v-15.318c4.03-0.422 8.061-0.824 12.092-1.213v14.831z
m-18.138 2.607c-4.031 0.618-8.062 1.262-12.091 1.933v-16.13c4.03-0.478 8.06-0.936 12.091-1.379v15.576z
m-18.137 2.961c-4.032 0.702-8.063 1.424-12.092 2.182v-17.047c4.03-0.539 8.061-1.056 12.092-1.557v16.422z
m-18.137 3.338c-4.032 0.789-8.064 1.603-12.092 2.452v-18.077c4.029-0.608 8.061-1.188 12.092-1.75v17.375z
m-18.138 3.749c-4.033 0.88-8.064 1.794-12.091 2.745v-19.232c4.029-0.679 8.059-1.331 12.091-1.96v18.447z
m-18.137 4.197c-4.034 0.985-8.065 2.009-12.092 3.071v-20.525c4.028-0.76 8.06-1.487 12.092-2.192v19.646z
m-18.138 4.695c-4.033 1.104-8.065 2.248-12.091 3.437v-21.971c4.028-0.849 8.059-1.665 12.091-2.453v20.987z
m-18.137 5.257c-4.036 1.238-8.067 2.521-12.092 3.859v-23.593c4.028-0.956 8.059-1.872 12.092-2.755v22.489z
m-36.275 12.584c-4.038 1.585-8.07 3.236-12.091 4.962v-27.505c4.025-1.234 8.056-2.411 12.091-3.542v26.085z
m-18.137 7.621c-4.042 1.821-8.076 3.727-12.092 5.734v-29.903c4.023-1.434 8.055-2.794 12.092-4.093v28.262z
m-18.138 8.838c-4.049 2.136-8.082 4.392-12.091 6.785v-32.728c4.017-1.714 8.051-3.32 12.091-4.844v30.787z
m580.4-64.955c-4.03-0.59-8.061-1.156-12.092-1.7v-17.87c4.031 0.309 8.061 0.627 12.092 0.961v18.609z
m-18.138-2.504c-4.03-0.524-8.061-1.03-12.092-1.516v-16.861c4.031 0.275 8.062 0.559 12.092 0.857v17.52z
m-36.274-4.211c-4.031-0.414-8.061-0.809-12.092-1.188v-15.173c4.03 0.215 8.061 0.438 12.092 0.672v15.689z
m-18.138-1.745c-4.03-0.361-8.061-0.712-12.092-1.04v-14.479c4.03 0.187 8.062 0.382 12.092 0.588v14.931z
m-18.138-1.524c-4.03-0.316-8.06-0.614-12.092-0.899v-13.877c4.031 0.161 8.062 0.33 12.092 0.508v14.268z
m-18.138-1.315c-4.03-0.27-8.06-0.525-12.09-0.764v-13.364c4.03 0.136 8.06 0.279 12.09 0.432v13.696z
m-18.136-1.114c-4.03-0.226-8.061-0.439-12.092-0.635v-12.936c4.03 0.111 8.062 0.232 12.092 0.359v13.212z
m-18.138-0.92c-4.03-0.183-8.06-0.352-12.092-0.509v-12.591c4.031 0.088 8.062 0.183 12.092 0.288v12.812z
m-18.138-0.732c-4.03-0.143-8.06-0.272-12.09-0.386v-12.326c4.03 0.065 8.06 0.138 12.09 0.218v12.494z
m-18.136-0.549c-4.031-0.101-8.062-0.19-12.092-0.265v-12.14c4.03 0.042 8.061 0.093 12.092 0.15v12.255z
m-36.276-0.558c-4.03-0.023-8.061-0.032-12.092-0.028v-12c4.031-3e-3 8.062 4e-3 12.092 0.015v12.013z
m-36.274 0.152c-4.031 0.056-8.062 0.126-12.092 0.209v-12.17c4.031-0.046 8.061-0.086 12.092-0.118v12.079z
m-18.138 0.343c-4.03 0.096-8.061 0.205-12.091 0.328v-12.37c4.03-0.069 8.061-0.131 12.091-0.186v12.228z
m-18.138 0.523c-4.03 0.137-8.061 0.287-12.091 0.45v-12.651c4.031-0.093 8.061-0.177 12.091-0.255v12.456z
m-18.137 0.706c-4.03 0.176-8.061 0.368-12.091 0.574v-13.012c4.03-0.116 8.061-0.224 12.091-0.324v12.762z
m-18.137 0.893c-4.031 0.218-8.061 0.455-12.092 0.702v-13.456c4.031-0.139 8.061-0.272 12.092-0.397v13.151z
m-18.137 1.086c-4.031 0.262-8.062 0.542-12.092 0.834v-13.985c4.03-0.165 8.061-0.323 12.092-0.472v13.623z
m-18.138 1.285c-4.031 0.308-8.061 0.635-12.091 0.972v-14.604c4.03-0.191 8.06-0.375 12.091-0.549v14.181z
m-18.137 1.494c-4.031 0.356-8.062 0.728-12.092 1.118v-15.317c4.03-0.22 8.061-0.43 12.092-0.632v14.831z
m-18.138 1.714c-4.031 0.407-8.061 0.83-12.091 1.27v-16.128c4.03-0.25 8.06-0.489 12.091-0.718v15.576z
m-18.137 1.945c-4.031 0.461-8.062 0.938-12.092 1.434v-17.045c4.031-0.281 8.061-0.551 12.092-0.811v16.422z
m-18.137 2.194c-4.032 0.517-8.062 1.054-12.092 1.611v-18.076c4.03-0.315 8.061-0.618 12.092-0.911v17.376z
m-36.275 5.221c-4.032 0.649-8.063 1.319-12.092 2.018v-20.523c4.03-0.394 8.061-0.774 12.092-1.14v19.645z
m-18.138 3.086c-4.031 0.727-8.062 1.478-12.091 2.258v-21.968c4.03-0.442 8.06-0.867 12.091-1.277v20.987z
m-18.137 3.455c-4.033 0.811-8.064 1.656-12.092 2.536v-23.592c4.03-0.496 8.061-0.975 12.092-1.434v22.49z
m-18.137 3.881c-4.033 0.916-8.065 1.87-12.092 2.863v-25.422c4.03-0.562 8.061-1.099 12.092-1.618v24.177z
m-18.138 4.388c-4.034 1.041-8.065 2.125-12.091 3.26v-27.502c4.029-0.643 8.059-1.255 12.091-1.843v26.085z
m-18.137 5.008c-4.036 1.194-8.068 2.448-12.092 3.768v-29.9c4.028-0.747 8.059-1.456 12.092-2.13v28.262z
m-18.138 5.808c-4.039 1.401-8.073 2.879-12.091 4.458v-32.725c4.026-0.895 8.058-1.731 12.091-2.521v30.788z
m562.26-51.538c-4.03-0.251-8.061-0.493-12.092-0.726v-16.861c4.03 0.022 8.062 0.043 12.092 0.066v17.521z
m-18.138-1.066c-4.03-0.225-8.06-0.44-12.091-0.646v-15.965c4.03 0.019 8.061 0.038 12.091 0.059v16.552z
m-18.136-0.947c-4.031-0.197-8.062-0.388-12.092-0.57v-15.173c4.03 0.017 8.061 0.034 12.092 0.052v15.691z
m-18.138-0.835c-4.03-0.173-8.062-0.341-12.092-0.499v-14.478c4.03 0.015 8.062 0.028 12.092 0.045v14.932z
m-18.138-0.729c-4.03-0.151-8.061-0.295-12.092-0.431v-13.878c4.031 0.013 8.062 0.026 12.092 0.039v14.27z
m-18.138-0.629c-4.03-0.128-8.06-0.252-12.09-0.367v-13.364c4.03 0.01 8.06 0.022 12.09 0.033v13.698z
m-36.274-0.973c-4.03-0.088-8.061-0.169-12.092-0.244v-12.591c4.031 6e-3 8.062 0.014 12.092 0.022v12.813z
m-18.138-0.35c-4.03-0.068-8.06-0.131-12.09-0.186v-12.326c4.03 4e-3 8.06 0.011 12.09 0.017v12.495z
m-18.136-0.262c-4.031-0.049-8.062-0.091-12.092-0.128v-12.14c4.03 2e-3 8.061 7e-3 12.092 0.011v12.257z
m-18.138-0.177c-4.03-0.029-8.062-0.053-12.092-0.071v-12.031c4.03 3e-3 8.062 4e-3 12.092 6e-3v12.096z
m-18.138-0.091c-4.03-0.011-8.061-0.015-12.092-0.014v-12c4.031 0 8.062 0 12.092 1e-3v12.013z
m-18.137-5e-3c-4.031 8e-3 -8.061 0.021-12.092 0.042v-12.047c4.031-2e-3 8.061-4e-3 12.092-4e-3v12.009z
m-18.137 0.078c-4.031 0.027-8.061 0.06-12.092 0.099v-12.169c4.031-4e-3 8.061-7e-3 12.092-9e-3v12.079z
m-18.138 0.164c-4.03 0.046-8.061 0.098-12.091 0.156v-12.37c4.03-5e-3 8.061-0.011 12.091-0.014v12.228z
m-18.138 0.25c-4.03 0.065-8.06 0.135-12.091 0.215v-12.651c4.031-8e-3 8.061-0.014 12.091-0.02v12.456z
m-18.137 0.338c-4.03 0.084-8.061 0.175-12.091 0.274v-13.012c4.03-9e-3 8.061-0.017 12.091-0.025v12.763z
m-18.137 0.427c-4.031 0.104-8.061 0.215-12.092 0.335v-13.456c4.031-0.011 8.061-0.02 12.092-0.03v13.151z
m-18.137 0.519c-4.031 0.126-8.061 0.259-12.092 0.398v-13.985c4.031-0.012 8.061-0.024 12.092-0.036v13.623z
m-18.138 0.615c-4.03 0.148-8.061 0.301-12.091 0.464v-14.604c4.03-0.015 8.061-0.028 12.091-0.042v14.182z
m-18.137 0.715c-4.031 0.17-8.062 0.346-12.092 0.533v-15.317c4.031-0.016 8.061-0.033 12.092-0.048v14.832z
m-18.138 0.819c-4.031 0.195-8.061 0.395-12.091 0.607v-16.129c4.03-0.019 8.061-0.037 12.091-0.055v15.577z
m-18.137 0.931c-4.031 0.22-8.061 0.447-12.092 0.685v-17.046c4.031-0.021 8.061-0.043 12.092-0.062v16.423z
m-18.137 1.049c-4.031 0.247-8.062 0.502-12.092 0.769v-18.076c4.031-0.024 8.061-0.048 12.092-0.07v17.377z
m-18.138 1.179c-4.031 0.277-8.061 0.562-12.091 0.861v-19.231c4.03-0.027 8.061-0.053 12.091-0.079v18.449z
m-18.137 1.318c-4.031 0.309-8.062 0.63-12.092 0.964v-20.523c4.031-0.03 8.061-0.058 12.092-0.088v19.647z
m-18.138 1.476c-4.031 0.346-8.061 0.705-12.091 1.079v-21.969c4.03-0.033 8.061-0.067 12.091-0.099v20.989z
m-18.137 1.653c-4.031 0.388-8.061 0.791-12.092 1.211v-23.592c4.031-0.038 8.061-0.075 12.092-0.11v22.491z
m-18.137 1.856c-4.031 0.439-8.062 0.892-12.092 1.367v-25.421c4.031-0.043 8.061-0.085 12.092-0.124v24.178z
m-18.138 2.099c-4.031 0.495-8.062 1.013-12.091 1.557v-27.502c4.03-0.05 8.061-0.097 12.091-0.142v26.087z
m-18.137 2.395c-4.032 0.57-8.063 1.167-12.092 1.8v-29.9c4.031-0.059 8.061-0.112 12.092-0.164v28.264z
m-18.138 2.778c-4.032 0.669-8.063 1.375-12.091 2.13v-32.726c4.03-0.068 8.061-0.133 12.091-0.194v30.79z
m580.4-35.728c-4.031 0.026-8.062 0.051-12.092 0.073v-17.868c4.031-0.262 8.061-0.531 12.092-0.814v18.609z
m-18.138 0.109c-4.03 0.023-8.062 0.044-12.092 0.066v-16.861c4.031-0.232 8.062-0.473 12.092-0.725v17.52z
m-18.138 0.096c-4.03 0.021-8.061 0.041-12.091 0.059v-15.964c4.031-0.207 8.061-0.42 12.091-0.644v16.549z
m-18.136 0.087c-4.031 0.017-8.062 0.035-12.092 0.051v-15.172c4.03-0.182 8.061-0.371 12.092-0.569v15.69z
m-18.138 0.075c-4.03 0.017-8.062 0.032-12.092 0.046v-14.479c4.03-0.157 8.062-0.324 12.092-0.497v14.93z
m-18.138 0.067c-4.03 0.013-8.061 0.026-12.092 0.039v-13.877c4.031-0.136 8.062-0.279 12.092-0.43v14.268z
m-18.138 0.057c-4.03 0.011-8.06 0.023-12.09 0.033v-13.363c4.03-0.115 8.06-0.236 12.09-0.366v13.696z
m-18.136 0.048c-4.03 0.011-8.062 0.019-12.092 0.028v-12.936c4.03-0.094 8.062-0.196 12.092-0.303v13.211z
m-18.138 0.04c-4.03 9e-3 -8.061 0.016-12.092 0.022v-12.591c4.031-0.074 8.062-0.155 12.092-0.243v12.812z
m-18.138 0.032c-4.03 6e-3 -8.06 0.012-12.09 0.017v-12.326c4.03-0.054 8.06-0.116 12.09-0.184v12.493z
m-18.136 0.024c-4.031 5e-3 -8.062 8e-3 -12.092 0.011v-12.138c4.03-0.037 8.061-0.079 12.092-0.127v12.254z
m-18.138 0.016c-4.03 3e-3 -8.062 5e-3 -12.092 6e-3v-12.03c4.03-0.018 8.062-0.04 12.092-0.071v12.095z
m-18.138 8e-3c-4.03 1e-3 -8.061 1e-3 -12.092 1e-3v-11.999c4.031 2e-3 8.062-4e-3 12.092-0.014v12.012z
m-18.137 1e-3c-4.031 0-8.061-3e-3 -12.092-4e-3v-12.046c4.031 0.021 8.061 0.035 12.092 0.043v12.007z
m-18.137-7e-3c-4.031-3e-3 -8.061-7e-3 -12.092-0.01v-12.169c4.031 0.04 8.061 0.074 12.092 0.1v12.079z
m-18.138-0.016c-4.03-3e-3 -8.061-7e-3 -12.091-0.014v-12.369c4.03 0.058 8.061 0.11 12.091 0.157v12.226z
m-18.138-0.022c-4.03-5e-3 -8.06-0.012-12.091-0.02v-12.65c4.031 0.078 8.061 0.149 12.091 0.216v12.454z
m-18.137-0.031c-4.03-8e-3 -8.061-0.016-12.091-0.025v-13.01c4.03 0.097 8.061 0.189 12.091 0.274v12.761z
m-18.137-0.038c-4.031-0.011-8.061-0.021-12.092-0.031v-13.455c4.031 0.118 8.061 0.231 12.092 0.335v13.151z
m-18.137-0.048c-4.031-0.011-8.061-0.023-12.092-0.036v-13.985c4.031 0.14 8.061 0.273 12.092 0.4v13.621z
m-18.138-0.056c-4.03-0.014-8.061-0.028-12.091-0.042v-14.603c4.03 0.163 8.061 0.316 12.091 0.464v14.181z
m-18.137-0.065c-4.031-0.015-8.061-0.032-12.092-0.048v-15.317c4.03 0.187 8.061 0.365 12.092 0.536v14.829z
m-18.138-0.074c-4.03-0.018-8.061-0.036-12.091-0.055v-16.127c4.03 0.21 8.06 0.412 12.091 0.607v15.575z
m-18.137-0.085c-4.031-0.02-8.061-0.041-12.092-0.062v-17.044c4.031 0.237 8.061 0.466 12.092 0.686v16.42z
m-18.137-0.095c-4.031-0.023-8.061-0.046-12.092-0.07v-18.075c4.03 0.267 8.061 0.523 12.092 0.77v17.375z
m-18.138-0.107c-4.03-0.026-8.061-0.051-12.091-0.078v-19.23c4.03 0.299 8.06 0.586 12.091 0.862v18.446z
m-18.137-0.12c-4.031-0.028-8.061-0.057-12.092-0.088v-20.522c4.03 0.334 8.061 0.656 12.092 0.966v19.644z
m-18.138-0.134c-4.03-0.031-8.061-0.064-12.091-0.098v-21.968c4.03 0.373 8.06 0.733 12.091 1.08v20.986z
m-18.137-0.15c-4.031-0.035-8.061-0.072-12.092-0.11v-23.591c4.031 0.42 8.061 0.824 12.092 1.213v22.488z
m-17.903-0.17c-4.031-0.04-8.061-0.081-12.092-0.124v-25.421c4.03 0.476 8.061 0.932 12.092 1.369v24.176z
m-18.138-0.19c-4.03-0.046-8.061-0.093-12.091-0.142v-27.501c4.029 0.544 8.06 1.063 12.091 1.56v26.083z
m-18.137-0.218c-4.031-0.052-8.061-0.107-12.092-0.164v-29.899c4.029 0.632 8.06 1.231 12.092 1.802v28.261z
m-18.138-0.253c-4.03-0.06-8.061-0.124-12.091-0.193v-32.724c4.027 0.756 8.059 1.463 12.091 2.132v30.785z
m580.4-21.112c-4.031 0.333-8.061 0.651-12.092 0.961v-17.871c4.031-0.545 8.062-1.111 12.092-1.7v18.61z
m-18.138 1.414c-4.03 0.298-8.061 0.583-12.092 0.857v-16.861c4.031-0.487 8.063-0.99 12.092-1.517v17.521z
m-18.138 1.261c-4.03 0.264-8.06 0.517-12.091 0.761v-15.965c4.031-0.431 8.061-0.88 12.091-1.346v16.55z
m-18.136 1.119c-4.031 0.234-8.061 0.458-12.092 0.671v-15.172c4.031-0.379 8.061-0.775 12.092-1.189v15.69z
m-18.138 0.987c-4.03 0.205-8.062 0.4-12.092 0.588v-14.48c4.031-0.33 8.062-0.676 12.092-1.04v14.932z
m-18.138 0.861c-4.03 0.179-8.061 0.347-12.092 0.508v-13.877c4.032-0.284 8.062-0.583 12.092-0.899v14.268z
m-18.138 0.743c-4.03 0.152-8.06 0.296-12.09 0.432v-13.364c4.03-0.24 8.06-0.494 12.09-0.764v13.696z
m-18.136 0.629c-4.03 0.128-8.062 0.248-12.092 0.36v-12.937c4.031-0.196 8.062-0.409 12.092-0.635v13.212z
m-18.138 0.521c-4.03 0.103-8.061 0.2-12.092 0.287v-12.591c4.032-0.155 8.062-0.325 12.092-0.509v12.813z
m-18.138 0.414c-4.03 0.08-8.06 0.153-12.09 0.218v-12.327c4.03-0.114 8.06-0.244 12.09-0.385v12.494z
m-36.274 0.517c-4.03 0.036-8.062 0.063-12.092 0.083v-12.031c4.03-0.036 8.062-0.085 12.092-0.146v12.094z
m-18.138 0.108c-4.03 0.013-8.061 0.018-12.092 0.016v-12.001c4.031 4e-3 8.062-5e-3 12.092-0.028v12.013z
m-18.137 8e-3c-4.031-0.011-8.061-0.027-12.092-0.052v-12.046c4.031 0.044 8.061 0.073 12.092 0.09v12.008z
m-18.137-0.094c-4.031-0.031-8.061-0.071-12.092-0.117v-12.17c4.03 0.083 8.061 0.152 12.092 0.209v12.078z
m-18.138-0.193c-4.03-0.055-8.061-0.117-12.091-0.186v-12.37c4.03 0.122 8.061 0.231 12.091 0.328v12.228z
m-18.138-0.296c-4.03-0.077-8.06-0.161-12.091-0.254v-12.651c4.03 0.163 8.061 0.313 12.091 0.45v12.455z
m-18.137-0.399c-4.03-0.1-8.061-0.208-12.091-0.325v-13.011c4.03 0.205 8.061 0.397 12.091 0.574v12.762z
m-36.274-1.119c-4.031-0.149-8.062-0.306-12.092-0.472v-13.984c4.03 0.293 8.061 0.57 12.092 0.834v13.622z
m-18.138-0.726c-4.031-0.174-8.061-0.357-12.091-0.549v-14.605c4.03 0.341 8.06 0.663 12.091 0.973v14.181z
m-18.137-0.844c-4.031-0.202-8.062-0.412-12.092-0.632v-15.316c4.03 0.388 8.061 0.76 12.092 1.117v14.831z
m-18.138-0.969c-4-0.23-8.03-0.47-12.06-0.71v-16.128c4.03 0.441 8.06 0.865 12.091 1.271v15.575z
m-36.274-2.34c-4.031-0.292-8.062-0.595-12.092-0.91v-18.076c4.03 0.557 8.061 1.095 12.092 1.611v17.375z
m-18.138-1.391c-4.031-0.328-8.061-0.667-12.091-1.02v-19.231c4.029 0.625 8.059 1.225 12.091 1.803v18.448z
m-18.137-1.559c-4.031-0.366-8.062-0.746-12.092-1.141v-20.523c4.029 0.698 8.06 1.37 12.092 2.017v19.647z
m-18.138-1.744c-4.031-0.41-8.061-0.835-12.091-1.277v-21.969c4.029 0.781 8.059 1.533 12.091 2.259v20.987z
m-18.137-1.953c-4.031-0.459-8.062-0.937-12.092-1.433v-23.592c4.029 0.878 8.059 1.723 12.092 2.536v22.489z
m-18.103-2.2c-4.031-0.517-8.062-1.055-12.092-1.618v-25.422c4.027 0.994 8.059 1.948 12.092 2.864v24.176z
m-18.138-2.48c-4.032-0.59-8.062-1.2-12.091-1.84v-27.503c4.026 1.137 8.057 2.221 12.091 3.261v26.085z
m-18.137-2.831c-4.032-0.675-8.064-1.383-12.092-2.13v-29.899c4.024 1.32 8.056 2.572 12.092 3.767v28.262z
m-18.138-3.28c-4.033-0.791-8.065-1.627-12.091-2.52v-32.726c4.019 1.578 8.052 3.057 12.091 4.458v30.788z
m580.4-6.501c-4.03 0.64-8.061 1.254-12.092 1.848v-17.87c4.032-0.831 8.063-1.69 12.092-2.587v18.609z
m-18.138 2.721c-4.029 0.572-8.061 1.119-12.092 1.648v-16.862c4.032-0.739 8.064-1.506 12.092-2.306v17.52z
m-18.138 2.425c-4.03 0.508-8.06 0.994-12.091 1.464v-15.965c4.032-0.657 8.062-1.339 12.091-2.05v16.551z
m-18.136 2.151c-4.031 0.451-8.061 0.88-12.092 1.293v-15.173c4.032-0.578 8.062-1.179 12.092-1.809v15.689z
m-18.138 1.898c-4.03 0.394-8.061 0.771-12.092 1.131v-14.479c4.031-0.503 8.063-1.031 12.092-1.583v14.931z
m-18.138 1.657c-4.03 0.343-8.06 0.668-12.092 0.978v-13.877c4.032-0.434 8.063-0.889 12.092-1.369v14.268z
m-18.138 1.429c-4.03 0.293-8.06 0.57-12.09 0.831v-13.364c4.031-0.366 8.061-0.753 12.09-1.163v13.696z
m-18.136 1.211c-4.03 0.245-8.061 0.475-12.092 0.689v-12.936c4.031-0.299 8.062-0.622 12.092-0.965v13.212z
m-18.138 1c-4.03 0.199-8.06 0.384-12.092 0.553v-12.591c4.032-0.237 8.062-0.495 12.092-0.774v12.812z
m-18.138 0.796c-4.03 0.154-8.06 0.295-12.09 0.42v-12.327c4.03-0.174 8.06-0.371 12.09-0.586v12.493z
m-18.136 0.596c-4.031 0.111-8.062 0.207-12.092 0.288v-12.139c4.031-0.114 8.061-0.249 12.092-0.404v12.255z
m-18.138 0.401c-4.03 0.066-8.062 0.119-12.092 0.158v-12.031c4.03-0.055 8.062-0.129 12.092-0.223v12.096z
m-18.138 0.206c-4.03 0.023-8.061 0.034-12.092 0.03v-12c4.031 6e-3 8.062-0.01 12.092-0.043v12.013z
m-18.137 0.013c-4.031-0.018-8.061-0.05-12.092-0.097v-12.047c4.031 0.066 8.061 0.111 12.092 0.138v12.006z
m-18.137-0.178c-4.031-0.062-8.062-0.137-12.092-0.228v-12.169c4.03 0.126 8.061 0.233 12.092 0.318v12.079z
m-18.138-0.373c-4.03-0.105-8.061-0.224-12.091-0.357v-12.371c4.03 0.187 8.061 0.354 12.091 0.5v12.228z
m-18.138-0.569c-4.03-0.148-8.061-0.311-12.091-0.489v-12.65c4.03 0.249 8.061 0.476 12.091 0.684v12.455z
m-18.137-0.766c-4.03-0.194-8.061-0.402-12.091-0.625v-13.012c4.03 0.314 8.061 0.605 12.091 0.874v12.763z
m-18.137-0.972c-4.031-0.238-8.061-0.493-12.092-0.763v-13.456c4.03 0.378 8.061 0.736 12.092 1.07v13.149z
m-18.137-1.18c-4.031-0.287-8.062-0.588-12.092-0.907v-13.985c4.03 0.446 8.061 0.868 12.092 1.269v13.623z
m-18.138-1.397c-4.031-0.336-8.061-0.688-12.091-1.057v-14.604c4.029 0.518 8.06 1.01 12.091 1.479v14.182z
m-18.137-1.624c-4.031-0.388-8.062-0.792-12.092-1.214v-15.317c4.029 0.591 8.06 1.157 12.092 1.7v14.831z
m-18.138-1.862c-3.98-0.45-8.01-0.91-12.04-1.39v-16.128c4.029 0.67 8.06 1.315 12.091 1.932v15.577z
m-18.137-2.115c-4.031-0.5-8.062-1.018-12.092-1.558v-17.046c4.029 0.756 8.06 1.482 12.092 2.182v16.422z
m-18.137-2.384c-4.032-0.563-8.063-1.146-12.092-1.751v-18.077c4.028 0.849 8.059 1.664 12.092 2.452v17.376z
m-18.138-2.678c-4.032-0.629-8.062-1.282-12.091-1.961v-19.231c4.027 0.951 8.058 1.865 12.091 2.746v18.446z
m-36.275-6.352c-4.032-0.788-8.063-1.606-12.091-2.455v-21.969c4.026 1.189 8.058 2.333 12.091 3.438v20.986z
m-18.137-3.755c-4.033-0.883-8.064-1.8-12.092-2.756v-23.592c4.026 1.336 8.056 2.622 12.092 3.859v22.489z
m-18.073-4.24c-4.034-0.997-8.065-2.032-12.092-3.113v-25.421c4.023 1.512 8.056 2.96 12.092 4.357v24.177z
m-18.138-4.77c-4.035-1.131-8.066-2.309-12.091-3.544v-27.502c4.021 1.727 8.053 3.377 12.091 4.962v26.084z
m-18.137-5.443c-4.037-1.299-8.069-2.66-12.092-4.096v-29.899c4.016 2.006 8.051 3.91 12.092 5.733v28.262z
m-18.138-6.313c-4.04-1.524-8.074-3.132-12.091-4.845v-32.726c4.007 2.395 8.042 4.648 12.091 6.784v30.787z
m580.4 8.114c-4.028 0.947-8.06 1.855-12.092 2.735v-17.869c4.034-1.117 8.065-2.273 12.092-3.475v18.609z
m-18.138 4.027c-4.028 0.845-8.06 1.657-12.092 2.439v-16.861c4.033-0.994 8.066-2.024 12.092-3.099v17.521z
m-18.138-24.549c-4.029 0.751-8.059 1.473-12.091 2.167v-15.965c4.033-0.883 8.063-1.799 12.091-2.752v16.55z
m-18.136 31.322c-4.03 0.666-8.06 1.302-12.092 1.913v-15.172c4.032-0.778 8.063-1.585 12.092-2.43v15.689z
m-18.138 2.808c-4.029 0.584-8.06 1.143-12.092 1.674v-14.479c4.032-0.676 8.064-1.385 12.092-2.126v14.931z
m-18.138 2.453c-4.029 0.508-8.06 0.988-12.092 1.446v-13.877c4.033-0.582 8.063-1.192 12.092-1.837v14.268z
m-12.038-51.201c-4.029 0.433-8.059 0.844-12.091 1.229v-13.364c4.032-0.491 8.062-1.012 12.091-1.562v13.697z
m-24.236 55.107c-4.03 0.364-8.061 0.705-12.092 1.022v-12.937c4.031-0.402 8.062-0.836 12.092-1.297v13.212z
m-18.138 1.481c-4.03 0.296-8.06 0.568-12.092 0.818v-12.591c4.032-0.318 8.063-0.664 12.092-1.039v12.812z
m-18.12-27.14c-4.03 0.229-8.06 0.438-12.09 0.621v-12.326c4.031-0.233 8.061-0.499 12.09-0.788v12.493z
m-18.136 29.196c-4.031 0.164-8.061 0.307-12.092 0.427v-12.14c4.031-0.153 8.061-0.334 12.092-0.542v12.255z
m-18.138 0.593c-4.03 0.099-8.062 0.177-12.092 0.235v-12.032c4.031-0.073 8.062-0.173 12.092-0.299v12.096z
m-18.138 0.305c-4.03 0.036-8.061 0.052-12.092 0.046v-12.001c4.031 8e-3 8.062-0.013 12.092-0.057v12.012z
m-18.137 0.02c-4.031-0.027-8.061-0.074-12.092-0.144v-12.046c4.031 0.089 8.061 0.148 12.092 0.183v12.007z
m-18.137-21.636c-4.031-0.09-8.062-0.203-12.092-0.336v-12.169c4.03 0.169 8.061 0.311 12.092 0.425v12.08z
m-18.138 20.82c-4.03-0.154-8.061-0.331-12.091-0.528v-12.371c4.03 0.25 8.061 0.475 12.091 0.671v12.228z
m-18.138-0.841c-4.03-0.221-8.061-0.461-12.091-0.724v-12.65c4.03 0.333 8.06 0.64 12.091 0.919v12.455z
m-18.137-42.04c-4.03-0.285-8.061-0.593-12.091-0.924v-13.012c4.029 0.421 8.06 0.811 12.091 1.174v12.762z
m-18.137 39.468c-4.031-0.353-8.062-0.731-12.092-1.13v-13.455c4.03 0.508 8.06 0.986 12.092 1.434v13.151z
m-18.137-1.747c-4.031-0.425-8.062-0.87-12.092-1.342v-13.985c4.029 0.598 8.06 1.165 12.092 1.705v13.622z
m-18.138-2.069c-4.031-0.496-8.062-1.016-12.091-1.563v-14.605c4.028 0.696 8.059 1.357 12.091 1.988v14.18z
m-18.137-36.695c-4.032-0.573-8.063-1.171-12.092-1.797v-15.316c4.028 0.794 8.06 1.553 12.092 2.282v14.831z
m-18.138 31.536c-4.031-0.653-8.062-1.335-12.091-2.043v-16.128c4.028 0.9 8.059 1.766 12.091 2.595v15.576z
m-18.137-3.13c-4.032-0.739-8.063-1.507-12.092-2.306v-17.045c4.028 1.013 8.059 1.99 12.092 2.93v16.421z
m-18.137-3.529c-4.033-0.831-8.064-1.694-12.092-2.592v-18.075c4.027 1.138 8.058 2.235 12.092 3.291v17.376z
m-18.138-3.963c-4.033-0.932-8.064-1.896-12.091-2.902v-19.231c4.025 1.276 8.056 2.503 12.091 3.687v18.446z
m-18.137-4.436c-4.034-1.042-8.065-2.124-12.092-3.246v-20.524c4.025 1.425 8.056 2.799 12.092 4.124v19.646z
m-18.138-43.555c-4.034-1.167-8.065-2.378-12.091-3.634v-21.97c4.024 1.595 8.054 3.134 12.091 4.617v20.987z
m-18.137 33.034c-4.036-1.309-8.067-2.668-12.092-4.08v-23.592c4.023 1.791 8.053 3.519 12.092 5.183v22.489z
m-18.093-6.24c-4.037-1.475-8.069-3.009-12.092-4.605v-25.421c4.02 2.026 8.052 3.973 12.092 5.849v24.177z
m-7.241-68.959c-4.04-1.675-8.071-3.422-12.092-5.245v-27.502c4.015 2.314 8.048 4.532 12.092 6.662v26.085z
m-29.034 53.845c-4.043-1.926-8.077-3.942-12.092-6.062v-29.9c4.009 2.688 8.043 5.25 12.092 7.7v28.262z
m-18.138-9.343c-4.049-2.261-8.085-4.643-12.091-7.172v-32.726c3.997 3.206 8.034 6.234 12.091 9.111v30.787z
" fill="url(#a)"/>
  </g>
</svg>
